<?xml version="1.0" encoding="UTF-8" standalone="no"?>
<!DOCTYPE svg PUBLIC "-//W3C//DTD SVG 1.1//EN"
 "http://www.w3.org/Graphics/SVG/1.1/DTD/svg11.dtd">
<!-- Generated by graphviz version 2.40.1 (20161225.0304)
 -->
<!-- Title: %3 Pages: 1 -->
<svg width="794pt" height="1001pt"
 viewBox="0.00 0.00 794.44 1001.00" xmlns="http://www.w3.org/2000/svg" xmlns:xlink="http://www.w3.org/1999/xlink">
<g id="graph0" class="graph" transform="scale(1 1) rotate(0) translate(4 997)">
<title>%3</title>
<polygon fill="#ffffff" stroke="transparent" points="-4,4 -4,-997 790.4366,-997 790.4366,4 -4,4"/>
<!-- 1 -->
<g id="node1" class="node">
<title>1</title>
<ellipse fill="none" stroke="#000000" cx="151.4366" cy="-975" rx="145.6742" ry="18"/>
<text text-anchor="middle" x="151.4366" y="-971.3" font-family="Times,serif" font-size="14.00" fill="#000000">id:1 rank:0 shape: (1, 32, 32)</text>
</g>
<!-- 3 -->
<g id="node3" class="node">
<title>3</title>
<ellipse fill="none" stroke="#000000" cx="151.4366" cy="-888" rx="151.3732" ry="18"/>
<text text-anchor="middle" x="151.4366" y="-884.3" font-family="Times,serif" font-size="14.00" fill="#000000">id:3 rank:0 shape: (64, 16, 16)</text>
</g>
<!-- 1&#45;&gt;3 -->
<g id="edge1" class="edge">
<title>1&#45;&gt;3</title>
<path fill="none" stroke="#000000" d="M151.4366,-956.9735C151.4366,-945.1918 151.4366,-929.5607 151.4366,-916.1581"/>
<polygon fill="#000000" stroke="#000000" points="154.9367,-916.0033 151.4366,-906.0034 147.9367,-916.0034 154.9367,-916.0033"/>
<text text-anchor="middle" x="424.4366" y="-927.8" font-family="Times,serif" font-size="14.00" fill="#000000">Conv2d(1, 64, kernel_size=(3, 3), stride=(2, 2), padding=(1, 1), bias=False)</text>
</g>
<!-- 2 -->
<g id="node2" class="node">
<title>2</title>
<ellipse fill="none" stroke="#000000" cx="151.4366" cy="-18" rx="118.8789" ry="18"/>
<text text-anchor="middle" x="151.4366" y="-14.3" font-family="Times,serif" font-size="14.00" fill="#000000">id:2 rank:1 shape: (10,)</text>
</g>
<!-- 4 -->
<g id="node4" class="node">
<title>4</title>
<ellipse fill="none" stroke="#000000" cx="151.4366" cy="-801" rx="151.3732" ry="18"/>
<text text-anchor="middle" x="151.4366" y="-797.3" font-family="Times,serif" font-size="14.00" fill="#000000">id:4 rank:0 shape: (64, 16, 16)</text>
</g>
<!-- 3&#45;&gt;4 -->
<g id="edge2" class="edge">
<title>3&#45;&gt;4</title>
<path fill="none" stroke="#000000" d="M151.4366,-869.9735C151.4366,-858.1918 151.4366,-842.5607 151.4366,-829.1581"/>
<polygon fill="#000000" stroke="#000000" points="154.9367,-829.0033 151.4366,-819.0034 147.9367,-829.0034 154.9367,-829.0033"/>
<text text-anchor="middle" x="207.9366" y="-840.8" font-family="Times,serif" font-size="14.00" fill="#000000">Dropout(p=0.2)</text>
</g>
<!-- 5 -->
<g id="node5" class="node">
<title>5</title>
<ellipse fill="none" stroke="#000000" cx="151.4366" cy="-714" rx="151.3732" ry="18"/>
<text text-anchor="middle" x="151.4366" y="-710.3" font-family="Times,serif" font-size="14.00" fill="#000000">id:5 rank:0 shape: (64, 16, 16)</text>
</g>
<!-- 4&#45;&gt;5 -->
<g id="edge3" class="edge">
<title>4&#45;&gt;5</title>
<path fill="none" stroke="#000000" d="M151.4366,-782.9735C151.4366,-771.1918 151.4366,-755.5607 151.4366,-742.1581"/>
<polygon fill="#000000" stroke="#000000" points="154.9367,-742.0033 151.4366,-732.0034 147.9367,-742.0034 154.9367,-742.0033"/>
<text text-anchor="middle" x="468.9366" y="-753.8" font-family="Times,serif" font-size="14.00" fill="#000000">BatchNorm2d(64, eps=1e&#45;05, momentum=0.1, affine=True, track_running_stats=True)</text>
</g>
<!-- 6 -->
<g id="node6" class="node">
<title>6</title>
<ellipse fill="none" stroke="#000000" cx="151.4366" cy="-627" rx="151.3732" ry="18"/>
<text text-anchor="middle" x="151.4366" y="-623.3" font-family="Times,serif" font-size="14.00" fill="#000000">id:6 rank:0 shape: (64, 16, 16)</text>
</g>
<!-- 5&#45;&gt;6 -->
<g id="edge4" class="edge">
<title>5&#45;&gt;6</title>
<path fill="none" stroke="#000000" d="M151.4366,-695.9735C151.4366,-684.1918 151.4366,-668.5607 151.4366,-655.1581"/>
<polygon fill="#000000" stroke="#000000" points="154.9367,-655.0033 151.4366,-645.0034 147.9367,-655.0034 154.9367,-655.0033"/>
<text text-anchor="middle" x="176.9366" y="-666.8" font-family="Times,serif" font-size="14.00" fill="#000000">ReLU()</text>
</g>
<!-- 7 -->
<g id="node7" class="node">
<title>7</title>
<ellipse fill="none" stroke="#000000" cx="151.4366" cy="-540" rx="151.3732" ry="18"/>
<text text-anchor="middle" x="151.4366" y="-536.3" font-family="Times,serif" font-size="14.00" fill="#000000">id:7 rank:1 shape: (64, 16, 16)</text>
</g>
<!-- 6&#45;&gt;7 -->
<g id="edge5" class="edge">
<title>6&#45;&gt;7</title>
<path fill="none" stroke="#000000" d="M151.4366,-608.9735C151.4366,-597.1918 151.4366,-581.5607 151.4366,-568.1581"/>
<polygon fill="#000000" stroke="#000000" points="154.9367,-568.0033 151.4366,-558.0034 147.9367,-568.0034 154.9367,-568.0033"/>
<text text-anchor="middle" x="158.4366" y="-579.8" font-family="Times,serif" font-size="14.00" fill="#000000">id</text>
</g>
<!-- 8 -->
<g id="node8" class="node">
<title>8</title>
<ellipse fill="none" stroke="#000000" cx="151.4366" cy="-453" rx="139.9756" ry="18"/>
<text text-anchor="middle" x="151.4366" y="-449.3" font-family="Times,serif" font-size="14.00" fill="#000000">id:8 rank:1 shape: (64, 1, 1)</text>
</g>
<!-- 7&#45;&gt;8 -->
<g id="edge6" class="edge">
<title>7&#45;&gt;8</title>
<path fill="none" stroke="#000000" d="M151.4366,-521.9735C151.4366,-510.1918 151.4366,-494.5607 151.4366,-481.1581"/>
<polygon fill="#000000" stroke="#000000" points="154.9367,-481.0033 151.4366,-471.0034 147.9367,-481.0034 154.9367,-481.0033"/>
<text text-anchor="middle" x="292.4366" y="-492.8" font-family="Times,serif" font-size="14.00" fill="#000000">AdaptiveAvgPool2d(output_size=(1, 1))</text>
</g>
<!-- 9 -->
<g id="node9" class="node">
<title>9</title>
<ellipse fill="none" stroke="#000000" cx="151.4366" cy="-366" rx="118.8789" ry="18"/>
<text text-anchor="middle" x="151.4366" y="-362.3" font-family="Times,serif" font-size="14.00" fill="#000000">id:9 rank:1 shape: (64,)</text>
</g>
<!-- 8&#45;&gt;9 -->
<g id="edge7" class="edge">
<title>8&#45;&gt;9</title>
<path fill="none" stroke="#000000" d="M151.4366,-434.9735C151.4366,-423.1918 151.4366,-407.5607 151.4366,-394.1581"/>
<polygon fill="#000000" stroke="#000000" points="154.9367,-394.0033 151.4366,-384.0034 147.9367,-394.0034 154.9367,-394.0033"/>
<text text-anchor="middle" x="182.9366" y="-405.8" font-family="Times,serif" font-size="14.00" fill="#000000">Flatten()</text>
</g>
<!-- 10 -->
<g id="node10" class="node">
<title>10</title>
<ellipse fill="none" stroke="#000000" cx="151.4366" cy="-279" rx="130.777" ry="18"/>
<text text-anchor="middle" x="151.4366" y="-275.3" font-family="Times,serif" font-size="14.00" fill="#000000">id:10 rank:1 shape: (640,)</text>
</g>
<!-- 9&#45;&gt;10 -->
<g id="edge8" class="edge">
<title>9&#45;&gt;10</title>
<path fill="none" stroke="#000000" d="M151.4366,-347.9735C151.4366,-336.1918 151.4366,-320.5607 151.4366,-307.1581"/>
<polygon fill="#000000" stroke="#000000" points="154.9367,-307.0033 151.4366,-297.0034 147.9367,-307.0034 154.9367,-307.0033"/>
<text text-anchor="middle" x="346.4366" y="-318.8" font-family="Times,serif" font-size="14.00" fill="#000000">Linear(in_features=64, out_features=640, bias=True)</text>
</g>
<!-- 11 -->
<g id="node11" class="node">
<title>11</title>
<ellipse fill="none" stroke="#000000" cx="151.4366" cy="-192" rx="130.777" ry="18"/>
<text text-anchor="middle" x="151.4366" y="-188.3" font-family="Times,serif" font-size="14.00" fill="#000000">id:11 rank:1 shape: (640,)</text>
</g>
<!-- 10&#45;&gt;11 -->
<g id="edge9" class="edge">
<title>10&#45;&gt;11</title>
<path fill="none" stroke="#000000" d="M151.4366,-260.9735C151.4366,-249.1918 151.4366,-233.5607 151.4366,-220.1581"/>
<polygon fill="#000000" stroke="#000000" points="154.9367,-220.0033 151.4366,-210.0034 147.9367,-220.0034 154.9367,-220.0033"/>
<text text-anchor="middle" x="207.9366" y="-231.8" font-family="Times,serif" font-size="14.00" fill="#000000">Dropout(p=0.2)</text>
</g>
<!-- 12 -->
<g id="node12" class="node">
<title>12</title>
<ellipse fill="none" stroke="#000000" cx="151.4366" cy="-105" rx="124.5782" ry="18"/>
<text text-anchor="middle" x="151.4366" y="-101.3" font-family="Times,serif" font-size="14.00" fill="#000000">id:12 rank:1 shape: (10,)</text>
</g>
<!-- 11&#45;&gt;12 -->
<g id="edge10" class="edge">
<title>11&#45;&gt;12</title>
<path fill="none" stroke="#000000" d="M151.4366,-173.9735C151.4366,-162.1918 151.4366,-146.5607 151.4366,-133.1581"/>
<polygon fill="#000000" stroke="#000000" points="154.9367,-133.0033 151.4366,-123.0034 147.9367,-133.0034 154.9367,-133.0033"/>
<text text-anchor="middle" x="346.4366" y="-144.8" font-family="Times,serif" font-size="14.00" fill="#000000">Linear(in_features=640, out_features=10, bias=True)</text>
</g>
<!-- 12&#45;&gt;2 -->
<g id="edge11" class="edge">
<title>12&#45;&gt;2</title>
<path fill="none" stroke="#000000" d="M151.4366,-86.9735C151.4366,-75.1918 151.4366,-59.5607 151.4366,-46.1581"/>
<polygon fill="#000000" stroke="#000000" points="154.9367,-46.0033 151.4366,-36.0034 147.9367,-46.0034 154.9367,-46.0033"/>
<text text-anchor="middle" x="207.9366" y="-57.8" font-family="Times,serif" font-size="14.00" fill="#000000">Dropout(p=0.2)</text>
</g>
</g>
</svg>
