<?xml version="1.0" encoding="UTF-8" standalone="no"?>
<!DOCTYPE svg PUBLIC "-//W3C//DTD SVG 1.1//EN"
 "http://www.w3.org/Graphics/SVG/1.1/DTD/svg11.dtd">
<!-- Generated by graphviz version 2.40.1 (20161225.0304)
 -->
<!-- Title: %3 Pages: 1 -->
<svg width="1205pt" height="1544pt"
 viewBox="0.00 0.00 1205.27 1544.00" xmlns="http://www.w3.org/2000/svg" xmlns:xlink="http://www.w3.org/1999/xlink">
<g id="graph0" class="graph" transform="scale(1 1) rotate(0) translate(4 1540)">
<title>%3</title>
<polygon fill="#ffffff" stroke="transparent" points="-4,4 -4,-1540 1201.2668,-1540 1201.2668,4 -4,4"/>
<!-- 1 -->
<g id="node1" class="node">
<title>1</title>
<ellipse fill="none" stroke="#000000" cx="331.2668" cy="-1518" rx="145.6742" ry="18"/>
<text text-anchor="middle" x="331.2668" y="-1514.3" font-family="Times,serif" font-size="14.00" fill="#000000">id:1 rank:0 shape: (1, 32, 32)</text>
</g>
<!-- 3 -->
<g id="node3" class="node">
<title>3</title>
<ellipse fill="none" stroke="#000000" cx="331.2668" cy="-1431" rx="151.3732" ry="18"/>
<text text-anchor="middle" x="331.2668" y="-1427.3" font-family="Times,serif" font-size="14.00" fill="#000000">id:3 rank:0 shape: (64, 16, 16)</text>
</g>
<!-- 1&#45;&gt;3 -->
<g id="edge1" class="edge">
<title>1&#45;&gt;3</title>
<path fill="none" stroke="#000000" d="M331.2668,-1499.9735C331.2668,-1488.1918 331.2668,-1472.5607 331.2668,-1459.1581"/>
<polygon fill="#000000" stroke="#000000" points="334.7669,-1459.0033 331.2668,-1449.0034 327.7669,-1459.0034 334.7669,-1459.0033"/>
<text text-anchor="middle" x="604.2668" y="-1470.8" font-family="Times,serif" font-size="14.00" fill="#000000">Conv2d(1, 64, kernel_size=(3, 3), stride=(2, 2), padding=(1, 1), bias=False)</text>
</g>
<!-- 2 -->
<g id="node2" class="node">
<title>2</title>
<ellipse fill="none" stroke="#000000" cx="254.2668" cy="-18" rx="118.8789" ry="18"/>
<text text-anchor="middle" x="254.2668" y="-14.3" font-family="Times,serif" font-size="14.00" fill="#000000">id:2 rank:1 shape: (10,)</text>
</g>
<!-- 4 -->
<g id="node4" class="node">
<title>4</title>
<ellipse fill="none" stroke="#000000" cx="331.2668" cy="-1344" rx="151.3732" ry="18"/>
<text text-anchor="middle" x="331.2668" y="-1340.3" font-family="Times,serif" font-size="14.00" fill="#000000">id:4 rank:0 shape: (64, 16, 16)</text>
</g>
<!-- 3&#45;&gt;4 -->
<g id="edge2" class="edge">
<title>3&#45;&gt;4</title>
<path fill="none" stroke="#000000" d="M331.2668,-1412.9735C331.2668,-1401.1918 331.2668,-1385.5607 331.2668,-1372.1581"/>
<polygon fill="#000000" stroke="#000000" points="334.7669,-1372.0033 331.2668,-1362.0034 327.7669,-1372.0034 334.7669,-1372.0033"/>
<text text-anchor="middle" x="387.7668" y="-1383.8" font-family="Times,serif" font-size="14.00" fill="#000000">Dropout(p=0.2)</text>
</g>
<!-- 5 -->
<g id="node5" class="node">
<title>5</title>
<ellipse fill="none" stroke="#000000" cx="331.2668" cy="-1257" rx="151.3732" ry="18"/>
<text text-anchor="middle" x="331.2668" y="-1253.3" font-family="Times,serif" font-size="14.00" fill="#000000">id:5 rank:0 shape: (64, 16, 16)</text>
</g>
<!-- 4&#45;&gt;5 -->
<g id="edge3" class="edge">
<title>4&#45;&gt;5</title>
<path fill="none" stroke="#000000" d="M331.2668,-1325.9735C331.2668,-1314.1918 331.2668,-1298.5607 331.2668,-1285.1581"/>
<polygon fill="#000000" stroke="#000000" points="334.7669,-1285.0033 331.2668,-1275.0034 327.7669,-1285.0034 334.7669,-1285.0033"/>
<text text-anchor="middle" x="648.7668" y="-1296.8" font-family="Times,serif" font-size="14.00" fill="#000000">BatchNorm2d(64, eps=1e&#45;05, momentum=0.1, affine=True, track_running_stats=True)</text>
</g>
<!-- 6 -->
<g id="node6" class="node">
<title>6</title>
<ellipse fill="none" stroke="#000000" cx="331.2668" cy="-1170" rx="151.3732" ry="18"/>
<text text-anchor="middle" x="331.2668" y="-1166.3" font-family="Times,serif" font-size="14.00" fill="#000000">id:6 rank:0 shape: (64, 16, 16)</text>
</g>
<!-- 5&#45;&gt;6 -->
<g id="edge4" class="edge">
<title>5&#45;&gt;6</title>
<path fill="none" stroke="#000000" d="M331.2668,-1238.9735C331.2668,-1227.1918 331.2668,-1211.5607 331.2668,-1198.1581"/>
<polygon fill="#000000" stroke="#000000" points="334.7669,-1198.0033 331.2668,-1188.0034 327.7669,-1198.0034 334.7669,-1198.0033"/>
<text text-anchor="middle" x="356.7668" y="-1209.8" font-family="Times,serif" font-size="14.00" fill="#000000">ReLU()</text>
</g>
<!-- 7 -->
<g id="node7" class="node">
<title>7</title>
<ellipse fill="none" stroke="#000000" cx="331.2668" cy="-1083" rx="151.3732" ry="18"/>
<text text-anchor="middle" x="331.2668" y="-1079.3" font-family="Times,serif" font-size="14.00" fill="#000000">id:7 rank:1 shape: (64, 16, 16)</text>
</g>
<!-- 6&#45;&gt;7 -->
<g id="edge5" class="edge">
<title>6&#45;&gt;7</title>
<path fill="none" stroke="#000000" d="M331.2668,-1151.9735C331.2668,-1140.1918 331.2668,-1124.5607 331.2668,-1111.1581"/>
<polygon fill="#000000" stroke="#000000" points="334.7669,-1111.0033 331.2668,-1101.0034 327.7669,-1111.0034 334.7669,-1111.0033"/>
<text text-anchor="middle" x="338.2668" y="-1122.8" font-family="Times,serif" font-size="14.00" fill="#000000">id</text>
</g>
<!-- 14 -->
<g id="node14" class="node">
<title>14</title>
<ellipse fill="none" stroke="#000000" cx="331.2668" cy="-996" rx="157.0724" ry="18"/>
<text text-anchor="middle" x="331.2668" y="-992.3" font-family="Times,serif" font-size="14.00" fill="#000000">id:14 rank:1 shape: (96, 16, 16)</text>
</g>
<!-- 7&#45;&gt;14 -->
<g id="edge13" class="edge">
<title>7&#45;&gt;14</title>
<path fill="none" stroke="#000000" d="M331.2668,-1064.9735C331.2668,-1053.1918 331.2668,-1037.5607 331.2668,-1024.1581"/>
<polygon fill="#000000" stroke="#000000" points="334.7669,-1024.0033 331.2668,-1014.0034 327.7669,-1024.0034 334.7669,-1024.0033"/>
<text text-anchor="middle" x="608.7668" y="-1035.8" font-family="Times,serif" font-size="14.00" fill="#000000">Conv2d(64, 96, kernel_size=(3, 3), stride=(1, 1), padding=(1, 1), bias=False)</text>
</g>
<!-- 8 -->
<g id="node8" class="node">
<title>8</title>
<ellipse fill="none" stroke="#000000" cx="254.2668" cy="-453" rx="145.6742" ry="18"/>
<text text-anchor="middle" x="254.2668" y="-449.3" font-family="Times,serif" font-size="14.00" fill="#000000">id:8 rank:1 shape: (128, 1, 1)</text>
</g>
<!-- 9 -->
<g id="node9" class="node">
<title>9</title>
<ellipse fill="none" stroke="#000000" cx="254.2668" cy="-366" rx="124.5782" ry="18"/>
<text text-anchor="middle" x="254.2668" y="-362.3" font-family="Times,serif" font-size="14.00" fill="#000000">id:9 rank:1 shape: (128,)</text>
</g>
<!-- 8&#45;&gt;9 -->
<g id="edge7" class="edge">
<title>8&#45;&gt;9</title>
<path fill="none" stroke="#000000" d="M254.2668,-434.9735C254.2668,-423.1918 254.2668,-407.5607 254.2668,-394.1581"/>
<polygon fill="#000000" stroke="#000000" points="257.7669,-394.0033 254.2668,-384.0034 250.7669,-394.0034 257.7669,-394.0033"/>
<text text-anchor="middle" x="285.7668" y="-405.8" font-family="Times,serif" font-size="14.00" fill="#000000">Flatten()</text>
</g>
<!-- 10 -->
<g id="node10" class="node">
<title>10</title>
<ellipse fill="none" stroke="#000000" cx="254.2668" cy="-279" rx="130.777" ry="18"/>
<text text-anchor="middle" x="254.2668" y="-275.3" font-family="Times,serif" font-size="14.00" fill="#000000">id:10 rank:1 shape: (640,)</text>
</g>
<!-- 9&#45;&gt;10 -->
<g id="edge8" class="edge">
<title>9&#45;&gt;10</title>
<path fill="none" stroke="#000000" d="M254.2668,-347.9735C254.2668,-336.1918 254.2668,-320.5607 254.2668,-307.1581"/>
<polygon fill="#000000" stroke="#000000" points="257.7669,-307.0033 254.2668,-297.0034 250.7669,-307.0034 257.7669,-307.0033"/>
<text text-anchor="middle" x="453.7668" y="-318.8" font-family="Times,serif" font-size="14.00" fill="#000000">Linear(in_features=128, out_features=640, bias=True)</text>
</g>
<!-- 11 -->
<g id="node11" class="node">
<title>11</title>
<ellipse fill="none" stroke="#000000" cx="254.2668" cy="-192" rx="130.777" ry="18"/>
<text text-anchor="middle" x="254.2668" y="-188.3" font-family="Times,serif" font-size="14.00" fill="#000000">id:11 rank:1 shape: (640,)</text>
</g>
<!-- 10&#45;&gt;11 -->
<g id="edge9" class="edge">
<title>10&#45;&gt;11</title>
<path fill="none" stroke="#000000" d="M254.2668,-260.9735C254.2668,-249.1918 254.2668,-233.5607 254.2668,-220.1581"/>
<polygon fill="#000000" stroke="#000000" points="257.7669,-220.0033 254.2668,-210.0034 250.7669,-220.0034 257.7669,-220.0033"/>
<text text-anchor="middle" x="310.7668" y="-231.8" font-family="Times,serif" font-size="14.00" fill="#000000">Dropout(p=0.2)</text>
</g>
<!-- 12 -->
<g id="node12" class="node">
<title>12</title>
<ellipse fill="none" stroke="#000000" cx="254.2668" cy="-105" rx="124.5782" ry="18"/>
<text text-anchor="middle" x="254.2668" y="-101.3" font-family="Times,serif" font-size="14.00" fill="#000000">id:12 rank:1 shape: (10,)</text>
</g>
<!-- 11&#45;&gt;12 -->
<g id="edge10" class="edge">
<title>11&#45;&gt;12</title>
<path fill="none" stroke="#000000" d="M254.2668,-173.9735C254.2668,-162.1918 254.2668,-146.5607 254.2668,-133.1581"/>
<polygon fill="#000000" stroke="#000000" points="257.7669,-133.0033 254.2668,-123.0034 250.7669,-133.0034 257.7669,-133.0033"/>
<text text-anchor="middle" x="449.2668" y="-144.8" font-family="Times,serif" font-size="14.00" fill="#000000">Linear(in_features=640, out_features=10, bias=True)</text>
</g>
<!-- 12&#45;&gt;2 -->
<g id="edge11" class="edge">
<title>12&#45;&gt;2</title>
<path fill="none" stroke="#000000" d="M254.2668,-86.9735C254.2668,-75.1918 254.2668,-59.5607 254.2668,-46.1581"/>
<polygon fill="#000000" stroke="#000000" points="257.7669,-46.0033 254.2668,-36.0034 250.7669,-46.0034 257.7669,-46.0033"/>
<text text-anchor="middle" x="310.7668" y="-57.8" font-family="Times,serif" font-size="14.00" fill="#000000">Dropout(p=0.2)</text>
</g>
<!-- 13 -->
<g id="node13" class="node">
<title>13</title>
<ellipse fill="none" stroke="#000000" cx="254.2668" cy="-540" rx="163.2712" ry="18"/>
<text text-anchor="middle" x="254.2668" y="-536.3" font-family="Times,serif" font-size="14.00" fill="#000000">id:13 rank:2 shape: (128, 16, 16)</text>
</g>
<!-- 13&#45;&gt;8 -->
<g id="edge6" class="edge">
<title>13&#45;&gt;8</title>
<path fill="none" stroke="#000000" d="M254.2668,-521.9735C254.2668,-510.1918 254.2668,-494.5607 254.2668,-481.1581"/>
<polygon fill="#000000" stroke="#000000" points="257.7669,-481.0033 254.2668,-471.0034 250.7669,-481.0034 257.7669,-481.0033"/>
<text text-anchor="middle" x="395.2668" y="-492.8" font-family="Times,serif" font-size="14.00" fill="#000000">AdaptiveAvgPool2d(output_size=(1, 1))</text>
</g>
<!-- 15 -->
<g id="node15" class="node">
<title>15</title>
<ellipse fill="none" stroke="#000000" cx="164.2668" cy="-909" rx="157.0724" ry="18"/>
<text text-anchor="middle" x="164.2668" y="-905.3" font-family="Times,serif" font-size="14.00" fill="#000000">id:15 rank:1 shape: (96, 16, 16)</text>
</g>
<!-- 14&#45;&gt;15 -->
<g id="edge14" class="edge">
<title>14&#45;&gt;15</title>
<path fill="none" stroke="#000000" d="M186.136,-988.9088C104.3456,-983.3817 16.0035,-974.2112 3.2668,-960 -1.1827,-955.0355 -.9013,-950.203 3.2668,-945 10.1383,-936.4223 27.3594,-929.7522 48.1073,-924.6167"/>
<polygon fill="#000000" stroke="#000000" points="48.9076,-928.0241 57.8637,-922.3639 47.3326,-921.2036 48.9076,-928.0241"/>
<text text-anchor="middle" x="320.7668" y="-948.8" font-family="Times,serif" font-size="14.00" fill="#000000">BatchNorm2d(96, eps=1e&#45;05, momentum=0.1, affine=True, track_running_stats=True)</text>
</g>
<!-- 17 -->
<g id="node17" class="node">
<title>17</title>
<ellipse fill="none" stroke="#000000" cx="578.2668" cy="-909" rx="157.0724" ry="18"/>
<text text-anchor="middle" x="578.2668" y="-905.3" font-family="Times,serif" font-size="14.00" fill="#000000">id:17 rank:1 shape: (32, 16, 16)</text>
</g>
<!-- 14&#45;&gt;17 -->
<g id="edge16" class="edge">
<title>14&#45;&gt;17</title>
<path fill="none" stroke="#000000" d="M472.3126,-987.9253C547.3846,-982.1456 626.6524,-973.0559 638.2668,-960 647.1263,-950.0409 640.5341,-940.2701 628.975,-931.9887"/>
<polygon fill="#000000" stroke="#000000" points="630.6307,-928.8947 620.3078,-926.5094 626.8901,-934.8115 630.6307,-928.8947"/>
<text text-anchor="middle" x="919.7668" y="-948.8" font-family="Times,serif" font-size="14.00" fill="#000000">Conv2d(96, 32, kernel_size=(3, 3), stride=(1, 1), padding=(1, 1), bias=False)</text>
</g>
<!-- 16 -->
<g id="node16" class="node">
<title>16</title>
<ellipse fill="none" stroke="#000000" cx="238.2668" cy="-768" rx="157.0724" ry="18"/>
<text text-anchor="middle" x="238.2668" y="-764.3" font-family="Times,serif" font-size="14.00" fill="#000000">id:16 rank:1 shape: (96, 16, 16)</text>
</g>
<!-- 15&#45;&gt;16 -->
<g id="edge15" class="edge">
<title>15&#45;&gt;16</title>
<path fill="none" stroke="#000000" d="M173.7895,-890.8554C186.5553,-866.5312 209.3187,-823.1579 224.0998,-794.9937"/>
<polygon fill="#000000" stroke="#000000" points="227.2326,-796.5561 228.7806,-786.075 221.0343,-793.3031 227.2326,-796.5561"/>
<text text-anchor="middle" x="216.7668" y="-861.8" font-family="Times,serif" font-size="14.00" fill="#000000">ReLU()</text>
</g>
<!-- 16&#45;&gt;13 -->
<g id="edge12" class="edge">
<title>16&#45;&gt;13</title>
<path fill="none" stroke="#000000" d="M239.5491,-749.7272C242.3353,-710.0232 248.9582,-615.6466 252.2862,-568.2228"/>
<polygon fill="#000000" stroke="#000000" points="255.7918,-568.2638 253.0006,-558.0433 248.809,-567.7737 255.7918,-568.2638"/>
<text text-anchor="middle" x="253.2668" y="-666.8" font-family="Times,serif" font-size="14.00" fill="#000000">id</text>
</g>
<!-- 18 -->
<g id="node18" class="node">
<title>18</title>
<ellipse fill="none" stroke="#000000" cx="500.2668" cy="-822" rx="157.0724" ry="18"/>
<text text-anchor="middle" x="500.2668" y="-818.3" font-family="Times,serif" font-size="14.00" fill="#000000">id:18 rank:1 shape: (32, 16, 16)</text>
</g>
<!-- 17&#45;&gt;18 -->
<g id="edge17" class="edge">
<title>17&#45;&gt;18</title>
<path fill="none" stroke="#000000" d="M562.1051,-890.9735C550.9146,-878.4919 535.8508,-861.6899 523.3927,-847.7944"/>
<polygon fill="#000000" stroke="#000000" points="525.6892,-845.1127 516.4077,-840.0034 520.4772,-849.7855 525.6892,-845.1127"/>
<text text-anchor="middle" x="599.7668" y="-861.8" font-family="Times,serif" font-size="14.00" fill="#000000">Dropout(p=0.2)</text>
</g>
<!-- 19 -->
<g id="node19" class="node">
<title>19</title>
<ellipse fill="none" stroke="#000000" cx="461.2668" cy="-714" rx="157.0724" ry="18"/>
<text text-anchor="middle" x="461.2668" y="-710.3" font-family="Times,serif" font-size="14.00" fill="#000000">id:19 rank:1 shape: (32, 16, 16)</text>
</g>
<!-- 18&#45;&gt;19 -->
<g id="edge18" class="edge">
<title>18&#45;&gt;19</title>
<path fill="none" stroke="#000000" d="M493.6509,-803.6793C487.5068,-786.6649 478.2739,-761.0967 471.2367,-741.6091"/>
<polygon fill="#000000" stroke="#000000" points="474.4733,-740.2669 467.7849,-732.0502 467.8894,-742.6445 474.4733,-740.2669"/>
<text text-anchor="middle" x="803.7668" y="-764.3" font-family="Times,serif" font-size="14.00" fill="#000000">BatchNorm2d(32, eps=1e&#45;05, momentum=0.1, affine=True, track_running_stats=True)</text>
</g>
<!-- 20 -->
<g id="node20" class="node">
<title>20</title>
<ellipse fill="none" stroke="#000000" cx="442.2668" cy="-627" rx="157.0724" ry="18"/>
<text text-anchor="middle" x="442.2668" y="-623.3" font-family="Times,serif" font-size="14.00" fill="#000000">id:20 rank:1 shape: (32, 16, 16)</text>
</g>
<!-- 19&#45;&gt;20 -->
<g id="edge19" class="edge">
<title>19&#45;&gt;20</title>
<path fill="none" stroke="#000000" d="M457.3299,-695.9735C454.7569,-684.1918 451.3432,-668.5607 448.4162,-655.1581"/>
<polygon fill="#000000" stroke="#000000" points="451.7516,-654.0263 446.1985,-645.0034 444.9128,-655.5199 451.7516,-654.0263"/>
<text text-anchor="middle" x="477.7668" y="-666.8" font-family="Times,serif" font-size="14.00" fill="#000000">ReLU()</text>
</g>
<!-- 20&#45;&gt;13 -->
<g id="edge20" class="edge">
<title>20&#45;&gt;13</title>
<path fill="none" stroke="#000000" d="M404.2222,-609.3943C374.5354,-595.6563 333.1418,-576.5007 301.3638,-561.7949"/>
<polygon fill="#000000" stroke="#000000" points="302.8001,-558.603 292.2548,-557.5796 299.8602,-564.9558 302.8001,-558.603"/>
<text text-anchor="middle" x="366.2668" y="-579.8" font-family="Times,serif" font-size="14.00" fill="#000000">id</text>
</g>
</g>
</svg>
