<?xml version="1.0" encoding="UTF-8" standalone="no"?>
<!DOCTYPE svg PUBLIC "-//W3C//DTD SVG 1.1//EN"
 "http://www.w3.org/Graphics/SVG/1.1/DTD/svg11.dtd">
<!-- Generated by graphviz version 2.40.1 (20161225.0304)
 -->
<!-- Title: %3 Pages: 1 -->
<svg width="800pt" height="1349pt"
 viewBox="0.00 0.00 800.29 1349.00" xmlns="http://www.w3.org/2000/svg" xmlns:xlink="http://www.w3.org/1999/xlink">
<g id="graph0" class="graph" transform="scale(1 1) rotate(0) translate(4 1345)">
<title>%3</title>
<polygon fill="#ffffff" stroke="transparent" points="-4,4 -4,-1345 796.286,-1345 796.286,4 -4,4"/>
<!-- 1 -->
<g id="node1" class="node">
<title>1</title>
<ellipse fill="none" stroke="#000000" cx="157.286" cy="-1323" rx="145.6742" ry="18"/>
<text text-anchor="middle" x="157.286" y="-1319.3" font-family="Times,serif" font-size="14.00" fill="#000000">id:1 rank:0 shape: (1, 32, 32)</text>
</g>
<!-- 3 -->
<g id="node3" class="node">
<title>3</title>
<ellipse fill="none" stroke="#000000" cx="157.286" cy="-1236" rx="151.3732" ry="18"/>
<text text-anchor="middle" x="157.286" y="-1232.3" font-family="Times,serif" font-size="14.00" fill="#000000">id:3 rank:0 shape: (96, 16, 16)</text>
</g>
<!-- 1&#45;&gt;3 -->
<g id="edge1" class="edge">
<title>1&#45;&gt;3</title>
<path fill="none" stroke="#000000" d="M157.286,-1304.9735C157.286,-1293.1918 157.286,-1277.5607 157.286,-1264.1581"/>
<polygon fill="#000000" stroke="#000000" points="160.7861,-1264.0033 157.286,-1254.0034 153.7861,-1264.0034 160.7861,-1264.0033"/>
<text text-anchor="middle" x="430.286" y="-1275.8" font-family="Times,serif" font-size="14.00" fill="#000000">Conv2d(1, 96, kernel_size=(3, 3), stride=(2, 2), padding=(1, 1), bias=False)</text>
</g>
<!-- 2 -->
<g id="node2" class="node">
<title>2</title>
<ellipse fill="none" stroke="#000000" cx="157.286" cy="-18" rx="118.8789" ry="18"/>
<text text-anchor="middle" x="157.286" y="-14.3" font-family="Times,serif" font-size="14.00" fill="#000000">id:2 rank:1 shape: (10,)</text>
</g>
<!-- 4 -->
<g id="node4" class="node">
<title>4</title>
<ellipse fill="none" stroke="#000000" cx="157.286" cy="-1149" rx="151.3732" ry="18"/>
<text text-anchor="middle" x="157.286" y="-1145.3" font-family="Times,serif" font-size="14.00" fill="#000000">id:4 rank:0 shape: (96, 16, 16)</text>
</g>
<!-- 3&#45;&gt;4 -->
<g id="edge2" class="edge">
<title>3&#45;&gt;4</title>
<path fill="none" stroke="#000000" d="M157.286,-1217.9735C157.286,-1206.1918 157.286,-1190.5607 157.286,-1177.1581"/>
<polygon fill="#000000" stroke="#000000" points="160.7861,-1177.0033 157.286,-1167.0034 153.7861,-1177.0034 160.7861,-1177.0033"/>
<text text-anchor="middle" x="213.786" y="-1188.8" font-family="Times,serif" font-size="14.00" fill="#000000">Dropout(p=0.2)</text>
</g>
<!-- 5 -->
<g id="node5" class="node">
<title>5</title>
<ellipse fill="none" stroke="#000000" cx="157.286" cy="-1062" rx="151.3732" ry="18"/>
<text text-anchor="middle" x="157.286" y="-1058.3" font-family="Times,serif" font-size="14.00" fill="#000000">id:5 rank:0 shape: (96, 16, 16)</text>
</g>
<!-- 4&#45;&gt;5 -->
<g id="edge3" class="edge">
<title>4&#45;&gt;5</title>
<path fill="none" stroke="#000000" d="M157.286,-1130.9735C157.286,-1119.1918 157.286,-1103.5607 157.286,-1090.1581"/>
<polygon fill="#000000" stroke="#000000" points="160.7861,-1090.0033 157.286,-1080.0034 153.7861,-1090.0034 160.7861,-1090.0033"/>
<text text-anchor="middle" x="474.786" y="-1101.8" font-family="Times,serif" font-size="14.00" fill="#000000">BatchNorm2d(96, eps=1e&#45;05, momentum=0.1, affine=True, track_running_stats=True)</text>
</g>
<!-- 6 -->
<g id="node6" class="node">
<title>6</title>
<ellipse fill="none" stroke="#000000" cx="157.286" cy="-975" rx="151.3732" ry="18"/>
<text text-anchor="middle" x="157.286" y="-971.3" font-family="Times,serif" font-size="14.00" fill="#000000">id:6 rank:0 shape: (96, 16, 16)</text>
</g>
<!-- 5&#45;&gt;6 -->
<g id="edge4" class="edge">
<title>5&#45;&gt;6</title>
<path fill="none" stroke="#000000" d="M157.286,-1043.9735C157.286,-1032.1918 157.286,-1016.5607 157.286,-1003.1581"/>
<polygon fill="#000000" stroke="#000000" points="160.7861,-1003.0033 157.286,-993.0034 153.7861,-1003.0034 160.7861,-1003.0033"/>
<text text-anchor="middle" x="182.786" y="-1014.8" font-family="Times,serif" font-size="14.00" fill="#000000">ReLU()</text>
</g>
<!-- 7 -->
<g id="node7" class="node">
<title>7</title>
<ellipse fill="none" stroke="#000000" cx="157.286" cy="-888" rx="151.3732" ry="18"/>
<text text-anchor="middle" x="157.286" y="-884.3" font-family="Times,serif" font-size="14.00" fill="#000000">id:7 rank:1 shape: (96, 16, 16)</text>
</g>
<!-- 6&#45;&gt;7 -->
<g id="edge5" class="edge">
<title>6&#45;&gt;7</title>
<path fill="none" stroke="#000000" d="M157.286,-956.9735C157.286,-945.1918 157.286,-929.5607 157.286,-916.1581"/>
<polygon fill="#000000" stroke="#000000" points="160.7861,-916.0033 157.286,-906.0034 153.7861,-916.0034 160.7861,-916.0033"/>
<text text-anchor="middle" x="164.286" y="-927.8" font-family="Times,serif" font-size="14.00" fill="#000000">id</text>
</g>
<!-- 14 -->
<g id="node14" class="node">
<title>14</title>
<ellipse fill="none" stroke="#000000" cx="157.286" cy="-801" rx="157.0724" ry="18"/>
<text text-anchor="middle" x="157.286" y="-797.3" font-family="Times,serif" font-size="14.00" fill="#000000">id:14 rank:1 shape: (96, 16, 16)</text>
</g>
<!-- 7&#45;&gt;14 -->
<g id="edge13" class="edge">
<title>7&#45;&gt;14</title>
<path fill="none" stroke="#000000" d="M157.286,-869.9735C157.286,-858.1918 157.286,-842.5607 157.286,-829.1581"/>
<polygon fill="#000000" stroke="#000000" points="160.7861,-829.0033 157.286,-819.0034 153.7861,-829.0034 160.7861,-829.0033"/>
<text text-anchor="middle" x="434.786" y="-840.8" font-family="Times,serif" font-size="14.00" fill="#000000">Conv2d(96, 96, kernel_size=(3, 3), stride=(1, 1), padding=(1, 1), bias=False)</text>
</g>
<!-- 8 -->
<g id="node8" class="node">
<title>8</title>
<ellipse fill="none" stroke="#000000" cx="157.286" cy="-453" rx="139.9756" ry="18"/>
<text text-anchor="middle" x="157.286" y="-449.3" font-family="Times,serif" font-size="14.00" fill="#000000">id:8 rank:1 shape: (96, 1, 1)</text>
</g>
<!-- 9 -->
<g id="node9" class="node">
<title>9</title>
<ellipse fill="none" stroke="#000000" cx="157.286" cy="-366" rx="118.8789" ry="18"/>
<text text-anchor="middle" x="157.286" y="-362.3" font-family="Times,serif" font-size="14.00" fill="#000000">id:9 rank:1 shape: (96,)</text>
</g>
<!-- 8&#45;&gt;9 -->
<g id="edge7" class="edge">
<title>8&#45;&gt;9</title>
<path fill="none" stroke="#000000" d="M157.286,-434.9735C157.286,-423.1918 157.286,-407.5607 157.286,-394.1581"/>
<polygon fill="#000000" stroke="#000000" points="160.7861,-394.0033 157.286,-384.0034 153.7861,-394.0034 160.7861,-394.0033"/>
<text text-anchor="middle" x="188.786" y="-405.8" font-family="Times,serif" font-size="14.00" fill="#000000">Flatten()</text>
</g>
<!-- 10 -->
<g id="node10" class="node">
<title>10</title>
<ellipse fill="none" stroke="#000000" cx="157.286" cy="-279" rx="130.777" ry="18"/>
<text text-anchor="middle" x="157.286" y="-275.3" font-family="Times,serif" font-size="14.00" fill="#000000">id:10 rank:1 shape: (640,)</text>
</g>
<!-- 9&#45;&gt;10 -->
<g id="edge8" class="edge">
<title>9&#45;&gt;10</title>
<path fill="none" stroke="#000000" d="M157.286,-347.9735C157.286,-336.1918 157.286,-320.5607 157.286,-307.1581"/>
<polygon fill="#000000" stroke="#000000" points="160.7861,-307.0033 157.286,-297.0034 153.7861,-307.0034 160.7861,-307.0033"/>
<text text-anchor="middle" x="352.286" y="-318.8" font-family="Times,serif" font-size="14.00" fill="#000000">Linear(in_features=96, out_features=640, bias=True)</text>
</g>
<!-- 11 -->
<g id="node11" class="node">
<title>11</title>
<ellipse fill="none" stroke="#000000" cx="157.286" cy="-192" rx="130.777" ry="18"/>
<text text-anchor="middle" x="157.286" y="-188.3" font-family="Times,serif" font-size="14.00" fill="#000000">id:11 rank:1 shape: (640,)</text>
</g>
<!-- 10&#45;&gt;11 -->
<g id="edge9" class="edge">
<title>10&#45;&gt;11</title>
<path fill="none" stroke="#000000" d="M157.286,-260.9735C157.286,-249.1918 157.286,-233.5607 157.286,-220.1581"/>
<polygon fill="#000000" stroke="#000000" points="160.7861,-220.0033 157.286,-210.0034 153.7861,-220.0034 160.7861,-220.0033"/>
<text text-anchor="middle" x="213.786" y="-231.8" font-family="Times,serif" font-size="14.00" fill="#000000">Dropout(p=0.2)</text>
</g>
<!-- 12 -->
<g id="node12" class="node">
<title>12</title>
<ellipse fill="none" stroke="#000000" cx="157.286" cy="-105" rx="124.5782" ry="18"/>
<text text-anchor="middle" x="157.286" y="-101.3" font-family="Times,serif" font-size="14.00" fill="#000000">id:12 rank:1 shape: (10,)</text>
</g>
<!-- 11&#45;&gt;12 -->
<g id="edge10" class="edge">
<title>11&#45;&gt;12</title>
<path fill="none" stroke="#000000" d="M157.286,-173.9735C157.286,-162.1918 157.286,-146.5607 157.286,-133.1581"/>
<polygon fill="#000000" stroke="#000000" points="160.7861,-133.0033 157.286,-123.0034 153.7861,-133.0034 160.7861,-133.0033"/>
<text text-anchor="middle" x="352.286" y="-144.8" font-family="Times,serif" font-size="14.00" fill="#000000">Linear(in_features=640, out_features=10, bias=True)</text>
</g>
<!-- 12&#45;&gt;2 -->
<g id="edge11" class="edge">
<title>12&#45;&gt;2</title>
<path fill="none" stroke="#000000" d="M157.286,-86.9735C157.286,-75.1918 157.286,-59.5607 157.286,-46.1581"/>
<polygon fill="#000000" stroke="#000000" points="160.7861,-46.0033 157.286,-36.0034 153.7861,-46.0034 160.7861,-46.0033"/>
<text text-anchor="middle" x="213.786" y="-57.8" font-family="Times,serif" font-size="14.00" fill="#000000">Dropout(p=0.2)</text>
</g>
<!-- 13 -->
<g id="node13" class="node">
<title>13</title>
<ellipse fill="none" stroke="#000000" cx="157.286" cy="-540" rx="157.0724" ry="18"/>
<text text-anchor="middle" x="157.286" y="-536.3" font-family="Times,serif" font-size="14.00" fill="#000000">id:13 rank:2 shape: (96, 16, 16)</text>
</g>
<!-- 13&#45;&gt;8 -->
<g id="edge6" class="edge">
<title>13&#45;&gt;8</title>
<path fill="none" stroke="#000000" d="M157.286,-521.9735C157.286,-510.1918 157.286,-494.5607 157.286,-481.1581"/>
<polygon fill="#000000" stroke="#000000" points="160.7861,-481.0033 157.286,-471.0034 153.7861,-481.0034 160.7861,-481.0033"/>
<text text-anchor="middle" x="298.286" y="-492.8" font-family="Times,serif" font-size="14.00" fill="#000000">AdaptiveAvgPool2d(output_size=(1, 1))</text>
</g>
<!-- 15 -->
<g id="node15" class="node">
<title>15</title>
<ellipse fill="none" stroke="#000000" cx="157.286" cy="-714" rx="157.0724" ry="18"/>
<text text-anchor="middle" x="157.286" y="-710.3" font-family="Times,serif" font-size="14.00" fill="#000000">id:15 rank:1 shape: (96, 16, 16)</text>
</g>
<!-- 14&#45;&gt;15 -->
<g id="edge14" class="edge">
<title>14&#45;&gt;15</title>
<path fill="none" stroke="#000000" d="M157.286,-782.9735C157.286,-771.1918 157.286,-755.5607 157.286,-742.1581"/>
<polygon fill="#000000" stroke="#000000" points="160.7861,-742.0033 157.286,-732.0034 153.7861,-742.0034 160.7861,-742.0033"/>
<text text-anchor="middle" x="474.786" y="-753.8" font-family="Times,serif" font-size="14.00" fill="#000000">BatchNorm2d(96, eps=1e&#45;05, momentum=0.1, affine=True, track_running_stats=True)</text>
</g>
<!-- 16 -->
<g id="node16" class="node">
<title>16</title>
<ellipse fill="none" stroke="#000000" cx="157.286" cy="-627" rx="157.0724" ry="18"/>
<text text-anchor="middle" x="157.286" y="-623.3" font-family="Times,serif" font-size="14.00" fill="#000000">id:16 rank:1 shape: (96, 16, 16)</text>
</g>
<!-- 15&#45;&gt;16 -->
<g id="edge15" class="edge">
<title>15&#45;&gt;16</title>
<path fill="none" stroke="#000000" d="M157.286,-695.9735C157.286,-684.1918 157.286,-668.5607 157.286,-655.1581"/>
<polygon fill="#000000" stroke="#000000" points="160.7861,-655.0033 157.286,-645.0034 153.7861,-655.0034 160.7861,-655.0033"/>
<text text-anchor="middle" x="182.786" y="-666.8" font-family="Times,serif" font-size="14.00" fill="#000000">ReLU()</text>
</g>
<!-- 16&#45;&gt;13 -->
<g id="edge12" class="edge">
<title>16&#45;&gt;13</title>
<path fill="none" stroke="#000000" d="M157.286,-608.9735C157.286,-597.1918 157.286,-581.5607 157.286,-568.1581"/>
<polygon fill="#000000" stroke="#000000" points="160.7861,-568.0033 157.286,-558.0034 153.7861,-568.0034 160.7861,-568.0033"/>
<text text-anchor="middle" x="164.286" y="-579.8" font-family="Times,serif" font-size="14.00" fill="#000000">id</text>
</g>
</g>
</svg>
