<?xml version="1.0" encoding="UTF-8" standalone="no"?>
<!DOCTYPE svg PUBLIC "-//W3C//DTD SVG 1.1//EN"
 "http://www.w3.org/Graphics/SVG/1.1/DTD/svg11.dtd">
<!-- Generated by graphviz version 2.40.1 (20161225.0304)
 -->
<!-- Title: %3 Pages: 1 -->
<svg width="1223pt" height="2675pt"
 viewBox="0.00 0.00 1223.27 2675.00" xmlns="http://www.w3.org/2000/svg" xmlns:xlink="http://www.w3.org/1999/xlink">
<g id="graph0" class="graph" transform="scale(1 1) rotate(0) translate(4 2671)">
<title>%3</title>
<polygon fill="#ffffff" stroke="transparent" points="-4,4 -4,-2671 1219.2701,-2671 1219.2701,4 -4,4"/>
<!-- 1 -->
<g id="node1" class="node">
<title>1</title>
<ellipse fill="none" stroke="#000000" cx="373.2701" cy="-2649" rx="145.6742" ry="18"/>
<text text-anchor="middle" x="373.2701" y="-2645.3" font-family="Times,serif" font-size="14.00" fill="#000000">id:1 rank:0 shape: (1, 32, 32)</text>
</g>
<!-- 3 -->
<g id="node3" class="node">
<title>3</title>
<ellipse fill="none" stroke="#000000" cx="373.2701" cy="-2562" rx="151.3732" ry="18"/>
<text text-anchor="middle" x="373.2701" y="-2558.3" font-family="Times,serif" font-size="14.00" fill="#000000">id:3 rank:0 shape: (96, 16, 16)</text>
</g>
<!-- 1&#45;&gt;3 -->
<g id="edge1" class="edge">
<title>1&#45;&gt;3</title>
<path fill="none" stroke="#000000" d="M373.2701,-2630.9735C373.2701,-2619.1918 373.2701,-2603.5607 373.2701,-2590.1581"/>
<polygon fill="#000000" stroke="#000000" points="376.7702,-2590.0033 373.2701,-2580.0034 369.7702,-2590.0034 376.7702,-2590.0033"/>
<text text-anchor="middle" x="646.2701" y="-2601.8" font-family="Times,serif" font-size="14.00" fill="#000000">Conv2d(1, 96, kernel_size=(3, 3), stride=(2, 2), padding=(1, 1), bias=False)</text>
</g>
<!-- 2 -->
<g id="node2" class="node">
<title>2</title>
<ellipse fill="none" stroke="#000000" cx="296.2701" cy="-18" rx="118.8789" ry="18"/>
<text text-anchor="middle" x="296.2701" y="-14.3" font-family="Times,serif" font-size="14.00" fill="#000000">id:2 rank:1 shape: (10,)</text>
</g>
<!-- 4 -->
<g id="node4" class="node">
<title>4</title>
<ellipse fill="none" stroke="#000000" cx="373.2701" cy="-2475" rx="151.3732" ry="18"/>
<text text-anchor="middle" x="373.2701" y="-2471.3" font-family="Times,serif" font-size="14.00" fill="#000000">id:4 rank:0 shape: (96, 16, 16)</text>
</g>
<!-- 3&#45;&gt;4 -->
<g id="edge2" class="edge">
<title>3&#45;&gt;4</title>
<path fill="none" stroke="#000000" d="M373.2701,-2543.9735C373.2701,-2532.1918 373.2701,-2516.5607 373.2701,-2503.1581"/>
<polygon fill="#000000" stroke="#000000" points="376.7702,-2503.0033 373.2701,-2493.0034 369.7702,-2503.0034 376.7702,-2503.0033"/>
<text text-anchor="middle" x="429.7701" y="-2514.8" font-family="Times,serif" font-size="14.00" fill="#000000">Dropout(p=0.2)</text>
</g>
<!-- 5 -->
<g id="node5" class="node">
<title>5</title>
<ellipse fill="none" stroke="#000000" cx="373.2701" cy="-2388" rx="151.3732" ry="18"/>
<text text-anchor="middle" x="373.2701" y="-2384.3" font-family="Times,serif" font-size="14.00" fill="#000000">id:5 rank:0 shape: (96, 16, 16)</text>
</g>
<!-- 4&#45;&gt;5 -->
<g id="edge3" class="edge">
<title>4&#45;&gt;5</title>
<path fill="none" stroke="#000000" d="M373.2701,-2456.9735C373.2701,-2445.1918 373.2701,-2429.5607 373.2701,-2416.1581"/>
<polygon fill="#000000" stroke="#000000" points="376.7702,-2416.0033 373.2701,-2406.0034 369.7702,-2416.0034 376.7702,-2416.0033"/>
<text text-anchor="middle" x="690.7701" y="-2427.8" font-family="Times,serif" font-size="14.00" fill="#000000">BatchNorm2d(96, eps=1e&#45;05, momentum=0.1, affine=True, track_running_stats=True)</text>
</g>
<!-- 6 -->
<g id="node6" class="node">
<title>6</title>
<ellipse fill="none" stroke="#000000" cx="373.2701" cy="-2301" rx="151.3732" ry="18"/>
<text text-anchor="middle" x="373.2701" y="-2297.3" font-family="Times,serif" font-size="14.00" fill="#000000">id:6 rank:0 shape: (96, 16, 16)</text>
</g>
<!-- 5&#45;&gt;6 -->
<g id="edge4" class="edge">
<title>5&#45;&gt;6</title>
<path fill="none" stroke="#000000" d="M373.2701,-2369.9735C373.2701,-2358.1918 373.2701,-2342.5607 373.2701,-2329.1581"/>
<polygon fill="#000000" stroke="#000000" points="376.7702,-2329.0033 373.2701,-2319.0034 369.7702,-2329.0034 376.7702,-2329.0033"/>
<text text-anchor="middle" x="398.7701" y="-2340.8" font-family="Times,serif" font-size="14.00" fill="#000000">ReLU()</text>
</g>
<!-- 7 -->
<g id="node7" class="node">
<title>7</title>
<ellipse fill="none" stroke="#000000" cx="335.2701" cy="-1779" rx="151.3732" ry="18"/>
<text text-anchor="middle" x="335.2701" y="-1775.3" font-family="Times,serif" font-size="14.00" fill="#000000">id:7 rank:1 shape: (96, 16, 16)</text>
</g>
<!-- 6&#45;&gt;7 -->
<g id="edge5" class="edge">
<title>6&#45;&gt;7</title>
<path fill="none" stroke="#000000" d="M353.7748,-2282.9697C338.3072,-2266.6257 319.2701,-2241.0212 319.2701,-2214 319.2701,-2214 319.2701,-2214 319.2701,-1866 319.2701,-1846.0329 323.397,-1823.9069 327.459,-1806.9652"/>
<polygon fill="#000000" stroke="#000000" points="330.882,-1807.7052 329.9423,-1797.1521 324.0959,-1805.9879 330.882,-1807.7052"/>
<text text-anchor="middle" x="326.2701" y="-2036.3" font-family="Times,serif" font-size="14.00" fill="#000000">id</text>
</g>
<!-- 29 -->
<g id="node29" class="node">
<title>29</title>
<ellipse fill="none" stroke="#000000" cx="504.2701" cy="-2214" rx="157.0724" ry="18"/>
<text text-anchor="middle" x="504.2701" y="-2210.3" font-family="Times,serif" font-size="14.00" fill="#000000">id:29 rank:0 shape: (32, 16, 16)</text>
</g>
<!-- 6&#45;&gt;29 -->
<g id="edge29" class="edge">
<title>6&#45;&gt;29</title>
<path fill="none" stroke="#000000" d="M400.096,-2283.1843C419.9647,-2269.989 447.2304,-2251.8813 468.8836,-2237.5009"/>
<polygon fill="#000000" stroke="#000000" points="471.0861,-2240.2398 477.48,-2231.7919 467.2134,-2234.4086 471.0861,-2240.2398"/>
<text text-anchor="middle" x="723.7701" y="-2253.8" font-family="Times,serif" font-size="14.00" fill="#000000">Conv2d(96, 32, kernel_size=(3, 3), stride=(1, 1), padding=(1, 1), bias=False)</text>
</g>
<!-- 14 -->
<g id="node14" class="node">
<title>14</title>
<ellipse fill="none" stroke="#000000" cx="335.2701" cy="-1692" rx="163.2712" ry="18"/>
<text text-anchor="middle" x="335.2701" y="-1688.3" font-family="Times,serif" font-size="14.00" fill="#000000">id:14 rank:1 shape: (192, 16, 16)</text>
</g>
<!-- 7&#45;&gt;14 -->
<g id="edge13" class="edge">
<title>7&#45;&gt;14</title>
<path fill="none" stroke="#000000" d="M335.2701,-1760.9735C335.2701,-1749.1918 335.2701,-1733.5607 335.2701,-1720.1581"/>
<polygon fill="#000000" stroke="#000000" points="338.7702,-1720.0033 335.2701,-1710.0034 331.7702,-1720.0034 338.7702,-1720.0033"/>
<text text-anchor="middle" x="617.2701" y="-1731.8" font-family="Times,serif" font-size="14.00" fill="#000000">Conv2d(96, 192, kernel_size=(3, 3), stride=(1, 1), padding=(1, 1), bias=False)</text>
</g>
<!-- 8 -->
<g id="node8" class="node">
<title>8</title>
<ellipse fill="none" stroke="#000000" cx="296.2701" cy="-453" rx="145.6742" ry="18"/>
<text text-anchor="middle" x="296.2701" y="-449.3" font-family="Times,serif" font-size="14.00" fill="#000000">id:8 rank:1 shape: (128, 1, 1)</text>
</g>
<!-- 9 -->
<g id="node9" class="node">
<title>9</title>
<ellipse fill="none" stroke="#000000" cx="296.2701" cy="-366" rx="124.5782" ry="18"/>
<text text-anchor="middle" x="296.2701" y="-362.3" font-family="Times,serif" font-size="14.00" fill="#000000">id:9 rank:1 shape: (128,)</text>
</g>
<!-- 8&#45;&gt;9 -->
<g id="edge7" class="edge">
<title>8&#45;&gt;9</title>
<path fill="none" stroke="#000000" d="M296.2701,-434.9735C296.2701,-423.1918 296.2701,-407.5607 296.2701,-394.1581"/>
<polygon fill="#000000" stroke="#000000" points="299.7702,-394.0033 296.2701,-384.0034 292.7702,-394.0034 299.7702,-394.0033"/>
<text text-anchor="middle" x="327.7701" y="-405.8" font-family="Times,serif" font-size="14.00" fill="#000000">Flatten()</text>
</g>
<!-- 10 -->
<g id="node10" class="node">
<title>10</title>
<ellipse fill="none" stroke="#000000" cx="296.2701" cy="-279" rx="130.777" ry="18"/>
<text text-anchor="middle" x="296.2701" y="-275.3" font-family="Times,serif" font-size="14.00" fill="#000000">id:10 rank:1 shape: (640,)</text>
</g>
<!-- 9&#45;&gt;10 -->
<g id="edge8" class="edge">
<title>9&#45;&gt;10</title>
<path fill="none" stroke="#000000" d="M296.2701,-347.9735C296.2701,-336.1918 296.2701,-320.5607 296.2701,-307.1581"/>
<polygon fill="#000000" stroke="#000000" points="299.7702,-307.0033 296.2701,-297.0034 292.7702,-307.0034 299.7702,-307.0033"/>
<text text-anchor="middle" x="495.7701" y="-318.8" font-family="Times,serif" font-size="14.00" fill="#000000">Linear(in_features=128, out_features=640, bias=True)</text>
</g>
<!-- 11 -->
<g id="node11" class="node">
<title>11</title>
<ellipse fill="none" stroke="#000000" cx="296.2701" cy="-192" rx="130.777" ry="18"/>
<text text-anchor="middle" x="296.2701" y="-188.3" font-family="Times,serif" font-size="14.00" fill="#000000">id:11 rank:1 shape: (640,)</text>
</g>
<!-- 10&#45;&gt;11 -->
<g id="edge9" class="edge">
<title>10&#45;&gt;11</title>
<path fill="none" stroke="#000000" d="M296.2701,-260.9735C296.2701,-249.1918 296.2701,-233.5607 296.2701,-220.1581"/>
<polygon fill="#000000" stroke="#000000" points="299.7702,-220.0033 296.2701,-210.0034 292.7702,-220.0034 299.7702,-220.0033"/>
<text text-anchor="middle" x="352.7701" y="-231.8" font-family="Times,serif" font-size="14.00" fill="#000000">Dropout(p=0.2)</text>
</g>
<!-- 12 -->
<g id="node12" class="node">
<title>12</title>
<ellipse fill="none" stroke="#000000" cx="296.2701" cy="-105" rx="124.5782" ry="18"/>
<text text-anchor="middle" x="296.2701" y="-101.3" font-family="Times,serif" font-size="14.00" fill="#000000">id:12 rank:1 shape: (10,)</text>
</g>
<!-- 11&#45;&gt;12 -->
<g id="edge10" class="edge">
<title>11&#45;&gt;12</title>
<path fill="none" stroke="#000000" d="M296.2701,-173.9735C296.2701,-162.1918 296.2701,-146.5607 296.2701,-133.1581"/>
<polygon fill="#000000" stroke="#000000" points="299.7702,-133.0033 296.2701,-123.0034 292.7702,-133.0034 299.7702,-133.0033"/>
<text text-anchor="middle" x="491.2701" y="-144.8" font-family="Times,serif" font-size="14.00" fill="#000000">Linear(in_features=640, out_features=10, bias=True)</text>
</g>
<!-- 12&#45;&gt;2 -->
<g id="edge11" class="edge">
<title>12&#45;&gt;2</title>
<path fill="none" stroke="#000000" d="M296.2701,-86.9735C296.2701,-75.1918 296.2701,-59.5607 296.2701,-46.1581"/>
<polygon fill="#000000" stroke="#000000" points="299.7702,-46.0033 296.2701,-36.0034 292.7702,-46.0034 299.7702,-46.0033"/>
<text text-anchor="middle" x="352.7701" y="-57.8" font-family="Times,serif" font-size="14.00" fill="#000000">Dropout(p=0.2)</text>
</g>
<!-- 13 -->
<g id="node13" class="node">
<title>13</title>
<ellipse fill="none" stroke="#000000" cx="296.2701" cy="-1236" rx="163.2712" ry="18"/>
<text text-anchor="middle" x="296.2701" y="-1232.3" font-family="Times,serif" font-size="14.00" fill="#000000">id:13 rank:2 shape: (256, 16, 16)</text>
</g>
<!-- 22 -->
<g id="node22" class="node">
<title>22</title>
<ellipse fill="none" stroke="#000000" cx="296.2701" cy="-1149" rx="163.2712" ry="18"/>
<text text-anchor="middle" x="296.2701" y="-1145.3" font-family="Times,serif" font-size="14.00" fill="#000000">id:22 rank:2 shape: (128, 16, 16)</text>
</g>
<!-- 13&#45;&gt;22 -->
<g id="edge22" class="edge">
<title>13&#45;&gt;22</title>
<path fill="none" stroke="#000000" d="M296.2701,-1217.9735C296.2701,-1206.1918 296.2701,-1190.5607 296.2701,-1177.1581"/>
<polygon fill="#000000" stroke="#000000" points="299.7702,-1177.0033 296.2701,-1167.0034 292.7702,-1177.0034 299.7702,-1177.0033"/>
<text text-anchor="middle" x="582.7701" y="-1188.8" font-family="Times,serif" font-size="14.00" fill="#000000">Conv2d(256, 128, kernel_size=(3, 3), stride=(1, 1), padding=(1, 1), bias=False)</text>
</g>
<!-- 15 -->
<g id="node15" class="node">
<title>15</title>
<ellipse fill="none" stroke="#000000" cx="166.2701" cy="-1605" rx="163.2712" ry="18"/>
<text text-anchor="middle" x="166.2701" y="-1601.3" font-family="Times,serif" font-size="14.00" fill="#000000">id:15 rank:1 shape: (192, 16, 16)</text>
</g>
<!-- 14&#45;&gt;15 -->
<g id="edge14" class="edge">
<title>14&#45;&gt;15</title>
<path fill="none" stroke="#000000" d="M185.5764,-1684.8345C103.5853,-1679.3309 16.0245,-1670.2122 3.2701,-1656 -1.1826,-1651.0384 -.9048,-1646.1976 3.2701,-1641 10.0854,-1632.5152 26.9315,-1625.9104 47.3361,-1620.8127"/>
<polygon fill="#000000" stroke="#000000" points="48.325,-1624.1763 57.2727,-1618.5027 46.7399,-1617.3581 48.325,-1624.1763"/>
<text text-anchor="middle" x="325.2701" y="-1644.8" font-family="Times,serif" font-size="14.00" fill="#000000">BatchNorm2d(192, eps=1e&#45;05, momentum=0.1, affine=True, track_running_stats=True)</text>
</g>
<!-- 17 -->
<g id="node17" class="node">
<title>17</title>
<ellipse fill="none" stroke="#000000" cx="586.2701" cy="-1605" rx="157.0724" ry="18"/>
<text text-anchor="middle" x="586.2701" y="-1601.3" font-family="Times,serif" font-size="14.00" fill="#000000">id:17 rank:1 shape: (64, 16, 16)</text>
</g>
<!-- 14&#45;&gt;17 -->
<g id="edge16" class="edge">
<title>14&#45;&gt;17</title>
<path fill="none" stroke="#000000" d="M481.2434,-1683.8699C556.7445,-1678.1311 635.5928,-1669.1021 647.2701,-1656 656.2249,-1645.9525 649.5104,-1636.1606 637.7632,-1627.8871"/>
<polygon fill="#000000" stroke="#000000" points="639.2987,-1624.7206 628.9573,-1622.4173 635.6052,-1630.6669 639.2987,-1624.7206"/>
<text text-anchor="middle" x="933.2701" y="-1644.8" font-family="Times,serif" font-size="14.00" fill="#000000">Conv2d(192, 64, kernel_size=(3, 3), stride=(1, 1), padding=(1, 1), bias=False)</text>
</g>
<!-- 16 -->
<g id="node16" class="node">
<title>16</title>
<ellipse fill="none" stroke="#000000" cx="280.2701" cy="-1464" rx="163.2712" ry="18"/>
<text text-anchor="middle" x="280.2701" y="-1460.3" font-family="Times,serif" font-size="14.00" fill="#000000">id:16 rank:1 shape: (192, 16, 16)</text>
</g>
<!-- 15&#45;&gt;16 -->
<g id="edge15" class="edge">
<title>15&#45;&gt;16</title>
<path fill="none" stroke="#000000" d="M180.9402,-1586.8554C200.863,-1562.214 236.5918,-1518.0231 259.3301,-1489.8995"/>
<polygon fill="#000000" stroke="#000000" points="262.0907,-1492.0518 265.6563,-1482.075 256.6473,-1487.6508 262.0907,-1492.0518"/>
<text text-anchor="middle" x="232.7701" y="-1557.8" font-family="Times,serif" font-size="14.00" fill="#000000">ReLU()</text>
</g>
<!-- 16&#45;&gt;13 -->
<g id="edge12" class="edge">
<title>16&#45;&gt;13</title>
<path fill="none" stroke="#000000" d="M281.5524,-1445.7272C284.3386,-1406.0232 290.9615,-1311.6466 294.2895,-1264.2228"/>
<polygon fill="#000000" stroke="#000000" points="297.7952,-1264.2638 295.0039,-1254.0433 290.8123,-1263.7737 297.7952,-1264.2638"/>
<text text-anchor="middle" x="295.2701" y="-1362.8" font-family="Times,serif" font-size="14.00" fill="#000000">id</text>
</g>
<!-- 18 -->
<g id="node18" class="node">
<title>18</title>
<ellipse fill="none" stroke="#000000" cx="494.2701" cy="-1518" rx="157.0724" ry="18"/>
<text text-anchor="middle" x="494.2701" y="-1514.3" font-family="Times,serif" font-size="14.00" fill="#000000">id:18 rank:1 shape: (64, 16, 16)</text>
</g>
<!-- 17&#45;&gt;18 -->
<g id="edge17" class="edge">
<title>17&#45;&gt;18</title>
<path fill="none" stroke="#000000" d="M567.2076,-1586.9735C553.7619,-1574.2586 535.5752,-1557.0603 520.7262,-1543.0183"/>
<polygon fill="#000000" stroke="#000000" points="522.9787,-1540.3312 513.3081,-1536.0034 518.1691,-1545.4173 522.9787,-1540.3312"/>
<text text-anchor="middle" x="601.7701" y="-1557.8" font-family="Times,serif" font-size="14.00" fill="#000000">Dropout(p=0.2)</text>
</g>
<!-- 19 -->
<g id="node19" class="node">
<title>19</title>
<ellipse fill="none" stroke="#000000" cx="465.2701" cy="-1410" rx="157.0724" ry="18"/>
<text text-anchor="middle" x="465.2701" y="-1406.3" font-family="Times,serif" font-size="14.00" fill="#000000">id:19 rank:1 shape: (64, 16, 16)</text>
</g>
<!-- 18&#45;&gt;19 -->
<g id="edge18" class="edge">
<title>18&#45;&gt;19</title>
<path fill="none" stroke="#000000" d="M489.3506,-1499.6793C484.8029,-1482.7429 477.9794,-1457.3311 472.7558,-1437.8777"/>
<polygon fill="#000000" stroke="#000000" points="476.0905,-1436.8004 470.1169,-1428.0502 469.33,-1438.6157 476.0905,-1436.8004"/>
<text text-anchor="middle" x="800.7701" y="-1460.3" font-family="Times,serif" font-size="14.00" fill="#000000">BatchNorm2d(64, eps=1e&#45;05, momentum=0.1, affine=True, track_running_stats=True)</text>
</g>
<!-- 20 -->
<g id="node20" class="node">
<title>20</title>
<ellipse fill="none" stroke="#000000" cx="465.2701" cy="-1323" rx="157.0724" ry="18"/>
<text text-anchor="middle" x="465.2701" y="-1319.3" font-family="Times,serif" font-size="14.00" fill="#000000">id:20 rank:1 shape: (64, 16, 16)</text>
</g>
<!-- 19&#45;&gt;20 -->
<g id="edge19" class="edge">
<title>19&#45;&gt;20</title>
<path fill="none" stroke="#000000" d="M465.2701,-1391.9735C465.2701,-1380.1918 465.2701,-1364.5607 465.2701,-1351.1581"/>
<polygon fill="#000000" stroke="#000000" points="468.7702,-1351.0033 465.2701,-1341.0034 461.7702,-1351.0034 468.7702,-1351.0033"/>
<text text-anchor="middle" x="490.7701" y="-1362.8" font-family="Times,serif" font-size="14.00" fill="#000000">ReLU()</text>
</g>
<!-- 20&#45;&gt;13 -->
<g id="edge20" class="edge">
<title>20&#45;&gt;13</title>
<path fill="none" stroke="#000000" d="M431.0704,-1305.3943C404.7001,-1291.819 368.0537,-1272.9537 339.626,-1258.3193"/>
<polygon fill="#000000" stroke="#000000" points="341.2015,-1255.1939 330.7085,-1253.7287 337.9976,-1261.4176 341.2015,-1255.1939"/>
<text text-anchor="middle" x="398.2701" y="-1275.8" font-family="Times,serif" font-size="14.00" fill="#000000">id</text>
</g>
<!-- 21 -->
<g id="node21" class="node">
<title>21</title>
<ellipse fill="none" stroke="#000000" cx="296.2701" cy="-888" rx="163.2712" ry="18"/>
<text text-anchor="middle" x="296.2701" y="-884.3" font-family="Times,serif" font-size="14.00" fill="#000000">id:21 rank:3 shape: (128, 16, 16)</text>
</g>
<!-- 26 -->
<g id="node26" class="node">
<title>26</title>
<ellipse fill="none" stroke="#000000" cx="296.2701" cy="-801" rx="163.2712" ry="18"/>
<text text-anchor="middle" x="296.2701" y="-797.3" font-family="Times,serif" font-size="14.00" fill="#000000">id:26 rank:3 shape: (128, 16, 16)</text>
</g>
<!-- 21&#45;&gt;26 -->
<g id="edge26" class="edge">
<title>21&#45;&gt;26</title>
<path fill="none" stroke="#000000" d="M296.2701,-869.9735C296.2701,-858.1918 296.2701,-842.5607 296.2701,-829.1581"/>
<polygon fill="#000000" stroke="#000000" points="299.7702,-829.0033 296.2701,-819.0034 292.7702,-829.0034 299.7702,-829.0033"/>
<text text-anchor="middle" x="582.7701" y="-840.8" font-family="Times,serif" font-size="14.00" fill="#000000">Conv2d(128, 128, kernel_size=(3, 3), stride=(1, 1), padding=(1, 1), bias=False)</text>
</g>
<!-- 23 -->
<g id="node23" class="node">
<title>23</title>
<ellipse fill="none" stroke="#000000" cx="296.2701" cy="-1062" rx="163.2712" ry="18"/>
<text text-anchor="middle" x="296.2701" y="-1058.3" font-family="Times,serif" font-size="14.00" fill="#000000">id:23 rank:2 shape: (128, 16, 16)</text>
</g>
<!-- 22&#45;&gt;23 -->
<g id="edge23" class="edge">
<title>22&#45;&gt;23</title>
<path fill="none" stroke="#000000" d="M296.2701,-1130.9735C296.2701,-1119.1918 296.2701,-1103.5607 296.2701,-1090.1581"/>
<polygon fill="#000000" stroke="#000000" points="299.7702,-1090.0033 296.2701,-1080.0034 292.7702,-1090.0034 299.7702,-1090.0033"/>
<text text-anchor="middle" x="618.2701" y="-1101.8" font-family="Times,serif" font-size="14.00" fill="#000000">BatchNorm2d(128, eps=1e&#45;05, momentum=0.1, affine=True, track_running_stats=True)</text>
</g>
<!-- 24 -->
<g id="node24" class="node">
<title>24</title>
<ellipse fill="none" stroke="#000000" cx="296.2701" cy="-975" rx="163.2712" ry="18"/>
<text text-anchor="middle" x="296.2701" y="-971.3" font-family="Times,serif" font-size="14.00" fill="#000000">id:24 rank:2 shape: (128, 16, 16)</text>
</g>
<!-- 23&#45;&gt;24 -->
<g id="edge24" class="edge">
<title>23&#45;&gt;24</title>
<path fill="none" stroke="#000000" d="M296.2701,-1043.9735C296.2701,-1032.1918 296.2701,-1016.5607 296.2701,-1003.1581"/>
<polygon fill="#000000" stroke="#000000" points="299.7702,-1003.0033 296.2701,-993.0034 292.7702,-1003.0034 299.7702,-1003.0033"/>
<text text-anchor="middle" x="321.7701" y="-1014.8" font-family="Times,serif" font-size="14.00" fill="#000000">ReLU()</text>
</g>
<!-- 24&#45;&gt;21 -->
<g id="edge21" class="edge">
<title>24&#45;&gt;21</title>
<path fill="none" stroke="#000000" d="M296.2701,-956.9735C296.2701,-945.1918 296.2701,-929.5607 296.2701,-916.1581"/>
<polygon fill="#000000" stroke="#000000" points="299.7702,-916.0033 296.2701,-906.0034 292.7702,-916.0034 299.7702,-916.0033"/>
<text text-anchor="middle" x="303.2701" y="-927.8" font-family="Times,serif" font-size="14.00" fill="#000000">id</text>
</g>
<!-- 25 -->
<g id="node25" class="node">
<title>25</title>
<ellipse fill="none" stroke="#000000" cx="296.2701" cy="-540" rx="163.2712" ry="18"/>
<text text-anchor="middle" x="296.2701" y="-536.3" font-family="Times,serif" font-size="14.00" fill="#000000">id:25 rank:4 shape: (128, 16, 16)</text>
</g>
<!-- 25&#45;&gt;8 -->
<g id="edge6" class="edge">
<title>25&#45;&gt;8</title>
<path fill="none" stroke="#000000" d="M296.2701,-521.9735C296.2701,-510.1918 296.2701,-494.5607 296.2701,-481.1581"/>
<polygon fill="#000000" stroke="#000000" points="299.7702,-481.0033 296.2701,-471.0034 292.7702,-481.0034 299.7702,-481.0033"/>
<text text-anchor="middle" x="437.2701" y="-492.8" font-family="Times,serif" font-size="14.00" fill="#000000">AdaptiveAvgPool2d(output_size=(1, 1))</text>
</g>
<!-- 27 -->
<g id="node27" class="node">
<title>27</title>
<ellipse fill="none" stroke="#000000" cx="296.2701" cy="-714" rx="163.2712" ry="18"/>
<text text-anchor="middle" x="296.2701" y="-710.3" font-family="Times,serif" font-size="14.00" fill="#000000">id:27 rank:3 shape: (128, 16, 16)</text>
</g>
<!-- 26&#45;&gt;27 -->
<g id="edge27" class="edge">
<title>26&#45;&gt;27</title>
<path fill="none" stroke="#000000" d="M296.2701,-782.9735C296.2701,-771.1918 296.2701,-755.5607 296.2701,-742.1581"/>
<polygon fill="#000000" stroke="#000000" points="299.7702,-742.0033 296.2701,-732.0034 292.7702,-742.0034 299.7702,-742.0033"/>
<text text-anchor="middle" x="618.2701" y="-753.8" font-family="Times,serif" font-size="14.00" fill="#000000">BatchNorm2d(128, eps=1e&#45;05, momentum=0.1, affine=True, track_running_stats=True)</text>
</g>
<!-- 28 -->
<g id="node28" class="node">
<title>28</title>
<ellipse fill="none" stroke="#000000" cx="296.2701" cy="-627" rx="163.2712" ry="18"/>
<text text-anchor="middle" x="296.2701" y="-623.3" font-family="Times,serif" font-size="14.00" fill="#000000">id:28 rank:3 shape: (128, 16, 16)</text>
</g>
<!-- 27&#45;&gt;28 -->
<g id="edge28" class="edge">
<title>27&#45;&gt;28</title>
<path fill="none" stroke="#000000" d="M296.2701,-695.9735C296.2701,-684.1918 296.2701,-668.5607 296.2701,-655.1581"/>
<polygon fill="#000000" stroke="#000000" points="299.7702,-655.0033 296.2701,-645.0034 292.7702,-655.0034 299.7702,-655.0033"/>
<text text-anchor="middle" x="321.7701" y="-666.8" font-family="Times,serif" font-size="14.00" fill="#000000">ReLU()</text>
</g>
<!-- 28&#45;&gt;25 -->
<g id="edge25" class="edge">
<title>28&#45;&gt;25</title>
<path fill="none" stroke="#000000" d="M296.2701,-608.9735C296.2701,-597.1918 296.2701,-581.5607 296.2701,-568.1581"/>
<polygon fill="#000000" stroke="#000000" points="299.7702,-568.0033 296.2701,-558.0034 292.7702,-568.0034 299.7702,-568.0033"/>
<text text-anchor="middle" x="303.2701" y="-579.8" font-family="Times,serif" font-size="14.00" fill="#000000">id</text>
</g>
<!-- 30 -->
<g id="node30" class="node">
<title>30</title>
<ellipse fill="none" stroke="#000000" cx="505.2701" cy="-2127" rx="157.0724" ry="18"/>
<text text-anchor="middle" x="505.2701" y="-2123.3" font-family="Times,serif" font-size="14.00" fill="#000000">id:30 rank:0 shape: (32, 16, 16)</text>
</g>
<!-- 29&#45;&gt;30 -->
<g id="edge30" class="edge">
<title>29&#45;&gt;30</title>
<path fill="none" stroke="#000000" d="M504.4773,-2195.9735C504.6127,-2184.1918 504.7924,-2168.5607 504.9464,-2155.1581"/>
<polygon fill="#000000" stroke="#000000" points="508.4479,-2155.043 505.0631,-2145.0034 501.4483,-2154.9624 508.4479,-2155.043"/>
<text text-anchor="middle" x="560.7701" y="-2166.8" font-family="Times,serif" font-size="14.00" fill="#000000">Dropout(p=0.2)</text>
</g>
<!-- 31 -->
<g id="node31" class="node">
<title>31</title>
<ellipse fill="none" stroke="#000000" cx="508.2701" cy="-2040" rx="157.0724" ry="18"/>
<text text-anchor="middle" x="508.2701" y="-2036.3" font-family="Times,serif" font-size="14.00" fill="#000000">id:31 rank:0 shape: (32, 16, 16)</text>
</g>
<!-- 30&#45;&gt;31 -->
<g id="edge31" class="edge">
<title>30&#45;&gt;31</title>
<path fill="none" stroke="#000000" d="M505.8917,-2108.9735C506.2979,-2097.1918 506.837,-2081.5607 507.2991,-2068.1581"/>
<polygon fill="#000000" stroke="#000000" points="510.8025,-2068.1181 507.6493,-2058.0034 503.8066,-2067.8768 510.8025,-2068.1181"/>
<text text-anchor="middle" x="823.7701" y="-2079.8" font-family="Times,serif" font-size="14.00" fill="#000000">BatchNorm2d(32, eps=1e&#45;05, momentum=0.1, affine=True, track_running_stats=True)</text>
</g>
<!-- 32 -->
<g id="node32" class="node">
<title>32</title>
<ellipse fill="none" stroke="#000000" cx="506.2701" cy="-1953" rx="157.0724" ry="18"/>
<text text-anchor="middle" x="506.2701" y="-1949.3" font-family="Times,serif" font-size="14.00" fill="#000000">id:32 rank:0 shape: (32, 16, 16)</text>
</g>
<!-- 31&#45;&gt;32 -->
<g id="edge32" class="edge">
<title>31&#45;&gt;32</title>
<path fill="none" stroke="#000000" d="M507.8557,-2021.9735C507.5848,-2010.1918 507.2255,-1994.5607 506.9174,-1981.1581"/>
<polygon fill="#000000" stroke="#000000" points="510.4129,-1980.9202 506.6839,-1971.0034 503.4148,-1981.0812 510.4129,-1980.9202"/>
<text text-anchor="middle" x="532.7701" y="-1992.8" font-family="Times,serif" font-size="14.00" fill="#000000">ReLU()</text>
</g>
<!-- 33 -->
<g id="node33" class="node">
<title>33</title>
<ellipse fill="none" stroke="#000000" cx="504.2701" cy="-1866" rx="157.0724" ry="18"/>
<text text-anchor="middle" x="504.2701" y="-1862.3" font-family="Times,serif" font-size="14.00" fill="#000000">id:33 rank:0 shape: (96, 16, 16)</text>
</g>
<!-- 32&#45;&gt;33 -->
<g id="edge33" class="edge">
<title>32&#45;&gt;33</title>
<path fill="none" stroke="#000000" d="M505.8557,-1934.9735C505.5848,-1923.1918 505.2255,-1907.5607 504.9174,-1894.1581"/>
<polygon fill="#000000" stroke="#000000" points="508.4129,-1893.9202 504.6839,-1884.0034 501.4148,-1894.0812 508.4129,-1893.9202"/>
<text text-anchor="middle" x="680.7701" y="-1905.8" font-family="Times,serif" font-size="14.00" fill="#000000">Conv2d(32, 96, kernel_size=(1, 1), stride=(1, 1))</text>
</g>
<!-- 33&#45;&gt;7 -->
<g id="edge34" class="edge">
<title>33&#45;&gt;7</title>
<path fill="none" stroke="#000000" d="M470.0704,-1848.3943C443.613,-1834.7742 406.8117,-1815.8291 378.3448,-1801.1746"/>
<polygon fill="#000000" stroke="#000000" points="379.9119,-1798.0448 369.4189,-1796.5796 376.708,-1804.2685 379.9119,-1798.0448"/>
<text text-anchor="middle" x="436.2701" y="-1818.8" font-family="Times,serif" font-size="14.00" fill="#000000">id</text>
</g>
</g>
</svg>
