<?xml version="1.0" encoding="UTF-8" standalone="no"?>
<!DOCTYPE svg PUBLIC "-//W3C//DTD SVG 1.1//EN"
 "http://www.w3.org/Graphics/SVG/1.1/DTD/svg11.dtd">
<!-- Generated by graphviz version 2.40.1 (20161225.0304)
 -->
<!-- Title: %3 Pages: 1 -->
<svg width="1405pt" height="1697pt"
 viewBox="0.00 0.00 1405.29 1697.00" xmlns="http://www.w3.org/2000/svg" xmlns:xlink="http://www.w3.org/1999/xlink">
<g id="graph0" class="graph" transform="scale(1 1) rotate(0) translate(4 1693)">
<title>%3</title>
<polygon fill="#ffffff" stroke="transparent" points="-4,4 -4,-1693 1401.286,-1693 1401.286,4 -4,4"/>
<!-- 1 -->
<g id="node1" class="node">
<title>1</title>
<ellipse fill="none" stroke="#000000" cx="465.286" cy="-1671" rx="145.6742" ry="18"/>
<text text-anchor="middle" x="465.286" y="-1667.3" font-family="Times,serif" font-size="14.00" fill="#000000">id:1 rank:0 shape: (1, 32, 32)</text>
</g>
<!-- 3 -->
<g id="node3" class="node">
<title>3</title>
<ellipse fill="none" stroke="#000000" cx="465.286" cy="-1584" rx="151.3732" ry="18"/>
<text text-anchor="middle" x="465.286" y="-1580.3" font-family="Times,serif" font-size="14.00" fill="#000000">id:3 rank:0 shape: (96, 16, 16)</text>
</g>
<!-- 1&#45;&gt;3 -->
<g id="edge1" class="edge">
<title>1&#45;&gt;3</title>
<path fill="none" stroke="#000000" d="M465.286,-1652.9735C465.286,-1641.1918 465.286,-1625.5607 465.286,-1612.1581"/>
<polygon fill="#000000" stroke="#000000" points="468.7861,-1612.0033 465.286,-1602.0034 461.7861,-1612.0034 468.7861,-1612.0033"/>
<text text-anchor="middle" x="738.286" y="-1623.8" font-family="Times,serif" font-size="14.00" fill="#000000">Conv2d(1, 96, kernel_size=(3, 3), stride=(2, 2), padding=(1, 1), bias=False)</text>
</g>
<!-- 2 -->
<g id="node2" class="node">
<title>2</title>
<ellipse fill="none" stroke="#000000" cx="445.286" cy="-18" rx="118.8789" ry="18"/>
<text text-anchor="middle" x="445.286" y="-14.3" font-family="Times,serif" font-size="14.00" fill="#000000">id:2 rank:1 shape: (10,)</text>
</g>
<!-- 4 -->
<g id="node4" class="node">
<title>4</title>
<ellipse fill="none" stroke="#000000" cx="465.286" cy="-1497" rx="151.3732" ry="18"/>
<text text-anchor="middle" x="465.286" y="-1493.3" font-family="Times,serif" font-size="14.00" fill="#000000">id:4 rank:0 shape: (96, 16, 16)</text>
</g>
<!-- 3&#45;&gt;4 -->
<g id="edge2" class="edge">
<title>3&#45;&gt;4</title>
<path fill="none" stroke="#000000" d="M465.286,-1565.9735C465.286,-1554.1918 465.286,-1538.5607 465.286,-1525.1581"/>
<polygon fill="#000000" stroke="#000000" points="468.7861,-1525.0033 465.286,-1515.0034 461.7861,-1525.0034 468.7861,-1525.0033"/>
<text text-anchor="middle" x="521.786" y="-1536.8" font-family="Times,serif" font-size="14.00" fill="#000000">Dropout(p=0.2)</text>
</g>
<!-- 5 -->
<g id="node5" class="node">
<title>5</title>
<ellipse fill="none" stroke="#000000" cx="465.286" cy="-1410" rx="151.3732" ry="18"/>
<text text-anchor="middle" x="465.286" y="-1406.3" font-family="Times,serif" font-size="14.00" fill="#000000">id:5 rank:0 shape: (96, 16, 16)</text>
</g>
<!-- 4&#45;&gt;5 -->
<g id="edge3" class="edge">
<title>4&#45;&gt;5</title>
<path fill="none" stroke="#000000" d="M465.286,-1478.9735C465.286,-1467.1918 465.286,-1451.5607 465.286,-1438.1581"/>
<polygon fill="#000000" stroke="#000000" points="468.7861,-1438.0033 465.286,-1428.0034 461.7861,-1438.0034 468.7861,-1438.0033"/>
<text text-anchor="middle" x="782.786" y="-1449.8" font-family="Times,serif" font-size="14.00" fill="#000000">BatchNorm2d(96, eps=1e&#45;05, momentum=0.1, affine=True, track_running_stats=True)</text>
</g>
<!-- 6 -->
<g id="node6" class="node">
<title>6</title>
<ellipse fill="none" stroke="#000000" cx="465.286" cy="-1323" rx="151.3732" ry="18"/>
<text text-anchor="middle" x="465.286" y="-1319.3" font-family="Times,serif" font-size="14.00" fill="#000000">id:6 rank:0 shape: (96, 16, 16)</text>
</g>
<!-- 5&#45;&gt;6 -->
<g id="edge4" class="edge">
<title>5&#45;&gt;6</title>
<path fill="none" stroke="#000000" d="M465.286,-1391.9735C465.286,-1380.1918 465.286,-1364.5607 465.286,-1351.1581"/>
<polygon fill="#000000" stroke="#000000" points="468.7861,-1351.0033 465.286,-1341.0034 461.7861,-1351.0034 468.7861,-1351.0033"/>
<text text-anchor="middle" x="490.786" y="-1362.8" font-family="Times,serif" font-size="14.00" fill="#000000">ReLU()</text>
</g>
<!-- 7 -->
<g id="node7" class="node">
<title>7</title>
<ellipse fill="none" stroke="#000000" cx="302.286" cy="-1236" rx="151.3732" ry="18"/>
<text text-anchor="middle" x="302.286" y="-1232.3" font-family="Times,serif" font-size="14.00" fill="#000000">id:7 rank:1 shape: (96, 16, 16)</text>
</g>
<!-- 6&#45;&gt;7 -->
<g id="edge5" class="edge">
<title>6&#45;&gt;7</title>
<path fill="none" stroke="#000000" d="M432.3006,-1305.3943C406.893,-1291.8331 371.5949,-1272.9931 344.1886,-1258.3651"/>
<polygon fill="#000000" stroke="#000000" points="345.6926,-1255.2006 335.2225,-1253.5796 342.3965,-1261.376 345.6926,-1255.2006"/>
<text text-anchor="middle" x="401.286" y="-1275.8" font-family="Times,serif" font-size="14.00" fill="#000000">id</text>
</g>
<!-- 21 -->
<g id="node21" class="node">
<title>21</title>
<ellipse fill="none" stroke="#000000" cx="692.286" cy="-1236" rx="157.0724" ry="18"/>
<text text-anchor="middle" x="692.286" y="-1232.3" font-family="Times,serif" font-size="14.00" fill="#000000">id:21 rank:0 shape: (32, 16, 16)</text>
</g>
<!-- 6&#45;&gt;21 -->
<g id="edge20" class="edge">
<title>6&#45;&gt;21</title>
<path fill="none" stroke="#000000" d="M510.4053,-1305.7076C546.9984,-1291.6829 598.7102,-1271.8639 637.6456,-1256.9415"/>
<polygon fill="#000000" stroke="#000000" points="639.167,-1260.1067 647.2521,-1253.2597 636.6619,-1253.5703 639.167,-1260.1067"/>
<text text-anchor="middle" x="870.786" y="-1275.8" font-family="Times,serif" font-size="14.00" fill="#000000">Conv2d(96, 32, kernel_size=(3, 3), stride=(1, 1), padding=(1, 1), bias=False)</text>
</g>
<!-- 14 -->
<g id="node14" class="node">
<title>14</title>
<ellipse fill="none" stroke="#000000" cx="157.286" cy="-1149" rx="157.0724" ry="18"/>
<text text-anchor="middle" x="157.286" y="-1145.3" font-family="Times,serif" font-size="14.00" fill="#000000">id:14 rank:1 shape: (96, 16, 16)</text>
</g>
<!-- 7&#45;&gt;14 -->
<g id="edge13" class="edge">
<title>7&#45;&gt;14</title>
<path fill="none" stroke="#000000" d="M227.5649,-1220.3028C205.7029,-1214.4733 185.4673,-1207.4513 177.286,-1200 170.615,-1193.9241 166.1417,-1185.347 163.1533,-1176.9571"/>
<polygon fill="#000000" stroke="#000000" points="166.5008,-1175.9347 160.2846,-1167.3551 159.7937,-1177.9386 166.5008,-1175.9347"/>
<text text-anchor="middle" x="454.786" y="-1188.8" font-family="Times,serif" font-size="14.00" fill="#000000">Conv2d(96, 96, kernel_size=(3, 3), stride=(1, 1), padding=(1, 1), bias=False)</text>
</g>
<!-- 8 -->
<g id="node8" class="node">
<title>8</title>
<ellipse fill="none" stroke="#000000" cx="445.286" cy="-453" rx="139.9756" ry="18"/>
<text text-anchor="middle" x="445.286" y="-449.3" font-family="Times,serif" font-size="14.00" fill="#000000">id:8 rank:1 shape: (96, 1, 1)</text>
</g>
<!-- 9 -->
<g id="node9" class="node">
<title>9</title>
<ellipse fill="none" stroke="#000000" cx="445.286" cy="-366" rx="118.8789" ry="18"/>
<text text-anchor="middle" x="445.286" y="-362.3" font-family="Times,serif" font-size="14.00" fill="#000000">id:9 rank:1 shape: (96,)</text>
</g>
<!-- 8&#45;&gt;9 -->
<g id="edge7" class="edge">
<title>8&#45;&gt;9</title>
<path fill="none" stroke="#000000" d="M445.286,-434.9735C445.286,-423.1918 445.286,-407.5607 445.286,-394.1581"/>
<polygon fill="#000000" stroke="#000000" points="448.7861,-394.0033 445.286,-384.0034 441.7861,-394.0034 448.7861,-394.0033"/>
<text text-anchor="middle" x="476.786" y="-405.8" font-family="Times,serif" font-size="14.00" fill="#000000">Flatten()</text>
</g>
<!-- 10 -->
<g id="node10" class="node">
<title>10</title>
<ellipse fill="none" stroke="#000000" cx="445.286" cy="-279" rx="130.777" ry="18"/>
<text text-anchor="middle" x="445.286" y="-275.3" font-family="Times,serif" font-size="14.00" fill="#000000">id:10 rank:1 shape: (640,)</text>
</g>
<!-- 9&#45;&gt;10 -->
<g id="edge8" class="edge">
<title>9&#45;&gt;10</title>
<path fill="none" stroke="#000000" d="M445.286,-347.9735C445.286,-336.1918 445.286,-320.5607 445.286,-307.1581"/>
<polygon fill="#000000" stroke="#000000" points="448.7861,-307.0033 445.286,-297.0034 441.7861,-307.0034 448.7861,-307.0033"/>
<text text-anchor="middle" x="640.286" y="-318.8" font-family="Times,serif" font-size="14.00" fill="#000000">Linear(in_features=96, out_features=640, bias=True)</text>
</g>
<!-- 11 -->
<g id="node11" class="node">
<title>11</title>
<ellipse fill="none" stroke="#000000" cx="445.286" cy="-192" rx="130.777" ry="18"/>
<text text-anchor="middle" x="445.286" y="-188.3" font-family="Times,serif" font-size="14.00" fill="#000000">id:11 rank:1 shape: (640,)</text>
</g>
<!-- 10&#45;&gt;11 -->
<g id="edge9" class="edge">
<title>10&#45;&gt;11</title>
<path fill="none" stroke="#000000" d="M445.286,-260.9735C445.286,-249.1918 445.286,-233.5607 445.286,-220.1581"/>
<polygon fill="#000000" stroke="#000000" points="448.7861,-220.0033 445.286,-210.0034 441.7861,-220.0034 448.7861,-220.0033"/>
<text text-anchor="middle" x="501.786" y="-231.8" font-family="Times,serif" font-size="14.00" fill="#000000">Dropout(p=0.2)</text>
</g>
<!-- 12 -->
<g id="node12" class="node">
<title>12</title>
<ellipse fill="none" stroke="#000000" cx="445.286" cy="-105" rx="124.5782" ry="18"/>
<text text-anchor="middle" x="445.286" y="-101.3" font-family="Times,serif" font-size="14.00" fill="#000000">id:12 rank:1 shape: (10,)</text>
</g>
<!-- 11&#45;&gt;12 -->
<g id="edge10" class="edge">
<title>11&#45;&gt;12</title>
<path fill="none" stroke="#000000" d="M445.286,-173.9735C445.286,-162.1918 445.286,-146.5607 445.286,-133.1581"/>
<polygon fill="#000000" stroke="#000000" points="448.7861,-133.0033 445.286,-123.0034 441.7861,-133.0034 448.7861,-133.0033"/>
<text text-anchor="middle" x="640.286" y="-144.8" font-family="Times,serif" font-size="14.00" fill="#000000">Linear(in_features=640, out_features=10, bias=True)</text>
</g>
<!-- 12&#45;&gt;2 -->
<g id="edge11" class="edge">
<title>12&#45;&gt;2</title>
<path fill="none" stroke="#000000" d="M445.286,-86.9735C445.286,-75.1918 445.286,-59.5607 445.286,-46.1581"/>
<polygon fill="#000000" stroke="#000000" points="448.7861,-46.0033 445.286,-36.0034 441.7861,-46.0034 448.7861,-46.0033"/>
<text text-anchor="middle" x="501.786" y="-57.8" font-family="Times,serif" font-size="14.00" fill="#000000">Dropout(p=0.2)</text>
</g>
<!-- 13 -->
<g id="node13" class="node">
<title>13</title>
<ellipse fill="none" stroke="#000000" cx="445.286" cy="-888" rx="163.2712" ry="18"/>
<text text-anchor="middle" x="445.286" y="-884.3" font-family="Times,serif" font-size="14.00" fill="#000000">id:13 rank:2 shape: (128, 16, 16)</text>
</g>
<!-- 18 -->
<g id="node18" class="node">
<title>18</title>
<ellipse fill="none" stroke="#000000" cx="445.286" cy="-801" rx="157.0724" ry="18"/>
<text text-anchor="middle" x="445.286" y="-797.3" font-family="Times,serif" font-size="14.00" fill="#000000">id:18 rank:2 shape: (96, 16, 16)</text>
</g>
<!-- 13&#45;&gt;18 -->
<g id="edge17" class="edge">
<title>13&#45;&gt;18</title>
<path fill="none" stroke="#000000" d="M445.286,-869.9735C445.286,-858.1918 445.286,-842.5607 445.286,-829.1581"/>
<polygon fill="#000000" stroke="#000000" points="448.7861,-829.0033 445.286,-819.0034 441.7861,-829.0034 448.7861,-829.0033"/>
<text text-anchor="middle" x="727.286" y="-840.8" font-family="Times,serif" font-size="14.00" fill="#000000">Conv2d(128, 96, kernel_size=(3, 3), stride=(1, 1), padding=(1, 1), bias=False)</text>
</g>
<!-- 15 -->
<g id="node15" class="node">
<title>15</title>
<ellipse fill="none" stroke="#000000" cx="279.286" cy="-1062" rx="157.0724" ry="18"/>
<text text-anchor="middle" x="279.286" y="-1058.3" font-family="Times,serif" font-size="14.00" fill="#000000">id:15 rank:1 shape: (96, 16, 16)</text>
</g>
<!-- 14&#45;&gt;15 -->
<g id="edge14" class="edge">
<title>14&#45;&gt;15</title>
<path fill="none" stroke="#000000" d="M127.5941,-1131.2261C115.0857,-1121.4998 105.2785,-1109.1847 114.286,-1098 121.3429,-1089.2374 138.9978,-1082.4933 160.2621,-1077.3448"/>
<polygon fill="#000000" stroke="#000000" points="161.276,-1080.7042 170.2611,-1075.0901 159.7361,-1073.8756 161.276,-1080.7042"/>
<text text-anchor="middle" x="431.786" y="-1101.8" font-family="Times,serif" font-size="14.00" fill="#000000">BatchNorm2d(96, eps=1e&#45;05, momentum=0.1, affine=True, track_running_stats=True)</text>
</g>
<!-- 16 -->
<g id="node16" class="node">
<title>16</title>
<ellipse fill="none" stroke="#000000" cx="279.286" cy="-975" rx="157.0724" ry="18"/>
<text text-anchor="middle" x="279.286" y="-971.3" font-family="Times,serif" font-size="14.00" fill="#000000">id:16 rank:1 shape: (96, 16, 16)</text>
</g>
<!-- 15&#45;&gt;16 -->
<g id="edge15" class="edge">
<title>15&#45;&gt;16</title>
<path fill="none" stroke="#000000" d="M279.286,-1043.9735C279.286,-1032.1918 279.286,-1016.5607 279.286,-1003.1581"/>
<polygon fill="#000000" stroke="#000000" points="282.7861,-1003.0033 279.286,-993.0034 275.7861,-1003.0034 282.7861,-1003.0033"/>
<text text-anchor="middle" x="304.786" y="-1014.8" font-family="Times,serif" font-size="14.00" fill="#000000">ReLU()</text>
</g>
<!-- 16&#45;&gt;13 -->
<g id="edge12" class="edge">
<title>16&#45;&gt;13</title>
<path fill="none" stroke="#000000" d="M312.8786,-957.3943C338.6687,-943.8777 374.4652,-925.117 402.3366,-910.5096"/>
<polygon fill="#000000" stroke="#000000" points="404.2264,-913.4708 411.459,-905.7287 400.9769,-907.2707 404.2264,-913.4708"/>
<text text-anchor="middle" x="379.286" y="-927.8" font-family="Times,serif" font-size="14.00" fill="#000000">id</text>
</g>
<!-- 17 -->
<g id="node17" class="node">
<title>17</title>
<ellipse fill="none" stroke="#000000" cx="445.286" cy="-540" rx="157.0724" ry="18"/>
<text text-anchor="middle" x="445.286" y="-536.3" font-family="Times,serif" font-size="14.00" fill="#000000">id:17 rank:3 shape: (96, 16, 16)</text>
</g>
<!-- 17&#45;&gt;8 -->
<g id="edge6" class="edge">
<title>17&#45;&gt;8</title>
<path fill="none" stroke="#000000" d="M445.286,-521.9735C445.286,-510.1918 445.286,-494.5607 445.286,-481.1581"/>
<polygon fill="#000000" stroke="#000000" points="448.7861,-481.0033 445.286,-471.0034 441.7861,-481.0034 448.7861,-481.0033"/>
<text text-anchor="middle" x="586.286" y="-492.8" font-family="Times,serif" font-size="14.00" fill="#000000">AdaptiveAvgPool2d(output_size=(1, 1))</text>
</g>
<!-- 19 -->
<g id="node19" class="node">
<title>19</title>
<ellipse fill="none" stroke="#000000" cx="445.286" cy="-714" rx="157.0724" ry="18"/>
<text text-anchor="middle" x="445.286" y="-710.3" font-family="Times,serif" font-size="14.00" fill="#000000">id:19 rank:2 shape: (96, 16, 16)</text>
</g>
<!-- 18&#45;&gt;19 -->
<g id="edge18" class="edge">
<title>18&#45;&gt;19</title>
<path fill="none" stroke="#000000" d="M445.286,-782.9735C445.286,-771.1918 445.286,-755.5607 445.286,-742.1581"/>
<polygon fill="#000000" stroke="#000000" points="448.7861,-742.0033 445.286,-732.0034 441.7861,-742.0034 448.7861,-742.0033"/>
<text text-anchor="middle" x="762.786" y="-753.8" font-family="Times,serif" font-size="14.00" fill="#000000">BatchNorm2d(96, eps=1e&#45;05, momentum=0.1, affine=True, track_running_stats=True)</text>
</g>
<!-- 20 -->
<g id="node20" class="node">
<title>20</title>
<ellipse fill="none" stroke="#000000" cx="445.286" cy="-627" rx="157.0724" ry="18"/>
<text text-anchor="middle" x="445.286" y="-623.3" font-family="Times,serif" font-size="14.00" fill="#000000">id:20 rank:2 shape: (96, 16, 16)</text>
</g>
<!-- 19&#45;&gt;20 -->
<g id="edge19" class="edge">
<title>19&#45;&gt;20</title>
<path fill="none" stroke="#000000" d="M445.286,-695.9735C445.286,-684.1918 445.286,-668.5607 445.286,-655.1581"/>
<polygon fill="#000000" stroke="#000000" points="448.7861,-655.0033 445.286,-645.0034 441.7861,-655.0034 448.7861,-655.0033"/>
<text text-anchor="middle" x="470.786" y="-666.8" font-family="Times,serif" font-size="14.00" fill="#000000">ReLU()</text>
</g>
<!-- 20&#45;&gt;17 -->
<g id="edge16" class="edge">
<title>20&#45;&gt;17</title>
<path fill="none" stroke="#000000" d="M445.286,-608.9735C445.286,-597.1918 445.286,-581.5607 445.286,-568.1581"/>
<polygon fill="#000000" stroke="#000000" points="448.7861,-568.0033 445.286,-558.0034 441.7861,-568.0034 448.7861,-568.0033"/>
<text text-anchor="middle" x="452.286" y="-579.8" font-family="Times,serif" font-size="14.00" fill="#000000">id</text>
</g>
<!-- 22 -->
<g id="node22" class="node">
<title>22</title>
<ellipse fill="none" stroke="#000000" cx="770.286" cy="-1149" rx="157.0724" ry="18"/>
<text text-anchor="middle" x="770.286" y="-1145.3" font-family="Times,serif" font-size="14.00" fill="#000000">id:22 rank:0 shape: (32, 16, 16)</text>
</g>
<!-- 21&#45;&gt;22 -->
<g id="edge21" class="edge">
<title>21&#45;&gt;22</title>
<path fill="none" stroke="#000000" d="M716.725,-1218.1501C723.4293,-1212.6988 730.4518,-1206.4342 736.286,-1200 742.9003,-1192.7056 749.175,-1184.0214 754.4916,-1175.905"/>
<polygon fill="#000000" stroke="#000000" points="757.474,-1177.7372 759.8553,-1167.4134 751.5558,-1173.9989 757.474,-1177.7372"/>
<text text-anchor="middle" x="804.786" y="-1188.8" font-family="Times,serif" font-size="14.00" fill="#000000">Dropout(p=0.2)</text>
</g>
<!-- 23 -->
<g id="node23" class="node">
<title>23</title>
<ellipse fill="none" stroke="#000000" cx="693.286" cy="-1062" rx="157.0724" ry="18"/>
<text text-anchor="middle" x="693.286" y="-1058.3" font-family="Times,serif" font-size="14.00" fill="#000000">id:23 rank:0 shape: (32, 16, 16)</text>
</g>
<!-- 22&#45;&gt;23 -->
<g id="edge22" class="edge">
<title>22&#45;&gt;23</title>
<path fill="none" stroke="#000000" d="M767.5027,-1130.9757C765.1432,-1120.468 760.878,-1107.4643 753.286,-1098 749.5365,-1093.3258 745.0042,-1089.1162 740.1301,-1085.3659"/>
<polygon fill="#000000" stroke="#000000" points="741.8896,-1082.3262 731.6823,-1079.4868 737.891,-1088.0718 741.8896,-1082.3262"/>
<text text-anchor="middle" x="1079.786" y="-1101.8" font-family="Times,serif" font-size="14.00" fill="#000000">BatchNorm2d(32, eps=1e&#45;05, momentum=0.1, affine=True, track_running_stats=True)</text>
</g>
<!-- 24 -->
<g id="node24" class="node">
<title>24</title>
<ellipse fill="none" stroke="#000000" cx="652.286" cy="-975" rx="157.0724" ry="18"/>
<text text-anchor="middle" x="652.286" y="-971.3" font-family="Times,serif" font-size="14.00" fill="#000000">id:24 rank:0 shape: (32, 16, 16)</text>
</g>
<!-- 23&#45;&gt;24 -->
<g id="edge23" class="edge">
<title>23&#45;&gt;24</title>
<path fill="none" stroke="#000000" d="M684.7908,-1043.9735C679.1285,-1031.9585 671.5797,-1015.9401 665.182,-1002.3646"/>
<polygon fill="#000000" stroke="#000000" points="668.1995,-1000.5571 660.7704,-993.0034 661.8674,-1003.5413 668.1995,-1000.5571"/>
<text text-anchor="middle" x="700.786" y="-1014.8" font-family="Times,serif" font-size="14.00" fill="#000000">ReLU()</text>
</g>
<!-- 24&#45;&gt;13 -->
<g id="edge24" class="edge">
<title>24&#45;&gt;13</title>
<path fill="none" stroke="#000000" d="M610.894,-957.6033C578.0013,-943.7789 531.8282,-924.3728 496.5896,-909.5624"/>
<polygon fill="#000000" stroke="#000000" points="497.5356,-906.1634 486.9606,-905.5154 494.8233,-912.6167 497.5356,-906.1634"/>
<text text-anchor="middle" x="568.286" y="-927.8" font-family="Times,serif" font-size="14.00" fill="#000000">id</text>
</g>
</g>
</svg>
