<?xml version="1.0" encoding="UTF-8" standalone="no"?>
<!DOCTYPE svg PUBLIC "-//W3C//DTD SVG 1.1//EN"
 "http://www.w3.org/Graphics/SVG/1.1/DTD/svg11.dtd">
<!-- Generated by graphviz version 2.40.1 (20161225.0304)
 -->
<!-- Title: %3 Pages: 1 -->
<svg width="1904pt" height="3389pt"
 viewBox="0.00 0.00 1904.24 3389.00" xmlns="http://www.w3.org/2000/svg" xmlns:xlink="http://www.w3.org/1999/xlink">
<g id="graph0" class="graph" transform="scale(1 1) rotate(0) translate(4 3385)">
<title>%3</title>
<polygon fill="#ffffff" stroke="transparent" points="-4,4 -4,-3385 1900.2405,-3385 1900.2405,4 -4,4"/>
<!-- 1 -->
<g id="node1" class="node">
<title>1</title>
<ellipse fill="none" stroke="#000000" cx="201.2405" cy="-3363" rx="145.6742" ry="18"/>
<text text-anchor="middle" x="201.2405" y="-3359.3" font-family="Times,serif" font-size="14.00" fill="#000000">id:1 rank:0 shape: (1, 32, 32)</text>
</g>
<!-- 3 -->
<g id="node3" class="node">
<title>3</title>
<ellipse fill="none" stroke="#000000" cx="201.2405" cy="-3276" rx="151.3732" ry="18"/>
<text text-anchor="middle" x="201.2405" y="-3272.3" font-family="Times,serif" font-size="14.00" fill="#000000">id:3 rank:0 shape: (96, 16, 16)</text>
</g>
<!-- 1&#45;&gt;3 -->
<g id="edge1" class="edge">
<title>1&#45;&gt;3</title>
<path fill="none" stroke="#000000" d="M201.2405,-3344.9735C201.2405,-3333.1918 201.2405,-3317.5607 201.2405,-3304.1581"/>
<polygon fill="#000000" stroke="#000000" points="204.7406,-3304.0033 201.2405,-3294.0034 197.7406,-3304.0034 204.7406,-3304.0033"/>
<text text-anchor="middle" x="474.2405" y="-3315.8" font-family="Times,serif" font-size="14.00" fill="#000000">Conv2d(1, 96, kernel_size=(3, 3), stride=(2, 2), padding=(1, 1), bias=False)</text>
</g>
<!-- 2 -->
<g id="node2" class="node">
<title>2</title>
<ellipse fill="none" stroke="#000000" cx="577.2405" cy="-18" rx="118.8789" ry="18"/>
<text text-anchor="middle" x="577.2405" y="-14.3" font-family="Times,serif" font-size="14.00" fill="#000000">id:2 rank:1 shape: (10,)</text>
</g>
<!-- 4 -->
<g id="node4" class="node">
<title>4</title>
<ellipse fill="none" stroke="#000000" cx="201.2405" cy="-3189" rx="151.3732" ry="18"/>
<text text-anchor="middle" x="201.2405" y="-3185.3" font-family="Times,serif" font-size="14.00" fill="#000000">id:4 rank:0 shape: (96, 16, 16)</text>
</g>
<!-- 3&#45;&gt;4 -->
<g id="edge2" class="edge">
<title>3&#45;&gt;4</title>
<path fill="none" stroke="#000000" d="M201.2405,-3257.9735C201.2405,-3246.1918 201.2405,-3230.5607 201.2405,-3217.1581"/>
<polygon fill="#000000" stroke="#000000" points="204.7406,-3217.0033 201.2405,-3207.0034 197.7406,-3217.0034 204.7406,-3217.0033"/>
<text text-anchor="middle" x="257.7405" y="-3228.8" font-family="Times,serif" font-size="14.00" fill="#000000">Dropout(p=0.2)</text>
</g>
<!-- 5 -->
<g id="node5" class="node">
<title>5</title>
<ellipse fill="none" stroke="#000000" cx="201.2405" cy="-3102" rx="151.3732" ry="18"/>
<text text-anchor="middle" x="201.2405" y="-3098.3" font-family="Times,serif" font-size="14.00" fill="#000000">id:5 rank:0 shape: (96, 16, 16)</text>
</g>
<!-- 4&#45;&gt;5 -->
<g id="edge3" class="edge">
<title>4&#45;&gt;5</title>
<path fill="none" stroke="#000000" d="M201.2405,-3170.9735C201.2405,-3159.1918 201.2405,-3143.5607 201.2405,-3130.1581"/>
<polygon fill="#000000" stroke="#000000" points="204.7406,-3130.0033 201.2405,-3120.0034 197.7406,-3130.0034 204.7406,-3130.0033"/>
<text text-anchor="middle" x="518.7405" y="-3141.8" font-family="Times,serif" font-size="14.00" fill="#000000">BatchNorm2d(96, eps=1e&#45;05, momentum=0.1, affine=True, track_running_stats=True)</text>
</g>
<!-- 6 -->
<g id="node6" class="node">
<title>6</title>
<ellipse fill="none" stroke="#000000" cx="201.2405" cy="-3015" rx="151.3732" ry="18"/>
<text text-anchor="middle" x="201.2405" y="-3011.3" font-family="Times,serif" font-size="14.00" fill="#000000">id:6 rank:0 shape: (96, 16, 16)</text>
</g>
<!-- 5&#45;&gt;6 -->
<g id="edge4" class="edge">
<title>5&#45;&gt;6</title>
<path fill="none" stroke="#000000" d="M201.2405,-3083.9735C201.2405,-3072.1918 201.2405,-3056.5607 201.2405,-3043.1581"/>
<polygon fill="#000000" stroke="#000000" points="204.7406,-3043.0033 201.2405,-3033.0034 197.7406,-3043.0034 204.7406,-3043.0033"/>
<text text-anchor="middle" x="226.7405" y="-3054.8" font-family="Times,serif" font-size="14.00" fill="#000000">ReLU()</text>
</g>
<!-- 7 -->
<g id="node7" class="node">
<title>7</title>
<ellipse fill="none" stroke="#000000" cx="279.2405" cy="-2061" rx="151.3732" ry="18"/>
<text text-anchor="middle" x="279.2405" y="-2057.3" font-family="Times,serif" font-size="14.00" fill="#000000">id:7 rank:1 shape: (96, 16, 16)</text>
</g>
<!-- 6&#45;&gt;7 -->
<g id="edge5" class="edge">
<title>6&#45;&gt;7</title>
<path fill="none" stroke="#000000" d="M181.7452,-2996.9697C166.2776,-2980.6257 147.2405,-2955.0212 147.2405,-2928 147.2405,-2928 147.2405,-2928 147.2405,-2148 147.2405,-2115.5402 175.412,-2094.5041 205.7261,-2081.2642"/>
<polygon fill="#000000" stroke="#000000" points="207.2421,-2084.4257 215.1738,-2077.4016 204.593,-2077.9463 207.2421,-2084.4257"/>
<text text-anchor="middle" x="154.2405" y="-2576.3" font-family="Times,serif" font-size="14.00" fill="#000000">id</text>
</g>
<!-- 29 -->
<g id="node29" class="node">
<title>29</title>
<ellipse fill="none" stroke="#000000" cx="334.2405" cy="-2928" rx="157.0724" ry="18"/>
<text text-anchor="middle" x="334.2405" y="-2924.3" font-family="Times,serif" font-size="14.00" fill="#000000">id:29 rank:0 shape: (48, 16, 16)</text>
</g>
<!-- 6&#45;&gt;29 -->
<g id="edge29" class="edge">
<title>6&#45;&gt;29</title>
<path fill="none" stroke="#000000" d="M228.476,-2997.1843C248.7377,-2983.9304 276.5761,-2965.7203 298.6066,-2951.3094"/>
<polygon fill="#000000" stroke="#000000" points="300.5888,-2954.1951 307.0414,-2945.7919 296.7568,-2948.3371 300.5888,-2954.1951"/>
<text text-anchor="middle" x="552.7405" y="-2967.8" font-family="Times,serif" font-size="14.00" fill="#000000">Conv2d(96, 48, kernel_size=(3, 3), stride=(1, 1), padding=(1, 1), bias=False)</text>
</g>
<!-- 14 -->
<g id="node14" class="node">
<title>14</title>
<ellipse fill="none" stroke="#000000" cx="279.2405" cy="-1974" rx="163.2712" ry="18"/>
<text text-anchor="middle" x="279.2405" y="-1970.3" font-family="Times,serif" font-size="14.00" fill="#000000">id:14 rank:1 shape: (256, 16, 16)</text>
</g>
<!-- 7&#45;&gt;14 -->
<g id="edge13" class="edge">
<title>7&#45;&gt;14</title>
<path fill="none" stroke="#000000" d="M279.2405,-2042.9735C279.2405,-2031.1918 279.2405,-2015.5607 279.2405,-2002.1581"/>
<polygon fill="#000000" stroke="#000000" points="282.7406,-2002.0033 279.2405,-1992.0034 275.7406,-2002.0034 282.7406,-2002.0033"/>
<text text-anchor="middle" x="561.2405" y="-2013.8" font-family="Times,serif" font-size="14.00" fill="#000000">Conv2d(96, 256, kernel_size=(3, 3), stride=(1, 1), padding=(1, 1), bias=False)</text>
</g>
<!-- 8 -->
<g id="node8" class="node">
<title>8</title>
<ellipse fill="none" stroke="#000000" cx="577.2405" cy="-453" rx="145.6742" ry="18"/>
<text text-anchor="middle" x="577.2405" y="-449.3" font-family="Times,serif" font-size="14.00" fill="#000000">id:8 rank:1 shape: (128, 1, 1)</text>
</g>
<!-- 9 -->
<g id="node9" class="node">
<title>9</title>
<ellipse fill="none" stroke="#000000" cx="577.2405" cy="-366" rx="124.5782" ry="18"/>
<text text-anchor="middle" x="577.2405" y="-362.3" font-family="Times,serif" font-size="14.00" fill="#000000">id:9 rank:1 shape: (128,)</text>
</g>
<!-- 8&#45;&gt;9 -->
<g id="edge7" class="edge">
<title>8&#45;&gt;9</title>
<path fill="none" stroke="#000000" d="M577.2405,-434.9735C577.2405,-423.1918 577.2405,-407.5607 577.2405,-394.1581"/>
<polygon fill="#000000" stroke="#000000" points="580.7406,-394.0033 577.2405,-384.0034 573.7406,-394.0034 580.7406,-394.0033"/>
<text text-anchor="middle" x="608.7405" y="-405.8" font-family="Times,serif" font-size="14.00" fill="#000000">Flatten()</text>
</g>
<!-- 10 -->
<g id="node10" class="node">
<title>10</title>
<ellipse fill="none" stroke="#000000" cx="577.2405" cy="-279" rx="130.777" ry="18"/>
<text text-anchor="middle" x="577.2405" y="-275.3" font-family="Times,serif" font-size="14.00" fill="#000000">id:10 rank:1 shape: (640,)</text>
</g>
<!-- 9&#45;&gt;10 -->
<g id="edge8" class="edge">
<title>9&#45;&gt;10</title>
<path fill="none" stroke="#000000" d="M577.2405,-347.9735C577.2405,-336.1918 577.2405,-320.5607 577.2405,-307.1581"/>
<polygon fill="#000000" stroke="#000000" points="580.7406,-307.0033 577.2405,-297.0034 573.7406,-307.0034 580.7406,-307.0033"/>
<text text-anchor="middle" x="776.7405" y="-318.8" font-family="Times,serif" font-size="14.00" fill="#000000">Linear(in_features=128, out_features=640, bias=True)</text>
</g>
<!-- 11 -->
<g id="node11" class="node">
<title>11</title>
<ellipse fill="none" stroke="#000000" cx="577.2405" cy="-192" rx="130.777" ry="18"/>
<text text-anchor="middle" x="577.2405" y="-188.3" font-family="Times,serif" font-size="14.00" fill="#000000">id:11 rank:1 shape: (640,)</text>
</g>
<!-- 10&#45;&gt;11 -->
<g id="edge9" class="edge">
<title>10&#45;&gt;11</title>
<path fill="none" stroke="#000000" d="M577.2405,-260.9735C577.2405,-249.1918 577.2405,-233.5607 577.2405,-220.1581"/>
<polygon fill="#000000" stroke="#000000" points="580.7406,-220.0033 577.2405,-210.0034 573.7406,-220.0034 580.7406,-220.0033"/>
<text text-anchor="middle" x="633.7405" y="-231.8" font-family="Times,serif" font-size="14.00" fill="#000000">Dropout(p=0.2)</text>
</g>
<!-- 12 -->
<g id="node12" class="node">
<title>12</title>
<ellipse fill="none" stroke="#000000" cx="577.2405" cy="-105" rx="124.5782" ry="18"/>
<text text-anchor="middle" x="577.2405" y="-101.3" font-family="Times,serif" font-size="14.00" fill="#000000">id:12 rank:1 shape: (10,)</text>
</g>
<!-- 11&#45;&gt;12 -->
<g id="edge10" class="edge">
<title>11&#45;&gt;12</title>
<path fill="none" stroke="#000000" d="M577.2405,-173.9735C577.2405,-162.1918 577.2405,-146.5607 577.2405,-133.1581"/>
<polygon fill="#000000" stroke="#000000" points="580.7406,-133.0033 577.2405,-123.0034 573.7406,-133.0034 580.7406,-133.0033"/>
<text text-anchor="middle" x="772.2405" y="-144.8" font-family="Times,serif" font-size="14.00" fill="#000000">Linear(in_features=640, out_features=10, bias=True)</text>
</g>
<!-- 12&#45;&gt;2 -->
<g id="edge11" class="edge">
<title>12&#45;&gt;2</title>
<path fill="none" stroke="#000000" d="M577.2405,-86.9735C577.2405,-75.1918 577.2405,-59.5607 577.2405,-46.1581"/>
<polygon fill="#000000" stroke="#000000" points="580.7406,-46.0033 577.2405,-36.0034 573.7406,-46.0034 580.7406,-46.0033"/>
<text text-anchor="middle" x="633.7405" y="-57.8" font-family="Times,serif" font-size="14.00" fill="#000000">Dropout(p=0.2)</text>
</g>
<!-- 13 -->
<g id="node13" class="node">
<title>13</title>
<ellipse fill="none" stroke="#000000" cx="602.2405" cy="-1518" rx="163.2712" ry="18"/>
<text text-anchor="middle" x="602.2405" y="-1514.3" font-family="Times,serif" font-size="14.00" fill="#000000">id:13 rank:2 shape: (416, 16, 16)</text>
</g>
<!-- 22 -->
<g id="node22" class="node">
<title>22</title>
<ellipse fill="none" stroke="#000000" cx="602.2405" cy="-1431" rx="163.2712" ry="18"/>
<text text-anchor="middle" x="602.2405" y="-1427.3" font-family="Times,serif" font-size="14.00" fill="#000000">id:22 rank:2 shape: (192, 16, 16)</text>
</g>
<!-- 13&#45;&gt;22 -->
<g id="edge22" class="edge">
<title>13&#45;&gt;22</title>
<path fill="none" stroke="#000000" d="M602.2405,-1499.9735C602.2405,-1488.1918 602.2405,-1472.5607 602.2405,-1459.1581"/>
<polygon fill="#000000" stroke="#000000" points="605.7406,-1459.0033 602.2405,-1449.0034 598.7406,-1459.0034 605.7406,-1459.0033"/>
<text text-anchor="middle" x="888.7405" y="-1470.8" font-family="Times,serif" font-size="14.00" fill="#000000">Conv2d(416, 192, kernel_size=(3, 3), stride=(1, 1), padding=(1, 1), bias=False)</text>
</g>
<!-- 15 -->
<g id="node15" class="node">
<title>15</title>
<ellipse fill="none" stroke="#000000" cx="163.2405" cy="-1887" rx="163.2712" ry="18"/>
<text text-anchor="middle" x="163.2405" y="-1883.3" font-family="Times,serif" font-size="14.00" fill="#000000">id:15 rank:1 shape: (256, 16, 16)</text>
</g>
<!-- 14&#45;&gt;15 -->
<g id="edge14" class="edge">
<title>14&#45;&gt;15</title>
<path fill="none" stroke="#000000" d="M142.6572,-1964.1349C78.188,-1958.0547 13.1242,-1949.2566 3.2405,-1938 -1.1582,-1932.9904 -.9242,-1928.2058 3.2405,-1923 9.9198,-1914.6509 26.4515,-1908.1021 46.4797,-1903.0159"/>
<polygon fill="#000000" stroke="#000000" points="47.3078,-1906.4167 56.2332,-1900.7081 45.696,-1899.6048 47.3078,-1906.4167"/>
<text text-anchor="middle" x="325.2405" y="-1926.8" font-family="Times,serif" font-size="14.00" fill="#000000">BatchNorm2d(256, eps=1e&#45;05, momentum=0.1, affine=True, track_running_stats=True)</text>
</g>
<!-- 17 -->
<g id="node17" class="node">
<title>17</title>
<ellipse fill="none" stroke="#000000" cx="634.2405" cy="-1887" rx="163.2712" ry="18"/>
<text text-anchor="middle" x="634.2405" y="-1883.3" font-family="Times,serif" font-size="14.00" fill="#000000">id:17 rank:1 shape: (128, 16, 16)</text>
</g>
<!-- 14&#45;&gt;17 -->
<g id="edge16" class="edge">
<title>14&#45;&gt;17</title>
<path fill="none" stroke="#000000" d="M434.5482,-1968.4388C528.3065,-1963.4343 632.4834,-1954.2711 647.2405,-1938 653.1276,-1931.5088 652.7792,-1922.7234 650.041,-1914.2738"/>
<polygon fill="#000000" stroke="#000000" points="653.2485,-1912.8721 646.1391,-1905.0167 646.7981,-1915.5911 653.2485,-1912.8721"/>
<text text-anchor="middle" x="937.7405" y="-1926.8" font-family="Times,serif" font-size="14.00" fill="#000000">Conv2d(256, 128, kernel_size=(3, 3), stride=(1, 1), padding=(1, 1), bias=False)</text>
</g>
<!-- 16 -->
<g id="node16" class="node">
<title>16</title>
<ellipse fill="none" stroke="#000000" cx="320.2405" cy="-1746" rx="163.2712" ry="18"/>
<text text-anchor="middle" x="320.2405" y="-1742.3" font-family="Times,serif" font-size="14.00" fill="#000000">id:16 rank:1 shape: (256, 16, 16)</text>
</g>
<!-- 15&#45;&gt;16 -->
<g id="edge15" class="edge">
<title>15&#45;&gt;16</title>
<path fill="none" stroke="#000000" d="M183.4441,-1868.8554C211.2349,-1843.8967 261.3578,-1798.8819 292.6026,-1770.8212"/>
<polygon fill="#000000" stroke="#000000" points="295.013,-1773.3608 300.1144,-1764.075 290.3358,-1768.1528 295.013,-1773.3608"/>
<text text-anchor="middle" x="244.7405" y="-1839.8" font-family="Times,serif" font-size="14.00" fill="#000000">ReLU()</text>
</g>
<!-- 16&#45;&gt;13 -->
<g id="edge12" class="edge">
<title>16&#45;&gt;13</title>
<path fill="none" stroke="#000000" d="M328.3431,-1727.9332C343.7531,-1695.4557 380.261,-1626.8855 430.2405,-1587 458.2726,-1564.6293 494.5033,-1548.6581 526.478,-1537.7547"/>
<polygon fill="#000000" stroke="#000000" points="527.8499,-1540.9878 536.2508,-1534.5321 525.6577,-1534.3399 527.8499,-1540.9878"/>
<text text-anchor="middle" x="386.2405" y="-1644.8" font-family="Times,serif" font-size="14.00" fill="#000000">id</text>
</g>
<!-- 18 -->
<g id="node18" class="node">
<title>18</title>
<ellipse fill="none" stroke="#000000" cx="607.2405" cy="-1800" rx="163.2712" ry="18"/>
<text text-anchor="middle" x="607.2405" y="-1796.3" font-family="Times,serif" font-size="14.00" fill="#000000">id:18 rank:1 shape: (128, 16, 16)</text>
</g>
<!-- 17&#45;&gt;18 -->
<g id="edge17" class="edge">
<title>17&#45;&gt;18</title>
<path fill="none" stroke="#000000" d="M628.6461,-1868.9735C624.9534,-1857.0751 620.0424,-1841.2508 615.8558,-1827.7606"/>
<polygon fill="#000000" stroke="#000000" points="619.1345,-1826.5166 612.8277,-1818.0034 612.4491,-1828.5914 619.1345,-1826.5166"/>
<text text-anchor="middle" x="678.7405" y="-1839.8" font-family="Times,serif" font-size="14.00" fill="#000000">Dropout(p=0.2)</text>
</g>
<!-- 19 -->
<g id="node19" class="node">
<title>19</title>
<ellipse fill="none" stroke="#000000" cx="602.2405" cy="-1692" rx="163.2712" ry="18"/>
<text text-anchor="middle" x="602.2405" y="-1688.3" font-family="Times,serif" font-size="14.00" fill="#000000">id:19 rank:1 shape: (128, 16, 16)</text>
</g>
<!-- 18&#45;&gt;19 -->
<g id="edge18" class="edge">
<title>18&#45;&gt;19</title>
<path fill="none" stroke="#000000" d="M604.8623,-1781.7156C604.2184,-1776.0476 603.6005,-1769.7742 603.2405,-1764 602.347,-1749.671 602.0539,-1733.7082 602.0024,-1720.4613"/>
<polygon fill="#000000" stroke="#000000" points="605.5025,-1720.07 602.008,-1710.0681 598.5025,-1720.0661 605.5025,-1720.07"/>
<text text-anchor="middle" x="925.2405" y="-1742.3" font-family="Times,serif" font-size="14.00" fill="#000000">BatchNorm2d(128, eps=1e&#45;05, momentum=0.1, affine=True, track_running_stats=True)</text>
</g>
<!-- 20 -->
<g id="node20" class="node">
<title>20</title>
<ellipse fill="none" stroke="#000000" cx="602.2405" cy="-1605" rx="163.2712" ry="18"/>
<text text-anchor="middle" x="602.2405" y="-1601.3" font-family="Times,serif" font-size="14.00" fill="#000000">id:20 rank:1 shape: (128, 16, 16)</text>
</g>
<!-- 19&#45;&gt;20 -->
<g id="edge19" class="edge">
<title>19&#45;&gt;20</title>
<path fill="none" stroke="#000000" d="M602.2405,-1673.9735C602.2405,-1662.1918 602.2405,-1646.5607 602.2405,-1633.1581"/>
<polygon fill="#000000" stroke="#000000" points="605.7406,-1633.0033 602.2405,-1623.0034 598.7406,-1633.0034 605.7406,-1633.0033"/>
<text text-anchor="middle" x="627.7405" y="-1644.8" font-family="Times,serif" font-size="14.00" fill="#000000">ReLU()</text>
</g>
<!-- 20&#45;&gt;13 -->
<g id="edge20" class="edge">
<title>20&#45;&gt;13</title>
<path fill="none" stroke="#000000" d="M602.2405,-1586.9735C602.2405,-1575.1918 602.2405,-1559.5607 602.2405,-1546.1581"/>
<polygon fill="#000000" stroke="#000000" points="605.7406,-1546.0033 602.2405,-1536.0034 598.7406,-1546.0034 605.7406,-1546.0033"/>
<text text-anchor="middle" x="609.2405" y="-1557.8" font-family="Times,serif" font-size="14.00" fill="#000000">id</text>
</g>
<!-- 21 -->
<g id="node21" class="node">
<title>21</title>
<ellipse fill="none" stroke="#000000" cx="602.2405" cy="-1170" rx="163.2712" ry="18"/>
<text text-anchor="middle" x="602.2405" y="-1166.3" font-family="Times,serif" font-size="14.00" fill="#000000">id:21 rank:3 shape: (192, 16, 16)</text>
</g>
<!-- 26 -->
<g id="node26" class="node">
<title>26</title>
<ellipse fill="none" stroke="#000000" cx="602.2405" cy="-1083" rx="163.2712" ry="18"/>
<text text-anchor="middle" x="602.2405" y="-1079.3" font-family="Times,serif" font-size="14.00" fill="#000000">id:26 rank:3 shape: (128, 16, 16)</text>
</g>
<!-- 21&#45;&gt;26 -->
<g id="edge26" class="edge">
<title>21&#45;&gt;26</title>
<path fill="none" stroke="#000000" d="M602.2405,-1151.9735C602.2405,-1140.1918 602.2405,-1124.5607 602.2405,-1111.1581"/>
<polygon fill="#000000" stroke="#000000" points="605.7406,-1111.0033 602.2405,-1101.0034 598.7406,-1111.0034 605.7406,-1111.0033"/>
<text text-anchor="middle" x="888.7405" y="-1122.8" font-family="Times,serif" font-size="14.00" fill="#000000">Conv2d(192, 128, kernel_size=(3, 3), stride=(1, 1), padding=(1, 1), bias=False)</text>
</g>
<!-- 23 -->
<g id="node23" class="node">
<title>23</title>
<ellipse fill="none" stroke="#000000" cx="602.2405" cy="-1344" rx="163.2712" ry="18"/>
<text text-anchor="middle" x="602.2405" y="-1340.3" font-family="Times,serif" font-size="14.00" fill="#000000">id:23 rank:2 shape: (192, 16, 16)</text>
</g>
<!-- 22&#45;&gt;23 -->
<g id="edge23" class="edge">
<title>22&#45;&gt;23</title>
<path fill="none" stroke="#000000" d="M602.2405,-1412.9735C602.2405,-1401.1918 602.2405,-1385.5607 602.2405,-1372.1581"/>
<polygon fill="#000000" stroke="#000000" points="605.7406,-1372.0033 602.2405,-1362.0034 598.7406,-1372.0034 605.7406,-1372.0033"/>
<text text-anchor="middle" x="924.2405" y="-1383.8" font-family="Times,serif" font-size="14.00" fill="#000000">BatchNorm2d(192, eps=1e&#45;05, momentum=0.1, affine=True, track_running_stats=True)</text>
</g>
<!-- 24 -->
<g id="node24" class="node">
<title>24</title>
<ellipse fill="none" stroke="#000000" cx="602.2405" cy="-1257" rx="163.2712" ry="18"/>
<text text-anchor="middle" x="602.2405" y="-1253.3" font-family="Times,serif" font-size="14.00" fill="#000000">id:24 rank:2 shape: (192, 16, 16)</text>
</g>
<!-- 23&#45;&gt;24 -->
<g id="edge24" class="edge">
<title>23&#45;&gt;24</title>
<path fill="none" stroke="#000000" d="M602.2405,-1325.9735C602.2405,-1314.1918 602.2405,-1298.5607 602.2405,-1285.1581"/>
<polygon fill="#000000" stroke="#000000" points="605.7406,-1285.0033 602.2405,-1275.0034 598.7406,-1285.0034 605.7406,-1285.0033"/>
<text text-anchor="middle" x="627.7405" y="-1296.8" font-family="Times,serif" font-size="14.00" fill="#000000">ReLU()</text>
</g>
<!-- 24&#45;&gt;21 -->
<g id="edge21" class="edge">
<title>24&#45;&gt;21</title>
<path fill="none" stroke="#000000" d="M602.2405,-1238.9735C602.2405,-1227.1918 602.2405,-1211.5607 602.2405,-1198.1581"/>
<polygon fill="#000000" stroke="#000000" points="605.7406,-1198.0033 602.2405,-1188.0034 598.7406,-1198.0034 605.7406,-1198.0033"/>
<text text-anchor="middle" x="609.2405" y="-1209.8" font-family="Times,serif" font-size="14.00" fill="#000000">id</text>
</g>
<!-- 25 -->
<g id="node25" class="node">
<title>25</title>
<ellipse fill="none" stroke="#000000" cx="577.2405" cy="-540" rx="163.2712" ry="18"/>
<text text-anchor="middle" x="577.2405" y="-536.3" font-family="Times,serif" font-size="14.00" fill="#000000">id:25 rank:4 shape: (128, 16, 16)</text>
</g>
<!-- 25&#45;&gt;8 -->
<g id="edge6" class="edge">
<title>25&#45;&gt;8</title>
<path fill="none" stroke="#000000" d="M577.2405,-521.9735C577.2405,-510.1918 577.2405,-494.5607 577.2405,-481.1581"/>
<polygon fill="#000000" stroke="#000000" points="580.7406,-481.0033 577.2405,-471.0034 573.7406,-481.0034 580.7406,-481.0033"/>
<text text-anchor="middle" x="718.2405" y="-492.8" font-family="Times,serif" font-size="14.00" fill="#000000">AdaptiveAvgPool2d(output_size=(1, 1))</text>
</g>
<!-- 27 -->
<g id="node27" class="node">
<title>27</title>
<ellipse fill="none" stroke="#000000" cx="433.2405" cy="-996" rx="163.2712" ry="18"/>
<text text-anchor="middle" x="433.2405" y="-992.3" font-family="Times,serif" font-size="14.00" fill="#000000">id:27 rank:3 shape: (128, 16, 16)</text>
</g>
<!-- 26&#45;&gt;27 -->
<g id="edge27" class="edge">
<title>26&#45;&gt;27</title>
<path fill="none" stroke="#000000" d="M452.5468,-1075.8345C370.5557,-1070.3309 282.9949,-1061.2122 270.2405,-1047 265.7878,-1042.0384 266.0656,-1037.1976 270.2405,-1032 277.0558,-1023.5152 293.9019,-1016.9104 314.3065,-1011.8127"/>
<polygon fill="#000000" stroke="#000000" points="315.2954,-1015.1763 324.2431,-1009.5027 313.7103,-1008.3581 315.2954,-1015.1763"/>
<text text-anchor="middle" x="592.2405" y="-1035.8" font-family="Times,serif" font-size="14.00" fill="#000000">BatchNorm2d(128, eps=1e&#45;05, momentum=0.1, affine=True, track_running_stats=True)</text>
</g>
<!-- 39 -->
<g id="node39" class="node">
<title>39</title>
<ellipse fill="none" stroke="#000000" cx="853.2405" cy="-996" rx="157.0724" ry="18"/>
<text text-anchor="middle" x="853.2405" y="-992.3" font-family="Times,serif" font-size="14.00" fill="#000000">id:39 rank:3 shape: (32, 16, 16)</text>
</g>
<!-- 26&#45;&gt;39 -->
<g id="edge41" class="edge">
<title>26&#45;&gt;39</title>
<path fill="none" stroke="#000000" d="M748.2138,-1074.8699C823.7149,-1069.1311 902.5632,-1060.1021 914.2405,-1047 923.1953,-1036.9525 916.4808,-1027.1606 904.7336,-1018.8871"/>
<polygon fill="#000000" stroke="#000000" points="906.2691,-1015.7206 895.9277,-1013.4173 902.5756,-1021.6669 906.2691,-1015.7206"/>
<text text-anchor="middle" x="1200.2405" y="-1035.8" font-family="Times,serif" font-size="14.00" fill="#000000">Conv2d(128, 32, kernel_size=(3, 3), stride=(1, 1), padding=(1, 1), bias=False)</text>
</g>
<!-- 28 -->
<g id="node28" class="node">
<title>28</title>
<ellipse fill="none" stroke="#000000" cx="543.2405" cy="-855" rx="163.2712" ry="18"/>
<text text-anchor="middle" x="543.2405" y="-851.3" font-family="Times,serif" font-size="14.00" fill="#000000">id:28 rank:3 shape: (128, 16, 16)</text>
</g>
<!-- 27&#45;&gt;28 -->
<g id="edge28" class="edge">
<title>27&#45;&gt;28</title>
<path fill="none" stroke="#000000" d="M447.3959,-977.8554C466.5371,-953.3197 500.7991,-909.4021 522.752,-881.2625"/>
<polygon fill="#000000" stroke="#000000" points="525.7479,-883.1124 529.1394,-873.075 520.2288,-878.8066 525.7479,-883.1124"/>
<text text-anchor="middle" x="496.7405" y="-948.8" font-family="Times,serif" font-size="14.00" fill="#000000">ReLU()</text>
</g>
<!-- 28&#45;&gt;25 -->
<g id="edge25" class="edge">
<title>28&#45;&gt;25</title>
<path fill="none" stroke="#000000" d="M548.6411,-836.8553C553.9431,-817.413 561.2405,-785.5574 561.2405,-757.5 561.2405,-757.5 561.2405,-757.5 561.2405,-627 561.2405,-607.0329 565.3674,-584.9069 569.4294,-567.9652"/>
<polygon fill="#000000" stroke="#000000" points="572.8524,-568.7052 571.9127,-558.1521 566.0663,-566.9879 572.8524,-568.7052"/>
<text text-anchor="middle" x="568.2405" y="-710.3" font-family="Times,serif" font-size="14.00" fill="#000000">id</text>
</g>
<!-- 30 -->
<g id="node30" class="node">
<title>30</title>
<ellipse fill="none" stroke="#000000" cx="346.2405" cy="-2841" rx="157.0724" ry="18"/>
<text text-anchor="middle" x="346.2405" y="-2837.3" font-family="Times,serif" font-size="14.00" fill="#000000">id:30 rank:0 shape: (48, 16, 16)</text>
</g>
<!-- 29&#45;&gt;30 -->
<g id="edge30" class="edge">
<title>29&#45;&gt;30</title>
<path fill="none" stroke="#000000" d="M336.7269,-2909.9735C338.352,-2898.1918 340.508,-2882.5607 342.3566,-2869.1581"/>
<polygon fill="#000000" stroke="#000000" points="345.858,-2869.3878 343.7573,-2859.0034 338.9236,-2868.4313 345.858,-2869.3878"/>
<text text-anchor="middle" x="396.7405" y="-2880.8" font-family="Times,serif" font-size="14.00" fill="#000000">Dropout(p=0.2)</text>
</g>
<!-- 31 -->
<g id="node31" class="node">
<title>31</title>
<ellipse fill="none" stroke="#000000" cx="393.2405" cy="-2754" rx="157.0724" ry="18"/>
<text text-anchor="middle" x="393.2405" y="-2750.3" font-family="Times,serif" font-size="14.00" fill="#000000">id:31 rank:0 shape: (48, 16, 16)</text>
</g>
<!-- 30&#45;&gt;31 -->
<g id="edge31" class="edge">
<title>30&#45;&gt;31</title>
<path fill="none" stroke="#000000" d="M355.9789,-2822.9735C362.5328,-2810.8418 371.2917,-2794.6287 378.6706,-2780.9698"/>
<polygon fill="#000000" stroke="#000000" points="381.8408,-2782.4652 383.5145,-2772.0034 375.682,-2779.138 381.8408,-2782.4652"/>
<text text-anchor="middle" x="689.7405" y="-2793.8" font-family="Times,serif" font-size="14.00" fill="#000000">BatchNorm2d(48, eps=1e&#45;05, momentum=0.1, affine=True, track_running_stats=True)</text>
</g>
<!-- 32 -->
<g id="node32" class="node">
<title>32</title>
<ellipse fill="none" stroke="#000000" cx="581.2405" cy="-2667" rx="157.0724" ry="18"/>
<text text-anchor="middle" x="581.2405" y="-2663.3" font-family="Times,serif" font-size="14.00" fill="#000000">id:32 rank:0 shape: (48, 16, 16)</text>
</g>
<!-- 31&#45;&gt;32 -->
<g id="edge32" class="edge">
<title>31&#45;&gt;32</title>
<path fill="none" stroke="#000000" d="M431.2851,-2736.3943C460.9718,-2722.6563 502.3654,-2703.5007 534.1434,-2688.7949"/>
<polygon fill="#000000" stroke="#000000" points="535.647,-2691.9558 543.2525,-2684.5796 532.7072,-2685.603 535.647,-2691.9558"/>
<text text-anchor="middle" x="523.7405" y="-2706.8" font-family="Times,serif" font-size="14.00" fill="#000000">ReLU()</text>
</g>
<!-- 33 -->
<g id="node33" class="node">
<title>33</title>
<ellipse fill="none" stroke="#000000" cx="319.2405" cy="-2526" rx="157.0724" ry="18"/>
<text text-anchor="middle" x="319.2405" y="-2522.3" font-family="Times,serif" font-size="14.00" fill="#000000">id:33 rank:0 shape: (96, 16, 16)</text>
</g>
<!-- 32&#45;&gt;33 -->
<g id="edge33" class="edge">
<title>32&#45;&gt;33</title>
<path fill="none" stroke="#000000" d="M431.3267,-2661.4815C338.0027,-2656.4565 232.9609,-2647.2526 218.2405,-2631 191.8315,-2601.8424 234.7918,-2569.3573 272.5795,-2548.3503"/>
<polygon fill="#000000" stroke="#000000" points="274.3869,-2551.3522 281.5295,-2543.5269 271.066,-2545.1901 274.3869,-2551.3522"/>
<text text-anchor="middle" x="393.7405" y="-2619.8" font-family="Times,serif" font-size="14.00" fill="#000000">Conv2d(48, 96, kernel_size=(1, 1), stride=(1, 1))</text>
</g>
<!-- 34 -->
<g id="node34" class="node">
<title>34</title>
<ellipse fill="none" stroke="#000000" cx="568.2405" cy="-2580" rx="157.0724" ry="18"/>
<text text-anchor="middle" x="568.2405" y="-2576.3" font-family="Times,serif" font-size="14.00" fill="#000000">id:34 rank:0 shape: (48, 16, 16)</text>
</g>
<!-- 32&#45;&gt;34 -->
<g id="edge35" class="edge">
<title>32&#45;&gt;34</title>
<path fill="none" stroke="#000000" d="M578.5469,-2648.9735C576.7864,-2637.1918 574.4507,-2621.5607 572.448,-2608.1581"/>
<polygon fill="#000000" stroke="#000000" points="575.8701,-2607.3763 570.9306,-2598.0034 568.947,-2608.4108 575.8701,-2607.3763"/>
<text text-anchor="middle" x="852.7405" y="-2619.8" font-family="Times,serif" font-size="14.00" fill="#000000">Conv2d(48, 48, kernel_size=(3, 3), stride=(1, 1), padding=(1, 1), bias=False)</text>
</g>
<!-- 44 -->
<g id="node44" class="node">
<title>44</title>
<ellipse fill="none" stroke="#000000" cx="1176.2405" cy="-2526" rx="157.0724" ry="18"/>
<text text-anchor="middle" x="1176.2405" y="-2522.3" font-family="Times,serif" font-size="14.00" fill="#000000">id:44 rank:0 shape: (32, 16, 16)</text>
</g>
<!-- 32&#45;&gt;44 -->
<g id="edge47" class="edge">
<title>32&#45;&gt;44</title>
<path fill="none" stroke="#000000" d="M730.4544,-2661.2031C888.6405,-2654.4678 1118.0209,-2642.7676 1134.2405,-2631 1158.6041,-2613.3237 1168.8496,-2579.1606 1173.1488,-2554.5975"/>
<polygon fill="#000000" stroke="#000000" points="1176.6551,-2554.8197 1174.6933,-2544.4081 1169.7341,-2553.7706 1176.6551,-2554.8197"/>
<text text-anchor="middle" x="1424.7405" y="-2619.8" font-family="Times,serif" font-size="14.00" fill="#000000">Conv2d(48, 32, kernel_size=(3, 3), stride=(1, 1), padding=(1, 1), bias=False)</text>
</g>
<!-- 33&#45;&gt;7 -->
<g id="edge34" class="edge">
<title>33&#45;&gt;7</title>
<path fill="none" stroke="#000000" d="M308.0982,-2508.0234C296.2626,-2487.1769 279.2405,-2451.3911 279.2405,-2418 279.2405,-2418 279.2405,-2418 279.2405,-2148 279.2405,-2128.5475 279.2405,-2106.6484 279.2405,-2089.6877"/>
<polygon fill="#000000" stroke="#000000" points="282.7406,-2089.3305 279.2405,-2079.3306 275.7406,-2089.3306 282.7406,-2089.3305"/>
<text text-anchor="middle" x="286.2405" y="-2306.3" font-family="Times,serif" font-size="14.00" fill="#000000">id</text>
</g>
<!-- 35 -->
<g id="node35" class="node">
<title>35</title>
<ellipse fill="none" stroke="#000000" cx="505.2405" cy="-2472" rx="157.0724" ry="18"/>
<text text-anchor="middle" x="505.2405" y="-2468.3" font-family="Times,serif" font-size="14.00" fill="#000000">id:35 rank:0 shape: (48, 16, 16)</text>
</g>
<!-- 34&#45;&gt;35 -->
<g id="edge36" class="edge">
<title>34&#45;&gt;35</title>
<path fill="none" stroke="#000000" d="M557.5534,-2561.6793C547.4917,-2544.4307 532.3021,-2518.3914 520.8785,-2498.8081"/>
<polygon fill="#000000" stroke="#000000" points="523.8317,-2496.9244 515.7697,-2490.0502 517.7853,-2500.4515 523.8317,-2496.9244"/>
<text text-anchor="middle" x="601.7405" y="-2522.3" font-family="Times,serif" font-size="14.00" fill="#000000">Dropout(p=0.2)</text>
</g>
<!-- 36 -->
<g id="node36" class="node">
<title>36</title>
<ellipse fill="none" stroke="#000000" cx="464.2405" cy="-2364" rx="157.0724" ry="18"/>
<text text-anchor="middle" x="464.2405" y="-2360.3" font-family="Times,serif" font-size="14.00" fill="#000000">id:36 rank:0 shape: (48, 16, 16)</text>
</g>
<!-- 35&#45;&gt;36 -->
<g id="edge37" class="edge">
<title>35&#45;&gt;36</title>
<path fill="none" stroke="#000000" d="M475.1305,-2454.1909C469.1191,-2449.1231 463.621,-2443.0336 460.2405,-2436 453.758,-2422.5125 454.2012,-2405.9232 456.5158,-2392.0691"/>
<polygon fill="#000000" stroke="#000000" points="459.9788,-2392.605 458.5669,-2382.1046 453.1226,-2391.1936 459.9788,-2392.605"/>
<text text-anchor="middle" x="777.7405" y="-2414.3" font-family="Times,serif" font-size="14.00" fill="#000000">BatchNorm2d(48, eps=1e&#45;05, momentum=0.1, affine=True, track_running_stats=True)</text>
</g>
<!-- 37 -->
<g id="node37" class="node">
<title>37</title>
<ellipse fill="none" stroke="#000000" cx="464.2405" cy="-2256" rx="157.0724" ry="18"/>
<text text-anchor="middle" x="464.2405" y="-2252.3" font-family="Times,serif" font-size="14.00" fill="#000000">id:37 rank:0 shape: (48, 16, 16)</text>
</g>
<!-- 36&#45;&gt;37 -->
<g id="edge38" class="edge">
<title>36&#45;&gt;37</title>
<path fill="none" stroke="#000000" d="M464.2405,-2345.6793C464.2405,-2328.821 464.2405,-2303.5651 464.2405,-2284.147"/>
<polygon fill="#000000" stroke="#000000" points="467.7406,-2284.0501 464.2405,-2274.0502 460.7406,-2284.0502 467.7406,-2284.0501"/>
<text text-anchor="middle" x="489.7405" y="-2306.3" font-family="Times,serif" font-size="14.00" fill="#000000">ReLU()</text>
</g>
<!-- 38 -->
<g id="node38" class="node">
<title>38</title>
<ellipse fill="none" stroke="#000000" cx="464.2405" cy="-2148" rx="157.0724" ry="18"/>
<text text-anchor="middle" x="464.2405" y="-2144.3" font-family="Times,serif" font-size="14.00" fill="#000000">id:38 rank:0 shape: (96, 16, 16)</text>
</g>
<!-- 37&#45;&gt;38 -->
<g id="edge39" class="edge">
<title>37&#45;&gt;38</title>
<path fill="none" stroke="#000000" d="M464.2405,-2237.6793C464.2405,-2220.821 464.2405,-2195.5651 464.2405,-2176.147"/>
<polygon fill="#000000" stroke="#000000" points="467.7406,-2176.0501 464.2405,-2166.0502 460.7406,-2176.0502 467.7406,-2176.0501"/>
<text text-anchor="middle" x="639.7405" y="-2198.3" font-family="Times,serif" font-size="14.00" fill="#000000">Conv2d(48, 96, kernel_size=(1, 1), stride=(1, 1))</text>
</g>
<!-- 38&#45;&gt;7 -->
<g id="edge40" class="edge">
<title>38&#45;&gt;7</title>
<path fill="none" stroke="#000000" d="M426.803,-2130.3943C397.7154,-2116.7152 357.2063,-2097.665 325.9891,-2082.9845"/>
<polygon fill="#000000" stroke="#000000" points="327.1611,-2079.668 316.6223,-2078.5796 324.1821,-2086.0025 327.1611,-2079.668"/>
<text text-anchor="middle" x="389.2405" y="-2100.8" font-family="Times,serif" font-size="14.00" fill="#000000">id</text>
</g>
<!-- 40 -->
<g id="node40" class="node">
<title>40</title>
<ellipse fill="none" stroke="#000000" cx="770.2405" cy="-909" rx="157.0724" ry="18"/>
<text text-anchor="middle" x="770.2405" y="-905.3" font-family="Times,serif" font-size="14.00" fill="#000000">id:40 rank:3 shape: (32, 16, 16)</text>
</g>
<!-- 39&#45;&gt;40 -->
<g id="edge42" class="edge">
<title>39&#45;&gt;40</title>
<path fill="none" stroke="#000000" d="M836.0428,-977.9735C824.0237,-965.3752 807.8056,-948.3755 794.4779,-934.4055"/>
<polygon fill="#000000" stroke="#000000" points="796.8513,-931.8228 787.4161,-927.0034 791.7865,-936.6548 796.8513,-931.8228"/>
<text text-anchor="middle" x="872.7405" y="-948.8" font-family="Times,serif" font-size="14.00" fill="#000000">Dropout(p=0.2)</text>
</g>
<!-- 41 -->
<g id="node41" class="node">
<title>41</title>
<ellipse fill="none" stroke="#000000" cx="770.2405" cy="-801" rx="157.0724" ry="18"/>
<text text-anchor="middle" x="770.2405" y="-797.3" font-family="Times,serif" font-size="14.00" fill="#000000">id:41 rank:3 shape: (32, 16, 16)</text>
</g>
<!-- 40&#45;&gt;41 -->
<g id="edge43" class="edge">
<title>40&#45;&gt;41</title>
<path fill="none" stroke="#000000" d="M770.2405,-890.6793C770.2405,-873.821 770.2405,-848.5651 770.2405,-829.147"/>
<polygon fill="#000000" stroke="#000000" points="773.7406,-829.0501 770.2405,-819.0502 766.7406,-829.0502 773.7406,-829.0501"/>
<text text-anchor="middle" x="1087.7405" y="-851.3" font-family="Times,serif" font-size="14.00" fill="#000000">BatchNorm2d(32, eps=1e&#45;05, momentum=0.1, affine=True, track_running_stats=True)</text>
</g>
<!-- 42 -->
<g id="node42" class="node">
<title>42</title>
<ellipse fill="none" stroke="#000000" cx="768.2405" cy="-714" rx="157.0724" ry="18"/>
<text text-anchor="middle" x="768.2405" y="-710.3" font-family="Times,serif" font-size="14.00" fill="#000000">id:42 rank:3 shape: (32, 16, 16)</text>
</g>
<!-- 41&#45;&gt;42 -->
<g id="edge44" class="edge">
<title>41&#45;&gt;42</title>
<path fill="none" stroke="#000000" d="M769.8261,-782.9735C769.5552,-771.1918 769.1959,-755.5607 768.8878,-742.1581"/>
<polygon fill="#000000" stroke="#000000" points="772.3833,-741.9202 768.6543,-732.0034 765.3852,-742.0812 772.3833,-741.9202"/>
<text text-anchor="middle" x="794.7405" y="-753.8" font-family="Times,serif" font-size="14.00" fill="#000000">ReLU()</text>
</g>
<!-- 43 -->
<g id="node43" class="node">
<title>43</title>
<ellipse fill="none" stroke="#000000" cx="761.2405" cy="-627" rx="163.2712" ry="18"/>
<text text-anchor="middle" x="761.2405" y="-623.3" font-family="Times,serif" font-size="14.00" fill="#000000">id:43 rank:3 shape: (128, 16, 16)</text>
</g>
<!-- 42&#45;&gt;43 -->
<g id="edge45" class="edge">
<title>42&#45;&gt;43</title>
<path fill="none" stroke="#000000" d="M766.7901,-695.9735C765.8421,-684.1918 764.5844,-668.5607 763.5061,-655.1581"/>
<polygon fill="#000000" stroke="#000000" points="766.9798,-654.6904 762.689,-645.0034 760.0024,-655.2519 766.9798,-654.6904"/>
<text text-anchor="middle" x="944.2405" y="-666.8" font-family="Times,serif" font-size="14.00" fill="#000000">Conv2d(32, 128, kernel_size=(1, 1), stride=(1, 1))</text>
</g>
<!-- 43&#45;&gt;25 -->
<g id="edge46" class="edge">
<title>43&#45;&gt;25</title>
<path fill="none" stroke="#000000" d="M724.0053,-609.3943C695.075,-595.7152 654.7849,-576.665 623.7365,-561.9845"/>
<polygon fill="#000000" stroke="#000000" points="624.9567,-558.69 614.4202,-557.5796 621.9645,-565.0183 624.9567,-558.69"/>
<text text-anchor="middle" x="687.2405" y="-579.8" font-family="Times,serif" font-size="14.00" fill="#000000">id</text>
</g>
<!-- 45 -->
<g id="node45" class="node">
<title>45</title>
<ellipse fill="none" stroke="#000000" cx="1261.2405" cy="-2418" rx="157.0724" ry="18"/>
<text text-anchor="middle" x="1261.2405" y="-2414.3" font-family="Times,serif" font-size="14.00" fill="#000000">id:45 rank:0 shape: (32, 16, 16)</text>
</g>
<!-- 44&#45;&gt;45 -->
<g id="edge48" class="edge">
<title>44&#45;&gt;45</title>
<path fill="none" stroke="#000000" d="M1190.6596,-2507.6793C1204.4191,-2490.1966 1225.2864,-2463.6828 1240.7663,-2444.0142"/>
<polygon fill="#000000" stroke="#000000" points="1243.6,-2446.073 1247.0343,-2436.0502 1238.0993,-2441.7437 1243.6,-2446.073"/>
<text text-anchor="middle" x="1287.7405" y="-2468.3" font-family="Times,serif" font-size="14.00" fill="#000000">Dropout(p=0.2)</text>
</g>
<!-- 46 -->
<g id="node46" class="node">
<title>46</title>
<ellipse fill="none" stroke="#000000" cx="1261.2405" cy="-2310" rx="157.0724" ry="18"/>
<text text-anchor="middle" x="1261.2405" y="-2306.3" font-family="Times,serif" font-size="14.00" fill="#000000">id:46 rank:0 shape: (32, 16, 16)</text>
</g>
<!-- 45&#45;&gt;46 -->
<g id="edge49" class="edge">
<title>45&#45;&gt;46</title>
<path fill="none" stroke="#000000" d="M1261.2405,-2399.6793C1261.2405,-2382.821 1261.2405,-2357.5651 1261.2405,-2338.147"/>
<polygon fill="#000000" stroke="#000000" points="1264.7406,-2338.0501 1261.2405,-2328.0502 1257.7406,-2338.0502 1264.7406,-2338.0501"/>
<text text-anchor="middle" x="1578.7405" y="-2360.3" font-family="Times,serif" font-size="14.00" fill="#000000">BatchNorm2d(32, eps=1e&#45;05, momentum=0.1, affine=True, track_running_stats=True)</text>
</g>
<!-- 47 -->
<g id="node47" class="node">
<title>47</title>
<ellipse fill="none" stroke="#000000" cx="1261.2405" cy="-2202" rx="157.0724" ry="18"/>
<text text-anchor="middle" x="1261.2405" y="-2198.3" font-family="Times,serif" font-size="14.00" fill="#000000">id:47 rank:0 shape: (32, 16, 16)</text>
</g>
<!-- 46&#45;&gt;47 -->
<g id="edge50" class="edge">
<title>46&#45;&gt;47</title>
<path fill="none" stroke="#000000" d="M1261.2405,-2291.6793C1261.2405,-2274.821 1261.2405,-2249.5651 1261.2405,-2230.147"/>
<polygon fill="#000000" stroke="#000000" points="1264.7406,-2230.0501 1261.2405,-2220.0502 1257.7406,-2230.0502 1264.7406,-2230.0501"/>
<text text-anchor="middle" x="1286.7405" y="-2252.3" font-family="Times,serif" font-size="14.00" fill="#000000">ReLU()</text>
</g>
<!-- 47&#45;&gt;13 -->
<g id="edge51" class="edge">
<title>47&#45;&gt;13</title>
<path fill="none" stroke="#000000" d="M1261.2405,-2183.6707C1261.2405,-2164.0742 1261.2405,-2132.0911 1261.2405,-2104.5 1261.2405,-2104.5 1261.2405,-2104.5 1261.2405,-1605 1261.2405,-1555.3388 963.3001,-1533.1276 768.0842,-1523.9044"/>
<polygon fill="#000000" stroke="#000000" points="768.1488,-1520.4037 757.9969,-1523.435 767.8233,-1527.3961 768.1488,-1520.4037"/>
<text text-anchor="middle" x="1268.2405" y="-1883.3" font-family="Times,serif" font-size="14.00" fill="#000000">id</text>
</g>
</g>
</svg>
