<?xml version="1.0" encoding="UTF-8" standalone="no"?>
<!DOCTYPE svg PUBLIC "-//W3C//DTD SVG 1.1//EN"
 "http://www.w3.org/Graphics/SVG/1.1/DTD/svg11.dtd">
<!-- Generated by graphviz version 2.40.1 (20161225.0304)
 -->
<!-- Title: %3 Pages: 1 -->
<svg width="2226pt" height="1802pt"
 viewBox="0.00 0.00 2226.29 1802.00" xmlns="http://www.w3.org/2000/svg" xmlns:xlink="http://www.w3.org/1999/xlink">
<g id="graph0" class="graph" transform="scale(1 1) rotate(0) translate(4 1798)">
<title>%3</title>
<polygon fill="#ffffff" stroke="transparent" points="-4,4 -4,-1798 2222.286,-1798 2222.286,4 -4,4"/>
<!-- 1 -->
<g id="node1" class="node">
<title>1</title>
<ellipse fill="none" stroke="#000000" cx="797.286" cy="-1776" rx="145.6742" ry="18"/>
<text text-anchor="middle" x="797.286" y="-1772.3" font-family="Times,serif" font-size="14.00" fill="#000000">id:1 rank:0 shape: (1, 32, 32)</text>
</g>
<!-- 3 -->
<g id="node3" class="node">
<title>3</title>
<ellipse fill="none" stroke="#000000" cx="797.286" cy="-1689" rx="157.0724" ry="18"/>
<text text-anchor="middle" x="797.286" y="-1685.3" font-family="Times,serif" font-size="14.00" fill="#000000">id:3 rank:0 shape: (128, 16, 16)</text>
</g>
<!-- 1&#45;&gt;3 -->
<g id="edge1" class="edge">
<title>1&#45;&gt;3</title>
<path fill="none" stroke="#000000" d="M797.286,-1757.9735C797.286,-1746.1918 797.286,-1730.5607 797.286,-1717.1581"/>
<polygon fill="#000000" stroke="#000000" points="800.7861,-1717.0033 797.286,-1707.0034 793.7861,-1717.0034 800.7861,-1717.0033"/>
<text text-anchor="middle" x="1074.786" y="-1728.8" font-family="Times,serif" font-size="14.00" fill="#000000">Conv2d(1, 128, kernel_size=(3, 3), stride=(2, 2), padding=(1, 1), bias=False)</text>
</g>
<!-- 2 -->
<g id="node2" class="node">
<title>2</title>
<ellipse fill="none" stroke="#000000" cx="1438.286" cy="-18" rx="118.8789" ry="18"/>
<text text-anchor="middle" x="1438.286" y="-14.3" font-family="Times,serif" font-size="14.00" fill="#000000">id:2 rank:1 shape: (10,)</text>
</g>
<!-- 4 -->
<g id="node4" class="node">
<title>4</title>
<ellipse fill="none" stroke="#000000" cx="797.286" cy="-1602" rx="157.0724" ry="18"/>
<text text-anchor="middle" x="797.286" y="-1598.3" font-family="Times,serif" font-size="14.00" fill="#000000">id:4 rank:0 shape: (128, 16, 16)</text>
</g>
<!-- 3&#45;&gt;4 -->
<g id="edge2" class="edge">
<title>3&#45;&gt;4</title>
<path fill="none" stroke="#000000" d="M797.286,-1670.9735C797.286,-1659.1918 797.286,-1643.5607 797.286,-1630.1581"/>
<polygon fill="#000000" stroke="#000000" points="800.7861,-1630.0033 797.286,-1620.0034 793.7861,-1630.0034 800.7861,-1630.0033"/>
<text text-anchor="middle" x="853.786" y="-1641.8" font-family="Times,serif" font-size="14.00" fill="#000000">Dropout(p=0.2)</text>
</g>
<!-- 5 -->
<g id="node5" class="node">
<title>5</title>
<ellipse fill="none" stroke="#000000" cx="797.286" cy="-1515" rx="157.0724" ry="18"/>
<text text-anchor="middle" x="797.286" y="-1511.3" font-family="Times,serif" font-size="14.00" fill="#000000">id:5 rank:0 shape: (128, 16, 16)</text>
</g>
<!-- 4&#45;&gt;5 -->
<g id="edge3" class="edge">
<title>4&#45;&gt;5</title>
<path fill="none" stroke="#000000" d="M797.286,-1583.9735C797.286,-1572.1918 797.286,-1556.5607 797.286,-1543.1581"/>
<polygon fill="#000000" stroke="#000000" points="800.7861,-1543.0033 797.286,-1533.0034 793.7861,-1543.0034 800.7861,-1543.0033"/>
<text text-anchor="middle" x="1119.286" y="-1554.8" font-family="Times,serif" font-size="14.00" fill="#000000">BatchNorm2d(128, eps=1e&#45;05, momentum=0.1, affine=True, track_running_stats=True)</text>
</g>
<!-- 6 -->
<g id="node6" class="node">
<title>6</title>
<ellipse fill="none" stroke="#000000" cx="797.286" cy="-1428" rx="157.0724" ry="18"/>
<text text-anchor="middle" x="797.286" y="-1424.3" font-family="Times,serif" font-size="14.00" fill="#000000">id:6 rank:0 shape: (128, 16, 16)</text>
</g>
<!-- 5&#45;&gt;6 -->
<g id="edge4" class="edge">
<title>5&#45;&gt;6</title>
<path fill="none" stroke="#000000" d="M797.286,-1496.9735C797.286,-1485.1918 797.286,-1469.5607 797.286,-1456.1581"/>
<polygon fill="#000000" stroke="#000000" points="800.7861,-1456.0033 797.286,-1446.0034 793.7861,-1456.0034 800.7861,-1456.0033"/>
<text text-anchor="middle" x="822.786" y="-1467.8" font-family="Times,serif" font-size="14.00" fill="#000000">ReLU()</text>
</g>
<!-- 7 -->
<g id="node7" class="node">
<title>7</title>
<ellipse fill="none" stroke="#000000" cx="328.286" cy="-1341" rx="157.0724" ry="18"/>
<text text-anchor="middle" x="328.286" y="-1337.3" font-family="Times,serif" font-size="14.00" fill="#000000">id:7 rank:1 shape: (128, 16, 16)</text>
</g>
<!-- 6&#45;&gt;7 -->
<g id="edge5" class="edge">
<title>6&#45;&gt;7</title>
<path fill="none" stroke="#000000" d="M714.5179,-1412.6464C632.3077,-1397.3963 506.4959,-1374.0581 420.9776,-1358.1944"/>
<polygon fill="#000000" stroke="#000000" points="421.4849,-1354.7289 411.0143,-1356.3462 420.2081,-1361.6114 421.4849,-1354.7289"/>
<text text-anchor="middle" x="598.286" y="-1380.8" font-family="Times,serif" font-size="14.00" fill="#000000">id</text>
</g>
<!-- 21 -->
<g id="node21" class="node">
<title>21</title>
<ellipse fill="none" stroke="#000000" cx="797.286" cy="-1341" rx="157.0724" ry="18"/>
<text text-anchor="middle" x="797.286" y="-1337.3" font-family="Times,serif" font-size="14.00" fill="#000000">id:21 rank:0 shape: (48, 16, 16)</text>
</g>
<!-- 6&#45;&gt;21 -->
<g id="edge20" class="edge">
<title>6&#45;&gt;21</title>
<path fill="none" stroke="#000000" d="M797.286,-1409.9735C797.286,-1398.1918 797.286,-1382.5607 797.286,-1369.1581"/>
<polygon fill="#000000" stroke="#000000" points="800.7861,-1369.0033 797.286,-1359.0034 793.7861,-1369.0034 800.7861,-1369.0033"/>
<text text-anchor="middle" x="1079.286" y="-1380.8" font-family="Times,serif" font-size="14.00" fill="#000000">Conv2d(128, 48, kernel_size=(3, 3), stride=(1, 1), padding=(1, 1), bias=False)</text>
</g>
<!-- 25 -->
<g id="node25" class="node">
<title>25</title>
<ellipse fill="none" stroke="#000000" cx="1541.286" cy="-1287" rx="157.0724" ry="18"/>
<text text-anchor="middle" x="1541.286" y="-1283.3" font-family="Times,serif" font-size="14.00" fill="#000000">id:25 rank:0 shape: (32, 16, 16)</text>
</g>
<!-- 6&#45;&gt;25 -->
<g id="edge25" class="edge">
<title>6&#45;&gt;25</title>
<path fill="none" stroke="#000000" d="M946.4657,-1422.1772C1101.3091,-1415.5524 1326.3255,-1404.0776 1365.286,-1392 1421.2094,-1374.664 1477.9585,-1336.2308 1511.3653,-1310.9856"/>
<polygon fill="#000000" stroke="#000000" points="1513.5334,-1313.7337 1519.3409,-1304.8723 1509.275,-1308.178 1513.5334,-1313.7337"/>
<text text-anchor="middle" x="1684.286" y="-1380.8" font-family="Times,serif" font-size="14.00" fill="#000000">Conv2d(128, 32, kernel_size=(3, 3), stride=(1, 1), padding=(1, 1), bias=False)</text>
</g>
<!-- 14 -->
<g id="node14" class="node">
<title>14</title>
<ellipse fill="none" stroke="#000000" cx="157.286" cy="-1233" rx="157.0724" ry="18"/>
<text text-anchor="middle" x="157.286" y="-1229.3" font-family="Times,serif" font-size="14.00" fill="#000000">id:14 rank:1 shape: (96, 16, 16)</text>
</g>
<!-- 7&#45;&gt;14 -->
<g id="edge13" class="edge">
<title>7&#45;&gt;14</title>
<path fill="none" stroke="#000000" d="M269.2276,-1324.2994C255.5654,-1319.1604 241.4725,-1312.7611 229.286,-1305 209.9116,-1292.6611 191.6558,-1274.2989 178.3745,-1259.2066"/>
<polygon fill="#000000" stroke="#000000" points="180.6954,-1256.5359 171.5322,-1251.2174 175.3787,-1261.0893 180.6954,-1256.5359"/>
<text text-anchor="middle" x="511.286" y="-1283.3" font-family="Times,serif" font-size="14.00" fill="#000000">Conv2d(128, 96, kernel_size=(3, 3), stride=(1, 1), padding=(1, 1), bias=False)</text>
</g>
<!-- 8 -->
<g id="node8" class="node">
<title>8</title>
<ellipse fill="none" stroke="#000000" cx="1438.286" cy="-453" rx="145.6742" ry="18"/>
<text text-anchor="middle" x="1438.286" y="-449.3" font-family="Times,serif" font-size="14.00" fill="#000000">id:8 rank:1 shape: (128, 1, 1)</text>
</g>
<!-- 9 -->
<g id="node9" class="node">
<title>9</title>
<ellipse fill="none" stroke="#000000" cx="1438.286" cy="-366" rx="124.5782" ry="18"/>
<text text-anchor="middle" x="1438.286" y="-362.3" font-family="Times,serif" font-size="14.00" fill="#000000">id:9 rank:1 shape: (128,)</text>
</g>
<!-- 8&#45;&gt;9 -->
<g id="edge7" class="edge">
<title>8&#45;&gt;9</title>
<path fill="none" stroke="#000000" d="M1438.286,-434.9735C1438.286,-423.1918 1438.286,-407.5607 1438.286,-394.1581"/>
<polygon fill="#000000" stroke="#000000" points="1441.7861,-394.0033 1438.286,-384.0034 1434.7861,-394.0034 1441.7861,-394.0033"/>
<text text-anchor="middle" x="1469.786" y="-405.8" font-family="Times,serif" font-size="14.00" fill="#000000">Flatten()</text>
</g>
<!-- 10 -->
<g id="node10" class="node">
<title>10</title>
<ellipse fill="none" stroke="#000000" cx="1438.286" cy="-279" rx="130.777" ry="18"/>
<text text-anchor="middle" x="1438.286" y="-275.3" font-family="Times,serif" font-size="14.00" fill="#000000">id:10 rank:1 shape: (640,)</text>
</g>
<!-- 9&#45;&gt;10 -->
<g id="edge8" class="edge">
<title>9&#45;&gt;10</title>
<path fill="none" stroke="#000000" d="M1438.286,-347.9735C1438.286,-336.1918 1438.286,-320.5607 1438.286,-307.1581"/>
<polygon fill="#000000" stroke="#000000" points="1441.7861,-307.0033 1438.286,-297.0034 1434.7861,-307.0034 1441.7861,-307.0033"/>
<text text-anchor="middle" x="1637.786" y="-318.8" font-family="Times,serif" font-size="14.00" fill="#000000">Linear(in_features=128, out_features=640, bias=True)</text>
</g>
<!-- 11 -->
<g id="node11" class="node">
<title>11</title>
<ellipse fill="none" stroke="#000000" cx="1438.286" cy="-192" rx="130.777" ry="18"/>
<text text-anchor="middle" x="1438.286" y="-188.3" font-family="Times,serif" font-size="14.00" fill="#000000">id:11 rank:1 shape: (640,)</text>
</g>
<!-- 10&#45;&gt;11 -->
<g id="edge9" class="edge">
<title>10&#45;&gt;11</title>
<path fill="none" stroke="#000000" d="M1438.286,-260.9735C1438.286,-249.1918 1438.286,-233.5607 1438.286,-220.1581"/>
<polygon fill="#000000" stroke="#000000" points="1441.7861,-220.0033 1438.286,-210.0034 1434.7861,-220.0034 1441.7861,-220.0033"/>
<text text-anchor="middle" x="1494.786" y="-231.8" font-family="Times,serif" font-size="14.00" fill="#000000">Dropout(p=0.2)</text>
</g>
<!-- 12 -->
<g id="node12" class="node">
<title>12</title>
<ellipse fill="none" stroke="#000000" cx="1438.286" cy="-105" rx="124.5782" ry="18"/>
<text text-anchor="middle" x="1438.286" y="-101.3" font-family="Times,serif" font-size="14.00" fill="#000000">id:12 rank:1 shape: (10,)</text>
</g>
<!-- 11&#45;&gt;12 -->
<g id="edge10" class="edge">
<title>11&#45;&gt;12</title>
<path fill="none" stroke="#000000" d="M1438.286,-173.9735C1438.286,-162.1918 1438.286,-146.5607 1438.286,-133.1581"/>
<polygon fill="#000000" stroke="#000000" points="1441.7861,-133.0033 1438.286,-123.0034 1434.7861,-133.0034 1441.7861,-133.0033"/>
<text text-anchor="middle" x="1633.286" y="-144.8" font-family="Times,serif" font-size="14.00" fill="#000000">Linear(in_features=640, out_features=10, bias=True)</text>
</g>
<!-- 12&#45;&gt;2 -->
<g id="edge11" class="edge">
<title>12&#45;&gt;2</title>
<path fill="none" stroke="#000000" d="M1438.286,-86.9735C1438.286,-75.1918 1438.286,-59.5607 1438.286,-46.1581"/>
<polygon fill="#000000" stroke="#000000" points="1441.7861,-46.0033 1438.286,-36.0034 1434.7861,-46.0034 1441.7861,-46.0033"/>
<text text-anchor="middle" x="1494.786" y="-57.8" font-family="Times,serif" font-size="14.00" fill="#000000">Dropout(p=0.2)</text>
</g>
<!-- 13 -->
<g id="node13" class="node">
<title>13</title>
<ellipse fill="none" stroke="#000000" cx="797.286" cy="-909" rx="163.2712" ry="18"/>
<text text-anchor="middle" x="797.286" y="-905.3" font-family="Times,serif" font-size="14.00" fill="#000000">id:13 rank:2 shape: (144, 16, 16)</text>
</g>
<!-- 18 -->
<g id="node18" class="node">
<title>18</title>
<ellipse fill="none" stroke="#000000" cx="845.286" cy="-801" rx="163.2712" ry="18"/>
<text text-anchor="middle" x="845.286" y="-797.3" font-family="Times,serif" font-size="14.00" fill="#000000">id:18 rank:2 shape: (128, 16, 16)</text>
</g>
<!-- 13&#45;&gt;18 -->
<g id="edge17" class="edge">
<title>13&#45;&gt;18</title>
<path fill="none" stroke="#000000" d="M795.1146,-890.8062C794.1327,-875.5921 794.7205,-853.7522 803.286,-837 805.2535,-833.1522 807.827,-829.5447 810.7328,-826.212"/>
<polygon fill="#000000" stroke="#000000" points="813.3955,-828.4989 817.9869,-818.9506 808.4432,-823.5516 813.3955,-828.4989"/>
<text text-anchor="middle" x="1089.786" y="-851.3" font-family="Times,serif" font-size="14.00" fill="#000000">Conv2d(144, 128, kernel_size=(3, 3), stride=(1, 1), padding=(1, 1), bias=False)</text>
</g>
<!-- 15 -->
<g id="node15" class="node">
<title>15</title>
<ellipse fill="none" stroke="#000000" cx="178.286" cy="-1125" rx="157.0724" ry="18"/>
<text text-anchor="middle" x="178.286" y="-1121.3" font-family="Times,serif" font-size="14.00" fill="#000000">id:15 rank:1 shape: (96, 16, 16)</text>
</g>
<!-- 14&#45;&gt;15 -->
<g id="edge14" class="edge">
<title>14&#45;&gt;15</title>
<path fill="none" stroke="#000000" d="M153.2698,-1214.831C150.7615,-1200.017 148.9204,-1178.7216 154.286,-1161 155.2438,-1157.8367 156.5813,-1154.6974 158.1398,-1151.6671"/>
<polygon fill="#000000" stroke="#000000" points="161.1996,-1153.3697 163.319,-1142.989 155.1887,-1149.7823 161.1996,-1153.3697"/>
<text text-anchor="middle" x="471.786" y="-1175.3" font-family="Times,serif" font-size="14.00" fill="#000000">BatchNorm2d(96, eps=1e&#45;05, momentum=0.1, affine=True, track_running_stats=True)</text>
</g>
<!-- 16 -->
<g id="node16" class="node">
<title>16</title>
<ellipse fill="none" stroke="#000000" cx="411.286" cy="-1017" rx="157.0724" ry="18"/>
<text text-anchor="middle" x="411.286" y="-1013.3" font-family="Times,serif" font-size="14.00" fill="#000000">id:16 rank:1 shape: (96, 16, 16)</text>
</g>
<!-- 15&#45;&gt;16 -->
<g id="edge15" class="edge">
<title>15&#45;&gt;16</title>
<path fill="none" stroke="#000000" d="M216.2401,-1107.4076C256.606,-1088.6972 320.5209,-1059.0714 364.1009,-1038.8712"/>
<polygon fill="#000000" stroke="#000000" points="365.7474,-1041.9658 373.3482,-1034.5849 362.8036,-1035.6149 365.7474,-1041.9658"/>
<text text-anchor="middle" x="354.786" y="-1067.3" font-family="Times,serif" font-size="14.00" fill="#000000">ReLU()</text>
</g>
<!-- 16&#45;&gt;13 -->
<g id="edge12" class="edge">
<title>16&#45;&gt;13</title>
<path fill="none" stroke="#000000" d="M471.175,-1000.2435C540.343,-980.8908 653.9837,-949.0949 727.2022,-928.6089"/>
<polygon fill="#000000" stroke="#000000" points="728.5695,-931.8609 737.2566,-925.7958 726.6833,-925.1198 728.5695,-931.8609"/>
<text text-anchor="middle" x="669.286" y="-959.3" font-family="Times,serif" font-size="14.00" fill="#000000">id</text>
</g>
<!-- 17 -->
<g id="node17" class="node">
<title>17</title>
<ellipse fill="none" stroke="#000000" cx="1438.286" cy="-540" rx="163.2712" ry="18"/>
<text text-anchor="middle" x="1438.286" y="-536.3" font-family="Times,serif" font-size="14.00" fill="#000000">id:17 rank:3 shape: (128, 16, 16)</text>
</g>
<!-- 17&#45;&gt;8 -->
<g id="edge6" class="edge">
<title>17&#45;&gt;8</title>
<path fill="none" stroke="#000000" d="M1438.286,-521.9735C1438.286,-510.1918 1438.286,-494.5607 1438.286,-481.1581"/>
<polygon fill="#000000" stroke="#000000" points="1441.7861,-481.0033 1438.286,-471.0034 1434.7861,-481.0034 1441.7861,-481.0033"/>
<text text-anchor="middle" x="1579.286" y="-492.8" font-family="Times,serif" font-size="14.00" fill="#000000">AdaptiveAvgPool2d(output_size=(1, 1))</text>
</g>
<!-- 19 -->
<g id="node19" class="node">
<title>19</title>
<ellipse fill="none" stroke="#000000" cx="1105.286" cy="-714" rx="163.2712" ry="18"/>
<text text-anchor="middle" x="1105.286" y="-710.3" font-family="Times,serif" font-size="14.00" fill="#000000">id:19 rank:2 shape: (128, 16, 16)</text>
</g>
<!-- 18&#45;&gt;19 -->
<g id="edge18" class="edge">
<title>18&#45;&gt;19</title>
<path fill="none" stroke="#000000" d="M851.7272,-782.8078C856.6796,-771.5426 864.665,-757.7857 876.286,-750 892.0159,-739.4616 927.1185,-731.8067 965.2281,-726.3392"/>
<polygon fill="#000000" stroke="#000000" points="966.0755,-729.7557 975.5051,-724.9254 965.1214,-722.821 966.0755,-729.7557"/>
<text text-anchor="middle" x="1198.286" y="-753.8" font-family="Times,serif" font-size="14.00" fill="#000000">BatchNorm2d(128, eps=1e&#45;05, momentum=0.1, affine=True, track_running_stats=True)</text>
</g>
<!-- 20 -->
<g id="node20" class="node">
<title>20</title>
<ellipse fill="none" stroke="#000000" cx="1341.286" cy="-627" rx="163.2712" ry="18"/>
<text text-anchor="middle" x="1341.286" y="-623.3" font-family="Times,serif" font-size="14.00" fill="#000000">id:20 rank:2 shape: (128, 16, 16)</text>
</g>
<!-- 19&#45;&gt;20 -->
<g id="edge19" class="edge">
<title>19&#45;&gt;20</title>
<path fill="none" stroke="#000000" d="M1152.1942,-696.7076C1190.3993,-682.6235 1244.4561,-662.6958 1284.9931,-647.7521"/>
<polygon fill="#000000" stroke="#000000" points="1286.2945,-651.0026 1294.4667,-644.2597 1283.8733,-644.4347 1286.2945,-651.0026"/>
<text text-anchor="middle" x="1262.786" y="-666.8" font-family="Times,serif" font-size="14.00" fill="#000000">ReLU()</text>
</g>
<!-- 20&#45;&gt;17 -->
<g id="edge16" class="edge">
<title>20&#45;&gt;17</title>
<path fill="none" stroke="#000000" d="M1361.3845,-608.9735C1375.561,-596.2586 1394.7361,-579.0603 1410.3921,-565.0183"/>
<polygon fill="#000000" stroke="#000000" points="1413.1059,-567.2859 1418.2133,-558.0034 1408.432,-562.0748 1413.1059,-567.2859"/>
<text text-anchor="middle" x="1402.286" y="-579.8" font-family="Times,serif" font-size="14.00" fill="#000000">id</text>
</g>
<!-- 22 -->
<g id="node22" class="node">
<title>22</title>
<ellipse fill="none" stroke="#000000" cx="797.286" cy="-1233" rx="157.0724" ry="18"/>
<text text-anchor="middle" x="797.286" y="-1229.3" font-family="Times,serif" font-size="14.00" fill="#000000">id:22 rank:0 shape: (48, 16, 16)</text>
</g>
<!-- 21&#45;&gt;22 -->
<g id="edge21" class="edge">
<title>21&#45;&gt;22</title>
<path fill="none" stroke="#000000" d="M797.286,-1322.6793C797.286,-1305.821 797.286,-1280.5651 797.286,-1261.147"/>
<polygon fill="#000000" stroke="#000000" points="800.7861,-1261.0501 797.286,-1251.0502 793.7861,-1261.0502 800.7861,-1261.0501"/>
<text text-anchor="middle" x="853.786" y="-1283.3" font-family="Times,serif" font-size="14.00" fill="#000000">Dropout(p=0.2)</text>
</g>
<!-- 23 -->
<g id="node23" class="node">
<title>23</title>
<ellipse fill="none" stroke="#000000" cx="797.286" cy="-1125" rx="157.0724" ry="18"/>
<text text-anchor="middle" x="797.286" y="-1121.3" font-family="Times,serif" font-size="14.00" fill="#000000">id:23 rank:0 shape: (48, 16, 16)</text>
</g>
<!-- 22&#45;&gt;23 -->
<g id="edge22" class="edge">
<title>22&#45;&gt;23</title>
<path fill="none" stroke="#000000" d="M794.8584,-1214.7185C794.2126,-1209.0506 793.606,-1202.7765 793.286,-1197 792.4012,-1181.0245 792.4012,-1176.9755 793.286,-1161 793.421,-1158.563 793.607,-1156.0375 793.8254,-1153.5063"/>
<polygon fill="#000000" stroke="#000000" points="797.3355,-1153.5826 794.8584,-1143.2815 790.3709,-1152.879 797.3355,-1153.5826"/>
<text text-anchor="middle" x="1110.786" y="-1175.3" font-family="Times,serif" font-size="14.00" fill="#000000">BatchNorm2d(48, eps=1e&#45;05, momentum=0.1, affine=True, track_running_stats=True)</text>
</g>
<!-- 24 -->
<g id="node24" class="node">
<title>24</title>
<ellipse fill="none" stroke="#000000" cx="797.286" cy="-1017" rx="157.0724" ry="18"/>
<text text-anchor="middle" x="797.286" y="-1013.3" font-family="Times,serif" font-size="14.00" fill="#000000">id:24 rank:0 shape: (48, 16, 16)</text>
</g>
<!-- 23&#45;&gt;24 -->
<g id="edge23" class="edge">
<title>23&#45;&gt;24</title>
<path fill="none" stroke="#000000" d="M797.286,-1106.6793C797.286,-1089.821 797.286,-1064.5651 797.286,-1045.147"/>
<polygon fill="#000000" stroke="#000000" points="800.7861,-1045.0501 797.286,-1035.0502 793.7861,-1045.0502 800.7861,-1045.0501"/>
<text text-anchor="middle" x="822.786" y="-1067.3" font-family="Times,serif" font-size="14.00" fill="#000000">ReLU()</text>
</g>
<!-- 24&#45;&gt;13 -->
<g id="edge24" class="edge">
<title>24&#45;&gt;13</title>
<path fill="none" stroke="#000000" d="M797.286,-998.6793C797.286,-981.821 797.286,-956.5651 797.286,-937.147"/>
<polygon fill="#000000" stroke="#000000" points="800.7861,-937.0501 797.286,-927.0502 793.7861,-937.0502 800.7861,-937.0501"/>
<text text-anchor="middle" x="804.286" y="-959.3" font-family="Times,serif" font-size="14.00" fill="#000000">id</text>
</g>
<!-- 26 -->
<g id="node26" class="node">
<title>26</title>
<ellipse fill="none" stroke="#000000" cx="1594.286" cy="-1179" rx="157.0724" ry="18"/>
<text text-anchor="middle" x="1594.286" y="-1175.3" font-family="Times,serif" font-size="14.00" fill="#000000">id:26 rank:0 shape: (32, 16, 16)</text>
</g>
<!-- 25&#45;&gt;26 -->
<g id="edge26" class="edge">
<title>25&#45;&gt;26</title>
<path fill="none" stroke="#000000" d="M1550.2768,-1268.6793C1558.703,-1251.5088 1571.4044,-1225.6268 1580.9996,-1206.0743"/>
<polygon fill="#000000" stroke="#000000" points="1584.1646,-1207.5694 1585.4281,-1197.0502 1577.8805,-1204.4855 1584.1646,-1207.5694"/>
<text text-anchor="middle" x="1631.786" y="-1229.3" font-family="Times,serif" font-size="14.00" fill="#000000">Dropout(p=0.2)</text>
</g>
<!-- 27 -->
<g id="node27" class="node">
<title>27</title>
<ellipse fill="none" stroke="#000000" cx="1565.286" cy="-1071" rx="157.0724" ry="18"/>
<text text-anchor="middle" x="1565.286" y="-1067.3" font-family="Times,serif" font-size="14.00" fill="#000000">id:27 rank:0 shape: (32, 16, 16)</text>
</g>
<!-- 26&#45;&gt;27 -->
<g id="edge27" class="edge">
<title>26&#45;&gt;27</title>
<path fill="none" stroke="#000000" d="M1589.3666,-1160.6793C1584.8189,-1143.7429 1577.9953,-1118.3311 1572.7717,-1098.8777"/>
<polygon fill="#000000" stroke="#000000" points="1576.1065,-1097.8004 1570.1328,-1089.0502 1569.346,-1099.6157 1576.1065,-1097.8004"/>
<text text-anchor="middle" x="1900.786" y="-1121.3" font-family="Times,serif" font-size="14.00" fill="#000000">BatchNorm2d(32, eps=1e&#45;05, momentum=0.1, affine=True, track_running_stats=True)</text>
</g>
<!-- 28 -->
<g id="node28" class="node">
<title>28</title>
<ellipse fill="none" stroke="#000000" cx="1551.286" cy="-963" rx="157.0724" ry="18"/>
<text text-anchor="middle" x="1551.286" y="-959.3" font-family="Times,serif" font-size="14.00" fill="#000000">id:28 rank:0 shape: (32, 16, 16)</text>
</g>
<!-- 27&#45;&gt;28 -->
<g id="edge28" class="edge">
<title>27&#45;&gt;28</title>
<path fill="none" stroke="#000000" d="M1562.9111,-1052.6793C1560.7258,-1035.821 1557.4519,-1010.5651 1554.9347,-991.147"/>
<polygon fill="#000000" stroke="#000000" points="1558.3825,-990.5172 1553.6259,-981.0502 1551.4405,-991.4172 1558.3825,-990.5172"/>
<text text-anchor="middle" x="1585.786" y="-1013.3" font-family="Times,serif" font-size="14.00" fill="#000000">ReLU()</text>
</g>
<!-- 29 -->
<g id="node29" class="node">
<title>29</title>
<ellipse fill="none" stroke="#000000" cx="1548.286" cy="-855" rx="163.2712" ry="18"/>
<text text-anchor="middle" x="1548.286" y="-851.3" font-family="Times,serif" font-size="14.00" fill="#000000">id:29 rank:0 shape: (128, 16, 16)</text>
</g>
<!-- 28&#45;&gt;29 -->
<g id="edge29" class="edge">
<title>28&#45;&gt;29</title>
<path fill="none" stroke="#000000" d="M1550.7771,-944.6793C1550.3088,-927.821 1549.6073,-902.5651 1549.0679,-883.147"/>
<polygon fill="#000000" stroke="#000000" points="1552.5639,-882.9491 1548.7874,-873.0502 1545.5666,-883.1435 1552.5639,-882.9491"/>
<text text-anchor="middle" x="1729.286" y="-905.3" font-family="Times,serif" font-size="14.00" fill="#000000">Conv2d(32, 128, kernel_size=(1, 1), stride=(1, 1))</text>
</g>
<!-- 29&#45;&gt;17 -->
<g id="edge30" class="edge">
<title>29&#45;&gt;17</title>
<path fill="none" stroke="#000000" d="M1544.0856,-836.7827C1539.9618,-817.2798 1534.286,-785.3741 1534.286,-757.5 1534.286,-757.5 1534.286,-757.5 1534.286,-627 1534.286,-598.6541 1511.0215,-577.133 1487.3978,-562.5865"/>
<polygon fill="#000000" stroke="#000000" points="1489.125,-559.5422 1478.7205,-557.5431 1485.6074,-565.5942 1489.125,-559.5422"/>
<text text-anchor="middle" x="1541.286" y="-710.3" font-family="Times,serif" font-size="14.00" fill="#000000">id</text>
</g>
</g>
</svg>
