<?xml version="1.0" encoding="UTF-8" standalone="no"?>
<!DOCTYPE svg PUBLIC "-//W3C//DTD SVG 1.1//EN"
 "http://www.w3.org/Graphics/SVG/1.1/DTD/svg11.dtd">
<!-- Generated by graphviz version 2.40.1 (20161225.0304)
 -->
<!-- Title: %3 Pages: 1 -->
<svg width="1689pt" height="3281pt"
 viewBox="0.00 0.00 1689.00 3281.00" xmlns="http://www.w3.org/2000/svg" xmlns:xlink="http://www.w3.org/1999/xlink">
<g id="graph0" class="graph" transform="scale(1 1) rotate(0) translate(4 3277)">
<title>%3</title>
<polygon fill="#ffffff" stroke="transparent" points="-4,4 -4,-3277 1685,-3277 1685,4 -4,4"/>
<!-- 1 -->
<g id="node1" class="node">
<title>1</title>
<ellipse fill="none" stroke="#000000" cx="191" cy="-3255" rx="145.6742" ry="18"/>
<text text-anchor="middle" x="191" y="-3251.3" font-family="Times,serif" font-size="14.00" fill="#000000">id:1 rank:0 shape: (1, 32, 32)</text>
</g>
<!-- 3 -->
<g id="node3" class="node">
<title>3</title>
<ellipse fill="none" stroke="#000000" cx="191" cy="-3168" rx="157.0724" ry="18"/>
<text text-anchor="middle" x="191" y="-3164.3" font-family="Times,serif" font-size="14.00" fill="#000000">id:3 rank:0 shape: (128, 16, 16)</text>
</g>
<!-- 1&#45;&gt;3 -->
<g id="edge1" class="edge">
<title>1&#45;&gt;3</title>
<path fill="none" stroke="#000000" d="M191,-3236.9735C191,-3225.1918 191,-3209.5607 191,-3196.1581"/>
<polygon fill="#000000" stroke="#000000" points="194.5001,-3196.0033 191,-3186.0034 187.5001,-3196.0034 194.5001,-3196.0033"/>
<text text-anchor="middle" x="468.5" y="-3207.8" font-family="Times,serif" font-size="14.00" fill="#000000">Conv2d(1, 128, kernel_size=(3, 3), stride=(2, 2), padding=(1, 1), bias=False)</text>
</g>
<!-- 2 -->
<g id="node2" class="node">
<title>2</title>
<ellipse fill="none" stroke="#000000" cx="746" cy="-18" rx="118.8789" ry="18"/>
<text text-anchor="middle" x="746" y="-14.3" font-family="Times,serif" font-size="14.00" fill="#000000">id:2 rank:1 shape: (10,)</text>
</g>
<!-- 4 -->
<g id="node4" class="node">
<title>4</title>
<ellipse fill="none" stroke="#000000" cx="191" cy="-3081" rx="157.0724" ry="18"/>
<text text-anchor="middle" x="191" y="-3077.3" font-family="Times,serif" font-size="14.00" fill="#000000">id:4 rank:0 shape: (128, 16, 16)</text>
</g>
<!-- 3&#45;&gt;4 -->
<g id="edge2" class="edge">
<title>3&#45;&gt;4</title>
<path fill="none" stroke="#000000" d="M191,-3149.9735C191,-3138.1918 191,-3122.5607 191,-3109.1581"/>
<polygon fill="#000000" stroke="#000000" points="194.5001,-3109.0033 191,-3099.0034 187.5001,-3109.0034 194.5001,-3109.0033"/>
<text text-anchor="middle" x="247.5" y="-3120.8" font-family="Times,serif" font-size="14.00" fill="#000000">Dropout(p=0.2)</text>
</g>
<!-- 5 -->
<g id="node5" class="node">
<title>5</title>
<ellipse fill="none" stroke="#000000" cx="191" cy="-2994" rx="157.0724" ry="18"/>
<text text-anchor="middle" x="191" y="-2990.3" font-family="Times,serif" font-size="14.00" fill="#000000">id:5 rank:0 shape: (128, 16, 16)</text>
</g>
<!-- 4&#45;&gt;5 -->
<g id="edge3" class="edge">
<title>4&#45;&gt;5</title>
<path fill="none" stroke="#000000" d="M191,-3062.9735C191,-3051.1918 191,-3035.5607 191,-3022.1581"/>
<polygon fill="#000000" stroke="#000000" points="194.5001,-3022.0033 191,-3012.0034 187.5001,-3022.0034 194.5001,-3022.0033"/>
<text text-anchor="middle" x="513" y="-3033.8" font-family="Times,serif" font-size="14.00" fill="#000000">BatchNorm2d(128, eps=1e&#45;05, momentum=0.1, affine=True, track_running_stats=True)</text>
</g>
<!-- 6 -->
<g id="node6" class="node">
<title>6</title>
<ellipse fill="none" stroke="#000000" cx="191" cy="-2907" rx="157.0724" ry="18"/>
<text text-anchor="middle" x="191" y="-2903.3" font-family="Times,serif" font-size="14.00" fill="#000000">id:6 rank:0 shape: (128, 16, 16)</text>
</g>
<!-- 5&#45;&gt;6 -->
<g id="edge4" class="edge">
<title>5&#45;&gt;6</title>
<path fill="none" stroke="#000000" d="M191,-2975.9735C191,-2964.1918 191,-2948.5607 191,-2935.1581"/>
<polygon fill="#000000" stroke="#000000" points="194.5001,-2935.0033 191,-2925.0034 187.5001,-2935.0034 194.5001,-2935.0033"/>
<text text-anchor="middle" x="216.5" y="-2946.8" font-family="Times,serif" font-size="14.00" fill="#000000">ReLU()</text>
</g>
<!-- 7 -->
<g id="node7" class="node">
<title>7</title>
<ellipse fill="none" stroke="#000000" cx="183" cy="-1932" rx="157.0724" ry="18"/>
<text text-anchor="middle" x="183" y="-1928.3" font-family="Times,serif" font-size="14.00" fill="#000000">id:7 rank:1 shape: (128, 16, 16)</text>
</g>
<!-- 6&#45;&gt;7 -->
<g id="edge5" class="edge">
<title>6&#45;&gt;7</title>
<path fill="none" stroke="#000000" d="M126.3361,-2890.556C70.9255,-2874.5106 0,-2848.4214 0,-2820 0,-2820 0,-2820 0,-2019 0,-1993.0983 60.5531,-1968.208 111.9952,-1951.7362"/>
<polygon fill="#000000" stroke="#000000" points="113.3149,-1954.9904 121.8092,-1948.6583 111.2201,-1948.3112 113.3149,-1954.9904"/>
<text text-anchor="middle" x="7" y="-2384.3" font-family="Times,serif" font-size="14.00" fill="#000000">id</text>
</g>
<!-- 21 -->
<g id="node21" class="node">
<title>21</title>
<ellipse fill="none" stroke="#000000" cx="862" cy="-2766" rx="157.0724" ry="18"/>
<text text-anchor="middle" x="862" y="-2762.3" font-family="Times,serif" font-size="14.00" fill="#000000">id:21 rank:0 shape: (64, 16, 16)</text>
</g>
<!-- 6&#45;&gt;21 -->
<g id="edge20" class="edge">
<title>6&#45;&gt;21</title>
<path fill="none" stroke="#000000" d="M344.429,-2902.9133C499.7547,-2897.8751 722.1901,-2887.8441 759,-2871 795.9724,-2854.0815 826.799,-2817.5889 844.8219,-2792.4165"/>
<polygon fill="#000000" stroke="#000000" points="847.8146,-2794.2434 850.6519,-2784.0355 842.0682,-2790.246 847.8146,-2794.2434"/>
<text text-anchor="middle" x="1065" y="-2859.8" font-family="Times,serif" font-size="14.00" fill="#000000">Conv2d(128, 64, kernel_size=(3, 3), stride=(1, 1), padding=(1, 1), bias=False)</text>
</g>
<!-- 25 -->
<g id="node25" class="node">
<title>25</title>
<ellipse fill="none" stroke="#000000" cx="191" cy="-2820" rx="157.0724" ry="18"/>
<text text-anchor="middle" x="191" y="-2816.3" font-family="Times,serif" font-size="14.00" fill="#000000">id:25 rank:0 shape: (64, 16, 16)</text>
</g>
<!-- 6&#45;&gt;25 -->
<g id="edge25" class="edge">
<title>6&#45;&gt;25</title>
<path fill="none" stroke="#000000" d="M191,-2888.9735C191,-2877.1918 191,-2861.5607 191,-2848.1581"/>
<polygon fill="#000000" stroke="#000000" points="194.5001,-2848.0033 191,-2838.0034 187.5001,-2848.0034 194.5001,-2848.0033"/>
<text text-anchor="middle" x="473" y="-2859.8" font-family="Times,serif" font-size="14.00" fill="#000000">Conv2d(128, 64, kernel_size=(3, 3), stride=(1, 1), padding=(1, 1), bias=False)</text>
</g>
<!-- 14 -->
<g id="node14" class="node">
<title>14</title>
<ellipse fill="none" stroke="#000000" cx="183" cy="-1845" rx="157.0724" ry="18"/>
<text text-anchor="middle" x="183" y="-1841.3" font-family="Times,serif" font-size="14.00" fill="#000000">id:14 rank:1 shape: (96, 16, 16)</text>
</g>
<!-- 7&#45;&gt;14 -->
<g id="edge13" class="edge">
<title>7&#45;&gt;14</title>
<path fill="none" stroke="#000000" d="M183,-1913.9735C183,-1902.1918 183,-1886.5607 183,-1873.1581"/>
<polygon fill="#000000" stroke="#000000" points="186.5001,-1873.0033 183,-1863.0034 179.5001,-1873.0034 186.5001,-1873.0033"/>
<text text-anchor="middle" x="465" y="-1884.8" font-family="Times,serif" font-size="14.00" fill="#000000">Conv2d(128, 96, kernel_size=(3, 3), stride=(1, 1), padding=(1, 1), bias=False)</text>
</g>
<!-- 8 -->
<g id="node8" class="node">
<title>8</title>
<ellipse fill="none" stroke="#000000" cx="746" cy="-453" rx="145.6742" ry="18"/>
<text text-anchor="middle" x="746" y="-449.3" font-family="Times,serif" font-size="14.00" fill="#000000">id:8 rank:1 shape: (128, 1, 1)</text>
</g>
<!-- 9 -->
<g id="node9" class="node">
<title>9</title>
<ellipse fill="none" stroke="#000000" cx="746" cy="-366" rx="124.5782" ry="18"/>
<text text-anchor="middle" x="746" y="-362.3" font-family="Times,serif" font-size="14.00" fill="#000000">id:9 rank:1 shape: (128,)</text>
</g>
<!-- 8&#45;&gt;9 -->
<g id="edge7" class="edge">
<title>8&#45;&gt;9</title>
<path fill="none" stroke="#000000" d="M746,-434.9735C746,-423.1918 746,-407.5607 746,-394.1581"/>
<polygon fill="#000000" stroke="#000000" points="749.5001,-394.0033 746,-384.0034 742.5001,-394.0034 749.5001,-394.0033"/>
<text text-anchor="middle" x="777.5" y="-405.8" font-family="Times,serif" font-size="14.00" fill="#000000">Flatten()</text>
</g>
<!-- 10 -->
<g id="node10" class="node">
<title>10</title>
<ellipse fill="none" stroke="#000000" cx="746" cy="-279" rx="130.777" ry="18"/>
<text text-anchor="middle" x="746" y="-275.3" font-family="Times,serif" font-size="14.00" fill="#000000">id:10 rank:1 shape: (640,)</text>
</g>
<!-- 9&#45;&gt;10 -->
<g id="edge8" class="edge">
<title>9&#45;&gt;10</title>
<path fill="none" stroke="#000000" d="M746,-347.9735C746,-336.1918 746,-320.5607 746,-307.1581"/>
<polygon fill="#000000" stroke="#000000" points="749.5001,-307.0033 746,-297.0034 742.5001,-307.0034 749.5001,-307.0033"/>
<text text-anchor="middle" x="945.5" y="-318.8" font-family="Times,serif" font-size="14.00" fill="#000000">Linear(in_features=128, out_features=640, bias=True)</text>
</g>
<!-- 11 -->
<g id="node11" class="node">
<title>11</title>
<ellipse fill="none" stroke="#000000" cx="746" cy="-192" rx="130.777" ry="18"/>
<text text-anchor="middle" x="746" y="-188.3" font-family="Times,serif" font-size="14.00" fill="#000000">id:11 rank:1 shape: (640,)</text>
</g>
<!-- 10&#45;&gt;11 -->
<g id="edge9" class="edge">
<title>10&#45;&gt;11</title>
<path fill="none" stroke="#000000" d="M746,-260.9735C746,-249.1918 746,-233.5607 746,-220.1581"/>
<polygon fill="#000000" stroke="#000000" points="749.5001,-220.0033 746,-210.0034 742.5001,-220.0034 749.5001,-220.0033"/>
<text text-anchor="middle" x="802.5" y="-231.8" font-family="Times,serif" font-size="14.00" fill="#000000">Dropout(p=0.2)</text>
</g>
<!-- 12 -->
<g id="node12" class="node">
<title>12</title>
<ellipse fill="none" stroke="#000000" cx="746" cy="-105" rx="124.5782" ry="18"/>
<text text-anchor="middle" x="746" y="-101.3" font-family="Times,serif" font-size="14.00" fill="#000000">id:12 rank:1 shape: (10,)</text>
</g>
<!-- 11&#45;&gt;12 -->
<g id="edge10" class="edge">
<title>11&#45;&gt;12</title>
<path fill="none" stroke="#000000" d="M746,-173.9735C746,-162.1918 746,-146.5607 746,-133.1581"/>
<polygon fill="#000000" stroke="#000000" points="749.5001,-133.0033 746,-123.0034 742.5001,-133.0034 749.5001,-133.0033"/>
<text text-anchor="middle" x="941" y="-144.8" font-family="Times,serif" font-size="14.00" fill="#000000">Linear(in_features=640, out_features=10, bias=True)</text>
</g>
<!-- 12&#45;&gt;2 -->
<g id="edge11" class="edge">
<title>12&#45;&gt;2</title>
<path fill="none" stroke="#000000" d="M746,-86.9735C746,-75.1918 746,-59.5607 746,-46.1581"/>
<polygon fill="#000000" stroke="#000000" points="749.5001,-46.0033 746,-36.0034 742.5001,-46.0034 749.5001,-46.0033"/>
<text text-anchor="middle" x="802.5" y="-57.8" font-family="Times,serif" font-size="14.00" fill="#000000">Dropout(p=0.2)</text>
</g>
<!-- 13 -->
<g id="node13" class="node">
<title>13</title>
<ellipse fill="none" stroke="#000000" cx="183" cy="-1584" rx="163.2712" ry="18"/>
<text text-anchor="middle" x="183" y="-1580.3" font-family="Times,serif" font-size="14.00" fill="#000000">id:13 rank:2 shape: (160, 16, 16)</text>
</g>
<!-- 18 -->
<g id="node18" class="node">
<title>18</title>
<ellipse fill="none" stroke="#000000" cx="183" cy="-1497" rx="163.2712" ry="18"/>
<text text-anchor="middle" x="183" y="-1493.3" font-family="Times,serif" font-size="14.00" fill="#000000">id:18 rank:2 shape: (128, 16, 16)</text>
</g>
<!-- 13&#45;&gt;18 -->
<g id="edge17" class="edge">
<title>13&#45;&gt;18</title>
<path fill="none" stroke="#000000" d="M183,-1565.9735C183,-1554.1918 183,-1538.5607 183,-1525.1581"/>
<polygon fill="#000000" stroke="#000000" points="186.5001,-1525.0033 183,-1515.0034 179.5001,-1525.0034 186.5001,-1525.0033"/>
<text text-anchor="middle" x="469.5" y="-1536.8" font-family="Times,serif" font-size="14.00" fill="#000000">Conv2d(160, 128, kernel_size=(3, 3), stride=(1, 1), padding=(1, 1), bias=False)</text>
</g>
<!-- 15 -->
<g id="node15" class="node">
<title>15</title>
<ellipse fill="none" stroke="#000000" cx="183" cy="-1758" rx="157.0724" ry="18"/>
<text text-anchor="middle" x="183" y="-1754.3" font-family="Times,serif" font-size="14.00" fill="#000000">id:15 rank:1 shape: (96, 16, 16)</text>
</g>
<!-- 14&#45;&gt;15 -->
<g id="edge14" class="edge">
<title>14&#45;&gt;15</title>
<path fill="none" stroke="#000000" d="M183,-1826.9735C183,-1815.1918 183,-1799.5607 183,-1786.1581"/>
<polygon fill="#000000" stroke="#000000" points="186.5001,-1786.0033 183,-1776.0034 179.5001,-1786.0034 186.5001,-1786.0033"/>
<text text-anchor="middle" x="500.5" y="-1797.8" font-family="Times,serif" font-size="14.00" fill="#000000">BatchNorm2d(96, eps=1e&#45;05, momentum=0.1, affine=True, track_running_stats=True)</text>
</g>
<!-- 16 -->
<g id="node16" class="node">
<title>16</title>
<ellipse fill="none" stroke="#000000" cx="183" cy="-1671" rx="157.0724" ry="18"/>
<text text-anchor="middle" x="183" y="-1667.3" font-family="Times,serif" font-size="14.00" fill="#000000">id:16 rank:1 shape: (96, 16, 16)</text>
</g>
<!-- 15&#45;&gt;16 -->
<g id="edge15" class="edge">
<title>15&#45;&gt;16</title>
<path fill="none" stroke="#000000" d="M183,-1739.9735C183,-1728.1918 183,-1712.5607 183,-1699.1581"/>
<polygon fill="#000000" stroke="#000000" points="186.5001,-1699.0033 183,-1689.0034 179.5001,-1699.0034 186.5001,-1699.0033"/>
<text text-anchor="middle" x="208.5" y="-1710.8" font-family="Times,serif" font-size="14.00" fill="#000000">ReLU()</text>
</g>
<!-- 16&#45;&gt;13 -->
<g id="edge12" class="edge">
<title>16&#45;&gt;13</title>
<path fill="none" stroke="#000000" d="M183,-1652.9735C183,-1641.1918 183,-1625.5607 183,-1612.1581"/>
<polygon fill="#000000" stroke="#000000" points="186.5001,-1612.0033 183,-1602.0034 179.5001,-1612.0034 186.5001,-1612.0033"/>
<text text-anchor="middle" x="190" y="-1623.8" font-family="Times,serif" font-size="14.00" fill="#000000">id</text>
</g>
<!-- 17 -->
<g id="node17" class="node">
<title>17</title>
<ellipse fill="none" stroke="#000000" cx="746" cy="-1236" rx="163.2712" ry="18"/>
<text text-anchor="middle" x="746" y="-1232.3" font-family="Times,serif" font-size="14.00" fill="#000000">id:17 rank:3 shape: (128, 16, 16)</text>
</g>
<!-- 31 -->
<g id="node31" class="node">
<title>31</title>
<ellipse fill="none" stroke="#000000" cx="746" cy="-1149" rx="163.2712" ry="18"/>
<text text-anchor="middle" x="746" y="-1145.3" font-family="Times,serif" font-size="14.00" fill="#000000">id:31 rank:3 shape: (128, 16, 16)</text>
</g>
<!-- 17&#45;&gt;31 -->
<g id="edge32" class="edge">
<title>17&#45;&gt;31</title>
<path fill="none" stroke="#000000" d="M746,-1217.9735C746,-1206.1918 746,-1190.5607 746,-1177.1581"/>
<polygon fill="#000000" stroke="#000000" points="749.5001,-1177.0033 746,-1167.0034 742.5001,-1177.0034 749.5001,-1177.0033"/>
<text text-anchor="middle" x="1032.5" y="-1188.8" font-family="Times,serif" font-size="14.00" fill="#000000">Conv2d(128, 128, kernel_size=(3, 3), stride=(1, 1), padding=(1, 1), bias=False)</text>
</g>
<!-- 19 -->
<g id="node19" class="node">
<title>19</title>
<ellipse fill="none" stroke="#000000" cx="417" cy="-1410" rx="163.2712" ry="18"/>
<text text-anchor="middle" x="417" y="-1406.3" font-family="Times,serif" font-size="14.00" fill="#000000">id:19 rank:2 shape: (128, 16, 16)</text>
</g>
<!-- 18&#45;&gt;19 -->
<g id="edge18" class="edge">
<title>18&#45;&gt;19</title>
<path fill="none" stroke="#000000" d="M178.0602,-1478.8886C176.2793,-1468.0839 176.3047,-1454.7996 184,-1446 191.4995,-1437.4244 236.5419,-1429.4991 285.0553,-1423.2804"/>
<polygon fill="#000000" stroke="#000000" points="285.6329,-1426.7355 295.1204,-1422.0197 284.7629,-1419.7898 285.6329,-1426.7355"/>
<text text-anchor="middle" x="506" y="-1449.8" font-family="Times,serif" font-size="14.00" fill="#000000">BatchNorm2d(128, eps=1e&#45;05, momentum=0.1, affine=True, track_running_stats=True)</text>
</g>
<!-- 20 -->
<g id="node20" class="node">
<title>20</title>
<ellipse fill="none" stroke="#000000" cx="651" cy="-1323" rx="163.2712" ry="18"/>
<text text-anchor="middle" x="651" y="-1319.3" font-family="Times,serif" font-size="14.00" fill="#000000">id:20 rank:2 shape: (128, 16, 16)</text>
</g>
<!-- 19&#45;&gt;20 -->
<g id="edge19" class="edge">
<title>19&#45;&gt;20</title>
<path fill="none" stroke="#000000" d="M463.5106,-1392.7076C501.392,-1378.6235 554.9906,-1358.6958 595.1841,-1343.7521"/>
<polygon fill="#000000" stroke="#000000" points="596.424,-1347.0252 604.5774,-1340.2597 593.9845,-1340.464 596.424,-1347.0252"/>
<text text-anchor="middle" x="573.5" y="-1362.8" font-family="Times,serif" font-size="14.00" fill="#000000">ReLU()</text>
</g>
<!-- 20&#45;&gt;17 -->
<g id="edge16" class="edge">
<title>20&#45;&gt;17</title>
<path fill="none" stroke="#000000" d="M670.6841,-1304.9735C684.5682,-1292.2586 703.348,-1275.0603 718.6812,-1261.0183"/>
<polygon fill="#000000" stroke="#000000" points="721.3302,-1263.3383 726.3412,-1254.0034 716.6026,-1258.1759 721.3302,-1263.3383"/>
<text text-anchor="middle" x="711" y="-1275.8" font-family="Times,serif" font-size="14.00" fill="#000000">id</text>
</g>
<!-- 22 -->
<g id="node22" class="node">
<title>22</title>
<ellipse fill="none" stroke="#000000" cx="1000" cy="-2658" rx="157.0724" ry="18"/>
<text text-anchor="middle" x="1000" y="-2654.3" font-family="Times,serif" font-size="14.00" fill="#000000">id:22 rank:0 shape: (64, 16, 16)</text>
</g>
<!-- 21&#45;&gt;22 -->
<g id="edge21" class="edge">
<title>21&#45;&gt;22</title>
<path fill="none" stroke="#000000" d="M884.7879,-2748.166C907.8601,-2730.1095 943.6903,-2702.0684 969.2645,-2682.0539"/>
<polygon fill="#000000" stroke="#000000" points="971.4603,-2684.7799 977.1783,-2675.8605 967.1461,-2679.2673 971.4603,-2684.7799"/>
<text text-anchor="middle" x="1007.5" y="-2708.3" font-family="Times,serif" font-size="14.00" fill="#000000">Dropout(p=0.2)</text>
</g>
<!-- 23 -->
<g id="node23" class="node">
<title>23</title>
<ellipse fill="none" stroke="#000000" cx="1072" cy="-2550" rx="157.0724" ry="18"/>
<text text-anchor="middle" x="1072" y="-2546.3" font-family="Times,serif" font-size="14.00" fill="#000000">id:23 rank:0 shape: (64, 16, 16)</text>
</g>
<!-- 22&#45;&gt;23 -->
<g id="edge22" class="edge">
<title>22&#45;&gt;23</title>
<path fill="none" stroke="#000000" d="M1012.2138,-2639.6793C1023.7649,-2622.3527 1041.2296,-2596.1555 1054.3049,-2576.5427"/>
<polygon fill="#000000" stroke="#000000" points="1057.3317,-2578.3121 1059.9666,-2568.0502 1051.5073,-2574.4292 1057.3317,-2578.3121"/>
<text text-anchor="middle" x="1363.5" y="-2600.3" font-family="Times,serif" font-size="14.00" fill="#000000">BatchNorm2d(64, eps=1e&#45;05, momentum=0.1, affine=True, track_running_stats=True)</text>
</g>
<!-- 24 -->
<g id="node24" class="node">
<title>24</title>
<ellipse fill="none" stroke="#000000" cx="1174" cy="-2442" rx="157.0724" ry="18"/>
<text text-anchor="middle" x="1174" y="-2438.3" font-family="Times,serif" font-size="14.00" fill="#000000">id:24 rank:0 shape: (64, 16, 16)</text>
</g>
<!-- 23&#45;&gt;24 -->
<g id="edge23" class="edge">
<title>23&#45;&gt;24</title>
<path fill="none" stroke="#000000" d="M1089.3029,-2531.6793C1105.9618,-2514.0405 1131.303,-2487.2086 1149.9271,-2467.489"/>
<polygon fill="#000000" stroke="#000000" points="1152.6309,-2469.7235 1156.9526,-2460.0502 1147.5418,-2464.9171 1152.6309,-2469.7235"/>
<text text-anchor="middle" x="1163.5" y="-2492.3" font-family="Times,serif" font-size="14.00" fill="#000000">ReLU()</text>
</g>
<!-- 24&#45;&gt;13 -->
<g id="edge24" class="edge">
<title>24&#45;&gt;13</title>
<path fill="none" stroke="#000000" d="M1114.4648,-2425.3372C1049.3109,-2405.2939 954,-2369.8471 954,-2334 954,-2334 954,-2334 954,-1671 954,-1611.1469 582.371,-1592.4673 355.1338,-1586.64"/>
<polygon fill="#000000" stroke="#000000" points="355.1813,-1583.1401 345.0968,-1586.3885 355.006,-1590.1379 355.1813,-1583.1401"/>
<text text-anchor="middle" x="961" y="-2015.3" font-family="Times,serif" font-size="14.00" fill="#000000">id</text>
</g>
<!-- 26 -->
<g id="node26" class="node">
<title>26</title>
<ellipse fill="none" stroke="#000000" cx="191" cy="-2712" rx="157.0724" ry="18"/>
<text text-anchor="middle" x="191" y="-2708.3" font-family="Times,serif" font-size="14.00" fill="#000000">id:26 rank:0 shape: (64, 16, 16)</text>
</g>
<!-- 25&#45;&gt;26 -->
<g id="edge26" class="edge">
<title>25&#45;&gt;26</title>
<path fill="none" stroke="#000000" d="M191,-2801.6793C191,-2784.821 191,-2759.5651 191,-2740.147"/>
<polygon fill="#000000" stroke="#000000" points="194.5001,-2740.0501 191,-2730.0502 187.5001,-2740.0502 194.5001,-2740.0501"/>
<text text-anchor="middle" x="247.5" y="-2762.3" font-family="Times,serif" font-size="14.00" fill="#000000">Dropout(p=0.2)</text>
</g>
<!-- 27 -->
<g id="node27" class="node">
<title>27</title>
<ellipse fill="none" stroke="#000000" cx="191" cy="-2604" rx="157.0724" ry="18"/>
<text text-anchor="middle" x="191" y="-2600.3" font-family="Times,serif" font-size="14.00" fill="#000000">id:27 rank:0 shape: (64, 16, 16)</text>
</g>
<!-- 26&#45;&gt;27 -->
<g id="edge27" class="edge">
<title>26&#45;&gt;27</title>
<path fill="none" stroke="#000000" d="M191,-2693.6793C191,-2676.821 191,-2651.5651 191,-2632.147"/>
<polygon fill="#000000" stroke="#000000" points="194.5001,-2632.0501 191,-2622.0502 187.5001,-2632.0502 194.5001,-2632.0501"/>
<text text-anchor="middle" x="508.5" y="-2654.3" font-family="Times,serif" font-size="14.00" fill="#000000">BatchNorm2d(64, eps=1e&#45;05, momentum=0.1, affine=True, track_running_stats=True)</text>
</g>
<!-- 28 -->
<g id="node28" class="node">
<title>28</title>
<ellipse fill="none" stroke="#000000" cx="191" cy="-2496" rx="157.0724" ry="18"/>
<text text-anchor="middle" x="191" y="-2492.3" font-family="Times,serif" font-size="14.00" fill="#000000">id:28 rank:0 shape: (64, 16, 16)</text>
</g>
<!-- 27&#45;&gt;28 -->
<g id="edge28" class="edge">
<title>27&#45;&gt;28</title>
<path fill="none" stroke="#000000" d="M191,-2585.6793C191,-2568.821 191,-2543.5651 191,-2524.147"/>
<polygon fill="#000000" stroke="#000000" points="194.5001,-2524.0501 191,-2514.0502 187.5001,-2524.0502 194.5001,-2524.0501"/>
<text text-anchor="middle" x="216.5" y="-2546.3" font-family="Times,serif" font-size="14.00" fill="#000000">ReLU()</text>
</g>
<!-- 29 -->
<g id="node29" class="node">
<title>29</title>
<ellipse fill="none" stroke="#000000" cx="694" cy="-2334" rx="163.2712" ry="18"/>
<text text-anchor="middle" x="694" y="-2330.3" font-family="Times,serif" font-size="14.00" fill="#000000">id:29 rank:0 shape: (128, 16, 16)</text>
</g>
<!-- 28&#45;&gt;29 -->
<g id="edge29" class="edge">
<title>28&#45;&gt;29</title>
<path fill="none" stroke="#000000" d="M341.9549,-2490.8689C459.3632,-2485.6764 606.2234,-2476.0747 630,-2460 644.8195,-2449.9809 639.9293,-2439.9644 648,-2424 658.621,-2402.9909 670.743,-2379.285 679.876,-2361.4784"/>
<polygon fill="#000000" stroke="#000000" points="683.1614,-2362.7422 684.6138,-2352.2474 676.9337,-2359.5458 683.1614,-2362.7422"/>
<text text-anchor="middle" x="828" y="-2438.3" font-family="Times,serif" font-size="14.00" fill="#000000">Conv2d(64, 128, kernel_size=(1, 1), stride=(1, 1))</text>
</g>
<!-- 38 -->
<g id="node38" class="node">
<title>38</title>
<ellipse fill="none" stroke="#000000" cx="189" cy="-2388" rx="157.0724" ry="18"/>
<text text-anchor="middle" x="189" y="-2384.3" font-family="Times,serif" font-size="14.00" fill="#000000">id:38 rank:0 shape: (32, 16, 16)</text>
</g>
<!-- 28&#45;&gt;38 -->
<g id="edge39" class="edge">
<title>28&#45;&gt;38</title>
<path fill="none" stroke="#000000" d="M115.9517,-2480.1305C97.1726,-2474.5807 80.7219,-2467.7669 75,-2460 65.51,-2447.1183 65.5419,-2436.9052 75,-2424 79.6044,-2417.7174 91.3089,-2412.0241 105.554,-2407.1147"/>
<polygon fill="#000000" stroke="#000000" points="106.7839,-2410.3959 115.233,-2404.0034 104.6416,-2403.7317 106.7839,-2410.3959"/>
<text text-anchor="middle" x="352.5" y="-2438.3" font-family="Times,serif" font-size="14.00" fill="#000000">Conv2d(64, 32, kernel_size=(3, 3), stride=(1, 1), padding=(1, 1), bias=False)</text>
</g>
<!-- 29&#45;&gt;17 -->
<g id="edge30" class="edge">
<title>29&#45;&gt;17</title>
<path fill="none" stroke="#000000" d="M760.6397,-2317.5539C799.9228,-2303.4304 842,-2278.4997 842,-2236.5 842,-2236.5 842,-2236.5 842,-1323 842,-1294.6541 818.7355,-1273.133 795.1117,-1258.5865"/>
<polygon fill="#000000" stroke="#000000" points="796.839,-1255.5422 786.4344,-1253.5431 793.3214,-1261.5942 796.839,-1255.5422"/>
<text text-anchor="middle" x="849" y="-1797.8" font-family="Times,serif" font-size="14.00" fill="#000000">id</text>
</g>
<!-- 30 -->
<g id="node30" class="node">
<title>30</title>
<ellipse fill="none" stroke="#000000" cx="746" cy="-888" rx="163.2712" ry="18"/>
<text text-anchor="middle" x="746" y="-884.3" font-family="Times,serif" font-size="14.00" fill="#000000">id:30 rank:4 shape: (128, 16, 16)</text>
</g>
<!-- 35 -->
<g id="node35" class="node">
<title>35</title>
<ellipse fill="none" stroke="#000000" cx="746" cy="-801" rx="163.2712" ry="18"/>
<text text-anchor="middle" x="746" y="-797.3" font-family="Times,serif" font-size="14.00" fill="#000000">id:35 rank:4 shape: (128, 16, 16)</text>
</g>
<!-- 30&#45;&gt;35 -->
<g id="edge36" class="edge">
<title>30&#45;&gt;35</title>
<path fill="none" stroke="#000000" d="M746,-869.9735C746,-858.1918 746,-842.5607 746,-829.1581"/>
<polygon fill="#000000" stroke="#000000" points="749.5001,-829.0033 746,-819.0034 742.5001,-829.0034 749.5001,-829.0033"/>
<text text-anchor="middle" x="1032.5" y="-840.8" font-family="Times,serif" font-size="14.00" fill="#000000">Conv2d(128, 128, kernel_size=(3, 3), stride=(1, 1), padding=(1, 1), bias=False)</text>
</g>
<!-- 32 -->
<g id="node32" class="node">
<title>32</title>
<ellipse fill="none" stroke="#000000" cx="746" cy="-1062" rx="163.2712" ry="18"/>
<text text-anchor="middle" x="746" y="-1058.3" font-family="Times,serif" font-size="14.00" fill="#000000">id:32 rank:3 shape: (128, 16, 16)</text>
</g>
<!-- 31&#45;&gt;32 -->
<g id="edge33" class="edge">
<title>31&#45;&gt;32</title>
<path fill="none" stroke="#000000" d="M746,-1130.9735C746,-1119.1918 746,-1103.5607 746,-1090.1581"/>
<polygon fill="#000000" stroke="#000000" points="749.5001,-1090.0033 746,-1080.0034 742.5001,-1090.0034 749.5001,-1090.0033"/>
<text text-anchor="middle" x="1068" y="-1101.8" font-family="Times,serif" font-size="14.00" fill="#000000">BatchNorm2d(128, eps=1e&#45;05, momentum=0.1, affine=True, track_running_stats=True)</text>
</g>
<!-- 33 -->
<g id="node33" class="node">
<title>33</title>
<ellipse fill="none" stroke="#000000" cx="746" cy="-975" rx="163.2712" ry="18"/>
<text text-anchor="middle" x="746" y="-971.3" font-family="Times,serif" font-size="14.00" fill="#000000">id:33 rank:3 shape: (128, 16, 16)</text>
</g>
<!-- 32&#45;&gt;33 -->
<g id="edge34" class="edge">
<title>32&#45;&gt;33</title>
<path fill="none" stroke="#000000" d="M746,-1043.9735C746,-1032.1918 746,-1016.5607 746,-1003.1581"/>
<polygon fill="#000000" stroke="#000000" points="749.5001,-1003.0033 746,-993.0034 742.5001,-1003.0034 749.5001,-1003.0033"/>
<text text-anchor="middle" x="771.5" y="-1014.8" font-family="Times,serif" font-size="14.00" fill="#000000">ReLU()</text>
</g>
<!-- 33&#45;&gt;30 -->
<g id="edge31" class="edge">
<title>33&#45;&gt;30</title>
<path fill="none" stroke="#000000" d="M746,-956.9735C746,-945.1918 746,-929.5607 746,-916.1581"/>
<polygon fill="#000000" stroke="#000000" points="749.5001,-916.0033 746,-906.0034 742.5001,-916.0034 749.5001,-916.0033"/>
<text text-anchor="middle" x="753" y="-927.8" font-family="Times,serif" font-size="14.00" fill="#000000">id</text>
</g>
<!-- 34 -->
<g id="node34" class="node">
<title>34</title>
<ellipse fill="none" stroke="#000000" cx="746" cy="-540" rx="163.2712" ry="18"/>
<text text-anchor="middle" x="746" y="-536.3" font-family="Times,serif" font-size="14.00" fill="#000000">id:34 rank:5 shape: (128, 16, 16)</text>
</g>
<!-- 34&#45;&gt;8 -->
<g id="edge6" class="edge">
<title>34&#45;&gt;8</title>
<path fill="none" stroke="#000000" d="M746,-521.9735C746,-510.1918 746,-494.5607 746,-481.1581"/>
<polygon fill="#000000" stroke="#000000" points="749.5001,-481.0033 746,-471.0034 742.5001,-481.0034 749.5001,-481.0033"/>
<text text-anchor="middle" x="887" y="-492.8" font-family="Times,serif" font-size="14.00" fill="#000000">AdaptiveAvgPool2d(output_size=(1, 1))</text>
</g>
<!-- 36 -->
<g id="node36" class="node">
<title>36</title>
<ellipse fill="none" stroke="#000000" cx="746" cy="-714" rx="163.2712" ry="18"/>
<text text-anchor="middle" x="746" y="-710.3" font-family="Times,serif" font-size="14.00" fill="#000000">id:36 rank:4 shape: (128, 16, 16)</text>
</g>
<!-- 35&#45;&gt;36 -->
<g id="edge37" class="edge">
<title>35&#45;&gt;36</title>
<path fill="none" stroke="#000000" d="M746,-782.9735C746,-771.1918 746,-755.5607 746,-742.1581"/>
<polygon fill="#000000" stroke="#000000" points="749.5001,-742.0033 746,-732.0034 742.5001,-742.0034 749.5001,-742.0033"/>
<text text-anchor="middle" x="1068" y="-753.8" font-family="Times,serif" font-size="14.00" fill="#000000">BatchNorm2d(128, eps=1e&#45;05, momentum=0.1, affine=True, track_running_stats=True)</text>
</g>
<!-- 37 -->
<g id="node37" class="node">
<title>37</title>
<ellipse fill="none" stroke="#000000" cx="746" cy="-627" rx="163.2712" ry="18"/>
<text text-anchor="middle" x="746" y="-623.3" font-family="Times,serif" font-size="14.00" fill="#000000">id:37 rank:4 shape: (128, 16, 16)</text>
</g>
<!-- 36&#45;&gt;37 -->
<g id="edge38" class="edge">
<title>36&#45;&gt;37</title>
<path fill="none" stroke="#000000" d="M746,-695.9735C746,-684.1918 746,-668.5607 746,-655.1581"/>
<polygon fill="#000000" stroke="#000000" points="749.5001,-655.0033 746,-645.0034 742.5001,-655.0034 749.5001,-655.0033"/>
<text text-anchor="middle" x="771.5" y="-666.8" font-family="Times,serif" font-size="14.00" fill="#000000">ReLU()</text>
</g>
<!-- 37&#45;&gt;34 -->
<g id="edge35" class="edge">
<title>37&#45;&gt;34</title>
<path fill="none" stroke="#000000" d="M746,-608.9735C746,-597.1918 746,-581.5607 746,-568.1581"/>
<polygon fill="#000000" stroke="#000000" points="749.5001,-568.0033 746,-558.0034 742.5001,-568.0034 749.5001,-568.0033"/>
<text text-anchor="middle" x="753" y="-579.8" font-family="Times,serif" font-size="14.00" fill="#000000">id</text>
</g>
<!-- 39 -->
<g id="node39" class="node">
<title>39</title>
<ellipse fill="none" stroke="#000000" cx="189" cy="-2280" rx="157.0724" ry="18"/>
<text text-anchor="middle" x="189" y="-2276.3" font-family="Times,serif" font-size="14.00" fill="#000000">id:39 rank:0 shape: (32, 16, 16)</text>
</g>
<!-- 38&#45;&gt;39 -->
<g id="edge40" class="edge">
<title>38&#45;&gt;39</title>
<path fill="none" stroke="#000000" d="M189,-2369.6793C189,-2352.821 189,-2327.5651 189,-2308.147"/>
<polygon fill="#000000" stroke="#000000" points="192.5001,-2308.0501 189,-2298.0502 185.5001,-2308.0502 192.5001,-2308.0501"/>
<text text-anchor="middle" x="245.5" y="-2330.3" font-family="Times,serif" font-size="14.00" fill="#000000">Dropout(p=0.2)</text>
</g>
<!-- 40 -->
<g id="node40" class="node">
<title>40</title>
<ellipse fill="none" stroke="#000000" cx="189" cy="-2193" rx="157.0724" ry="18"/>
<text text-anchor="middle" x="189" y="-2189.3" font-family="Times,serif" font-size="14.00" fill="#000000">id:40 rank:0 shape: (32, 16, 16)</text>
</g>
<!-- 39&#45;&gt;40 -->
<g id="edge41" class="edge">
<title>39&#45;&gt;40</title>
<path fill="none" stroke="#000000" d="M189,-2261.9735C189,-2250.1918 189,-2234.5607 189,-2221.1581"/>
<polygon fill="#000000" stroke="#000000" points="192.5001,-2221.0033 189,-2211.0034 185.5001,-2221.0034 192.5001,-2221.0033"/>
<text text-anchor="middle" x="506.5" y="-2232.8" font-family="Times,serif" font-size="14.00" fill="#000000">BatchNorm2d(32, eps=1e&#45;05, momentum=0.1, affine=True, track_running_stats=True)</text>
</g>
<!-- 41 -->
<g id="node41" class="node">
<title>41</title>
<ellipse fill="none" stroke="#000000" cx="189" cy="-2106" rx="157.0724" ry="18"/>
<text text-anchor="middle" x="189" y="-2102.3" font-family="Times,serif" font-size="14.00" fill="#000000">id:41 rank:0 shape: (32, 16, 16)</text>
</g>
<!-- 40&#45;&gt;41 -->
<g id="edge42" class="edge">
<title>40&#45;&gt;41</title>
<path fill="none" stroke="#000000" d="M189,-2174.9735C189,-2163.1918 189,-2147.5607 189,-2134.1581"/>
<polygon fill="#000000" stroke="#000000" points="192.5001,-2134.0033 189,-2124.0034 185.5001,-2134.0034 192.5001,-2134.0033"/>
<text text-anchor="middle" x="214.5" y="-2145.8" font-family="Times,serif" font-size="14.00" fill="#000000">ReLU()</text>
</g>
<!-- 42 -->
<g id="node42" class="node">
<title>42</title>
<ellipse fill="none" stroke="#000000" cx="191" cy="-2019" rx="163.2712" ry="18"/>
<text text-anchor="middle" x="191" y="-2015.3" font-family="Times,serif" font-size="14.00" fill="#000000">id:42 rank:0 shape: (128, 16, 16)</text>
</g>
<!-- 41&#45;&gt;42 -->
<g id="edge43" class="edge">
<title>41&#45;&gt;42</title>
<path fill="none" stroke="#000000" d="M189.4144,-2087.9735C189.6852,-2076.1918 190.0446,-2060.5607 190.3527,-2047.1581"/>
<polygon fill="#000000" stroke="#000000" points="193.8553,-2047.0812 190.5861,-2037.0034 186.8571,-2046.9202 193.8553,-2047.0812"/>
<text text-anchor="middle" x="371" y="-2058.8" font-family="Times,serif" font-size="14.00" fill="#000000">Conv2d(32, 128, kernel_size=(1, 1), stride=(1, 1))</text>
</g>
<!-- 42&#45;&gt;7 -->
<g id="edge44" class="edge">
<title>42&#45;&gt;7</title>
<path fill="none" stroke="#000000" d="M189.3424,-2000.9735C188.259,-1989.1918 186.8217,-1973.5607 185.5892,-1960.1581"/>
<polygon fill="#000000" stroke="#000000" points="189.0565,-1959.6408 184.6555,-1950.0034 182.086,-1960.2819 189.0565,-1959.6408"/>
<text text-anchor="middle" x="195" y="-1971.8" font-family="Times,serif" font-size="14.00" fill="#000000">id</text>
</g>
</g>
</svg>
