<?xml version="1.0" encoding="UTF-8" standalone="no"?>
<!DOCTYPE svg PUBLIC "-//W3C//DTD SVG 1.1//EN"
 "http://www.w3.org/Graphics/SVG/1.1/DTD/svg11.dtd">
<!-- Generated by graphviz version 2.40.1 (20161225.0304)
 -->
<!-- Title: %3 Pages: 1 -->
<svg width="1914pt" height="2651pt"
 viewBox="0.00 0.00 1914.29 2651.00" xmlns="http://www.w3.org/2000/svg" xmlns:xlink="http://www.w3.org/1999/xlink">
<g id="graph0" class="graph" transform="scale(1 1) rotate(0) translate(4 2647)">
<title>%3</title>
<polygon fill="#ffffff" stroke="transparent" points="-4,4 -4,-2647 1910.286,-2647 1910.286,4 -4,4"/>
<!-- 1 -->
<g id="node1" class="node">
<title>1</title>
<ellipse fill="none" stroke="#000000" cx="709.286" cy="-2625" rx="145.6742" ry="18"/>
<text text-anchor="middle" x="709.286" y="-2621.3" font-family="Times,serif" font-size="14.00" fill="#000000">id:1 rank:0 shape: (1, 32, 32)</text>
</g>
<!-- 3 -->
<g id="node3" class="node">
<title>3</title>
<ellipse fill="none" stroke="#000000" cx="709.286" cy="-2538" rx="151.3732" ry="18"/>
<text text-anchor="middle" x="709.286" y="-2534.3" font-family="Times,serif" font-size="14.00" fill="#000000">id:3 rank:0 shape: (64, 16, 16)</text>
</g>
<!-- 1&#45;&gt;3 -->
<g id="edge1" class="edge">
<title>1&#45;&gt;3</title>
<path fill="none" stroke="#000000" d="M709.286,-2606.9735C709.286,-2595.1918 709.286,-2579.5607 709.286,-2566.1581"/>
<polygon fill="#000000" stroke="#000000" points="712.7861,-2566.0033 709.286,-2556.0034 705.7861,-2566.0034 712.7861,-2566.0033"/>
<text text-anchor="middle" x="982.286" y="-2577.8" font-family="Times,serif" font-size="14.00" fill="#000000">Conv2d(1, 64, kernel_size=(3, 3), stride=(2, 2), padding=(1, 1), bias=False)</text>
</g>
<!-- 2 -->
<g id="node2" class="node">
<title>2</title>
<ellipse fill="none" stroke="#000000" cx="408.286" cy="-18" rx="118.8789" ry="18"/>
<text text-anchor="middle" x="408.286" y="-14.3" font-family="Times,serif" font-size="14.00" fill="#000000">id:2 rank:1 shape: (10,)</text>
</g>
<!-- 4 -->
<g id="node4" class="node">
<title>4</title>
<ellipse fill="none" stroke="#000000" cx="709.286" cy="-2451" rx="151.3732" ry="18"/>
<text text-anchor="middle" x="709.286" y="-2447.3" font-family="Times,serif" font-size="14.00" fill="#000000">id:4 rank:0 shape: (64, 16, 16)</text>
</g>
<!-- 3&#45;&gt;4 -->
<g id="edge2" class="edge">
<title>3&#45;&gt;4</title>
<path fill="none" stroke="#000000" d="M709.286,-2519.9735C709.286,-2508.1918 709.286,-2492.5607 709.286,-2479.1581"/>
<polygon fill="#000000" stroke="#000000" points="712.7861,-2479.0033 709.286,-2469.0034 705.7861,-2479.0034 712.7861,-2479.0033"/>
<text text-anchor="middle" x="765.786" y="-2490.8" font-family="Times,serif" font-size="14.00" fill="#000000">Dropout(p=0.2)</text>
</g>
<!-- 5 -->
<g id="node5" class="node">
<title>5</title>
<ellipse fill="none" stroke="#000000" cx="709.286" cy="-2364" rx="151.3732" ry="18"/>
<text text-anchor="middle" x="709.286" y="-2360.3" font-family="Times,serif" font-size="14.00" fill="#000000">id:5 rank:0 shape: (64, 16, 16)</text>
</g>
<!-- 4&#45;&gt;5 -->
<g id="edge3" class="edge">
<title>4&#45;&gt;5</title>
<path fill="none" stroke="#000000" d="M709.286,-2432.9735C709.286,-2421.1918 709.286,-2405.5607 709.286,-2392.1581"/>
<polygon fill="#000000" stroke="#000000" points="712.7861,-2392.0033 709.286,-2382.0034 705.7861,-2392.0034 712.7861,-2392.0033"/>
<text text-anchor="middle" x="1026.786" y="-2403.8" font-family="Times,serif" font-size="14.00" fill="#000000">BatchNorm2d(64, eps=1e&#45;05, momentum=0.1, affine=True, track_running_stats=True)</text>
</g>
<!-- 6 -->
<g id="node6" class="node">
<title>6</title>
<ellipse fill="none" stroke="#000000" cx="709.286" cy="-2277" rx="151.3732" ry="18"/>
<text text-anchor="middle" x="709.286" y="-2273.3" font-family="Times,serif" font-size="14.00" fill="#000000">id:6 rank:0 shape: (64, 16, 16)</text>
</g>
<!-- 5&#45;&gt;6 -->
<g id="edge4" class="edge">
<title>5&#45;&gt;6</title>
<path fill="none" stroke="#000000" d="M709.286,-2345.9735C709.286,-2334.1918 709.286,-2318.5607 709.286,-2305.1581"/>
<polygon fill="#000000" stroke="#000000" points="712.7861,-2305.0033 709.286,-2295.0034 705.7861,-2305.0034 712.7861,-2305.0033"/>
<text text-anchor="middle" x="734.786" y="-2316.8" font-family="Times,serif" font-size="14.00" fill="#000000">ReLU()</text>
</g>
<!-- 7 -->
<g id="node7" class="node">
<title>7</title>
<ellipse fill="none" stroke="#000000" cx="709.286" cy="-2190" rx="151.3732" ry="18"/>
<text text-anchor="middle" x="709.286" y="-2186.3" font-family="Times,serif" font-size="14.00" fill="#000000">id:7 rank:1 shape: (64, 16, 16)</text>
</g>
<!-- 6&#45;&gt;7 -->
<g id="edge5" class="edge">
<title>6&#45;&gt;7</title>
<path fill="none" stroke="#000000" d="M709.286,-2258.9735C709.286,-2247.1918 709.286,-2231.5607 709.286,-2218.1581"/>
<polygon fill="#000000" stroke="#000000" points="712.7861,-2218.0033 709.286,-2208.0034 705.7861,-2218.0034 712.7861,-2218.0033"/>
<text text-anchor="middle" x="716.286" y="-2229.8" font-family="Times,serif" font-size="14.00" fill="#000000">id</text>
</g>
<!-- 14 -->
<g id="node14" class="node">
<title>14</title>
<ellipse fill="none" stroke="#000000" cx="709.286" cy="-2103" rx="157.0724" ry="18"/>
<text text-anchor="middle" x="709.286" y="-2099.3" font-family="Times,serif" font-size="14.00" fill="#000000">id:14 rank:1 shape: (64, 16, 16)</text>
</g>
<!-- 7&#45;&gt;14 -->
<g id="edge13" class="edge">
<title>7&#45;&gt;14</title>
<path fill="none" stroke="#000000" d="M709.286,-2171.9735C709.286,-2160.1918 709.286,-2144.5607 709.286,-2131.1581"/>
<polygon fill="#000000" stroke="#000000" points="712.7861,-2131.0033 709.286,-2121.0034 705.7861,-2131.0034 712.7861,-2131.0033"/>
<text text-anchor="middle" x="986.786" y="-2142.8" font-family="Times,serif" font-size="14.00" fill="#000000">Conv2d(64, 64, kernel_size=(3, 3), stride=(1, 1), padding=(1, 1), bias=False)</text>
</g>
<!-- 8 -->
<g id="node8" class="node">
<title>8</title>
<ellipse fill="none" stroke="#000000" cx="408.286" cy="-453" rx="145.6742" ry="18"/>
<text text-anchor="middle" x="408.286" y="-449.3" font-family="Times,serif" font-size="14.00" fill="#000000">id:8 rank:1 shape: (128, 1, 1)</text>
</g>
<!-- 9 -->
<g id="node9" class="node">
<title>9</title>
<ellipse fill="none" stroke="#000000" cx="408.286" cy="-366" rx="124.5782" ry="18"/>
<text text-anchor="middle" x="408.286" y="-362.3" font-family="Times,serif" font-size="14.00" fill="#000000">id:9 rank:1 shape: (128,)</text>
</g>
<!-- 8&#45;&gt;9 -->
<g id="edge7" class="edge">
<title>8&#45;&gt;9</title>
<path fill="none" stroke="#000000" d="M408.286,-434.9735C408.286,-423.1918 408.286,-407.5607 408.286,-394.1581"/>
<polygon fill="#000000" stroke="#000000" points="411.7861,-394.0033 408.286,-384.0034 404.7861,-394.0034 411.7861,-394.0033"/>
<text text-anchor="middle" x="439.786" y="-405.8" font-family="Times,serif" font-size="14.00" fill="#000000">Flatten()</text>
</g>
<!-- 10 -->
<g id="node10" class="node">
<title>10</title>
<ellipse fill="none" stroke="#000000" cx="408.286" cy="-279" rx="130.777" ry="18"/>
<text text-anchor="middle" x="408.286" y="-275.3" font-family="Times,serif" font-size="14.00" fill="#000000">id:10 rank:1 shape: (640,)</text>
</g>
<!-- 9&#45;&gt;10 -->
<g id="edge8" class="edge">
<title>9&#45;&gt;10</title>
<path fill="none" stroke="#000000" d="M408.286,-347.9735C408.286,-336.1918 408.286,-320.5607 408.286,-307.1581"/>
<polygon fill="#000000" stroke="#000000" points="411.7861,-307.0033 408.286,-297.0034 404.7861,-307.0034 411.7861,-307.0033"/>
<text text-anchor="middle" x="607.786" y="-318.8" font-family="Times,serif" font-size="14.00" fill="#000000">Linear(in_features=128, out_features=640, bias=True)</text>
</g>
<!-- 11 -->
<g id="node11" class="node">
<title>11</title>
<ellipse fill="none" stroke="#000000" cx="408.286" cy="-192" rx="130.777" ry="18"/>
<text text-anchor="middle" x="408.286" y="-188.3" font-family="Times,serif" font-size="14.00" fill="#000000">id:11 rank:1 shape: (640,)</text>
</g>
<!-- 10&#45;&gt;11 -->
<g id="edge9" class="edge">
<title>10&#45;&gt;11</title>
<path fill="none" stroke="#000000" d="M408.286,-260.9735C408.286,-249.1918 408.286,-233.5607 408.286,-220.1581"/>
<polygon fill="#000000" stroke="#000000" points="411.7861,-220.0033 408.286,-210.0034 404.7861,-220.0034 411.7861,-220.0033"/>
<text text-anchor="middle" x="464.786" y="-231.8" font-family="Times,serif" font-size="14.00" fill="#000000">Dropout(p=0.2)</text>
</g>
<!-- 12 -->
<g id="node12" class="node">
<title>12</title>
<ellipse fill="none" stroke="#000000" cx="408.286" cy="-105" rx="124.5782" ry="18"/>
<text text-anchor="middle" x="408.286" y="-101.3" font-family="Times,serif" font-size="14.00" fill="#000000">id:12 rank:1 shape: (10,)</text>
</g>
<!-- 11&#45;&gt;12 -->
<g id="edge10" class="edge">
<title>11&#45;&gt;12</title>
<path fill="none" stroke="#000000" d="M408.286,-173.9735C408.286,-162.1918 408.286,-146.5607 408.286,-133.1581"/>
<polygon fill="#000000" stroke="#000000" points="411.7861,-133.0033 408.286,-123.0034 404.7861,-133.0034 411.7861,-133.0033"/>
<text text-anchor="middle" x="603.286" y="-144.8" font-family="Times,serif" font-size="14.00" fill="#000000">Linear(in_features=640, out_features=10, bias=True)</text>
</g>
<!-- 12&#45;&gt;2 -->
<g id="edge11" class="edge">
<title>12&#45;&gt;2</title>
<path fill="none" stroke="#000000" d="M408.286,-86.9735C408.286,-75.1918 408.286,-59.5607 408.286,-46.1581"/>
<polygon fill="#000000" stroke="#000000" points="411.7861,-46.0033 408.286,-36.0034 404.7861,-46.0034 411.7861,-46.0033"/>
<text text-anchor="middle" x="464.786" y="-57.8" font-family="Times,serif" font-size="14.00" fill="#000000">Dropout(p=0.2)</text>
</g>
<!-- 13 -->
<g id="node13" class="node">
<title>13</title>
<ellipse fill="none" stroke="#000000" cx="408.286" cy="-1236" rx="163.2712" ry="18"/>
<text text-anchor="middle" x="408.286" y="-1232.3" font-family="Times,serif" font-size="14.00" fill="#000000">id:13 rank:2 shape: (160, 16, 16)</text>
</g>
<!-- 26 -->
<g id="node26" class="node">
<title>26</title>
<ellipse fill="none" stroke="#000000" cx="408.286" cy="-1149" rx="163.2712" ry="18"/>
<text text-anchor="middle" x="408.286" y="-1145.3" font-family="Times,serif" font-size="14.00" fill="#000000">id:26 rank:2 shape: (128, 16, 16)</text>
</g>
<!-- 13&#45;&gt;26 -->
<g id="edge27" class="edge">
<title>13&#45;&gt;26</title>
<path fill="none" stroke="#000000" d="M408.286,-1217.9735C408.286,-1206.1918 408.286,-1190.5607 408.286,-1177.1581"/>
<polygon fill="#000000" stroke="#000000" points="411.7861,-1177.0033 408.286,-1167.0034 404.7861,-1177.0034 411.7861,-1177.0033"/>
<text text-anchor="middle" x="694.786" y="-1188.8" font-family="Times,serif" font-size="14.00" fill="#000000">Conv2d(160, 128, kernel_size=(3, 3), stride=(1, 1), padding=(1, 1), bias=False)</text>
</g>
<!-- 15 -->
<g id="node15" class="node">
<title>15</title>
<ellipse fill="none" stroke="#000000" cx="157.286" cy="-2016" rx="157.0724" ry="18"/>
<text text-anchor="middle" x="157.286" y="-2012.3" font-family="Times,serif" font-size="14.00" fill="#000000">id:15 rank:1 shape: (64, 16, 16)</text>
</g>
<!-- 14&#45;&gt;15 -->
<g id="edge14" class="edge">
<title>14&#45;&gt;15</title>
<path fill="none" stroke="#000000" d="M554.1574,-2099.8619C364.2329,-2095.2436 65.4617,-2085.1365 48.286,-2067 35.0781,-2053.0531 45.4159,-2042.5459 64.0908,-2034.8067"/>
<polygon fill="#000000" stroke="#000000" points="65.3529,-2038.0718 73.5304,-2031.3353 62.9368,-2031.5019 65.3529,-2038.0718"/>
<text text-anchor="middle" x="365.786" y="-2055.8" font-family="Times,serif" font-size="14.00" fill="#000000">BatchNorm2d(64, eps=1e&#45;05, momentum=0.1, affine=True, track_running_stats=True)</text>
</g>
<!-- 17 -->
<g id="node17" class="node">
<title>17</title>
<ellipse fill="none" stroke="#000000" cx="590.286" cy="-2016" rx="157.0724" ry="18"/>
<text text-anchor="middle" x="590.286" y="-2012.3" font-family="Times,serif" font-size="14.00" fill="#000000">id:17 rank:1 shape: (32, 16, 16)</text>
</g>
<!-- 14&#45;&gt;17 -->
<g id="edge16" class="edge">
<title>14&#45;&gt;17</title>
<path fill="none" stroke="#000000" d="M705.2987,-2084.8635C702.0776,-2074.0494 696.5169,-2060.764 687.286,-2052 680.9447,-2045.9794 673.5076,-2040.9467 665.6208,-2036.7441"/>
<polygon fill="#000000" stroke="#000000" points="667.084,-2033.5638 656.5597,-2032.3433 664.0258,-2039.8604 667.084,-2033.5638"/>
<text text-anchor="middle" x="975.786" y="-2055.8" font-family="Times,serif" font-size="14.00" fill="#000000">Conv2d(64, 32, kernel_size=(3, 3), stride=(1, 1), padding=(1, 1), bias=False)</text>
</g>
<!-- 33 -->
<g id="node33" class="node">
<title>33</title>
<ellipse fill="none" stroke="#000000" cx="1287.286" cy="-1962" rx="157.0724" ry="18"/>
<text text-anchor="middle" x="1287.286" y="-1958.3" font-family="Times,serif" font-size="14.00" fill="#000000">id:33 rank:1 shape: (32, 16, 16)</text>
</g>
<!-- 14&#45;&gt;33 -->
<g id="edge34" class="edge">
<title>14&#45;&gt;33</title>
<path fill="none" stroke="#000000" d="M858.7923,-2097.402C1015.7028,-2090.8907 1241.8792,-2079.4347 1257.286,-2067 1279.9043,-2048.7451 1286.1911,-2014.6964 1287.5953,-1990.3182"/>
<polygon fill="#000000" stroke="#000000" points="1291.097,-1990.3255 1287.9351,-1980.2135 1284.1009,-1990.0902 1291.097,-1990.3255"/>
<text text-anchor="middle" x="1546.786" y="-2055.8" font-family="Times,serif" font-size="14.00" fill="#000000">Conv2d(64, 32, kernel_size=(3, 3), stride=(1, 1), padding=(1, 1), bias=False)</text>
</g>
<!-- 16 -->
<g id="node16" class="node">
<title>16</title>
<ellipse fill="none" stroke="#000000" cx="212.286" cy="-1854" rx="157.0724" ry="18"/>
<text text-anchor="middle" x="212.286" y="-1850.3" font-family="Times,serif" font-size="14.00" fill="#000000">id:16 rank:1 shape: (64, 16, 16)</text>
</g>
<!-- 15&#45;&gt;16 -->
<g id="edge15" class="edge">
<title>15&#45;&gt;16</title>
<path fill="none" stroke="#000000" d="M163.4883,-1997.7314C173.0612,-1969.535 191.5059,-1915.2071 202.7734,-1882.0191"/>
<polygon fill="#000000" stroke="#000000" points="206.1213,-1883.0447 206.022,-1872.4503 199.4929,-1880.7943 206.1213,-1883.0447"/>
<text text-anchor="middle" x="206.786" y="-1958.3" font-family="Times,serif" font-size="14.00" fill="#000000">ReLU()</text>
</g>
<!-- 16&#45;&gt;13 -->
<g id="edge12" class="edge">
<title>16&#45;&gt;13</title>
<path fill="none" stroke="#000000" d="M234.8906,-1835.903C256.6526,-1816.2893 286.286,-1782.8212 286.286,-1746 286.286,-1746 286.286,-1746 286.286,-1323 286.286,-1291.7796 313.0979,-1270.7112 341.5831,-1257.1377"/>
<polygon fill="#000000" stroke="#000000" points="343.1579,-1260.2676 350.8584,-1252.9908 340.3008,-1253.8772 343.1579,-1260.2676"/>
<text text-anchor="middle" x="293.286" y="-1536.8" font-family="Times,serif" font-size="14.00" fill="#000000">id</text>
</g>
<!-- 18 -->
<g id="node18" class="node">
<title>18</title>
<ellipse fill="none" stroke="#000000" cx="549.286" cy="-1908" rx="157.0724" ry="18"/>
<text text-anchor="middle" x="549.286" y="-1904.3" font-family="Times,serif" font-size="14.00" fill="#000000">id:18 rank:1 shape: (32, 16, 16)</text>
</g>
<!-- 17&#45;&gt;18 -->
<g id="edge17" class="edge">
<title>17&#45;&gt;18</title>
<path fill="none" stroke="#000000" d="M583.331,-1997.6793C576.8718,-1980.6649 567.1653,-1955.0967 559.7673,-1935.6091"/>
<polygon fill="#000000" stroke="#000000" points="562.9598,-1934.1569 556.1384,-1926.0502 556.4155,-1936.6414 562.9598,-1934.1569"/>
<text text-anchor="middle" x="632.786" y="-1958.3" font-family="Times,serif" font-size="14.00" fill="#000000">Dropout(p=0.2)</text>
</g>
<!-- 19 -->
<g id="node19" class="node">
<title>19</title>
<ellipse fill="none" stroke="#000000" cx="490.286" cy="-1800" rx="157.0724" ry="18"/>
<text text-anchor="middle" x="490.286" y="-1796.3" font-family="Times,serif" font-size="14.00" fill="#000000">id:19 rank:1 shape: (32, 16, 16)</text>
</g>
<!-- 18&#45;&gt;19 -->
<g id="edge18" class="edge">
<title>18&#45;&gt;19</title>
<path fill="none" stroke="#000000" d="M504.8506,-1890.6815C497.428,-1885.7744 490.7121,-1879.6269 486.286,-1872 478.7249,-1858.9708 479.1554,-1842.2829 481.7354,-1828.2543"/>
<polygon fill="#000000" stroke="#000000" points="485.2287,-1828.6764 484.0306,-1818.1495 478.4025,-1827.1259 485.2287,-1828.6764"/>
<text text-anchor="middle" x="803.786" y="-1850.3" font-family="Times,serif" font-size="14.00" fill="#000000">BatchNorm2d(32, eps=1e&#45;05, momentum=0.1, affine=True, track_running_stats=True)</text>
</g>
<!-- 20 -->
<g id="node20" class="node">
<title>20</title>
<ellipse fill="none" stroke="#000000" cx="490.286" cy="-1692" rx="157.0724" ry="18"/>
<text text-anchor="middle" x="490.286" y="-1688.3" font-family="Times,serif" font-size="14.00" fill="#000000">id:20 rank:1 shape: (32, 16, 16)</text>
</g>
<!-- 19&#45;&gt;20 -->
<g id="edge19" class="edge">
<title>19&#45;&gt;20</title>
<path fill="none" stroke="#000000" d="M490.286,-1781.6793C490.286,-1764.821 490.286,-1739.5651 490.286,-1720.147"/>
<polygon fill="#000000" stroke="#000000" points="493.7861,-1720.0501 490.286,-1710.0502 486.7861,-1720.0502 493.7861,-1720.0501"/>
<text text-anchor="middle" x="515.786" y="-1742.3" font-family="Times,serif" font-size="14.00" fill="#000000">ReLU()</text>
</g>
<!-- 20&#45;&gt;13 -->
<g id="edge20" class="edge">
<title>20&#45;&gt;13</title>
<path fill="none" stroke="#000000" d="M439.2577,-1674.8807C400.6672,-1658.3358 354.286,-1629.0749 354.286,-1584 354.286,-1584 354.286,-1584 354.286,-1323 354.286,-1299.9897 368.091,-1278.0069 381.7409,-1261.895"/>
<polygon fill="#000000" stroke="#000000" points="384.7221,-1263.8128 388.7908,-1254.0303 379.5097,-1259.1404 384.7221,-1263.8128"/>
<text text-anchor="middle" x="361.286" y="-1449.8" font-family="Times,serif" font-size="14.00" fill="#000000">id</text>
</g>
<!-- 21 -->
<g id="node21" class="node">
<title>21</title>
<ellipse fill="none" stroke="#000000" cx="539.286" cy="-1584" rx="157.0724" ry="18"/>
<text text-anchor="middle" x="539.286" y="-1580.3" font-family="Times,serif" font-size="14.00" fill="#000000">id:21 rank:1 shape: (32, 16, 16)</text>
</g>
<!-- 20&#45;&gt;21 -->
<g id="edge21" class="edge">
<title>20&#45;&gt;21</title>
<path fill="none" stroke="#000000" d="M495.6248,-1673.7908C500.2651,-1658.9534 507.5974,-1637.6462 516.286,-1620 517.7603,-1617.0058 519.427,-1613.9518 521.1729,-1610.9517"/>
<polygon fill="#000000" stroke="#000000" points="524.2811,-1612.5786 526.5348,-1602.2262 518.3172,-1608.9137 524.2811,-1612.5786"/>
<text text-anchor="middle" x="793.786" y="-1634.3" font-family="Times,serif" font-size="14.00" fill="#000000">Conv2d(32, 32, kernel_size=(3, 3), stride=(1, 1), padding=(1, 1), bias=False)</text>
</g>
<!-- 22 -->
<g id="node22" class="node">
<title>22</title>
<ellipse fill="none" stroke="#000000" cx="539.286" cy="-1497" rx="157.0724" ry="18"/>
<text text-anchor="middle" x="539.286" y="-1493.3" font-family="Times,serif" font-size="14.00" fill="#000000">id:22 rank:1 shape: (32, 16, 16)</text>
</g>
<!-- 21&#45;&gt;22 -->
<g id="edge22" class="edge">
<title>21&#45;&gt;22</title>
<path fill="none" stroke="#000000" d="M539.286,-1565.9735C539.286,-1554.1918 539.286,-1538.5607 539.286,-1525.1581"/>
<polygon fill="#000000" stroke="#000000" points="542.7861,-1525.0033 539.286,-1515.0034 535.7861,-1525.0034 542.7861,-1525.0033"/>
<text text-anchor="middle" x="595.786" y="-1536.8" font-family="Times,serif" font-size="14.00" fill="#000000">Dropout(p=0.2)</text>
</g>
<!-- 23 -->
<g id="node23" class="node">
<title>23</title>
<ellipse fill="none" stroke="#000000" cx="539.286" cy="-1410" rx="157.0724" ry="18"/>
<text text-anchor="middle" x="539.286" y="-1406.3" font-family="Times,serif" font-size="14.00" fill="#000000">id:23 rank:1 shape: (32, 16, 16)</text>
</g>
<!-- 22&#45;&gt;23 -->
<g id="edge23" class="edge">
<title>22&#45;&gt;23</title>
<path fill="none" stroke="#000000" d="M539.286,-1478.9735C539.286,-1467.1918 539.286,-1451.5607 539.286,-1438.1581"/>
<polygon fill="#000000" stroke="#000000" points="542.7861,-1438.0033 539.286,-1428.0034 535.7861,-1438.0034 542.7861,-1438.0033"/>
<text text-anchor="middle" x="856.786" y="-1449.8" font-family="Times,serif" font-size="14.00" fill="#000000">BatchNorm2d(32, eps=1e&#45;05, momentum=0.1, affine=True, track_running_stats=True)</text>
</g>
<!-- 24 -->
<g id="node24" class="node">
<title>24</title>
<ellipse fill="none" stroke="#000000" cx="539.286" cy="-1323" rx="157.0724" ry="18"/>
<text text-anchor="middle" x="539.286" y="-1319.3" font-family="Times,serif" font-size="14.00" fill="#000000">id:24 rank:1 shape: (32, 16, 16)</text>
</g>
<!-- 23&#45;&gt;24 -->
<g id="edge24" class="edge">
<title>23&#45;&gt;24</title>
<path fill="none" stroke="#000000" d="M539.286,-1391.9735C539.286,-1380.1918 539.286,-1364.5607 539.286,-1351.1581"/>
<polygon fill="#000000" stroke="#000000" points="542.7861,-1351.0033 539.286,-1341.0034 535.7861,-1351.0034 542.7861,-1351.0033"/>
<text text-anchor="middle" x="564.786" y="-1362.8" font-family="Times,serif" font-size="14.00" fill="#000000">ReLU()</text>
</g>
<!-- 24&#45;&gt;13 -->
<g id="edge25" class="edge">
<title>24&#45;&gt;13</title>
<path fill="none" stroke="#000000" d="M512.4601,-1305.1843C492.5914,-1291.989 465.3258,-1273.8813 443.6725,-1259.5009"/>
<polygon fill="#000000" stroke="#000000" points="445.3427,-1256.4086 435.0761,-1253.7919 441.4701,-1262.2398 445.3427,-1256.4086"/>
<text text-anchor="middle" x="489.286" y="-1275.8" font-family="Times,serif" font-size="14.00" fill="#000000">id</text>
</g>
<!-- 25 -->
<g id="node25" class="node">
<title>25</title>
<ellipse fill="none" stroke="#000000" cx="408.286" cy="-888" rx="163.2712" ry="18"/>
<text text-anchor="middle" x="408.286" y="-884.3" font-family="Times,serif" font-size="14.00" fill="#000000">id:25 rank:3 shape: (128, 16, 16)</text>
</g>
<!-- 30 -->
<g id="node30" class="node">
<title>30</title>
<ellipse fill="none" stroke="#000000" cx="408.286" cy="-801" rx="163.2712" ry="18"/>
<text text-anchor="middle" x="408.286" y="-797.3" font-family="Times,serif" font-size="14.00" fill="#000000">id:30 rank:3 shape: (128, 16, 16)</text>
</g>
<!-- 25&#45;&gt;30 -->
<g id="edge31" class="edge">
<title>25&#45;&gt;30</title>
<path fill="none" stroke="#000000" d="M408.286,-869.9735C408.286,-858.1918 408.286,-842.5607 408.286,-829.1581"/>
<polygon fill="#000000" stroke="#000000" points="411.7861,-829.0033 408.286,-819.0034 404.7861,-829.0034 411.7861,-829.0033"/>
<text text-anchor="middle" x="694.786" y="-840.8" font-family="Times,serif" font-size="14.00" fill="#000000">Conv2d(128, 128, kernel_size=(3, 3), stride=(1, 1), padding=(1, 1), bias=False)</text>
</g>
<!-- 27 -->
<g id="node27" class="node">
<title>27</title>
<ellipse fill="none" stroke="#000000" cx="408.286" cy="-1062" rx="163.2712" ry="18"/>
<text text-anchor="middle" x="408.286" y="-1058.3" font-family="Times,serif" font-size="14.00" fill="#000000">id:27 rank:2 shape: (128, 16, 16)</text>
</g>
<!-- 26&#45;&gt;27 -->
<g id="edge28" class="edge">
<title>26&#45;&gt;27</title>
<path fill="none" stroke="#000000" d="M408.286,-1130.9735C408.286,-1119.1918 408.286,-1103.5607 408.286,-1090.1581"/>
<polygon fill="#000000" stroke="#000000" points="411.7861,-1090.0033 408.286,-1080.0034 404.7861,-1090.0034 411.7861,-1090.0033"/>
<text text-anchor="middle" x="730.286" y="-1101.8" font-family="Times,serif" font-size="14.00" fill="#000000">BatchNorm2d(128, eps=1e&#45;05, momentum=0.1, affine=True, track_running_stats=True)</text>
</g>
<!-- 28 -->
<g id="node28" class="node">
<title>28</title>
<ellipse fill="none" stroke="#000000" cx="408.286" cy="-975" rx="163.2712" ry="18"/>
<text text-anchor="middle" x="408.286" y="-971.3" font-family="Times,serif" font-size="14.00" fill="#000000">id:28 rank:2 shape: (128, 16, 16)</text>
</g>
<!-- 27&#45;&gt;28 -->
<g id="edge29" class="edge">
<title>27&#45;&gt;28</title>
<path fill="none" stroke="#000000" d="M408.286,-1043.9735C408.286,-1032.1918 408.286,-1016.5607 408.286,-1003.1581"/>
<polygon fill="#000000" stroke="#000000" points="411.7861,-1003.0033 408.286,-993.0034 404.7861,-1003.0034 411.7861,-1003.0033"/>
<text text-anchor="middle" x="433.786" y="-1014.8" font-family="Times,serif" font-size="14.00" fill="#000000">ReLU()</text>
</g>
<!-- 28&#45;&gt;25 -->
<g id="edge26" class="edge">
<title>28&#45;&gt;25</title>
<path fill="none" stroke="#000000" d="M408.286,-956.9735C408.286,-945.1918 408.286,-929.5607 408.286,-916.1581"/>
<polygon fill="#000000" stroke="#000000" points="411.7861,-916.0033 408.286,-906.0034 404.7861,-916.0034 411.7861,-916.0033"/>
<text text-anchor="middle" x="415.286" y="-927.8" font-family="Times,serif" font-size="14.00" fill="#000000">id</text>
</g>
<!-- 29 -->
<g id="node29" class="node">
<title>29</title>
<ellipse fill="none" stroke="#000000" cx="408.286" cy="-540" rx="163.2712" ry="18"/>
<text text-anchor="middle" x="408.286" y="-536.3" font-family="Times,serif" font-size="14.00" fill="#000000">id:29 rank:4 shape: (128, 16, 16)</text>
</g>
<!-- 29&#45;&gt;8 -->
<g id="edge6" class="edge">
<title>29&#45;&gt;8</title>
<path fill="none" stroke="#000000" d="M408.286,-521.9735C408.286,-510.1918 408.286,-494.5607 408.286,-481.1581"/>
<polygon fill="#000000" stroke="#000000" points="411.7861,-481.0033 408.286,-471.0034 404.7861,-481.0034 411.7861,-481.0033"/>
<text text-anchor="middle" x="549.286" y="-492.8" font-family="Times,serif" font-size="14.00" fill="#000000">AdaptiveAvgPool2d(output_size=(1, 1))</text>
</g>
<!-- 31 -->
<g id="node31" class="node">
<title>31</title>
<ellipse fill="none" stroke="#000000" cx="408.286" cy="-714" rx="163.2712" ry="18"/>
<text text-anchor="middle" x="408.286" y="-710.3" font-family="Times,serif" font-size="14.00" fill="#000000">id:31 rank:3 shape: (128, 16, 16)</text>
</g>
<!-- 30&#45;&gt;31 -->
<g id="edge32" class="edge">
<title>30&#45;&gt;31</title>
<path fill="none" stroke="#000000" d="M408.286,-782.9735C408.286,-771.1918 408.286,-755.5607 408.286,-742.1581"/>
<polygon fill="#000000" stroke="#000000" points="411.7861,-742.0033 408.286,-732.0034 404.7861,-742.0034 411.7861,-742.0033"/>
<text text-anchor="middle" x="730.286" y="-753.8" font-family="Times,serif" font-size="14.00" fill="#000000">BatchNorm2d(128, eps=1e&#45;05, momentum=0.1, affine=True, track_running_stats=True)</text>
</g>
<!-- 32 -->
<g id="node32" class="node">
<title>32</title>
<ellipse fill="none" stroke="#000000" cx="408.286" cy="-627" rx="163.2712" ry="18"/>
<text text-anchor="middle" x="408.286" y="-623.3" font-family="Times,serif" font-size="14.00" fill="#000000">id:32 rank:3 shape: (128, 16, 16)</text>
</g>
<!-- 31&#45;&gt;32 -->
<g id="edge33" class="edge">
<title>31&#45;&gt;32</title>
<path fill="none" stroke="#000000" d="M408.286,-695.9735C408.286,-684.1918 408.286,-668.5607 408.286,-655.1581"/>
<polygon fill="#000000" stroke="#000000" points="411.7861,-655.0033 408.286,-645.0034 404.7861,-655.0034 411.7861,-655.0033"/>
<text text-anchor="middle" x="433.786" y="-666.8" font-family="Times,serif" font-size="14.00" fill="#000000">ReLU()</text>
</g>
<!-- 32&#45;&gt;29 -->
<g id="edge30" class="edge">
<title>32&#45;&gt;29</title>
<path fill="none" stroke="#000000" d="M408.286,-608.9735C408.286,-597.1918 408.286,-581.5607 408.286,-568.1581"/>
<polygon fill="#000000" stroke="#000000" points="411.7861,-568.0033 408.286,-558.0034 404.7861,-568.0034 411.7861,-568.0033"/>
<text text-anchor="middle" x="415.286" y="-579.8" font-family="Times,serif" font-size="14.00" fill="#000000">id</text>
</g>
<!-- 34 -->
<g id="node34" class="node">
<title>34</title>
<ellipse fill="none" stroke="#000000" cx="1287.286" cy="-1854" rx="157.0724" ry="18"/>
<text text-anchor="middle" x="1287.286" y="-1850.3" font-family="Times,serif" font-size="14.00" fill="#000000">id:34 rank:1 shape: (32, 16, 16)</text>
</g>
<!-- 33&#45;&gt;34 -->
<g id="edge35" class="edge">
<title>33&#45;&gt;34</title>
<path fill="none" stroke="#000000" d="M1287.286,-1943.6793C1287.286,-1926.821 1287.286,-1901.5651 1287.286,-1882.147"/>
<polygon fill="#000000" stroke="#000000" points="1290.7861,-1882.0501 1287.286,-1872.0502 1283.7861,-1882.0502 1290.7861,-1882.0501"/>
<text text-anchor="middle" x="1343.786" y="-1904.3" font-family="Times,serif" font-size="14.00" fill="#000000">Dropout(p=0.2)</text>
</g>
<!-- 35 -->
<g id="node35" class="node">
<title>35</title>
<ellipse fill="none" stroke="#000000" cx="1244.286" cy="-1746" rx="157.0724" ry="18"/>
<text text-anchor="middle" x="1244.286" y="-1742.3" font-family="Times,serif" font-size="14.00" fill="#000000">id:35 rank:1 shape: (32, 16, 16)</text>
</g>
<!-- 34&#45;&gt;35 -->
<g id="edge36" class="edge">
<title>34&#45;&gt;35</title>
<path fill="none" stroke="#000000" d="M1279.9917,-1835.6793C1273.1863,-1818.5868 1262.944,-1792.8619 1255.1719,-1773.3413"/>
<polygon fill="#000000" stroke="#000000" points="1258.4236,-1772.0462 1251.4727,-1764.0502 1251.9201,-1774.6356 1258.4236,-1772.0462"/>
<text text-anchor="middle" x="1588.786" y="-1796.3" font-family="Times,serif" font-size="14.00" fill="#000000">BatchNorm2d(32, eps=1e&#45;05, momentum=0.1, affine=True, track_running_stats=True)</text>
</g>
<!-- 36 -->
<g id="node36" class="node">
<title>36</title>
<ellipse fill="none" stroke="#000000" cx="1237.286" cy="-1638" rx="157.0724" ry="18"/>
<text text-anchor="middle" x="1237.286" y="-1634.3" font-family="Times,serif" font-size="14.00" fill="#000000">id:36 rank:1 shape: (32, 16, 16)</text>
</g>
<!-- 35&#45;&gt;36 -->
<g id="edge37" class="edge">
<title>35&#45;&gt;36</title>
<path fill="none" stroke="#000000" d="M1243.0986,-1727.6793C1242.0059,-1710.821 1240.369,-1685.5651 1239.1104,-1666.147"/>
<polygon fill="#000000" stroke="#000000" points="1242.5955,-1665.8028 1238.456,-1656.0502 1235.6102,-1666.2556 1242.5955,-1665.8028"/>
<text text-anchor="middle" x="1266.786" y="-1688.3" font-family="Times,serif" font-size="14.00" fill="#000000">ReLU()</text>
</g>
<!-- 36&#45;&gt;13 -->
<g id="edge38" class="edge">
<title>36&#45;&gt;13</title>
<path fill="none" stroke="#000000" d="M1229.6494,-1619.6674C1222.2973,-1600.3334 1212.286,-1568.809 1212.286,-1540.5 1212.286,-1540.5 1212.286,-1540.5 1212.286,-1323 1212.286,-1290.6843 796.3171,-1259.8456 562.7816,-1245.0784"/>
<polygon fill="#000000" stroke="#000000" points="562.6893,-1241.5658 552.4892,-1244.4305 562.2495,-1248.5519 562.6893,-1241.5658"/>
<text text-anchor="middle" x="1219.286" y="-1449.8" font-family="Times,serif" font-size="14.00" fill="#000000">id</text>
</g>
</g>
</svg>
