<?xml version="1.0" encoding="UTF-8" standalone="no"?>
<!DOCTYPE svg PUBLIC "-//W3C//DTD SVG 1.1//EN"
 "http://www.w3.org/Graphics/SVG/1.1/DTD/svg11.dtd">
<!-- Generated by graphviz version 2.40.1 (20161225.0304)
 -->
<!-- Title: %3 Pages: 1 -->
<svg width="1205pt" height="2327pt"
 viewBox="0.00 0.00 1205.27 2327.00" xmlns="http://www.w3.org/2000/svg" xmlns:xlink="http://www.w3.org/1999/xlink">
<g id="graph0" class="graph" transform="scale(1 1) rotate(0) translate(4 2323)">
<title>%3</title>
<polygon fill="#ffffff" stroke="transparent" points="-4,4 -4,-2323 1201.2668,-2323 1201.2668,4 -4,4"/>
<!-- 1 -->
<g id="node1" class="node">
<title>1</title>
<ellipse fill="none" stroke="#000000" cx="331.2668" cy="-2301" rx="145.6742" ry="18"/>
<text text-anchor="middle" x="331.2668" y="-2297.3" font-family="Times,serif" font-size="14.00" fill="#000000">id:1 rank:0 shape: (3, 32, 32)</text>
</g>
<!-- 3 -->
<g id="node3" class="node">
<title>3</title>
<ellipse fill="none" stroke="#000000" cx="331.2668" cy="-2214" rx="157.0724" ry="18"/>
<text text-anchor="middle" x="331.2668" y="-2210.3" font-family="Times,serif" font-size="14.00" fill="#000000">id:3 rank:0 shape: (128, 16, 16)</text>
</g>
<!-- 1&#45;&gt;3 -->
<g id="edge1" class="edge">
<title>1&#45;&gt;3</title>
<path fill="none" stroke="#000000" d="M331.2668,-2282.9735C331.2668,-2271.1918 331.2668,-2255.5607 331.2668,-2242.1581"/>
<polygon fill="#000000" stroke="#000000" points="334.7669,-2242.0033 331.2668,-2232.0034 327.7669,-2242.0034 334.7669,-2242.0033"/>
<text text-anchor="middle" x="608.7668" y="-2253.8" font-family="Times,serif" font-size="14.00" fill="#000000">Conv2d(3, 128, kernel_size=(3, 3), stride=(2, 2), padding=(1, 1), bias=False)</text>
</g>
<!-- 2 -->
<g id="node2" class="node">
<title>2</title>
<ellipse fill="none" stroke="#000000" cx="306.2668" cy="-18" rx="118.8789" ry="18"/>
<text text-anchor="middle" x="306.2668" y="-14.3" font-family="Times,serif" font-size="14.00" fill="#000000">id:2 rank:4 shape: (10,)</text>
</g>
<!-- 4 -->
<g id="node4" class="node">
<title>4</title>
<ellipse fill="none" stroke="#000000" cx="331.2668" cy="-2127" rx="157.0724" ry="18"/>
<text text-anchor="middle" x="331.2668" y="-2123.3" font-family="Times,serif" font-size="14.00" fill="#000000">id:4 rank:0 shape: (128, 16, 16)</text>
</g>
<!-- 3&#45;&gt;4 -->
<g id="edge2" class="edge">
<title>3&#45;&gt;4</title>
<path fill="none" stroke="#000000" d="M331.2668,-2195.9735C331.2668,-2184.1918 331.2668,-2168.5607 331.2668,-2155.1581"/>
<polygon fill="#000000" stroke="#000000" points="334.7669,-2155.0033 331.2668,-2145.0034 327.7669,-2155.0034 334.7669,-2155.0033"/>
<text text-anchor="middle" x="387.7668" y="-2166.8" font-family="Times,serif" font-size="14.00" fill="#000000">Dropout(p=0.2)</text>
</g>
<!-- 5 -->
<g id="node5" class="node">
<title>5</title>
<ellipse fill="none" stroke="#000000" cx="331.2668" cy="-2040" rx="157.0724" ry="18"/>
<text text-anchor="middle" x="331.2668" y="-2036.3" font-family="Times,serif" font-size="14.00" fill="#000000">id:5 rank:0 shape: (128, 16, 16)</text>
</g>
<!-- 4&#45;&gt;5 -->
<g id="edge3" class="edge">
<title>4&#45;&gt;5</title>
<path fill="none" stroke="#000000" d="M331.2668,-2108.9735C331.2668,-2097.1918 331.2668,-2081.5607 331.2668,-2068.1581"/>
<polygon fill="#000000" stroke="#000000" points="334.7669,-2068.0033 331.2668,-2058.0034 327.7669,-2068.0034 334.7669,-2068.0033"/>
<text text-anchor="middle" x="653.2668" y="-2079.8" font-family="Times,serif" font-size="14.00" fill="#000000">BatchNorm2d(128, eps=1e&#45;05, momentum=0.1, affine=True, track_running_stats=True)</text>
</g>
<!-- 6 -->
<g id="node6" class="node">
<title>6</title>
<ellipse fill="none" stroke="#000000" cx="331.2668" cy="-1953" rx="157.0724" ry="18"/>
<text text-anchor="middle" x="331.2668" y="-1949.3" font-family="Times,serif" font-size="14.00" fill="#000000">id:6 rank:0 shape: (128, 16, 16)</text>
</g>
<!-- 5&#45;&gt;6 -->
<g id="edge4" class="edge">
<title>5&#45;&gt;6</title>
<path fill="none" stroke="#000000" d="M331.2668,-2021.9735C331.2668,-2010.1918 331.2668,-1994.5607 331.2668,-1981.1581"/>
<polygon fill="#000000" stroke="#000000" points="334.7669,-1981.0033 331.2668,-1971.0034 327.7669,-1981.0034 334.7669,-1981.0033"/>
<text text-anchor="middle" x="356.7668" y="-1992.8" font-family="Times,serif" font-size="14.00" fill="#000000">ReLU()</text>
</g>
<!-- 7 -->
<g id="node7" class="node">
<title>7</title>
<ellipse fill="none" stroke="#000000" cx="331.2668" cy="-1866" rx="157.0724" ry="18"/>
<text text-anchor="middle" x="331.2668" y="-1862.3" font-family="Times,serif" font-size="14.00" fill="#000000">id:7 rank:1 shape: (128, 16, 16)</text>
</g>
<!-- 6&#45;&gt;7 -->
<g id="edge5" class="edge">
<title>6&#45;&gt;7</title>
<path fill="none" stroke="#000000" d="M331.2668,-1934.9735C331.2668,-1923.1918 331.2668,-1907.5607 331.2668,-1894.1581"/>
<polygon fill="#000000" stroke="#000000" points="334.7669,-1894.0033 331.2668,-1884.0034 327.7669,-1894.0034 334.7669,-1894.0033"/>
<text text-anchor="middle" x="338.2668" y="-1905.8" font-family="Times,serif" font-size="14.00" fill="#000000">id</text>
</g>
<!-- 14 -->
<g id="node14" class="node">
<title>14</title>
<ellipse fill="none" stroke="#000000" cx="331.2668" cy="-1779" rx="157.0724" ry="18"/>
<text text-anchor="middle" x="331.2668" y="-1775.3" font-family="Times,serif" font-size="14.00" fill="#000000">id:14 rank:1 shape: (96, 16, 16)</text>
</g>
<!-- 7&#45;&gt;14 -->
<g id="edge13" class="edge">
<title>7&#45;&gt;14</title>
<path fill="none" stroke="#000000" d="M331.2668,-1847.9735C331.2668,-1836.1918 331.2668,-1820.5607 331.2668,-1807.1581"/>
<polygon fill="#000000" stroke="#000000" points="334.7669,-1807.0033 331.2668,-1797.0034 327.7669,-1807.0034 334.7669,-1807.0033"/>
<text text-anchor="middle" x="613.2668" y="-1818.8" font-family="Times,serif" font-size="14.00" fill="#000000">Conv2d(128, 96, kernel_size=(3, 3), stride=(1, 1), padding=(1, 1), bias=False)</text>
</g>
<!-- 8 -->
<g id="node8" class="node">
<title>8</title>
<ellipse fill="none" stroke="#000000" cx="306.2668" cy="-453" rx="139.9756" ry="18"/>
<text text-anchor="middle" x="306.2668" y="-449.3" font-family="Times,serif" font-size="14.00" fill="#000000">id:8 rank:4 shape: (96, 1, 1)</text>
</g>
<!-- 9 -->
<g id="node9" class="node">
<title>9</title>
<ellipse fill="none" stroke="#000000" cx="306.2668" cy="-366" rx="118.8789" ry="18"/>
<text text-anchor="middle" x="306.2668" y="-362.3" font-family="Times,serif" font-size="14.00" fill="#000000">id:9 rank:4 shape: (96,)</text>
</g>
<!-- 8&#45;&gt;9 -->
<g id="edge7" class="edge">
<title>8&#45;&gt;9</title>
<path fill="none" stroke="#000000" d="M306.2668,-434.9735C306.2668,-423.1918 306.2668,-407.5607 306.2668,-394.1581"/>
<polygon fill="#000000" stroke="#000000" points="309.7669,-394.0033 306.2668,-384.0034 302.7669,-394.0034 309.7669,-394.0033"/>
<text text-anchor="middle" x="337.7668" y="-405.8" font-family="Times,serif" font-size="14.00" fill="#000000">Flatten()</text>
</g>
<!-- 10 -->
<g id="node10" class="node">
<title>10</title>
<ellipse fill="none" stroke="#000000" cx="306.2668" cy="-279" rx="130.777" ry="18"/>
<text text-anchor="middle" x="306.2668" y="-275.3" font-family="Times,serif" font-size="14.00" fill="#000000">id:10 rank:4 shape: (640,)</text>
</g>
<!-- 9&#45;&gt;10 -->
<g id="edge8" class="edge">
<title>9&#45;&gt;10</title>
<path fill="none" stroke="#000000" d="M306.2668,-347.9735C306.2668,-336.1918 306.2668,-320.5607 306.2668,-307.1581"/>
<polygon fill="#000000" stroke="#000000" points="309.7669,-307.0033 306.2668,-297.0034 302.7669,-307.0034 309.7669,-307.0033"/>
<text text-anchor="middle" x="501.2668" y="-318.8" font-family="Times,serif" font-size="14.00" fill="#000000">Linear(in_features=96, out_features=640, bias=True)</text>
</g>
<!-- 11 -->
<g id="node11" class="node">
<title>11</title>
<ellipse fill="none" stroke="#000000" cx="306.2668" cy="-192" rx="130.777" ry="18"/>
<text text-anchor="middle" x="306.2668" y="-188.3" font-family="Times,serif" font-size="14.00" fill="#000000">id:11 rank:4 shape: (640,)</text>
</g>
<!-- 10&#45;&gt;11 -->
<g id="edge9" class="edge">
<title>10&#45;&gt;11</title>
<path fill="none" stroke="#000000" d="M306.2668,-260.9735C306.2668,-249.1918 306.2668,-233.5607 306.2668,-220.1581"/>
<polygon fill="#000000" stroke="#000000" points="309.7669,-220.0033 306.2668,-210.0034 302.7669,-220.0034 309.7669,-220.0033"/>
<text text-anchor="middle" x="362.7668" y="-231.8" font-family="Times,serif" font-size="14.00" fill="#000000">Dropout(p=0.2)</text>
</g>
<!-- 12 -->
<g id="node12" class="node">
<title>12</title>
<ellipse fill="none" stroke="#000000" cx="306.2668" cy="-105" rx="124.5782" ry="18"/>
<text text-anchor="middle" x="306.2668" y="-101.3" font-family="Times,serif" font-size="14.00" fill="#000000">id:12 rank:4 shape: (10,)</text>
</g>
<!-- 11&#45;&gt;12 -->
<g id="edge10" class="edge">
<title>11&#45;&gt;12</title>
<path fill="none" stroke="#000000" d="M306.2668,-173.9735C306.2668,-162.1918 306.2668,-146.5607 306.2668,-133.1581"/>
<polygon fill="#000000" stroke="#000000" points="309.7669,-133.0033 306.2668,-123.0034 302.7669,-133.0034 309.7669,-133.0033"/>
<text text-anchor="middle" x="501.2668" y="-144.8" font-family="Times,serif" font-size="14.00" fill="#000000">Linear(in_features=640, out_features=10, bias=True)</text>
</g>
<!-- 12&#45;&gt;2 -->
<g id="edge11" class="edge">
<title>12&#45;&gt;2</title>
<path fill="none" stroke="#000000" d="M306.2668,-86.9735C306.2668,-75.1918 306.2668,-59.5607 306.2668,-46.1581"/>
<polygon fill="#000000" stroke="#000000" points="309.7669,-46.0033 306.2668,-36.0034 302.7669,-46.0034 309.7669,-46.0033"/>
<text text-anchor="middle" x="362.7668" y="-57.8" font-family="Times,serif" font-size="14.00" fill="#000000">Dropout(p=0.2)</text>
</g>
<!-- 13 -->
<g id="node13" class="node">
<title>13</title>
<ellipse fill="none" stroke="#000000" cx="306.2668" cy="-1236" rx="157.0724" ry="18"/>
<text text-anchor="middle" x="306.2668" y="-1232.3" font-family="Times,serif" font-size="14.00" fill="#000000">id:13 rank:2 shape: (96, 16, 16)</text>
</g>
<!-- 18 -->
<g id="node18" class="node">
<title>18</title>
<ellipse fill="none" stroke="#000000" cx="306.2668" cy="-1149" rx="157.0724" ry="18"/>
<text text-anchor="middle" x="306.2668" y="-1145.3" font-family="Times,serif" font-size="14.00" fill="#000000">id:18 rank:2 shape: (96, 16, 16)</text>
</g>
<!-- 13&#45;&gt;18 -->
<g id="edge17" class="edge">
<title>13&#45;&gt;18</title>
<path fill="none" stroke="#000000" d="M306.2668,-1217.9735C306.2668,-1206.1918 306.2668,-1190.5607 306.2668,-1177.1581"/>
<polygon fill="#000000" stroke="#000000" points="309.7669,-1177.0033 306.2668,-1167.0034 302.7669,-1177.0034 309.7669,-1177.0033"/>
<text text-anchor="middle" x="583.7668" y="-1188.8" font-family="Times,serif" font-size="14.00" fill="#000000">Conv2d(96, 96, kernel_size=(3, 3), stride=(1, 1), padding=(1, 1), bias=False)</text>
</g>
<!-- 15 -->
<g id="node15" class="node">
<title>15</title>
<ellipse fill="none" stroke="#000000" cx="164.2668" cy="-1692" rx="157.0724" ry="18"/>
<text text-anchor="middle" x="164.2668" y="-1688.3" font-family="Times,serif" font-size="14.00" fill="#000000">id:15 rank:1 shape: (96, 16, 16)</text>
</g>
<!-- 14&#45;&gt;15 -->
<g id="edge14" class="edge">
<title>14&#45;&gt;15</title>
<path fill="none" stroke="#000000" d="M186.136,-1771.9088C104.3456,-1766.3817 16.0035,-1757.2112 3.2668,-1743 -1.1827,-1738.0355 -.9013,-1733.203 3.2668,-1728 10.1383,-1719.4223 27.3594,-1712.7522 48.1073,-1707.6167"/>
<polygon fill="#000000" stroke="#000000" points="48.9076,-1711.0241 57.8637,-1705.3639 47.3326,-1704.2036 48.9076,-1711.0241"/>
<text text-anchor="middle" x="320.7668" y="-1731.8" font-family="Times,serif" font-size="14.00" fill="#000000">BatchNorm2d(96, eps=1e&#45;05, momentum=0.1, affine=True, track_running_stats=True)</text>
</g>
<!-- 21 -->
<g id="node21" class="node">
<title>21</title>
<ellipse fill="none" stroke="#000000" cx="578.2668" cy="-1692" rx="157.0724" ry="18"/>
<text text-anchor="middle" x="578.2668" y="-1688.3" font-family="Times,serif" font-size="14.00" fill="#000000">id:21 rank:1 shape: (48, 16, 16)</text>
</g>
<!-- 14&#45;&gt;21 -->
<g id="edge20" class="edge">
<title>14&#45;&gt;21</title>
<path fill="none" stroke="#000000" d="M472.3126,-1770.9253C547.3846,-1765.1456 626.6524,-1756.0559 638.2668,-1743 647.1263,-1733.0409 640.5341,-1723.2701 628.975,-1714.9887"/>
<polygon fill="#000000" stroke="#000000" points="630.6307,-1711.8947 620.3078,-1709.5094 626.8901,-1717.8115 630.6307,-1711.8947"/>
<text text-anchor="middle" x="919.7668" y="-1731.8" font-family="Times,serif" font-size="14.00" fill="#000000">Conv2d(96, 48, kernel_size=(3, 3), stride=(1, 1), padding=(1, 1), bias=False)</text>
</g>
<!-- 16 -->
<g id="node16" class="node">
<title>16</title>
<ellipse fill="none" stroke="#000000" cx="218.2668" cy="-1551" rx="157.0724" ry="18"/>
<text text-anchor="middle" x="218.2668" y="-1547.3" font-family="Times,serif" font-size="14.00" fill="#000000">id:16 rank:1 shape: (96, 16, 16)</text>
</g>
<!-- 15&#45;&gt;16 -->
<g id="edge15" class="edge">
<title>15&#45;&gt;16</title>
<path fill="none" stroke="#000000" d="M171.2158,-1673.8554C180.4504,-1649.7428 196.8541,-1606.9107 207.646,-1578.7319"/>
<polygon fill="#000000" stroke="#000000" points="211.0364,-1579.6653 211.3444,-1569.075 204.4994,-1577.1618 211.0364,-1579.6653"/>
<text text-anchor="middle" x="209.7668" y="-1644.8" font-family="Times,serif" font-size="14.00" fill="#000000">ReLU()</text>
</g>
<!-- 16&#45;&gt;13 -->
<g id="edge12" class="edge">
<title>16&#45;&gt;13</title>
<path fill="none" stroke="#000000" d="M242.6427,-1533.0175C263.5304,-1515.3507 290.2668,-1486.3259 290.2668,-1453.5 290.2668,-1453.5 290.2668,-1453.5 290.2668,-1323 290.2668,-1303.0329 294.3937,-1280.9069 298.4557,-1263.9652"/>
<polygon fill="#000000" stroke="#000000" points="301.8787,-1264.7052 300.939,-1254.1521 295.0926,-1262.9879 301.8787,-1264.7052"/>
<text text-anchor="middle" x="297.2668" y="-1406.3" font-family="Times,serif" font-size="14.00" fill="#000000">id</text>
</g>
<!-- 17 -->
<g id="node17" class="node">
<title>17</title>
<ellipse fill="none" stroke="#000000" cx="306.2668" cy="-888" rx="157.0724" ry="18"/>
<text text-anchor="middle" x="306.2668" y="-884.3" font-family="Times,serif" font-size="14.00" fill="#000000">id:17 rank:3 shape: (96, 16, 16)</text>
</g>
<!-- 27 -->
<g id="node27" class="node">
<title>27</title>
<ellipse fill="none" stroke="#000000" cx="306.2668" cy="-801" rx="157.0724" ry="18"/>
<text text-anchor="middle" x="306.2668" y="-797.3" font-family="Times,serif" font-size="14.00" fill="#000000">id:27 rank:3 shape: (96, 16, 16)</text>
</g>
<!-- 17&#45;&gt;27 -->
<g id="edge27" class="edge">
<title>17&#45;&gt;27</title>
<path fill="none" stroke="#000000" d="M306.2668,-869.9735C306.2668,-858.1918 306.2668,-842.5607 306.2668,-829.1581"/>
<polygon fill="#000000" stroke="#000000" points="309.7669,-829.0033 306.2668,-819.0034 302.7669,-829.0034 309.7669,-829.0033"/>
<text text-anchor="middle" x="583.7668" y="-840.8" font-family="Times,serif" font-size="14.00" fill="#000000">Conv2d(96, 96, kernel_size=(3, 3), stride=(1, 1), padding=(1, 1), bias=False)</text>
</g>
<!-- 19 -->
<g id="node19" class="node">
<title>19</title>
<ellipse fill="none" stroke="#000000" cx="306.2668" cy="-1062" rx="157.0724" ry="18"/>
<text text-anchor="middle" x="306.2668" y="-1058.3" font-family="Times,serif" font-size="14.00" fill="#000000">id:19 rank:2 shape: (96, 16, 16)</text>
</g>
<!-- 18&#45;&gt;19 -->
<g id="edge18" class="edge">
<title>18&#45;&gt;19</title>
<path fill="none" stroke="#000000" d="M306.2668,-1130.9735C306.2668,-1119.1918 306.2668,-1103.5607 306.2668,-1090.1581"/>
<polygon fill="#000000" stroke="#000000" points="309.7669,-1090.0033 306.2668,-1080.0034 302.7669,-1090.0034 309.7669,-1090.0033"/>
<text text-anchor="middle" x="623.7668" y="-1101.8" font-family="Times,serif" font-size="14.00" fill="#000000">BatchNorm2d(96, eps=1e&#45;05, momentum=0.1, affine=True, track_running_stats=True)</text>
</g>
<!-- 20 -->
<g id="node20" class="node">
<title>20</title>
<ellipse fill="none" stroke="#000000" cx="306.2668" cy="-975" rx="157.0724" ry="18"/>
<text text-anchor="middle" x="306.2668" y="-971.3" font-family="Times,serif" font-size="14.00" fill="#000000">id:20 rank:2 shape: (96, 16, 16)</text>
</g>
<!-- 19&#45;&gt;20 -->
<g id="edge19" class="edge">
<title>19&#45;&gt;20</title>
<path fill="none" stroke="#000000" d="M306.2668,-1043.9735C306.2668,-1032.1918 306.2668,-1016.5607 306.2668,-1003.1581"/>
<polygon fill="#000000" stroke="#000000" points="309.7669,-1003.0033 306.2668,-993.0034 302.7669,-1003.0034 309.7669,-1003.0033"/>
<text text-anchor="middle" x="331.7668" y="-1014.8" font-family="Times,serif" font-size="14.00" fill="#000000">ReLU()</text>
</g>
<!-- 20&#45;&gt;17 -->
<g id="edge16" class="edge">
<title>20&#45;&gt;17</title>
<path fill="none" stroke="#000000" d="M306.2668,-956.9735C306.2668,-945.1918 306.2668,-929.5607 306.2668,-916.1581"/>
<polygon fill="#000000" stroke="#000000" points="309.7669,-916.0033 306.2668,-906.0034 302.7669,-916.0034 309.7669,-916.0033"/>
<text text-anchor="middle" x="313.2668" y="-927.8" font-family="Times,serif" font-size="14.00" fill="#000000">id</text>
</g>
<!-- 22 -->
<g id="node22" class="node">
<title>22</title>
<ellipse fill="none" stroke="#000000" cx="573.2668" cy="-1605" rx="157.0724" ry="18"/>
<text text-anchor="middle" x="573.2668" y="-1601.3" font-family="Times,serif" font-size="14.00" fill="#000000">id:22 rank:1 shape: (48, 16, 16)</text>
</g>
<!-- 21&#45;&gt;22 -->
<g id="edge21" class="edge">
<title>21&#45;&gt;22</title>
<path fill="none" stroke="#000000" d="M577.2308,-1673.9735C576.5536,-1662.1918 575.6553,-1646.5607 574.885,-1633.1581"/>
<polygon fill="#000000" stroke="#000000" points="578.3695,-1632.786 574.3014,-1623.0034 571.3811,-1633.1877 578.3695,-1632.786"/>
<text text-anchor="middle" x="631.7668" y="-1644.8" font-family="Times,serif" font-size="14.00" fill="#000000">Dropout(p=0.2)</text>
</g>
<!-- 23 -->
<g id="node23" class="node">
<title>23</title>
<ellipse fill="none" stroke="#000000" cx="522.2668" cy="-1497" rx="157.0724" ry="18"/>
<text text-anchor="middle" x="522.2668" y="-1493.3" font-family="Times,serif" font-size="14.00" fill="#000000">id:23 rank:1 shape: (48, 16, 16)</text>
</g>
<!-- 22&#45;&gt;23 -->
<g id="edge22" class="edge">
<title>22&#45;&gt;23</title>
<path fill="none" stroke="#000000" d="M564.6153,-1586.6793C556.5439,-1569.5868 544.396,-1543.8619 535.1779,-1524.3413"/>
<polygon fill="#000000" stroke="#000000" points="538.2254,-1522.5981 530.7904,-1515.0502 531.8957,-1525.5872 538.2254,-1522.5981"/>
<text text-anchor="middle" x="872.7668" y="-1547.3" font-family="Times,serif" font-size="14.00" fill="#000000">BatchNorm2d(48, eps=1e&#45;05, momentum=0.1, affine=True, track_running_stats=True)</text>
</g>
<!-- 24 -->
<g id="node24" class="node">
<title>24</title>
<ellipse fill="none" stroke="#000000" cx="491.2668" cy="-1410" rx="157.0724" ry="18"/>
<text text-anchor="middle" x="491.2668" y="-1406.3" font-family="Times,serif" font-size="14.00" fill="#000000">id:24 rank:1 shape: (48, 16, 16)</text>
</g>
<!-- 23&#45;&gt;24 -->
<g id="edge23" class="edge">
<title>23&#45;&gt;24</title>
<path fill="none" stroke="#000000" d="M515.8435,-1478.9735C511.6039,-1467.0751 505.9653,-1451.2508 501.1585,-1437.7606"/>
<polygon fill="#000000" stroke="#000000" points="504.3353,-1436.2484 497.6817,-1428.0034 497.7414,-1438.598 504.3353,-1436.2484"/>
<text text-anchor="middle" x="533.7668" y="-1449.8" font-family="Times,serif" font-size="14.00" fill="#000000">ReLU()</text>
</g>
<!-- 25 -->
<g id="node25" class="node">
<title>25</title>
<ellipse fill="none" stroke="#000000" cx="483.2668" cy="-1323" rx="157.0724" ry="18"/>
<text text-anchor="middle" x="483.2668" y="-1319.3" font-family="Times,serif" font-size="14.00" fill="#000000">id:25 rank:1 shape: (96, 16, 16)</text>
</g>
<!-- 24&#45;&gt;25 -->
<g id="edge24" class="edge">
<title>24&#45;&gt;25</title>
<path fill="none" stroke="#000000" d="M489.6092,-1391.9735C488.5258,-1380.1918 487.0884,-1364.5607 485.856,-1351.1581"/>
<polygon fill="#000000" stroke="#000000" points="489.3233,-1350.6408 484.9222,-1341.0034 482.3527,-1351.2819 489.3233,-1350.6408"/>
<text text-anchor="middle" x="662.7668" y="-1362.8" font-family="Times,serif" font-size="14.00" fill="#000000">Conv2d(48, 96, kernel_size=(1, 1), stride=(1, 1))</text>
</g>
<!-- 25&#45;&gt;13 -->
<g id="edge25" class="edge">
<title>25&#45;&gt;13</title>
<path fill="none" stroke="#000000" d="M447.4482,-1305.3943C419.7384,-1291.7742 381.195,-1272.8291 351.3806,-1258.1746"/>
<polygon fill="#000000" stroke="#000000" points="352.5505,-1254.8497 342.0321,-1253.5796 349.4626,-1261.1319 352.5505,-1254.8497"/>
<text text-anchor="middle" x="412.2668" y="-1275.8" font-family="Times,serif" font-size="14.00" fill="#000000">id</text>
</g>
<!-- 26 -->
<g id="node26" class="node">
<title>26</title>
<ellipse fill="none" stroke="#000000" cx="306.2668" cy="-540" rx="157.0724" ry="18"/>
<text text-anchor="middle" x="306.2668" y="-536.3" font-family="Times,serif" font-size="14.00" fill="#000000">id:26 rank:4 shape: (96, 16, 16)</text>
</g>
<!-- 26&#45;&gt;8 -->
<g id="edge6" class="edge">
<title>26&#45;&gt;8</title>
<path fill="none" stroke="#000000" d="M306.2668,-521.9735C306.2668,-510.1918 306.2668,-494.5607 306.2668,-481.1581"/>
<polygon fill="#000000" stroke="#000000" points="309.7669,-481.0033 306.2668,-471.0034 302.7669,-481.0034 309.7669,-481.0033"/>
<text text-anchor="middle" x="447.2668" y="-492.8" font-family="Times,serif" font-size="14.00" fill="#000000">AdaptiveAvgPool2d(output_size=(1, 1))</text>
</g>
<!-- 28 -->
<g id="node28" class="node">
<title>28</title>
<ellipse fill="none" stroke="#000000" cx="306.2668" cy="-714" rx="157.0724" ry="18"/>
<text text-anchor="middle" x="306.2668" y="-710.3" font-family="Times,serif" font-size="14.00" fill="#000000">id:28 rank:3 shape: (96, 16, 16)</text>
</g>
<!-- 27&#45;&gt;28 -->
<g id="edge28" class="edge">
<title>27&#45;&gt;28</title>
<path fill="none" stroke="#000000" d="M306.2668,-782.9735C306.2668,-771.1918 306.2668,-755.5607 306.2668,-742.1581"/>
<polygon fill="#000000" stroke="#000000" points="309.7669,-742.0033 306.2668,-732.0034 302.7669,-742.0034 309.7669,-742.0033"/>
<text text-anchor="middle" x="623.7668" y="-753.8" font-family="Times,serif" font-size="14.00" fill="#000000">BatchNorm2d(96, eps=1e&#45;05, momentum=0.1, affine=True, track_running_stats=True)</text>
</g>
<!-- 29 -->
<g id="node29" class="node">
<title>29</title>
<ellipse fill="none" stroke="#000000" cx="306.2668" cy="-627" rx="157.0724" ry="18"/>
<text text-anchor="middle" x="306.2668" y="-623.3" font-family="Times,serif" font-size="14.00" fill="#000000">id:29 rank:3 shape: (96, 16, 16)</text>
</g>
<!-- 28&#45;&gt;29 -->
<g id="edge29" class="edge">
<title>28&#45;&gt;29</title>
<path fill="none" stroke="#000000" d="M306.2668,-695.9735C306.2668,-684.1918 306.2668,-668.5607 306.2668,-655.1581"/>
<polygon fill="#000000" stroke="#000000" points="309.7669,-655.0033 306.2668,-645.0034 302.7669,-655.0034 309.7669,-655.0033"/>
<text text-anchor="middle" x="331.7668" y="-666.8" font-family="Times,serif" font-size="14.00" fill="#000000">ReLU()</text>
</g>
<!-- 29&#45;&gt;26 -->
<g id="edge26" class="edge">
<title>29&#45;&gt;26</title>
<path fill="none" stroke="#000000" d="M306.2668,-608.9735C306.2668,-597.1918 306.2668,-581.5607 306.2668,-568.1581"/>
<polygon fill="#000000" stroke="#000000" points="309.7669,-568.0033 306.2668,-558.0034 302.7669,-568.0034 309.7669,-568.0033"/>
<text text-anchor="middle" x="313.2668" y="-579.8" font-family="Times,serif" font-size="14.00" fill="#000000">id</text>
</g>
</g>
</svg>
