<?xml version="1.0" encoding="UTF-8" standalone="no"?>
<!DOCTYPE svg PUBLIC "-//W3C//DTD SVG 1.1//EN"
 "http://www.w3.org/Graphics/SVG/1.1/DTD/svg11.dtd">
<!-- Generated by graphviz version 2.40.1 (20161225.0304)
 -->
<!-- Title: %3 Pages: 1 -->
<svg width="713pt" height="827pt"
 viewBox="0.00 0.00 713.19 827.00" xmlns="http://www.w3.org/2000/svg" xmlns:xlink="http://www.w3.org/1999/xlink">
<g id="graph0" class="graph" transform="scale(1 1) rotate(0) translate(4 823)">
<title>%3</title>
<polygon fill="#ffffff" stroke="transparent" points="-4,4 -4,-823 709.1938,-823 709.1938,4 -4,4"/>
<!-- 1 -->
<g id="node1" class="node">
<title>1</title>
<ellipse fill="none" stroke="#000000" cx="70.1938" cy="-801" rx="64.189" ry="18"/>
<text text-anchor="middle" x="70.1938" y="-797.3" font-family="Times,serif" font-size="14.00" fill="#000000">1(1, 28, 28)</text>
</g>
<!-- 3 -->
<g id="node3" class="node">
<title>3</title>
<ellipse fill="none" stroke="#000000" cx="70.1938" cy="-714" rx="70.3881" ry="18"/>
<text text-anchor="middle" x="70.1938" y="-710.3" font-family="Times,serif" font-size="14.00" fill="#000000">3(16, 28, 28)</text>
</g>
<!-- 1&#45;&gt;3 -->
<g id="edge1" class="edge">
<title>1&#45;&gt;3</title>
<path fill="none" stroke="#000000" d="M70.1938,-782.9735C70.1938,-771.1918 70.1938,-755.5607 70.1938,-742.1581"/>
<polygon fill="#000000" stroke="#000000" points="73.6939,-742.0033 70.1938,-732.0034 66.6939,-742.0034 73.6939,-742.0033"/>
<text text-anchor="middle" x="343.1938" y="-753.8" font-family="Times,serif" font-size="14.00" fill="#000000">Conv2d(1, 16, kernel_size=(3, 3), stride=(1, 1), padding=(1, 1), bias=False)</text>
</g>
<!-- 2 -->
<g id="node2" class="node">
<title>2</title>
<ellipse fill="none" stroke="#000000" cx="70.1938" cy="-18" rx="38.1938" ry="18"/>
<text text-anchor="middle" x="70.1938" y="-14.3" font-family="Times,serif" font-size="14.00" fill="#000000">2(10,)</text>
</g>
<!-- 4 -->
<g id="node4" class="node">
<title>4</title>
<ellipse fill="none" stroke="#000000" cx="70.1938" cy="-627" rx="70.3881" ry="18"/>
<text text-anchor="middle" x="70.1938" y="-623.3" font-family="Times,serif" font-size="14.00" fill="#000000">4(16, 28, 28)</text>
</g>
<!-- 3&#45;&gt;4 -->
<g id="edge2" class="edge">
<title>3&#45;&gt;4</title>
<path fill="none" stroke="#000000" d="M70.1938,-695.9735C70.1938,-684.1918 70.1938,-668.5607 70.1938,-655.1581"/>
<polygon fill="#000000" stroke="#000000" points="73.6939,-655.0033 70.1938,-645.0034 66.6939,-655.0034 73.6939,-655.0033"/>
<text text-anchor="middle" x="387.6938" y="-666.8" font-family="Times,serif" font-size="14.00" fill="#000000">BatchNorm2d(16, eps=1e&#45;05, momentum=0.1, affine=True, track_running_stats=True)</text>
</g>
<!-- 5 -->
<g id="node5" class="node">
<title>5</title>
<ellipse fill="none" stroke="#000000" cx="70.1938" cy="-540" rx="70.3881" ry="18"/>
<text text-anchor="middle" x="70.1938" y="-536.3" font-family="Times,serif" font-size="14.00" fill="#000000">5(16, 28, 28)</text>
</g>
<!-- 4&#45;&gt;5 -->
<g id="edge3" class="edge">
<title>4&#45;&gt;5</title>
<path fill="none" stroke="#000000" d="M70.1938,-608.9735C70.1938,-597.1918 70.1938,-581.5607 70.1938,-568.1581"/>
<polygon fill="#000000" stroke="#000000" points="73.6939,-568.0033 70.1938,-558.0034 66.6939,-568.0034 73.6939,-568.0033"/>
<text text-anchor="middle" x="95.6938" y="-579.8" font-family="Times,serif" font-size="14.00" fill="#000000">ReLU()</text>
</g>
<!-- 6 -->
<g id="node6" class="node">
<title>6</title>
<ellipse fill="none" stroke="#000000" cx="70.1938" cy="-453" rx="70.3881" ry="18"/>
<text text-anchor="middle" x="70.1938" y="-449.3" font-family="Times,serif" font-size="14.00" fill="#000000">6(32, 28, 28)</text>
</g>
<!-- 5&#45;&gt;6 -->
<g id="edge4" class="edge">
<title>5&#45;&gt;6</title>
<path fill="none" stroke="#000000" d="M70.1938,-521.9735C70.1938,-510.1918 70.1938,-494.5607 70.1938,-481.1581"/>
<polygon fill="#000000" stroke="#000000" points="73.6939,-481.0033 70.1938,-471.0034 66.6939,-481.0034 73.6939,-481.0033"/>
<text text-anchor="middle" x="347.6938" y="-492.8" font-family="Times,serif" font-size="14.00" fill="#000000">Conv2d(16, 32, kernel_size=(3, 3), stride=(1, 1), padding=(1, 1), bias=False)</text>
</g>
<!-- 7 -->
<g id="node7" class="node">
<title>7</title>
<ellipse fill="none" stroke="#000000" cx="70.1938" cy="-366" rx="70.3881" ry="18"/>
<text text-anchor="middle" x="70.1938" y="-362.3" font-family="Times,serif" font-size="14.00" fill="#000000">7(32, 28, 28)</text>
</g>
<!-- 6&#45;&gt;7 -->
<g id="edge5" class="edge">
<title>6&#45;&gt;7</title>
<path fill="none" stroke="#000000" d="M70.1938,-434.9735C70.1938,-423.1918 70.1938,-407.5607 70.1938,-394.1581"/>
<polygon fill="#000000" stroke="#000000" points="73.6939,-394.0033 70.1938,-384.0034 66.6939,-394.0034 73.6939,-394.0033"/>
<text text-anchor="middle" x="387.6938" y="-405.8" font-family="Times,serif" font-size="14.00" fill="#000000">BatchNorm2d(32, eps=1e&#45;05, momentum=0.1, affine=True, track_running_stats=True)</text>
</g>
<!-- 8 -->
<g id="node8" class="node">
<title>8</title>
<ellipse fill="none" stroke="#000000" cx="70.1938" cy="-279" rx="70.3881" ry="18"/>
<text text-anchor="middle" x="70.1938" y="-275.3" font-family="Times,serif" font-size="14.00" fill="#000000">8(32, 28, 28)</text>
</g>
<!-- 7&#45;&gt;8 -->
<g id="edge6" class="edge">
<title>7&#45;&gt;8</title>
<path fill="none" stroke="#000000" d="M70.1938,-347.9735C70.1938,-336.1918 70.1938,-320.5607 70.1938,-307.1581"/>
<polygon fill="#000000" stroke="#000000" points="73.6939,-307.0033 70.1938,-297.0034 66.6939,-307.0034 73.6939,-307.0033"/>
<text text-anchor="middle" x="95.6938" y="-318.8" font-family="Times,serif" font-size="14.00" fill="#000000">ReLU()</text>
</g>
<!-- 9 -->
<g id="node9" class="node">
<title>9</title>
<ellipse fill="none" stroke="#000000" cx="70.1938" cy="-192" rx="55.7903" ry="18"/>
<text text-anchor="middle" x="70.1938" y="-188.3" font-family="Times,serif" font-size="14.00" fill="#000000">9(25088,)</text>
</g>
<!-- 8&#45;&gt;9 -->
<g id="edge7" class="edge">
<title>8&#45;&gt;9</title>
<path fill="none" stroke="#000000" d="M70.1938,-260.9735C70.1938,-249.1918 70.1938,-233.5607 70.1938,-220.1581"/>
<polygon fill="#000000" stroke="#000000" points="73.6939,-220.0033 70.1938,-210.0034 66.6939,-220.0034 73.6939,-220.0033"/>
<text text-anchor="middle" x="101.6938" y="-231.8" font-family="Times,serif" font-size="14.00" fill="#000000">Flatten()</text>
</g>
<!-- 10 -->
<g id="node10" class="node">
<title>10</title>
<ellipse fill="none" stroke="#000000" cx="70.1938" cy="-105" rx="50.0912" ry="18"/>
<text text-anchor="middle" x="70.1938" y="-101.3" font-family="Times,serif" font-size="14.00" fill="#000000">10(196,)</text>
</g>
<!-- 9&#45;&gt;10 -->
<g id="edge8" class="edge">
<title>9&#45;&gt;10</title>
<path fill="none" stroke="#000000" d="M70.1938,-173.9735C70.1938,-162.1918 70.1938,-146.5607 70.1938,-133.1581"/>
<polygon fill="#000000" stroke="#000000" points="73.6939,-133.0033 70.1938,-123.0034 66.6939,-133.0034 73.6939,-133.0033"/>
<text text-anchor="middle" x="278.6938" y="-144.8" font-family="Times,serif" font-size="14.00" fill="#000000">Linear(in_features=25088, out_features=196, bias=True)</text>
</g>
<!-- 10&#45;&gt;2 -->
<g id="edge9" class="edge">
<title>10&#45;&gt;2</title>
<path fill="none" stroke="#000000" d="M70.1938,-86.9735C70.1938,-75.1918 70.1938,-59.5607 70.1938,-46.1581"/>
<polygon fill="#000000" stroke="#000000" points="73.6939,-46.0033 70.1938,-36.0034 66.6939,-46.0034 73.6939,-46.0033"/>
<text text-anchor="middle" x="265.1938" y="-57.8" font-family="Times,serif" font-size="14.00" fill="#000000">Linear(in_features=196, out_features=10, bias=True)</text>
</g>
</g>
</svg>
