<?xml version="1.0" encoding="UTF-8" standalone="no"?>
<!DOCTYPE svg PUBLIC "-//W3C//DTD SVG 1.1//EN"
 "http://www.w3.org/Graphics/SVG/1.1/DTD/svg11.dtd">
<!-- Generated by graphviz version 2.40.1 (20161225.0304)
 -->
<!-- Title: %3 Pages: 1 -->
<svg width="1336pt" height="2240pt"
 viewBox="0.00 0.00 1336.29 2240.00" xmlns="http://www.w3.org/2000/svg" xmlns:xlink="http://www.w3.org/1999/xlink">
<g id="graph0" class="graph" transform="scale(1 1) rotate(0) translate(4 2236)">
<title>%3</title>
<polygon fill="#ffffff" stroke="transparent" points="-4,4 -4,-2236 1332.286,-2236 1332.286,4 -4,4"/>
<!-- 1 -->
<g id="node1" class="node">
<title>1</title>
<ellipse fill="none" stroke="#000000" cx="466.286" cy="-2214" rx="145.6742" ry="18"/>
<text text-anchor="middle" x="466.286" y="-2210.3" font-family="Times,serif" font-size="14.00" fill="#000000">id:1 rank:0 shape: (3, 32, 32)</text>
</g>
<!-- 3 -->
<g id="node3" class="node">
<title>3</title>
<ellipse fill="none" stroke="#000000" cx="466.286" cy="-2127" rx="151.3732" ry="18"/>
<text text-anchor="middle" x="466.286" y="-2123.3" font-family="Times,serif" font-size="14.00" fill="#000000">id:3 rank:0 shape: (64, 16, 16)</text>
</g>
<!-- 1&#45;&gt;3 -->
<g id="edge1" class="edge">
<title>1&#45;&gt;3</title>
<path fill="none" stroke="#000000" d="M466.286,-2195.9735C466.286,-2184.1918 466.286,-2168.5607 466.286,-2155.1581"/>
<polygon fill="#000000" stroke="#000000" points="469.7861,-2155.0033 466.286,-2145.0034 462.7861,-2155.0034 469.7861,-2155.0033"/>
<text text-anchor="middle" x="739.286" y="-2166.8" font-family="Times,serif" font-size="14.00" fill="#000000">Conv2d(3, 64, kernel_size=(3, 3), stride=(2, 2), padding=(1, 1), bias=False)</text>
</g>
<!-- 2 -->
<g id="node2" class="node">
<title>2</title>
<ellipse fill="none" stroke="#000000" cx="419.286" cy="-18" rx="118.8789" ry="18"/>
<text text-anchor="middle" x="419.286" y="-14.3" font-family="Times,serif" font-size="14.00" fill="#000000">id:2 rank:1 shape: (10,)</text>
</g>
<!-- 4 -->
<g id="node4" class="node">
<title>4</title>
<ellipse fill="none" stroke="#000000" cx="466.286" cy="-2040" rx="151.3732" ry="18"/>
<text text-anchor="middle" x="466.286" y="-2036.3" font-family="Times,serif" font-size="14.00" fill="#000000">id:4 rank:0 shape: (64, 16, 16)</text>
</g>
<!-- 3&#45;&gt;4 -->
<g id="edge2" class="edge">
<title>3&#45;&gt;4</title>
<path fill="none" stroke="#000000" d="M466.286,-2108.9735C466.286,-2097.1918 466.286,-2081.5607 466.286,-2068.1581"/>
<polygon fill="#000000" stroke="#000000" points="469.7861,-2068.0033 466.286,-2058.0034 462.7861,-2068.0034 469.7861,-2068.0033"/>
<text text-anchor="middle" x="522.786" y="-2079.8" font-family="Times,serif" font-size="14.00" fill="#000000">Dropout(p=0.2)</text>
</g>
<!-- 5 -->
<g id="node5" class="node">
<title>5</title>
<ellipse fill="none" stroke="#000000" cx="466.286" cy="-1953" rx="151.3732" ry="18"/>
<text text-anchor="middle" x="466.286" y="-1949.3" font-family="Times,serif" font-size="14.00" fill="#000000">id:5 rank:0 shape: (64, 16, 16)</text>
</g>
<!-- 4&#45;&gt;5 -->
<g id="edge3" class="edge">
<title>4&#45;&gt;5</title>
<path fill="none" stroke="#000000" d="M466.286,-2021.9735C466.286,-2010.1918 466.286,-1994.5607 466.286,-1981.1581"/>
<polygon fill="#000000" stroke="#000000" points="469.7861,-1981.0033 466.286,-1971.0034 462.7861,-1981.0034 469.7861,-1981.0033"/>
<text text-anchor="middle" x="783.786" y="-1992.8" font-family="Times,serif" font-size="14.00" fill="#000000">BatchNorm2d(64, eps=1e&#45;05, momentum=0.1, affine=True, track_running_stats=True)</text>
</g>
<!-- 6 -->
<g id="node6" class="node">
<title>6</title>
<ellipse fill="none" stroke="#000000" cx="466.286" cy="-1866" rx="151.3732" ry="18"/>
<text text-anchor="middle" x="466.286" y="-1862.3" font-family="Times,serif" font-size="14.00" fill="#000000">id:6 rank:0 shape: (64, 16, 16)</text>
</g>
<!-- 5&#45;&gt;6 -->
<g id="edge4" class="edge">
<title>5&#45;&gt;6</title>
<path fill="none" stroke="#000000" d="M466.286,-1934.9735C466.286,-1923.1918 466.286,-1907.5607 466.286,-1894.1581"/>
<polygon fill="#000000" stroke="#000000" points="469.7861,-1894.0033 466.286,-1884.0034 462.7861,-1894.0034 469.7861,-1894.0033"/>
<text text-anchor="middle" x="491.786" y="-1905.8" font-family="Times,serif" font-size="14.00" fill="#000000">ReLU()</text>
</g>
<!-- 7 -->
<g id="node7" class="node">
<title>7</title>
<ellipse fill="none" stroke="#000000" cx="466.286" cy="-1779" rx="151.3732" ry="18"/>
<text text-anchor="middle" x="466.286" y="-1775.3" font-family="Times,serif" font-size="14.00" fill="#000000">id:7 rank:1 shape: (64, 16, 16)</text>
</g>
<!-- 6&#45;&gt;7 -->
<g id="edge5" class="edge">
<title>6&#45;&gt;7</title>
<path fill="none" stroke="#000000" d="M466.286,-1847.9735C466.286,-1836.1918 466.286,-1820.5607 466.286,-1807.1581"/>
<polygon fill="#000000" stroke="#000000" points="469.7861,-1807.0033 466.286,-1797.0034 462.7861,-1807.0034 469.7861,-1807.0033"/>
<text text-anchor="middle" x="473.286" y="-1818.8" font-family="Times,serif" font-size="14.00" fill="#000000">id</text>
</g>
<!-- 14 -->
<g id="node14" class="node">
<title>14</title>
<ellipse fill="none" stroke="#000000" cx="157.286" cy="-1692" rx="157.0724" ry="18"/>
<text text-anchor="middle" x="157.286" y="-1688.3" font-family="Times,serif" font-size="14.00" fill="#000000">id:14 rank:1 shape: (64, 16, 16)</text>
</g>
<!-- 7&#45;&gt;14 -->
<g id="edge13" class="edge">
<title>7&#45;&gt;14</title>
<path fill="none" stroke="#000000" d="M339.0401,-1769.1601C267.7571,-1762.5931 190.537,-1753.2948 177.286,-1743 169.9986,-1737.3383 165.3622,-1728.6417 162.4141,-1720.0242"/>
<polygon fill="#000000" stroke="#000000" points="165.7158,-1718.8323 159.6712,-1710.131 158.9702,-1720.7026 165.7158,-1718.8323"/>
<text text-anchor="middle" x="454.786" y="-1731.8" font-family="Times,serif" font-size="14.00" fill="#000000">Conv2d(64, 64, kernel_size=(3, 3), stride=(1, 1), padding=(1, 1), bias=False)</text>
</g>
<!-- 17 -->
<g id="node17" class="node">
<title>17</title>
<ellipse fill="none" stroke="#000000" cx="770.286" cy="-1692" rx="157.0724" ry="18"/>
<text text-anchor="middle" x="770.286" y="-1688.3" font-family="Times,serif" font-size="14.00" fill="#000000">id:17 rank:1 shape: (64, 16, 16)</text>
</g>
<!-- 7&#45;&gt;17 -->
<g id="edge16" class="edge">
<title>7&#45;&gt;17</title>
<path fill="none" stroke="#000000" d="M602.9608,-1771.1563C657.8624,-1765.8878 713.5152,-1757.2025 736.286,-1743 745.4957,-1737.2558 752.764,-1727.9926 758.1759,-1718.9266"/>
<polygon fill="#000000" stroke="#000000" points="761.2908,-1720.5245 762.9722,-1710.0639 755.1345,-1717.1928 761.2908,-1720.5245"/>
<text text-anchor="middle" x="1029.786" y="-1731.8" font-family="Times,serif" font-size="14.00" fill="#000000">Conv2d(64, 64, kernel_size=(3, 3), stride=(1, 1), padding=(1, 1), bias=False)</text>
</g>
<!-- 8 -->
<g id="node8" class="node">
<title>8</title>
<ellipse fill="none" stroke="#000000" cx="419.286" cy="-453" rx="139.9756" ry="18"/>
<text text-anchor="middle" x="419.286" y="-449.3" font-family="Times,serif" font-size="14.00" fill="#000000">id:8 rank:1 shape: (64, 1, 1)</text>
</g>
<!-- 9 -->
<g id="node9" class="node">
<title>9</title>
<ellipse fill="none" stroke="#000000" cx="419.286" cy="-366" rx="118.8789" ry="18"/>
<text text-anchor="middle" x="419.286" y="-362.3" font-family="Times,serif" font-size="14.00" fill="#000000">id:9 rank:1 shape: (64,)</text>
</g>
<!-- 8&#45;&gt;9 -->
<g id="edge7" class="edge">
<title>8&#45;&gt;9</title>
<path fill="none" stroke="#000000" d="M419.286,-434.9735C419.286,-423.1918 419.286,-407.5607 419.286,-394.1581"/>
<polygon fill="#000000" stroke="#000000" points="422.7861,-394.0033 419.286,-384.0034 415.7861,-394.0034 422.7861,-394.0033"/>
<text text-anchor="middle" x="450.786" y="-405.8" font-family="Times,serif" font-size="14.00" fill="#000000">Flatten()</text>
</g>
<!-- 10 -->
<g id="node10" class="node">
<title>10</title>
<ellipse fill="none" stroke="#000000" cx="419.286" cy="-279" rx="130.777" ry="18"/>
<text text-anchor="middle" x="419.286" y="-275.3" font-family="Times,serif" font-size="14.00" fill="#000000">id:10 rank:1 shape: (640,)</text>
</g>
<!-- 9&#45;&gt;10 -->
<g id="edge8" class="edge">
<title>9&#45;&gt;10</title>
<path fill="none" stroke="#000000" d="M419.286,-347.9735C419.286,-336.1918 419.286,-320.5607 419.286,-307.1581"/>
<polygon fill="#000000" stroke="#000000" points="422.7861,-307.0033 419.286,-297.0034 415.7861,-307.0034 422.7861,-307.0033"/>
<text text-anchor="middle" x="614.286" y="-318.8" font-family="Times,serif" font-size="14.00" fill="#000000">Linear(in_features=64, out_features=640, bias=True)</text>
</g>
<!-- 11 -->
<g id="node11" class="node">
<title>11</title>
<ellipse fill="none" stroke="#000000" cx="419.286" cy="-192" rx="130.777" ry="18"/>
<text text-anchor="middle" x="419.286" y="-188.3" font-family="Times,serif" font-size="14.00" fill="#000000">id:11 rank:1 shape: (640,)</text>
</g>
<!-- 10&#45;&gt;11 -->
<g id="edge9" class="edge">
<title>10&#45;&gt;11</title>
<path fill="none" stroke="#000000" d="M419.286,-260.9735C419.286,-249.1918 419.286,-233.5607 419.286,-220.1581"/>
<polygon fill="#000000" stroke="#000000" points="422.7861,-220.0033 419.286,-210.0034 415.7861,-220.0034 422.7861,-220.0033"/>
<text text-anchor="middle" x="475.786" y="-231.8" font-family="Times,serif" font-size="14.00" fill="#000000">Dropout(p=0.2)</text>
</g>
<!-- 12 -->
<g id="node12" class="node">
<title>12</title>
<ellipse fill="none" stroke="#000000" cx="419.286" cy="-105" rx="124.5782" ry="18"/>
<text text-anchor="middle" x="419.286" y="-101.3" font-family="Times,serif" font-size="14.00" fill="#000000">id:12 rank:1 shape: (10,)</text>
</g>
<!-- 11&#45;&gt;12 -->
<g id="edge10" class="edge">
<title>11&#45;&gt;12</title>
<path fill="none" stroke="#000000" d="M419.286,-173.9735C419.286,-162.1918 419.286,-146.5607 419.286,-133.1581"/>
<polygon fill="#000000" stroke="#000000" points="422.7861,-133.0033 419.286,-123.0034 415.7861,-133.0034 422.7861,-133.0033"/>
<text text-anchor="middle" x="614.286" y="-144.8" font-family="Times,serif" font-size="14.00" fill="#000000">Linear(in_features=640, out_features=10, bias=True)</text>
</g>
<!-- 12&#45;&gt;2 -->
<g id="edge11" class="edge">
<title>12&#45;&gt;2</title>
<path fill="none" stroke="#000000" d="M419.286,-86.9735C419.286,-75.1918 419.286,-59.5607 419.286,-46.1581"/>
<polygon fill="#000000" stroke="#000000" points="422.7861,-46.0033 419.286,-36.0034 415.7861,-46.0034 422.7861,-46.0033"/>
<text text-anchor="middle" x="475.786" y="-57.8" font-family="Times,serif" font-size="14.00" fill="#000000">Dropout(p=0.2)</text>
</g>
<!-- 13 -->
<g id="node13" class="node">
<title>13</title>
<ellipse fill="none" stroke="#000000" cx="419.286" cy="-540" rx="157.0724" ry="18"/>
<text text-anchor="middle" x="419.286" y="-536.3" font-family="Times,serif" font-size="14.00" fill="#000000">id:13 rank:2 shape: (64, 16, 16)</text>
</g>
<!-- 13&#45;&gt;8 -->
<g id="edge6" class="edge">
<title>13&#45;&gt;8</title>
<path fill="none" stroke="#000000" d="M419.286,-521.9735C419.286,-510.1918 419.286,-494.5607 419.286,-481.1581"/>
<polygon fill="#000000" stroke="#000000" points="422.7861,-481.0033 419.286,-471.0034 415.7861,-481.0034 422.7861,-481.0033"/>
<text text-anchor="middle" x="560.286" y="-492.8" font-family="Times,serif" font-size="14.00" fill="#000000">AdaptiveAvgPool2d(output_size=(1, 1))</text>
</g>
<!-- 15 -->
<g id="node15" class="node">
<title>15</title>
<ellipse fill="none" stroke="#000000" cx="279.286" cy="-1605" rx="157.0724" ry="18"/>
<text text-anchor="middle" x="279.286" y="-1601.3" font-family="Times,serif" font-size="14.00" fill="#000000">id:15 rank:1 shape: (64, 16, 16)</text>
</g>
<!-- 14&#45;&gt;15 -->
<g id="edge14" class="edge">
<title>14&#45;&gt;15</title>
<path fill="none" stroke="#000000" d="M127.5941,-1674.2261C115.0857,-1664.4998 105.2785,-1652.1847 114.286,-1641 121.3429,-1632.2374 138.9978,-1625.4933 160.2621,-1620.3448"/>
<polygon fill="#000000" stroke="#000000" points="161.276,-1623.7042 170.2611,-1618.0901 159.7361,-1616.8756 161.276,-1623.7042"/>
<text text-anchor="middle" x="431.786" y="-1644.8" font-family="Times,serif" font-size="14.00" fill="#000000">BatchNorm2d(64, eps=1e&#45;05, momentum=0.1, affine=True, track_running_stats=True)</text>
</g>
<!-- 16 -->
<g id="node16" class="node">
<title>16</title>
<ellipse fill="none" stroke="#000000" cx="332.286" cy="-1464" rx="157.0724" ry="18"/>
<text text-anchor="middle" x="332.286" y="-1460.3" font-family="Times,serif" font-size="14.00" fill="#000000">id:16 rank:1 shape: (64, 16, 16)</text>
</g>
<!-- 15&#45;&gt;16 -->
<g id="edge15" class="edge">
<title>15&#45;&gt;16</title>
<path fill="none" stroke="#000000" d="M286.1064,-1586.8554C295.17,-1562.7428 311.27,-1519.9107 321.862,-1491.7319"/>
<polygon fill="#000000" stroke="#000000" points="325.2495,-1492.6671 325.4919,-1482.075 318.6971,-1490.2041 325.2495,-1492.6671"/>
<text text-anchor="middle" x="323.786" y="-1557.8" font-family="Times,serif" font-size="14.00" fill="#000000">ReLU()</text>
</g>
<!-- 16&#45;&gt;13 -->
<g id="edge12" class="edge">
<title>16&#45;&gt;13</title>
<path fill="none" stroke="#000000" d="M356.3234,-1445.9441C376.9211,-1428.2256 403.286,-1399.1657 403.286,-1366.5 403.286,-1366.5 403.286,-1366.5 403.286,-627 403.286,-607.0329 407.413,-584.9069 411.475,-567.9652"/>
<polygon fill="#000000" stroke="#000000" points="414.898,-568.7052 413.9583,-558.1521 408.1119,-566.9879 414.898,-568.7052"/>
<text text-anchor="middle" x="410.286" y="-1014.8" font-family="Times,serif" font-size="14.00" fill="#000000">id</text>
</g>
<!-- 18 -->
<g id="node18" class="node">
<title>18</title>
<ellipse fill="none" stroke="#000000" cx="693.286" cy="-1605" rx="157.0724" ry="18"/>
<text text-anchor="middle" x="693.286" y="-1601.3" font-family="Times,serif" font-size="14.00" fill="#000000">id:18 rank:1 shape: (64, 16, 16)</text>
</g>
<!-- 17&#45;&gt;18 -->
<g id="edge17" class="edge">
<title>17&#45;&gt;18</title>
<path fill="none" stroke="#000000" d="M767.5027,-1673.9757C765.1432,-1663.468 760.878,-1650.4643 753.286,-1641 749.5365,-1636.3258 745.0042,-1632.1162 740.1301,-1628.3659"/>
<polygon fill="#000000" stroke="#000000" points="741.8896,-1625.3262 731.6823,-1622.4868 737.891,-1631.0718 741.8896,-1625.3262"/>
<text text-anchor="middle" x="818.786" y="-1644.8" font-family="Times,serif" font-size="14.00" fill="#000000">Dropout(p=0.2)</text>
</g>
<!-- 19 -->
<g id="node19" class="node">
<title>19</title>
<ellipse fill="none" stroke="#000000" cx="692.286" cy="-1518" rx="157.0724" ry="18"/>
<text text-anchor="middle" x="692.286" y="-1514.3" font-family="Times,serif" font-size="14.00" fill="#000000">id:19 rank:1 shape: (64, 16, 16)</text>
</g>
<!-- 18&#45;&gt;19 -->
<g id="edge18" class="edge">
<title>18&#45;&gt;19</title>
<path fill="none" stroke="#000000" d="M693.0788,-1586.9735C692.9434,-1575.1918 692.7638,-1559.5607 692.6097,-1546.1581"/>
<polygon fill="#000000" stroke="#000000" points="696.1078,-1545.9624 692.493,-1536.0034 689.1082,-1546.043 696.1078,-1545.9624"/>
<text text-anchor="middle" x="1010.786" y="-1557.8" font-family="Times,serif" font-size="14.00" fill="#000000">BatchNorm2d(64, eps=1e&#45;05, momentum=0.1, affine=True, track_running_stats=True)</text>
</g>
<!-- 20 -->
<g id="node20" class="node">
<title>20</title>
<ellipse fill="none" stroke="#000000" cx="643.286" cy="-1410" rx="157.0724" ry="18"/>
<text text-anchor="middle" x="643.286" y="-1406.3" font-family="Times,serif" font-size="14.00" fill="#000000">id:20 rank:1 shape: (64, 16, 16)</text>
</g>
<!-- 19&#45;&gt;20 -->
<g id="edge19" class="edge">
<title>19&#45;&gt;20</title>
<path fill="none" stroke="#000000" d="M683.9739,-1499.6793C676.219,-1482.5868 664.5475,-1456.8619 655.6909,-1437.3413"/>
<polygon fill="#000000" stroke="#000000" points="658.7945,-1435.7106 651.4755,-1428.0502 652.4199,-1438.6028 658.7945,-1435.7106"/>
<text text-anchor="middle" x="700.786" y="-1460.3" font-family="Times,serif" font-size="14.00" fill="#000000">ReLU()</text>
</g>
<!-- 21 -->
<g id="node21" class="node">
<title>21</title>
<ellipse fill="none" stroke="#000000" cx="618.286" cy="-1323" rx="157.0724" ry="18"/>
<text text-anchor="middle" x="618.286" y="-1319.3" font-family="Times,serif" font-size="14.00" fill="#000000">id:21 rank:1 shape: (64, 16, 16)</text>
</g>
<!-- 20&#45;&gt;21 -->
<g id="edge20" class="edge">
<title>20&#45;&gt;21</title>
<path fill="none" stroke="#000000" d="M638.106,-1391.9735C634.6869,-1380.0751 630.1397,-1364.2508 626.2632,-1350.7606"/>
<polygon fill="#000000" stroke="#000000" points="629.5852,-1349.6478 623.4594,-1341.0034 622.8574,-1351.5811 629.5852,-1349.6478"/>
<text text-anchor="middle" x="909.786" y="-1362.8" font-family="Times,serif" font-size="14.00" fill="#000000">Conv2d(64, 64, kernel_size=(3, 3), stride=(1, 1), padding=(1, 1), bias=False)</text>
</g>
<!-- 22 -->
<g id="node22" class="node">
<title>22</title>
<ellipse fill="none" stroke="#000000" cx="606.286" cy="-1236" rx="157.0724" ry="18"/>
<text text-anchor="middle" x="606.286" y="-1232.3" font-family="Times,serif" font-size="14.00" fill="#000000">id:22 rank:1 shape: (64, 16, 16)</text>
</g>
<!-- 21&#45;&gt;22 -->
<g id="edge21" class="edge">
<title>21&#45;&gt;22</title>
<path fill="none" stroke="#000000" d="M615.7996,-1304.9735C614.1746,-1293.1918 612.0185,-1277.5607 610.1699,-1264.1581"/>
<polygon fill="#000000" stroke="#000000" points="613.6029,-1263.4313 608.7693,-1254.0034 606.6686,-1264.3878 613.6029,-1263.4313"/>
<text text-anchor="middle" x="669.786" y="-1275.8" font-family="Times,serif" font-size="14.00" fill="#000000">Dropout(p=0.2)</text>
</g>
<!-- 23 -->
<g id="node23" class="node">
<title>23</title>
<ellipse fill="none" stroke="#000000" cx="600.286" cy="-1149" rx="157.0724" ry="18"/>
<text text-anchor="middle" x="600.286" y="-1145.3" font-family="Times,serif" font-size="14.00" fill="#000000">id:23 rank:1 shape: (64, 16, 16)</text>
</g>
<!-- 22&#45;&gt;23 -->
<g id="edge22" class="edge">
<title>22&#45;&gt;23</title>
<path fill="none" stroke="#000000" d="M605.0428,-1217.9735C604.2303,-1206.1918 603.1523,-1190.5607 602.228,-1177.1581"/>
<polygon fill="#000000" stroke="#000000" points="605.7075,-1176.7388 601.5277,-1167.0034 598.7241,-1177.2205 605.7075,-1176.7388"/>
<text text-anchor="middle" x="921.786" y="-1188.8" font-family="Times,serif" font-size="14.00" fill="#000000">BatchNorm2d(64, eps=1e&#45;05, momentum=0.1, affine=True, track_running_stats=True)</text>
</g>
<!-- 24 -->
<g id="node24" class="node">
<title>24</title>
<ellipse fill="none" stroke="#000000" cx="597.286" cy="-1062" rx="157.0724" ry="18"/>
<text text-anchor="middle" x="597.286" y="-1058.3" font-family="Times,serif" font-size="14.00" fill="#000000">id:24 rank:1 shape: (64, 16, 16)</text>
</g>
<!-- 23&#45;&gt;24 -->
<g id="edge23" class="edge">
<title>23&#45;&gt;24</title>
<path fill="none" stroke="#000000" d="M599.6644,-1130.9735C599.2582,-1119.1918 598.7192,-1103.5607 598.257,-1090.1581"/>
<polygon fill="#000000" stroke="#000000" points="601.7495,-1089.8768 597.9068,-1080.0034 594.7536,-1090.1181 601.7495,-1089.8768"/>
<text text-anchor="middle" x="624.786" y="-1101.8" font-family="Times,serif" font-size="14.00" fill="#000000">ReLU()</text>
</g>
<!-- 25 -->
<g id="node25" class="node">
<title>25</title>
<ellipse fill="none" stroke="#000000" cx="595.286" cy="-975" rx="163.2712" ry="18"/>
<text text-anchor="middle" x="595.286" y="-971.3" font-family="Times,serif" font-size="14.00" fill="#000000">id:25 rank:1 shape: (128, 16, 16)</text>
</g>
<!-- 24&#45;&gt;25 -->
<g id="edge24" class="edge">
<title>24&#45;&gt;25</title>
<path fill="none" stroke="#000000" d="M596.8716,-1043.9735C596.6008,-1032.1918 596.2415,-1016.5607 595.9334,-1003.1581"/>
<polygon fill="#000000" stroke="#000000" points="599.4289,-1002.9202 595.6999,-993.0034 592.4308,-1003.0812 599.4289,-1002.9202"/>
<text text-anchor="middle" x="879.286" y="-1014.8" font-family="Times,serif" font-size="14.00" fill="#000000">Conv2d(64, 128, kernel_size=(3, 3), stride=(1, 1), padding=(1, 1), bias=False)</text>
</g>
<!-- 26 -->
<g id="node26" class="node">
<title>26</title>
<ellipse fill="none" stroke="#000000" cx="594.286" cy="-888" rx="163.2712" ry="18"/>
<text text-anchor="middle" x="594.286" y="-884.3" font-family="Times,serif" font-size="14.00" fill="#000000">id:26 rank:1 shape: (128, 16, 16)</text>
</g>
<!-- 25&#45;&gt;26 -->
<g id="edge25" class="edge">
<title>25&#45;&gt;26</title>
<path fill="none" stroke="#000000" d="M595.0788,-956.9735C594.9434,-945.1918 594.7638,-929.5607 594.6097,-916.1581"/>
<polygon fill="#000000" stroke="#000000" points="598.1078,-915.9624 594.493,-906.0034 591.1082,-916.043 598.1078,-915.9624"/>
<text text-anchor="middle" x="651.786" y="-927.8" font-family="Times,serif" font-size="14.00" fill="#000000">Dropout(p=0.2)</text>
</g>
<!-- 27 -->
<g id="node27" class="node">
<title>27</title>
<ellipse fill="none" stroke="#000000" cx="594.286" cy="-801" rx="163.2712" ry="18"/>
<text text-anchor="middle" x="594.286" y="-797.3" font-family="Times,serif" font-size="14.00" fill="#000000">id:27 rank:1 shape: (128, 16, 16)</text>
</g>
<!-- 26&#45;&gt;27 -->
<g id="edge26" class="edge">
<title>26&#45;&gt;27</title>
<path fill="none" stroke="#000000" d="M594.286,-869.9735C594.286,-858.1918 594.286,-842.5607 594.286,-829.1581"/>
<polygon fill="#000000" stroke="#000000" points="597.7861,-829.0033 594.286,-819.0034 590.7861,-829.0034 597.7861,-829.0033"/>
<text text-anchor="middle" x="916.286" y="-840.8" font-family="Times,serif" font-size="14.00" fill="#000000">BatchNorm2d(128, eps=1e&#45;05, momentum=0.1, affine=True, track_running_stats=True)</text>
</g>
<!-- 28 -->
<g id="node28" class="node">
<title>28</title>
<ellipse fill="none" stroke="#000000" cx="594.286" cy="-714" rx="163.2712" ry="18"/>
<text text-anchor="middle" x="594.286" y="-710.3" font-family="Times,serif" font-size="14.00" fill="#000000">id:28 rank:1 shape: (128, 16, 16)</text>
</g>
<!-- 27&#45;&gt;28 -->
<g id="edge27" class="edge">
<title>27&#45;&gt;28</title>
<path fill="none" stroke="#000000" d="M594.286,-782.9735C594.286,-771.1918 594.286,-755.5607 594.286,-742.1581"/>
<polygon fill="#000000" stroke="#000000" points="597.7861,-742.0033 594.286,-732.0034 590.7861,-742.0034 597.7861,-742.0033"/>
<text text-anchor="middle" x="619.786" y="-753.8" font-family="Times,serif" font-size="14.00" fill="#000000">ReLU()</text>
</g>
<!-- 29 -->
<g id="node29" class="node">
<title>29</title>
<ellipse fill="none" stroke="#000000" cx="591.286" cy="-627" rx="157.0724" ry="18"/>
<text text-anchor="middle" x="591.286" y="-623.3" font-family="Times,serif" font-size="14.00" fill="#000000">id:29 rank:1 shape: (64, 16, 16)</text>
</g>
<!-- 28&#45;&gt;29 -->
<g id="edge28" class="edge">
<title>28&#45;&gt;29</title>
<path fill="none" stroke="#000000" d="M593.6644,-695.9735C593.2582,-684.1918 592.7192,-668.5607 592.257,-655.1581"/>
<polygon fill="#000000" stroke="#000000" points="595.7495,-654.8768 591.9068,-645.0034 588.7536,-655.1181 595.7495,-654.8768"/>
<text text-anchor="middle" x="773.286" y="-666.8" font-family="Times,serif" font-size="14.00" fill="#000000">Conv2d(128, 64, kernel_size=(1, 1), stride=(1, 1))</text>
</g>
<!-- 29&#45;&gt;13 -->
<g id="edge29" class="edge">
<title>29&#45;&gt;13</title>
<path fill="none" stroke="#000000" d="M556.4793,-609.3943C529.5522,-595.7742 492.0977,-576.8291 463.1255,-562.1746"/>
<polygon fill="#000000" stroke="#000000" points="464.5443,-558.97 454.041,-557.5796 461.3847,-565.2164 464.5443,-558.97"/>
<text text-anchor="middle" x="523.286" y="-579.8" font-family="Times,serif" font-size="14.00" fill="#000000">id</text>
</g>
</g>
</svg>
