<?xml version="1.0" encoding="UTF-8" standalone="no"?>
<!DOCTYPE svg PUBLIC "-//W3C//DTD SVG 1.1//EN"
 "http://www.w3.org/Graphics/SVG/1.1/DTD/svg11.dtd">
<!-- Generated by graphviz version 2.40.1 (20161225.0304)
 -->
<!-- Title: %3 Pages: 1 -->
<svg width="4612pt" height="914pt"
 viewBox="0.00 0.00 4612.19 914.00" xmlns="http://www.w3.org/2000/svg" xmlns:xlink="http://www.w3.org/1999/xlink">
<g id="graph0" class="graph" transform="scale(1 1) rotate(0) translate(4 910)">
<title>%3</title>
<polygon fill="#ffffff" stroke="transparent" points="-4,4 -4,-910 4608.1938,-910 4608.1938,4 -4,4"/>
<!-- 1 -->
<g id="node1" class="node">
<title>1</title>
<ellipse fill="none" stroke="#000000" cx="2029.1938" cy="-888" rx="64.189" ry="18"/>
<text text-anchor="middle" x="2029.1938" y="-884.3" font-family="Times,serif" font-size="14.00" fill="#000000">1(3, 32, 32)</text>
</g>
<!-- 3 -->
<g id="node3" class="node">
<title>3</title>
<ellipse fill="none" stroke="#000000" cx="2029.1938" cy="-801" rx="70.3881" ry="18"/>
<text text-anchor="middle" x="2029.1938" y="-797.3" font-family="Times,serif" font-size="14.00" fill="#000000">3(64, 16, 16)</text>
</g>
<!-- 1&#45;&gt;3 -->
<g id="edge1" class="edge">
<title>1&#45;&gt;3</title>
<path fill="none" stroke="#000000" d="M2029.1938,-869.9735C2029.1938,-858.1918 2029.1938,-842.5607 2029.1938,-829.1581"/>
<polygon fill="#000000" stroke="#000000" points="2032.6939,-829.0033 2029.1938,-819.0034 2025.6939,-829.0034 2032.6939,-829.0033"/>
<text text-anchor="middle" x="2302.1938" y="-840.8" font-family="Times,serif" font-size="14.00" fill="#000000">Conv2d(3, 64, kernel_size=(3, 3), stride=(2, 2), padding=(1, 1), bias=False)</text>
</g>
<!-- 2 -->
<g id="node2" class="node">
<title>2</title>
<ellipse fill="none" stroke="#000000" cx="2029.1938" cy="-18" rx="38.1938" ry="18"/>
<text text-anchor="middle" x="2029.1938" y="-14.3" font-family="Times,serif" font-size="14.00" fill="#000000">2(10,)</text>
</g>
<!-- 4 -->
<g id="node4" class="node">
<title>4</title>
<ellipse fill="none" stroke="#000000" cx="2029.1938" cy="-714" rx="70.3881" ry="18"/>
<text text-anchor="middle" x="2029.1938" y="-710.3" font-family="Times,serif" font-size="14.00" fill="#000000">4(64, 16, 16)</text>
</g>
<!-- 3&#45;&gt;4 -->
<g id="edge2" class="edge">
<title>3&#45;&gt;4</title>
<path fill="none" stroke="#000000" d="M2029.1938,-782.9735C2029.1938,-771.1918 2029.1938,-755.5607 2029.1938,-742.1581"/>
<polygon fill="#000000" stroke="#000000" points="2032.6939,-742.0033 2029.1938,-732.0034 2025.6939,-742.0034 2032.6939,-742.0033"/>
<text text-anchor="middle" x="2346.6938" y="-753.8" font-family="Times,serif" font-size="14.00" fill="#000000">BatchNorm2d(64, eps=1e&#45;05, momentum=0.1, affine=True, track_running_stats=True)</text>
</g>
<!-- 5 -->
<g id="node5" class="node">
<title>5</title>
<ellipse fill="none" stroke="#000000" cx="2029.1938" cy="-627" rx="70.3881" ry="18"/>
<text text-anchor="middle" x="2029.1938" y="-623.3" font-family="Times,serif" font-size="14.00" fill="#000000">5(64, 16, 16)</text>
</g>
<!-- 4&#45;&gt;5 -->
<g id="edge3" class="edge">
<title>4&#45;&gt;5</title>
<path fill="none" stroke="#000000" d="M2029.1938,-695.9735C2029.1938,-684.1918 2029.1938,-668.5607 2029.1938,-655.1581"/>
<polygon fill="#000000" stroke="#000000" points="2032.6939,-655.0033 2029.1938,-645.0034 2025.6939,-655.0034 2032.6939,-655.0033"/>
<text text-anchor="middle" x="2054.6938" y="-666.8" font-family="Times,serif" font-size="14.00" fill="#000000">ReLU()</text>
</g>
<!-- 6 -->
<g id="node6" class="node">
<title>6</title>
<ellipse fill="none" stroke="#000000" cx="2029.1938" cy="-540" rx="70.3881" ry="18"/>
<text text-anchor="middle" x="2029.1938" y="-536.3" font-family="Times,serif" font-size="14.00" fill="#000000">6(64, 16, 16)</text>
</g>
<!-- 5&#45;&gt;6 -->
<g id="edge4" class="edge">
<title>5&#45;&gt;6</title>
<path fill="none" stroke="#000000" d="M2029.1938,-608.9735C2029.1938,-597.1918 2029.1938,-581.5607 2029.1938,-568.1581"/>
<polygon fill="#000000" stroke="#000000" points="2032.6939,-568.0033 2029.1938,-558.0034 2025.6939,-568.0034 2032.6939,-568.0033"/>
<text text-anchor="middle" x="2036.1938" y="-579.8" font-family="Times,serif" font-size="14.00" fill="#000000">id</text>
</g>
<!-- 9 -->
<g id="node9" class="node">
<title>9</title>
<ellipse fill="none" stroke="#000000" cx="70.1938" cy="-453" rx="70.3881" ry="18"/>
<text text-anchor="middle" x="70.1938" y="-449.3" font-family="Times,serif" font-size="14.00" fill="#000000">9(64, 16, 16)</text>
</g>
<!-- 6&#45;&gt;9 -->
<g id="edge8" class="edge">
<title>6&#45;&gt;9</title>
<path fill="none" stroke="#000000" d="M1958.9512,-539.4852C1652.914,-537.1164 443.7508,-526.4099 275.1938,-504 223.1355,-497.0788 165.1761,-481.9439 124.2047,-469.9494"/>
<polygon fill="#000000" stroke="#000000" points="125.0117,-466.5382 114.4294,-467.0529 123.023,-473.2497 125.0117,-466.5382"/>
<text text-anchor="middle" x="552.6938" y="-492.8" font-family="Times,serif" font-size="14.00" fill="#000000">Conv2d(64, 64, kernel_size=(3, 3), stride=(1, 1), padding=(1, 1), bias=False)</text>
</g>
<!-- 12 -->
<g id="node12" class="node">
<title>12</title>
<ellipse fill="none" stroke="#000000" cx="748.1938" cy="-453" rx="76.0865" ry="18"/>
<text text-anchor="middle" x="748.1938" y="-449.3" font-family="Times,serif" font-size="14.00" fill="#000000">12(64, 16, 16)</text>
</g>
<!-- 6&#45;&gt;12 -->
<g id="edge11" class="edge">
<title>6&#45;&gt;12</title>
<path fill="none" stroke="#000000" d="M1958.9061,-539.1367C1725.9807,-536.0896 988.1928,-524.8806 883.1938,-504 851.2412,-497.6458 816.9186,-484.5887 790.8773,-473.2774"/>
<polygon fill="#000000" stroke="#000000" points="792.2384,-470.0524 781.6775,-469.2047 789.4047,-476.4532 792.2384,-470.0524"/>
<text text-anchor="middle" x="1160.6938" y="-492.8" font-family="Times,serif" font-size="14.00" fill="#000000">Conv2d(64, 64, kernel_size=(3, 3), stride=(1, 1), padding=(1, 1), bias=False)</text>
</g>
<!-- 15 -->
<g id="node15" class="node">
<title>15</title>
<ellipse fill="none" stroke="#000000" cx="1396.1938" cy="-453" rx="76.0865" ry="18"/>
<text text-anchor="middle" x="1396.1938" y="-449.3" font-family="Times,serif" font-size="14.00" fill="#000000">15(64, 16, 16)</text>
</g>
<!-- 6&#45;&gt;15 -->
<g id="edge15" class="edge">
<title>6&#45;&gt;15</title>
<path fill="none" stroke="#000000" d="M1959.421,-537.5874C1819.7482,-532.4551 1515.2722,-519.6358 1470.1938,-504 1453.2644,-498.1279 1436.6319,-487.2606 1423.4369,-477.0617"/>
<polygon fill="#000000" stroke="#000000" points="1425.2805,-474.053 1415.2937,-470.5153 1420.8946,-479.5087 1425.2805,-474.053"/>
<text text-anchor="middle" x="1747.6938" y="-492.8" font-family="Times,serif" font-size="14.00" fill="#000000">Conv2d(64, 64, kernel_size=(3, 3), stride=(1, 1), padding=(1, 1), bias=False)</text>
</g>
<!-- 18 -->
<g id="node18" class="node">
<title>18</title>
<ellipse fill="none" stroke="#000000" cx="2029.1938" cy="-453" rx="76.0865" ry="18"/>
<text text-anchor="middle" x="2029.1938" y="-449.3" font-family="Times,serif" font-size="14.00" fill="#000000">18(64, 16, 16)</text>
</g>
<!-- 6&#45;&gt;18 -->
<g id="edge19" class="edge">
<title>6&#45;&gt;18</title>
<path fill="none" stroke="#000000" d="M2029.1938,-521.9735C2029.1938,-510.1918 2029.1938,-494.5607 2029.1938,-481.1581"/>
<polygon fill="#000000" stroke="#000000" points="2032.6939,-481.0033 2029.1938,-471.0034 2025.6939,-481.0034 2032.6939,-481.0033"/>
<text text-anchor="middle" x="2306.6938" y="-492.8" font-family="Times,serif" font-size="14.00" fill="#000000">Conv2d(64, 64, kernel_size=(3, 3), stride=(1, 1), padding=(1, 1), bias=False)</text>
</g>
<!-- 21 -->
<g id="node21" class="node">
<title>21</title>
<ellipse fill="none" stroke="#000000" cx="2667.1938" cy="-453" rx="76.0865" ry="18"/>
<text text-anchor="middle" x="2667.1938" y="-449.3" font-family="Times,serif" font-size="14.00" fill="#000000">21(64, 16, 16)</text>
</g>
<!-- 6&#45;&gt;21 -->
<g id="edge23" class="edge">
<title>6&#45;&gt;21</title>
<path fill="none" stroke="#000000" d="M2098.9288,-537.476C2238.5316,-532.1368 2542.8846,-518.9538 2588.1938,-504 2606.167,-498.0681 2624.0637,-487.049 2638.2669,-476.767"/>
<polygon fill="#000000" stroke="#000000" points="2640.7037,-479.3144 2646.6008,-470.5124 2636.5018,-473.7157 2640.7037,-479.3144"/>
<text text-anchor="middle" x="2896.6938" y="-492.8" font-family="Times,serif" font-size="14.00" fill="#000000">Conv2d(64, 64, kernel_size=(3, 3), stride=(1, 1), padding=(1, 1), bias=False)</text>
</g>
<!-- 24 -->
<g id="node24" class="node">
<title>24</title>
<ellipse fill="none" stroke="#000000" cx="3305.1938" cy="-453" rx="76.0865" ry="18"/>
<text text-anchor="middle" x="3305.1938" y="-449.3" font-family="Times,serif" font-size="14.00" fill="#000000">24(64, 16, 16)</text>
</g>
<!-- 6&#45;&gt;24 -->
<g id="edge27" class="edge">
<title>6&#45;&gt;24</title>
<path fill="none" stroke="#000000" d="M2099.6824,-539.2237C2333.2712,-536.4526 3073.1412,-526.0172 3178.1938,-504 3207.9617,-497.7612 3239.7137,-485.01 3264.0228,-473.8191"/>
<polygon fill="#000000" stroke="#000000" points="3265.7268,-476.8856 3273.2879,-469.4639 3262.7489,-470.5506 3265.7268,-476.8856"/>
<text text-anchor="middle" x="3501.6938" y="-492.8" font-family="Times,serif" font-size="14.00" fill="#000000">Conv2d(64, 64, kernel_size=(3, 3), stride=(1, 1), padding=(1, 1), bias=False)</text>
</g>
<!-- 27 -->
<g id="node27" class="node">
<title>27</title>
<ellipse fill="none" stroke="#000000" cx="3983.1938" cy="-453" rx="76.0865" ry="18"/>
<text text-anchor="middle" x="3983.1938" y="-449.3" font-family="Times,serif" font-size="14.00" fill="#000000">27(64, 16, 16)</text>
</g>
<!-- 6&#45;&gt;27 -->
<g id="edge31" class="edge">
<title>6&#45;&gt;27</title>
<path fill="none" stroke="#000000" d="M2099.4396,-539.5093C2405.4905,-537.2422 3614.703,-526.9027 3783.1938,-504 3833.1114,-497.2148 3888.5193,-482.5013 3928.3331,-470.6137"/>
<polygon fill="#000000" stroke="#000000" points="3929.5473,-473.9032 3938.1065,-467.6589 3927.5215,-467.2027 3929.5473,-473.9032"/>
<text text-anchor="middle" x="4132.6938" y="-492.8" font-family="Times,serif" font-size="14.00" fill="#000000">Conv2d(64, 64, kernel_size=(3, 3), stride=(1, 1), padding=(1, 1), bias=False)</text>
</g>
<!-- 7 -->
<g id="node7" class="node">
<title>7</title>
<ellipse fill="none" stroke="#000000" cx="2029.1938" cy="-105" rx="55.7903" ry="18"/>
<text text-anchor="middle" x="2029.1938" y="-101.3" font-family="Times,serif" font-size="14.00" fill="#000000">7(16384,)</text>
</g>
<!-- 7&#45;&gt;2 -->
<g id="edge6" class="edge">
<title>7&#45;&gt;2</title>
<path fill="none" stroke="#000000" d="M2029.1938,-86.9735C2029.1938,-75.1918 2029.1938,-59.5607 2029.1938,-46.1581"/>
<polygon fill="#000000" stroke="#000000" points="2032.6939,-46.0033 2029.1938,-36.0034 2025.6939,-46.0034 2032.6939,-46.0033"/>
<text text-anchor="middle" x="2233.1938" y="-57.8" font-family="Times,serif" font-size="14.00" fill="#000000">Linear(in_features=16384, out_features=10, bias=True)</text>
</g>
<!-- 8 -->
<g id="node8" class="node">
<title>8</title>
<ellipse fill="none" stroke="#000000" cx="2029.1938" cy="-192" rx="70.3881" ry="18"/>
<text text-anchor="middle" x="2029.1938" y="-188.3" font-family="Times,serif" font-size="14.00" fill="#000000">8(64, 16, 16)</text>
</g>
<!-- 8&#45;&gt;7 -->
<g id="edge5" class="edge">
<title>8&#45;&gt;7</title>
<path fill="none" stroke="#000000" d="M2029.1938,-173.9735C2029.1938,-162.1918 2029.1938,-146.5607 2029.1938,-133.1581"/>
<polygon fill="#000000" stroke="#000000" points="2032.6939,-133.0033 2029.1938,-123.0034 2025.6939,-133.0034 2032.6939,-133.0033"/>
<text text-anchor="middle" x="2060.6938" y="-144.8" font-family="Times,serif" font-size="14.00" fill="#000000">Flatten()</text>
</g>
<!-- 10 -->
<g id="node10" class="node">
<title>10</title>
<ellipse fill="none" stroke="#000000" cx="356.1938" cy="-366" rx="76.0865" ry="18"/>
<text text-anchor="middle" x="356.1938" y="-362.3" font-family="Times,serif" font-size="14.00" fill="#000000">10(64, 16, 16)</text>
</g>
<!-- 9&#45;&gt;10 -->
<g id="edge9" class="edge">
<title>9&#45;&gt;10</title>
<path fill="none" stroke="#000000" d="M65.9973,-434.7159C64.6526,-423.8463 65.2004,-410.5543 73.1938,-402 86.7049,-387.5407 193.6497,-377.1041 272.0983,-371.303"/>
<polygon fill="#000000" stroke="#000000" points="272.761,-374.7643 282.4815,-370.5498 272.2544,-367.7826 272.761,-374.7643"/>
<text text-anchor="middle" x="390.6938" y="-405.8" font-family="Times,serif" font-size="14.00" fill="#000000">BatchNorm2d(64, eps=1e&#45;05, momentum=0.1, affine=True, track_running_stats=True)</text>
</g>
<!-- 11 -->
<g id="node11" class="node">
<title>11</title>
<ellipse fill="none" stroke="#000000" cx="763.1938" cy="-279" rx="76.0865" ry="18"/>
<text text-anchor="middle" x="763.1938" y="-275.3" font-family="Times,serif" font-size="14.00" fill="#000000">11(64, 16, 16)</text>
</g>
<!-- 10&#45;&gt;11 -->
<g id="edge10" class="edge">
<title>10&#45;&gt;11</title>
<path fill="none" stroke="#000000" d="M412.7854,-353.903C487.2498,-337.9856 617.908,-310.0562 696.911,-293.1686"/>
<polygon fill="#000000" stroke="#000000" points="697.7084,-296.5772 706.7559,-291.0641 696.2451,-289.7319 697.7084,-296.5772"/>
<text text-anchor="middle" x="609.6938" y="-318.8" font-family="Times,serif" font-size="14.00" fill="#000000">ReLU()</text>
</g>
<!-- 11&#45;&gt;8 -->
<g id="edge7" class="edge">
<title>11&#45;&gt;8</title>
<path fill="none" stroke="#000000" d="M817.3977,-266.2663C827.5832,-264.2311 838.1784,-262.3533 848.1938,-261 1061.9278,-232.1206 1719.8446,-204.1857 1949.2755,-195.083"/>
<polygon fill="#000000" stroke="#000000" points="1949.6935,-198.5693 1959.5473,-194.6767 1949.4167,-191.5748 1949.6935,-198.5693"/>
<text text-anchor="middle" x="1257.1938" y="-231.8" font-family="Times,serif" font-size="14.00" fill="#000000">id</text>
</g>
<!-- 13 -->
<g id="node13" class="node">
<title>13</title>
<ellipse fill="none" stroke="#000000" cx="770.1938" cy="-366" rx="76.0865" ry="18"/>
<text text-anchor="middle" x="770.1938" y="-362.3" font-family="Times,serif" font-size="14.00" fill="#000000">13(64, 16, 16)</text>
</g>
<!-- 12&#45;&gt;13 -->
<g id="edge12" class="edge">
<title>12&#45;&gt;13</title>
<path fill="none" stroke="#000000" d="M725.3539,-435.5427C715.6502,-425.9092 707.8707,-413.5817 714.1938,-402 717.0677,-396.736 721.0773,-392.1268 725.6443,-388.1234"/>
<polygon fill="#000000" stroke="#000000" points="727.9178,-390.7915 733.7541,-381.949 723.6774,-385.2219 727.9178,-390.7915"/>
<text text-anchor="middle" x="1031.6938" y="-405.8" font-family="Times,serif" font-size="14.00" fill="#000000">BatchNorm2d(64, eps=1e&#45;05, momentum=0.1, affine=True, track_running_stats=True)</text>
</g>
<!-- 14 -->
<g id="node14" class="node">
<title>14</title>
<ellipse fill="none" stroke="#000000" cx="933.1938" cy="-279" rx="76.0865" ry="18"/>
<text text-anchor="middle" x="933.1938" y="-275.3" font-family="Times,serif" font-size="14.00" fill="#000000">14(64, 16, 16)</text>
</g>
<!-- 13&#45;&gt;14 -->
<g id="edge13" class="edge">
<title>13&#45;&gt;14</title>
<path fill="none" stroke="#000000" d="M801.2365,-349.4312C827.408,-335.4624 865.0241,-315.385 893.4034,-300.2378"/>
<polygon fill="#000000" stroke="#000000" points="895.0926,-303.3036 902.2666,-295.5071 891.7965,-297.1282 895.0926,-303.3036"/>
<text text-anchor="middle" x="887.6938" y="-318.8" font-family="Times,serif" font-size="14.00" fill="#000000">ReLU()</text>
</g>
<!-- 14&#45;&gt;8 -->
<g id="edge14" class="edge">
<title>14&#45;&gt;8</title>
<path fill="none" stroke="#000000" d="M1005.5292,-273.258C1202.8469,-257.5951 1749.1777,-214.2276 1952.0463,-198.1239"/>
<polygon fill="#000000" stroke="#000000" points="1952.332,-201.6124 1962.0237,-197.3319 1951.778,-194.6343 1952.332,-201.6124"/>
<text text-anchor="middle" x="1554.1938" y="-231.8" font-family="Times,serif" font-size="14.00" fill="#000000">id</text>
</g>
<!-- 16 -->
<g id="node16" class="node">
<title>16</title>
<ellipse fill="none" stroke="#000000" cx="1615.1938" cy="-366" rx="76.0865" ry="18"/>
<text text-anchor="middle" x="1615.1938" y="-362.3" font-family="Times,serif" font-size="14.00" fill="#000000">16(64, 16, 16)</text>
</g>
<!-- 15&#45;&gt;16 -->
<g id="edge16" class="edge">
<title>15&#45;&gt;16</title>
<path fill="none" stroke="#000000" d="M1387.9599,-434.9977C1384.3919,-424.2341 1382.5581,-410.9546 1390.1938,-402 1399.722,-390.8261 1473.8912,-380.5032 1534.5103,-373.8032"/>
<polygon fill="#000000" stroke="#000000" points="1534.9315,-377.2782 1544.4949,-372.7185 1534.1753,-370.3191 1534.9315,-377.2782"/>
<text text-anchor="middle" x="1707.6938" y="-405.8" font-family="Times,serif" font-size="14.00" fill="#000000">BatchNorm2d(64, eps=1e&#45;05, momentum=0.1, affine=True, track_running_stats=True)</text>
</g>
<!-- 17 -->
<g id="node17" class="node">
<title>17</title>
<ellipse fill="none" stroke="#000000" cx="1615.1938" cy="-279" rx="76.0865" ry="18"/>
<text text-anchor="middle" x="1615.1938" y="-275.3" font-family="Times,serif" font-size="14.00" fill="#000000">17(64, 16, 16)</text>
</g>
<!-- 16&#45;&gt;17 -->
<g id="edge17" class="edge">
<title>16&#45;&gt;17</title>
<path fill="none" stroke="#000000" d="M1615.1938,-347.9735C1615.1938,-336.1918 1615.1938,-320.5607 1615.1938,-307.1581"/>
<polygon fill="#000000" stroke="#000000" points="1618.6939,-307.0033 1615.1938,-297.0034 1611.6939,-307.0034 1618.6939,-307.0033"/>
<text text-anchor="middle" x="1640.6938" y="-318.8" font-family="Times,serif" font-size="14.00" fill="#000000">ReLU()</text>
</g>
<!-- 17&#45;&gt;8 -->
<g id="edge18" class="edge">
<title>17&#45;&gt;8</title>
<path fill="none" stroke="#000000" d="M1672.324,-266.9944C1748.9034,-250.9016 1884.4649,-222.414 1964.6492,-205.5637"/>
<polygon fill="#000000" stroke="#000000" points="1965.5584,-208.9492 1974.6248,-203.4674 1964.1187,-202.0988 1965.5584,-208.9492"/>
<text text-anchor="middle" x="1854.1938" y="-231.8" font-family="Times,serif" font-size="14.00" fill="#000000">id</text>
</g>
<!-- 19 -->
<g id="node19" class="node">
<title>19</title>
<ellipse fill="none" stroke="#000000" cx="2029.1938" cy="-366" rx="76.0865" ry="18"/>
<text text-anchor="middle" x="2029.1938" y="-362.3" font-family="Times,serif" font-size="14.00" fill="#000000">19(64, 16, 16)</text>
</g>
<!-- 18&#45;&gt;19 -->
<g id="edge20" class="edge">
<title>18&#45;&gt;19</title>
<path fill="none" stroke="#000000" d="M2029.1938,-434.9735C2029.1938,-423.1918 2029.1938,-407.5607 2029.1938,-394.1581"/>
<polygon fill="#000000" stroke="#000000" points="2032.6939,-394.0033 2029.1938,-384.0034 2025.6939,-394.0034 2032.6939,-394.0033"/>
<text text-anchor="middle" x="2346.6938" y="-405.8" font-family="Times,serif" font-size="14.00" fill="#000000">BatchNorm2d(64, eps=1e&#45;05, momentum=0.1, affine=True, track_running_stats=True)</text>
</g>
<!-- 20 -->
<g id="node20" class="node">
<title>20</title>
<ellipse fill="none" stroke="#000000" cx="2029.1938" cy="-279" rx="76.0865" ry="18"/>
<text text-anchor="middle" x="2029.1938" y="-275.3" font-family="Times,serif" font-size="14.00" fill="#000000">20(64, 16, 16)</text>
</g>
<!-- 19&#45;&gt;20 -->
<g id="edge21" class="edge">
<title>19&#45;&gt;20</title>
<path fill="none" stroke="#000000" d="M2029.1938,-347.9735C2029.1938,-336.1918 2029.1938,-320.5607 2029.1938,-307.1581"/>
<polygon fill="#000000" stroke="#000000" points="2032.6939,-307.0033 2029.1938,-297.0034 2025.6939,-307.0034 2032.6939,-307.0033"/>
<text text-anchor="middle" x="2054.6938" y="-318.8" font-family="Times,serif" font-size="14.00" fill="#000000">ReLU()</text>
</g>
<!-- 20&#45;&gt;8 -->
<g id="edge22" class="edge">
<title>20&#45;&gt;8</title>
<path fill="none" stroke="#000000" d="M2029.1938,-260.9735C2029.1938,-249.1918 2029.1938,-233.5607 2029.1938,-220.1581"/>
<polygon fill="#000000" stroke="#000000" points="2032.6939,-220.0033 2029.1938,-210.0034 2025.6939,-220.0034 2032.6939,-220.0033"/>
<text text-anchor="middle" x="2036.1938" y="-231.8" font-family="Times,serif" font-size="14.00" fill="#000000">id</text>
</g>
<!-- 22 -->
<g id="node22" class="node">
<title>22</title>
<ellipse fill="none" stroke="#000000" cx="2498.1938" cy="-366" rx="76.0865" ry="18"/>
<text text-anchor="middle" x="2498.1938" y="-362.3" font-family="Times,serif" font-size="14.00" fill="#000000">22(64, 16, 16)</text>
</g>
<!-- 21&#45;&gt;22 -->
<g id="edge24" class="edge">
<title>21&#45;&gt;22</title>
<path fill="none" stroke="#000000" d="M2671.5369,-434.9978C2673.015,-424.2342 2672.7184,-410.9547 2665.1938,-402 2653.7265,-388.3533 2616.2113,-379.5852 2579.6368,-374.1229"/>
<polygon fill="#000000" stroke="#000000" points="2579.7603,-370.6056 2569.3683,-372.6686 2578.7787,-377.5364 2579.7603,-370.6056"/>
<text text-anchor="middle" x="2989.6938" y="-405.8" font-family="Times,serif" font-size="14.00" fill="#000000">BatchNorm2d(64, eps=1e&#45;05, momentum=0.1, affine=True, track_running_stats=True)</text>
</g>
<!-- 23 -->
<g id="node23" class="node">
<title>23</title>
<ellipse fill="none" stroke="#000000" cx="2419.1938" cy="-279" rx="76.0865" ry="18"/>
<text text-anchor="middle" x="2419.1938" y="-275.3" font-family="Times,serif" font-size="14.00" fill="#000000">23(64, 16, 16)</text>
</g>
<!-- 22&#45;&gt;23 -->
<g id="edge25" class="edge">
<title>22&#45;&gt;23</title>
<path fill="none" stroke="#000000" d="M2482.2069,-348.3943C2470.7185,-335.7424 2455.0577,-318.4957 2442.2231,-304.3614"/>
<polygon fill="#000000" stroke="#000000" points="2444.7416,-301.9286 2435.428,-296.8782 2439.5594,-306.6343 2444.7416,-301.9286"/>
<text text-anchor="middle" x="2489.6938" y="-318.8" font-family="Times,serif" font-size="14.00" fill="#000000">ReLU()</text>
</g>
<!-- 23&#45;&gt;8 -->
<g id="edge26" class="edge">
<title>23&#45;&gt;8</title>
<path fill="none" stroke="#000000" d="M2358.2904,-268.0669C2321.8876,-261.3196 2274.7787,-252.2155 2233.1938,-243 2183.9678,-232.0912 2128.4802,-218.1089 2087.8151,-207.5445"/>
<polygon fill="#000000" stroke="#000000" points="2088.6299,-204.14 2078.0704,-205.0047 2086.8644,-210.9137 2088.6299,-204.14"/>
<text text-anchor="middle" x="2240.1938" y="-231.8" font-family="Times,serif" font-size="14.00" fill="#000000">id</text>
</g>
<!-- 25 -->
<g id="node25" class="node">
<title>25</title>
<ellipse fill="none" stroke="#000000" cx="2788.1938" cy="-366" rx="76.0865" ry="18"/>
<text text-anchor="middle" x="2788.1938" y="-362.3" font-family="Times,serif" font-size="14.00" fill="#000000">25(64, 16, 16)</text>
</g>
<!-- 24&#45;&gt;25 -->
<g id="edge28" class="edge">
<title>24&#45;&gt;25</title>
<path fill="none" stroke="#000000" d="M3313.776,-434.6831C3317.4751,-423.8011 3319.3244,-410.5077 3311.1938,-402 3295.9398,-386.0387 2936.1753,-386.0636 2914.1938,-384 2896.9983,-382.3857 2878.5575,-380.0793 2861.2349,-377.6538"/>
<polygon fill="#000000" stroke="#000000" points="2861.5774,-374.1673 2851.1826,-376.2163 2860.5864,-381.0968 2861.5774,-374.1673"/>
<text text-anchor="middle" x="3633.6938" y="-405.8" font-family="Times,serif" font-size="14.00" fill="#000000">BatchNorm2d(64, eps=1e&#45;05, momentum=0.1, affine=True, track_running_stats=True)</text>
</g>
<!-- 26 -->
<g id="node26" class="node">
<title>26</title>
<ellipse fill="none" stroke="#000000" cx="2699.1938" cy="-279" rx="76.0865" ry="18"/>
<text text-anchor="middle" x="2699.1938" y="-275.3" font-family="Times,serif" font-size="14.00" fill="#000000">26(64, 16, 16)</text>
</g>
<!-- 25&#45;&gt;26 -->
<g id="edge29" class="edge">
<title>25&#45;&gt;26</title>
<path fill="none" stroke="#000000" d="M2770.1833,-348.3943C2757.0342,-335.5407 2739.0337,-317.9446 2724.4491,-303.6878"/>
<polygon fill="#000000" stroke="#000000" points="2726.7751,-301.067 2717.1775,-296.5796 2721.8818,-306.0727 2726.7751,-301.067"/>
<text text-anchor="middle" x="2774.6938" y="-318.8" font-family="Times,serif" font-size="14.00" fill="#000000">ReLU()</text>
</g>
<!-- 26&#45;&gt;8 -->
<g id="edge30" class="edge">
<title>26&#45;&gt;8</title>
<path fill="none" stroke="#000000" d="M2629.8191,-271.5719C2566.3485,-264.645 2469.8738,-253.7874 2386.1938,-243 2286.7648,-230.1824 2172.048,-213.4463 2100.0683,-202.7084"/>
<polygon fill="#000000" stroke="#000000" points="2100.1728,-199.1852 2089.7654,-201.1688 2099.1382,-206.1083 2100.1728,-199.1852"/>
<text text-anchor="middle" x="2393.1938" y="-231.8" font-family="Times,serif" font-size="14.00" fill="#000000">id</text>
</g>
<!-- 28 -->
<g id="node28" class="node">
<title>28</title>
<ellipse fill="none" stroke="#000000" cx="2999.1938" cy="-366" rx="76.0865" ry="18"/>
<text text-anchor="middle" x="2999.1938" y="-362.3" font-family="Times,serif" font-size="14.00" fill="#000000">28(64, 16, 16)</text>
</g>
<!-- 27&#45;&gt;28 -->
<g id="edge32" class="edge">
<title>27&#45;&gt;28</title>
<path fill="none" stroke="#000000" d="M3978.3005,-434.898C3974.1592,-423.3652 3966.9681,-409.2704 3955.1938,-402 3918.5719,-379.3868 3314.3126,-369.7897 3085.8001,-366.9573"/>
<polygon fill="#000000" stroke="#000000" points="3085.5757,-363.4544 3075.5335,-366.8315 3085.4899,-370.4538 3085.5757,-363.4544"/>
<text text-anchor="middle" x="4286.6938" y="-405.8" font-family="Times,serif" font-size="14.00" fill="#000000">BatchNorm2d(64, eps=1e&#45;05, momentum=0.1, affine=True, track_running_stats=True)</text>
</g>
<!-- 29 -->
<g id="node29" class="node">
<title>29</title>
<ellipse fill="none" stroke="#000000" cx="2924.1938" cy="-279" rx="76.0865" ry="18"/>
<text text-anchor="middle" x="2924.1938" y="-275.3" font-family="Times,serif" font-size="14.00" fill="#000000">29(64, 16, 16)</text>
</g>
<!-- 28&#45;&gt;29 -->
<g id="edge33" class="edge">
<title>28&#45;&gt;29</title>
<path fill="none" stroke="#000000" d="M2983.6537,-347.9735C2972.8219,-335.4087 2958.2159,-318.4657 2946.1911,-304.5168"/>
<polygon fill="#000000" stroke="#000000" points="2948.6377,-301.9945 2939.4573,-296.7057 2943.3358,-306.5651 2948.6377,-301.9945"/>
<text text-anchor="middle" x="2990.6938" y="-318.8" font-family="Times,serif" font-size="14.00" fill="#000000">ReLU()</text>
</g>
<!-- 29&#45;&gt;8 -->
<g id="edge34" class="edge">
<title>29&#45;&gt;8</title>
<path fill="none" stroke="#000000" d="M2858.022,-269.9853C2834.7098,-266.9439 2808.309,-263.6513 2784.1938,-261 2536.8911,-233.8107 2243.1787,-209.1553 2106.4134,-198.1149"/>
<polygon fill="#000000" stroke="#000000" points="2106.6925,-194.6261 2096.4437,-197.3118 2106.1304,-201.6035 2106.6925,-194.6261"/>
<text text-anchor="middle" x="2605.1938" y="-231.8" font-family="Times,serif" font-size="14.00" fill="#000000">id</text>
</g>
</g>
</svg>
