<?xml version="1.0" encoding="UTF-8" standalone="no"?>
<!DOCTYPE svg PUBLIC "-//W3C//DTD SVG 1.1//EN"
 "http://www.w3.org/Graphics/SVG/1.1/DTD/svg11.dtd">
<!-- Generated by graphviz version 2.40.1 (20161225.0304)
 -->
<!-- Title: %3 Pages: 1 -->
<svg width="719pt" height="914pt"
 viewBox="0.00 0.00 719.04 914.00" xmlns="http://www.w3.org/2000/svg" xmlns:xlink="http://www.w3.org/1999/xlink">
<g id="graph0" class="graph" transform="scale(1 1) rotate(0) translate(4 910)">
<title>%3</title>
<polygon fill="#ffffff" stroke="transparent" points="-4,4 -4,-910 715.0433,-910 715.0433,4 -4,4"/>
<!-- 1 -->
<g id="node1" class="node">
<title>1</title>
<ellipse fill="none" stroke="#000000" cx="76.0433" cy="-888" rx="64.189" ry="18"/>
<text text-anchor="middle" x="76.0433" y="-884.3" font-family="Times,serif" font-size="14.00" fill="#000000">1(3, 32, 32)</text>
</g>
<!-- 3 -->
<g id="node3" class="node">
<title>3</title>
<ellipse fill="none" stroke="#000000" cx="76.0433" cy="-801" rx="70.3881" ry="18"/>
<text text-anchor="middle" x="76.0433" y="-797.3" font-family="Times,serif" font-size="14.00" fill="#000000">3(64, 16, 16)</text>
</g>
<!-- 1&#45;&gt;3 -->
<g id="edge1" class="edge">
<title>1&#45;&gt;3</title>
<path fill="none" stroke="#000000" d="M76.0433,-869.9735C76.0433,-858.1918 76.0433,-842.5607 76.0433,-829.1581"/>
<polygon fill="#000000" stroke="#000000" points="79.5434,-829.0033 76.0433,-819.0034 72.5434,-829.0034 79.5434,-829.0033"/>
<text text-anchor="middle" x="349.0433" y="-840.8" font-family="Times,serif" font-size="14.00" fill="#000000">Conv2d(3, 64, kernel_size=(3, 3), stride=(2, 2), padding=(1, 1), bias=False)</text>
</g>
<!-- 2 -->
<g id="node2" class="node">
<title>2</title>
<ellipse fill="none" stroke="#000000" cx="76.0433" cy="-18" rx="38.1938" ry="18"/>
<text text-anchor="middle" x="76.0433" y="-14.3" font-family="Times,serif" font-size="14.00" fill="#000000">2(10,)</text>
</g>
<!-- 4 -->
<g id="node4" class="node">
<title>4</title>
<ellipse fill="none" stroke="#000000" cx="76.0433" cy="-714" rx="70.3881" ry="18"/>
<text text-anchor="middle" x="76.0433" y="-710.3" font-family="Times,serif" font-size="14.00" fill="#000000">4(64, 16, 16)</text>
</g>
<!-- 3&#45;&gt;4 -->
<g id="edge2" class="edge">
<title>3&#45;&gt;4</title>
<path fill="none" stroke="#000000" d="M76.0433,-782.9735C76.0433,-771.1918 76.0433,-755.5607 76.0433,-742.1581"/>
<polygon fill="#000000" stroke="#000000" points="79.5434,-742.0033 76.0433,-732.0034 72.5434,-742.0034 79.5434,-742.0033"/>
<text text-anchor="middle" x="393.5433" y="-753.8" font-family="Times,serif" font-size="14.00" fill="#000000">BatchNorm2d(64, eps=1e&#45;05, momentum=0.1, affine=True, track_running_stats=True)</text>
</g>
<!-- 5 -->
<g id="node5" class="node">
<title>5</title>
<ellipse fill="none" stroke="#000000" cx="76.0433" cy="-627" rx="70.3881" ry="18"/>
<text text-anchor="middle" x="76.0433" y="-623.3" font-family="Times,serif" font-size="14.00" fill="#000000">5(64, 16, 16)</text>
</g>
<!-- 4&#45;&gt;5 -->
<g id="edge3" class="edge">
<title>4&#45;&gt;5</title>
<path fill="none" stroke="#000000" d="M76.0433,-695.9735C76.0433,-684.1918 76.0433,-668.5607 76.0433,-655.1581"/>
<polygon fill="#000000" stroke="#000000" points="79.5434,-655.0033 76.0433,-645.0034 72.5434,-655.0034 79.5434,-655.0033"/>
<text text-anchor="middle" x="101.5433" y="-666.8" font-family="Times,serif" font-size="14.00" fill="#000000">ReLU()</text>
</g>
<!-- 6 -->
<g id="node6" class="node">
<title>6</title>
<ellipse fill="none" stroke="#000000" cx="76.0433" cy="-540" rx="70.3881" ry="18"/>
<text text-anchor="middle" x="76.0433" y="-536.3" font-family="Times,serif" font-size="14.00" fill="#000000">6(64, 16, 16)</text>
</g>
<!-- 5&#45;&gt;6 -->
<g id="edge4" class="edge">
<title>5&#45;&gt;6</title>
<path fill="none" stroke="#000000" d="M76.0433,-608.9735C76.0433,-597.1918 76.0433,-581.5607 76.0433,-568.1581"/>
<polygon fill="#000000" stroke="#000000" points="79.5434,-568.0033 76.0433,-558.0034 72.5434,-568.0034 79.5434,-568.0033"/>
<text text-anchor="middle" x="83.0433" y="-579.8" font-family="Times,serif" font-size="14.00" fill="#000000">id</text>
</g>
<!-- 9 -->
<g id="node9" class="node">
<title>9</title>
<ellipse fill="none" stroke="#000000" cx="76.0433" cy="-453" rx="70.3881" ry="18"/>
<text text-anchor="middle" x="76.0433" y="-449.3" font-family="Times,serif" font-size="14.00" fill="#000000">9(64, 16, 16)</text>
</g>
<!-- 6&#45;&gt;9 -->
<g id="edge8" class="edge">
<title>6&#45;&gt;9</title>
<path fill="none" stroke="#000000" d="M76.0433,-521.9735C76.0433,-510.1918 76.0433,-494.5607 76.0433,-481.1581"/>
<polygon fill="#000000" stroke="#000000" points="79.5434,-481.0033 76.0433,-471.0034 72.5434,-481.0034 79.5434,-481.0033"/>
<text text-anchor="middle" x="353.5433" y="-492.8" font-family="Times,serif" font-size="14.00" fill="#000000">Conv2d(64, 64, kernel_size=(3, 3), stride=(1, 1), padding=(1, 1), bias=False)</text>
</g>
<!-- 7 -->
<g id="node7" class="node">
<title>7</title>
<ellipse fill="none" stroke="#000000" cx="76.0433" cy="-105" rx="55.7903" ry="18"/>
<text text-anchor="middle" x="76.0433" y="-101.3" font-family="Times,serif" font-size="14.00" fill="#000000">7(16384,)</text>
</g>
<!-- 7&#45;&gt;2 -->
<g id="edge6" class="edge">
<title>7&#45;&gt;2</title>
<path fill="none" stroke="#000000" d="M76.0433,-86.9735C76.0433,-75.1918 76.0433,-59.5607 76.0433,-46.1581"/>
<polygon fill="#000000" stroke="#000000" points="79.5434,-46.0033 76.0433,-36.0034 72.5434,-46.0034 79.5434,-46.0033"/>
<text text-anchor="middle" x="280.0433" y="-57.8" font-family="Times,serif" font-size="14.00" fill="#000000">Linear(in_features=16384, out_features=10, bias=True)</text>
</g>
<!-- 8 -->
<g id="node8" class="node">
<title>8</title>
<ellipse fill="none" stroke="#000000" cx="76.0433" cy="-192" rx="70.3881" ry="18"/>
<text text-anchor="middle" x="76.0433" y="-188.3" font-family="Times,serif" font-size="14.00" fill="#000000">8(64, 16, 16)</text>
</g>
<!-- 8&#45;&gt;7 -->
<g id="edge5" class="edge">
<title>8&#45;&gt;7</title>
<path fill="none" stroke="#000000" d="M76.0433,-173.9735C76.0433,-162.1918 76.0433,-146.5607 76.0433,-133.1581"/>
<polygon fill="#000000" stroke="#000000" points="79.5434,-133.0033 76.0433,-123.0034 72.5434,-133.0034 79.5434,-133.0033"/>
<text text-anchor="middle" x="107.5433" y="-144.8" font-family="Times,serif" font-size="14.00" fill="#000000">Flatten()</text>
</g>
<!-- 10 -->
<g id="node10" class="node">
<title>10</title>
<ellipse fill="none" stroke="#000000" cx="76.0433" cy="-366" rx="76.0865" ry="18"/>
<text text-anchor="middle" x="76.0433" y="-362.3" font-family="Times,serif" font-size="14.00" fill="#000000">10(64, 16, 16)</text>
</g>
<!-- 9&#45;&gt;10 -->
<g id="edge9" class="edge">
<title>9&#45;&gt;10</title>
<path fill="none" stroke="#000000" d="M76.0433,-434.9735C76.0433,-423.1918 76.0433,-407.5607 76.0433,-394.1581"/>
<polygon fill="#000000" stroke="#000000" points="79.5434,-394.0033 76.0433,-384.0034 72.5434,-394.0034 79.5434,-394.0033"/>
<text text-anchor="middle" x="393.5433" y="-405.8" font-family="Times,serif" font-size="14.00" fill="#000000">BatchNorm2d(64, eps=1e&#45;05, momentum=0.1, affine=True, track_running_stats=True)</text>
</g>
<!-- 11 -->
<g id="node11" class="node">
<title>11</title>
<ellipse fill="none" stroke="#000000" cx="76.0433" cy="-279" rx="76.0865" ry="18"/>
<text text-anchor="middle" x="76.0433" y="-275.3" font-family="Times,serif" font-size="14.00" fill="#000000">11(64, 16, 16)</text>
</g>
<!-- 10&#45;&gt;11 -->
<g id="edge10" class="edge">
<title>10&#45;&gt;11</title>
<path fill="none" stroke="#000000" d="M76.0433,-347.9735C76.0433,-336.1918 76.0433,-320.5607 76.0433,-307.1581"/>
<polygon fill="#000000" stroke="#000000" points="79.5434,-307.0033 76.0433,-297.0034 72.5434,-307.0034 79.5434,-307.0033"/>
<text text-anchor="middle" x="101.5433" y="-318.8" font-family="Times,serif" font-size="14.00" fill="#000000">ReLU()</text>
</g>
<!-- 11&#45;&gt;8 -->
<g id="edge7" class="edge">
<title>11&#45;&gt;8</title>
<path fill="none" stroke="#000000" d="M76.0433,-260.9735C76.0433,-249.1918 76.0433,-233.5607 76.0433,-220.1581"/>
<polygon fill="#000000" stroke="#000000" points="79.5434,-220.0033 76.0433,-210.0034 72.5434,-220.0034 79.5434,-220.0033"/>
<text text-anchor="middle" x="83.0433" y="-231.8" font-family="Times,serif" font-size="14.00" fill="#000000">id</text>
</g>
</g>
</svg>
