<?xml version="1.0" encoding="UTF-8" standalone="no"?>
<!DOCTYPE svg PUBLIC "-//W3C//DTD SVG 1.1//EN"
 "http://www.w3.org/Graphics/SVG/1.1/DTD/svg11.dtd">
<!-- Generated by graphviz version 2.40.1 (20161225.0304)
 -->
<!-- Title: %3 Pages: 1 -->
<svg width="1336pt" height="2588pt"
 viewBox="0.00 0.00 1336.29 2588.00" xmlns="http://www.w3.org/2000/svg" xmlns:xlink="http://www.w3.org/1999/xlink">
<g id="graph0" class="graph" transform="scale(1 1) rotate(0) translate(4 2584)">
<title>%3</title>
<polygon fill="#ffffff" stroke="transparent" points="-4,4 -4,-2584 1332.286,-2584 1332.286,4 -4,4"/>
<!-- 1 -->
<g id="node1" class="node">
<title>1</title>
<ellipse fill="none" stroke="#000000" cx="466.286" cy="-2562" rx="145.6742" ry="18"/>
<text text-anchor="middle" x="466.286" y="-2558.3" font-family="Times,serif" font-size="14.00" fill="#000000">id:1 rank:0 shape: (3, 32, 32)</text>
</g>
<!-- 3 -->
<g id="node3" class="node">
<title>3</title>
<ellipse fill="none" stroke="#000000" cx="466.286" cy="-2475" rx="151.3732" ry="18"/>
<text text-anchor="middle" x="466.286" y="-2471.3" font-family="Times,serif" font-size="14.00" fill="#000000">id:3 rank:0 shape: (64, 16, 16)</text>
</g>
<!-- 1&#45;&gt;3 -->
<g id="edge1" class="edge">
<title>1&#45;&gt;3</title>
<path fill="none" stroke="#000000" d="M466.286,-2543.9735C466.286,-2532.1918 466.286,-2516.5607 466.286,-2503.1581"/>
<polygon fill="#000000" stroke="#000000" points="469.7861,-2503.0033 466.286,-2493.0034 462.7861,-2503.0034 469.7861,-2503.0033"/>
<text text-anchor="middle" x="739.286" y="-2514.8" font-family="Times,serif" font-size="14.00" fill="#000000">Conv2d(3, 64, kernel_size=(3, 3), stride=(2, 2), padding=(1, 1), bias=False)</text>
</g>
<!-- 2 -->
<g id="node2" class="node">
<title>2</title>
<ellipse fill="none" stroke="#000000" cx="415.286" cy="-18" rx="118.8789" ry="18"/>
<text text-anchor="middle" x="415.286" y="-14.3" font-family="Times,serif" font-size="14.00" fill="#000000">id:2 rank:1 shape: (10,)</text>
</g>
<!-- 4 -->
<g id="node4" class="node">
<title>4</title>
<ellipse fill="none" stroke="#000000" cx="466.286" cy="-2388" rx="151.3732" ry="18"/>
<text text-anchor="middle" x="466.286" y="-2384.3" font-family="Times,serif" font-size="14.00" fill="#000000">id:4 rank:0 shape: (64, 16, 16)</text>
</g>
<!-- 3&#45;&gt;4 -->
<g id="edge2" class="edge">
<title>3&#45;&gt;4</title>
<path fill="none" stroke="#000000" d="M466.286,-2456.9735C466.286,-2445.1918 466.286,-2429.5607 466.286,-2416.1581"/>
<polygon fill="#000000" stroke="#000000" points="469.7861,-2416.0033 466.286,-2406.0034 462.7861,-2416.0034 469.7861,-2416.0033"/>
<text text-anchor="middle" x="522.786" y="-2427.8" font-family="Times,serif" font-size="14.00" fill="#000000">Dropout(p=0.2)</text>
</g>
<!-- 5 -->
<g id="node5" class="node">
<title>5</title>
<ellipse fill="none" stroke="#000000" cx="466.286" cy="-2301" rx="151.3732" ry="18"/>
<text text-anchor="middle" x="466.286" y="-2297.3" font-family="Times,serif" font-size="14.00" fill="#000000">id:5 rank:0 shape: (64, 16, 16)</text>
</g>
<!-- 4&#45;&gt;5 -->
<g id="edge3" class="edge">
<title>4&#45;&gt;5</title>
<path fill="none" stroke="#000000" d="M466.286,-2369.9735C466.286,-2358.1918 466.286,-2342.5607 466.286,-2329.1581"/>
<polygon fill="#000000" stroke="#000000" points="469.7861,-2329.0033 466.286,-2319.0034 462.7861,-2329.0034 469.7861,-2329.0033"/>
<text text-anchor="middle" x="783.786" y="-2340.8" font-family="Times,serif" font-size="14.00" fill="#000000">BatchNorm2d(64, eps=1e&#45;05, momentum=0.1, affine=True, track_running_stats=True)</text>
</g>
<!-- 6 -->
<g id="node6" class="node">
<title>6</title>
<ellipse fill="none" stroke="#000000" cx="466.286" cy="-2214" rx="151.3732" ry="18"/>
<text text-anchor="middle" x="466.286" y="-2210.3" font-family="Times,serif" font-size="14.00" fill="#000000">id:6 rank:0 shape: (64, 16, 16)</text>
</g>
<!-- 5&#45;&gt;6 -->
<g id="edge4" class="edge">
<title>5&#45;&gt;6</title>
<path fill="none" stroke="#000000" d="M466.286,-2282.9735C466.286,-2271.1918 466.286,-2255.5607 466.286,-2242.1581"/>
<polygon fill="#000000" stroke="#000000" points="469.7861,-2242.0033 466.286,-2232.0034 462.7861,-2242.0034 469.7861,-2242.0033"/>
<text text-anchor="middle" x="491.786" y="-2253.8" font-family="Times,serif" font-size="14.00" fill="#000000">ReLU()</text>
</g>
<!-- 7 -->
<g id="node7" class="node">
<title>7</title>
<ellipse fill="none" stroke="#000000" cx="466.286" cy="-2127" rx="151.3732" ry="18"/>
<text text-anchor="middle" x="466.286" y="-2123.3" font-family="Times,serif" font-size="14.00" fill="#000000">id:7 rank:1 shape: (64, 16, 16)</text>
</g>
<!-- 6&#45;&gt;7 -->
<g id="edge5" class="edge">
<title>6&#45;&gt;7</title>
<path fill="none" stroke="#000000" d="M466.286,-2195.9735C466.286,-2184.1918 466.286,-2168.5607 466.286,-2155.1581"/>
<polygon fill="#000000" stroke="#000000" points="469.7861,-2155.0033 466.286,-2145.0034 462.7861,-2155.0034 469.7861,-2155.0033"/>
<text text-anchor="middle" x="473.286" y="-2166.8" font-family="Times,serif" font-size="14.00" fill="#000000">id</text>
</g>
<!-- 14 -->
<g id="node14" class="node">
<title>14</title>
<ellipse fill="none" stroke="#000000" cx="157.286" cy="-2040" rx="157.0724" ry="18"/>
<text text-anchor="middle" x="157.286" y="-2036.3" font-family="Times,serif" font-size="14.00" fill="#000000">id:14 rank:1 shape: (64, 16, 16)</text>
</g>
<!-- 7&#45;&gt;14 -->
<g id="edge13" class="edge">
<title>7&#45;&gt;14</title>
<path fill="none" stroke="#000000" d="M339.0401,-2117.1601C267.7571,-2110.5931 190.537,-2101.2948 177.286,-2091 169.9986,-2085.3383 165.3622,-2076.6417 162.4141,-2068.0242"/>
<polygon fill="#000000" stroke="#000000" points="165.7158,-2066.8323 159.6712,-2058.131 158.9702,-2068.7026 165.7158,-2066.8323"/>
<text text-anchor="middle" x="454.786" y="-2079.8" font-family="Times,serif" font-size="14.00" fill="#000000">Conv2d(64, 64, kernel_size=(3, 3), stride=(1, 1), padding=(1, 1), bias=False)</text>
</g>
<!-- 17 -->
<g id="node17" class="node">
<title>17</title>
<ellipse fill="none" stroke="#000000" cx="770.286" cy="-2040" rx="157.0724" ry="18"/>
<text text-anchor="middle" x="770.286" y="-2036.3" font-family="Times,serif" font-size="14.00" fill="#000000">id:17 rank:1 shape: (64, 16, 16)</text>
</g>
<!-- 7&#45;&gt;17 -->
<g id="edge16" class="edge">
<title>7&#45;&gt;17</title>
<path fill="none" stroke="#000000" d="M602.9608,-2119.1563C657.8624,-2113.8878 713.5152,-2105.2025 736.286,-2091 745.4957,-2085.2558 752.764,-2075.9926 758.1759,-2066.9266"/>
<polygon fill="#000000" stroke="#000000" points="761.2908,-2068.5245 762.9722,-2058.0639 755.1345,-2065.1928 761.2908,-2068.5245"/>
<text text-anchor="middle" x="1029.786" y="-2079.8" font-family="Times,serif" font-size="14.00" fill="#000000">Conv2d(64, 64, kernel_size=(3, 3), stride=(1, 1), padding=(1, 1), bias=False)</text>
</g>
<!-- 8 -->
<g id="node8" class="node">
<title>8</title>
<ellipse fill="none" stroke="#000000" cx="415.286" cy="-453" rx="145.6742" ry="18"/>
<text text-anchor="middle" x="415.286" y="-449.3" font-family="Times,serif" font-size="14.00" fill="#000000">id:8 rank:1 shape: (576, 1, 1)</text>
</g>
<!-- 9 -->
<g id="node9" class="node">
<title>9</title>
<ellipse fill="none" stroke="#000000" cx="415.286" cy="-366" rx="124.5782" ry="18"/>
<text text-anchor="middle" x="415.286" y="-362.3" font-family="Times,serif" font-size="14.00" fill="#000000">id:9 rank:1 shape: (576,)</text>
</g>
<!-- 8&#45;&gt;9 -->
<g id="edge7" class="edge">
<title>8&#45;&gt;9</title>
<path fill="none" stroke="#000000" d="M415.286,-434.9735C415.286,-423.1918 415.286,-407.5607 415.286,-394.1581"/>
<polygon fill="#000000" stroke="#000000" points="418.7861,-394.0033 415.286,-384.0034 411.7861,-394.0034 418.7861,-394.0033"/>
<text text-anchor="middle" x="446.786" y="-405.8" font-family="Times,serif" font-size="14.00" fill="#000000">Flatten()</text>
</g>
<!-- 10 -->
<g id="node10" class="node">
<title>10</title>
<ellipse fill="none" stroke="#000000" cx="415.286" cy="-279" rx="130.777" ry="18"/>
<text text-anchor="middle" x="415.286" y="-275.3" font-family="Times,serif" font-size="14.00" fill="#000000">id:10 rank:1 shape: (640,)</text>
</g>
<!-- 9&#45;&gt;10 -->
<g id="edge8" class="edge">
<title>9&#45;&gt;10</title>
<path fill="none" stroke="#000000" d="M415.286,-347.9735C415.286,-336.1918 415.286,-320.5607 415.286,-307.1581"/>
<polygon fill="#000000" stroke="#000000" points="418.7861,-307.0033 415.286,-297.0034 411.7861,-307.0034 418.7861,-307.0033"/>
<text text-anchor="middle" x="614.786" y="-318.8" font-family="Times,serif" font-size="14.00" fill="#000000">Linear(in_features=576, out_features=640, bias=True)</text>
</g>
<!-- 11 -->
<g id="node11" class="node">
<title>11</title>
<ellipse fill="none" stroke="#000000" cx="415.286" cy="-192" rx="130.777" ry="18"/>
<text text-anchor="middle" x="415.286" y="-188.3" font-family="Times,serif" font-size="14.00" fill="#000000">id:11 rank:1 shape: (640,)</text>
</g>
<!-- 10&#45;&gt;11 -->
<g id="edge9" class="edge">
<title>10&#45;&gt;11</title>
<path fill="none" stroke="#000000" d="M415.286,-260.9735C415.286,-249.1918 415.286,-233.5607 415.286,-220.1581"/>
<polygon fill="#000000" stroke="#000000" points="418.7861,-220.0033 415.286,-210.0034 411.7861,-220.0034 418.7861,-220.0033"/>
<text text-anchor="middle" x="471.786" y="-231.8" font-family="Times,serif" font-size="14.00" fill="#000000">Dropout(p=0.2)</text>
</g>
<!-- 12 -->
<g id="node12" class="node">
<title>12</title>
<ellipse fill="none" stroke="#000000" cx="415.286" cy="-105" rx="124.5782" ry="18"/>
<text text-anchor="middle" x="415.286" y="-101.3" font-family="Times,serif" font-size="14.00" fill="#000000">id:12 rank:1 shape: (10,)</text>
</g>
<!-- 11&#45;&gt;12 -->
<g id="edge10" class="edge">
<title>11&#45;&gt;12</title>
<path fill="none" stroke="#000000" d="M415.286,-173.9735C415.286,-162.1918 415.286,-146.5607 415.286,-133.1581"/>
<polygon fill="#000000" stroke="#000000" points="418.7861,-133.0033 415.286,-123.0034 411.7861,-133.0034 418.7861,-133.0033"/>
<text text-anchor="middle" x="610.286" y="-144.8" font-family="Times,serif" font-size="14.00" fill="#000000">Linear(in_features=640, out_features=10, bias=True)</text>
</g>
<!-- 12&#45;&gt;2 -->
<g id="edge11" class="edge">
<title>12&#45;&gt;2</title>
<path fill="none" stroke="#000000" d="M415.286,-86.9735C415.286,-75.1918 415.286,-59.5607 415.286,-46.1581"/>
<polygon fill="#000000" stroke="#000000" points="418.7861,-46.0033 415.286,-36.0034 411.7861,-46.0034 418.7861,-46.0033"/>
<text text-anchor="middle" x="471.786" y="-57.8" font-family="Times,serif" font-size="14.00" fill="#000000">Dropout(p=0.2)</text>
</g>
<!-- 13 -->
<g id="node13" class="node">
<title>13</title>
<ellipse fill="none" stroke="#000000" cx="415.286" cy="-975" rx="163.2712" ry="18"/>
<text text-anchor="middle" x="415.286" y="-971.3" font-family="Times,serif" font-size="14.00" fill="#000000">id:13 rank:2 shape: (576, 16, 16)</text>
</g>
<!-- 29 -->
<g id="node29" class="node">
<title>29</title>
<ellipse fill="none" stroke="#000000" cx="415.286" cy="-888" rx="151.3732" ry="18"/>
<text text-anchor="middle" x="415.286" y="-884.3" font-family="Times,serif" font-size="14.00" fill="#000000">id:29 rank:2 shape: (576, 8, 8)</text>
</g>
<!-- 13&#45;&gt;29 -->
<g id="edge29" class="edge">
<title>13&#45;&gt;29</title>
<path fill="none" stroke="#000000" d="M415.286,-956.9735C415.286,-945.1918 415.286,-929.5607 415.286,-916.1581"/>
<polygon fill="#000000" stroke="#000000" points="418.7861,-916.0033 415.286,-906.0034 411.7861,-916.0034 418.7861,-916.0033"/>
<text text-anchor="middle" x="631.786" y="-927.8" font-family="Times,serif" font-size="14.00" fill="#000000">AvgPool2d(kernel_size=(2, 2), stride=(2, 2), padding=(0, 0))</text>
</g>
<!-- 15 -->
<g id="node15" class="node">
<title>15</title>
<ellipse fill="none" stroke="#000000" cx="279.286" cy="-1953" rx="157.0724" ry="18"/>
<text text-anchor="middle" x="279.286" y="-1949.3" font-family="Times,serif" font-size="14.00" fill="#000000">id:15 rank:1 shape: (64, 16, 16)</text>
</g>
<!-- 14&#45;&gt;15 -->
<g id="edge14" class="edge">
<title>14&#45;&gt;15</title>
<path fill="none" stroke="#000000" d="M127.5941,-2022.2261C115.0857,-2012.4998 105.2785,-2000.1847 114.286,-1989 121.3429,-1980.2374 138.9978,-1973.4933 160.2621,-1968.3448"/>
<polygon fill="#000000" stroke="#000000" points="161.276,-1971.7042 170.2611,-1966.0901 159.7361,-1964.8756 161.276,-1971.7042"/>
<text text-anchor="middle" x="431.786" y="-1992.8" font-family="Times,serif" font-size="14.00" fill="#000000">BatchNorm2d(64, eps=1e&#45;05, momentum=0.1, affine=True, track_running_stats=True)</text>
</g>
<!-- 16 -->
<g id="node16" class="node">
<title>16</title>
<ellipse fill="none" stroke="#000000" cx="330.286" cy="-1812" rx="157.0724" ry="18"/>
<text text-anchor="middle" x="330.286" y="-1808.3" font-family="Times,serif" font-size="14.00" fill="#000000">id:16 rank:1 shape: (64, 16, 16)</text>
</g>
<!-- 15&#45;&gt;16 -->
<g id="edge15" class="edge">
<title>15&#45;&gt;16</title>
<path fill="none" stroke="#000000" d="M285.849,-1934.8554C294.5706,-1910.7428 310.063,-1867.9107 320.2554,-1839.7319"/>
<polygon fill="#000000" stroke="#000000" points="323.6382,-1840.6693 323.7483,-1830.075 317.0555,-1838.2883 323.6382,-1840.6693"/>
<text text-anchor="middle" x="322.786" y="-1905.8" font-family="Times,serif" font-size="14.00" fill="#000000">ReLU()</text>
</g>
<!-- 16&#45;&gt;13 -->
<g id="edge12" class="edge">
<title>16&#45;&gt;13</title>
<path fill="none" stroke="#000000" d="M353.262,-1794.1408C373.3342,-1776.3521 399.286,-1747.0572 399.286,-1714.5 399.286,-1714.5 399.286,-1714.5 399.286,-1062 399.286,-1042.0329 403.413,-1019.9069 407.475,-1002.9652"/>
<polygon fill="#000000" stroke="#000000" points="410.898,-1003.7052 409.9583,-993.1521 404.1119,-1001.9879 410.898,-1003.7052"/>
<text text-anchor="middle" x="406.286" y="-1406.3" font-family="Times,serif" font-size="14.00" fill="#000000">id</text>
</g>
<!-- 18 -->
<g id="node18" class="node">
<title>18</title>
<ellipse fill="none" stroke="#000000" cx="693.286" cy="-1953" rx="157.0724" ry="18"/>
<text text-anchor="middle" x="693.286" y="-1949.3" font-family="Times,serif" font-size="14.00" fill="#000000">id:18 rank:1 shape: (64, 16, 16)</text>
</g>
<!-- 17&#45;&gt;18 -->
<g id="edge17" class="edge">
<title>17&#45;&gt;18</title>
<path fill="none" stroke="#000000" d="M767.5027,-2021.9757C765.1432,-2011.468 760.878,-1998.4643 753.286,-1989 749.5365,-1984.3258 745.0042,-1980.1162 740.1301,-1976.3659"/>
<polygon fill="#000000" stroke="#000000" points="741.8896,-1973.3262 731.6823,-1970.4868 737.891,-1979.0718 741.8896,-1973.3262"/>
<text text-anchor="middle" x="818.786" y="-1992.8" font-family="Times,serif" font-size="14.00" fill="#000000">Dropout(p=0.2)</text>
</g>
<!-- 19 -->
<g id="node19" class="node">
<title>19</title>
<ellipse fill="none" stroke="#000000" cx="692.286" cy="-1866" rx="157.0724" ry="18"/>
<text text-anchor="middle" x="692.286" y="-1862.3" font-family="Times,serif" font-size="14.00" fill="#000000">id:19 rank:1 shape: (64, 16, 16)</text>
</g>
<!-- 18&#45;&gt;19 -->
<g id="edge18" class="edge">
<title>18&#45;&gt;19</title>
<path fill="none" stroke="#000000" d="M693.0788,-1934.9735C692.9434,-1923.1918 692.7638,-1907.5607 692.6097,-1894.1581"/>
<polygon fill="#000000" stroke="#000000" points="696.1078,-1893.9624 692.493,-1884.0034 689.1082,-1894.043 696.1078,-1893.9624"/>
<text text-anchor="middle" x="1010.786" y="-1905.8" font-family="Times,serif" font-size="14.00" fill="#000000">BatchNorm2d(64, eps=1e&#45;05, momentum=0.1, affine=True, track_running_stats=True)</text>
</g>
<!-- 20 -->
<g id="node20" class="node">
<title>20</title>
<ellipse fill="none" stroke="#000000" cx="643.286" cy="-1758" rx="157.0724" ry="18"/>
<text text-anchor="middle" x="643.286" y="-1754.3" font-family="Times,serif" font-size="14.00" fill="#000000">id:20 rank:1 shape: (64, 16, 16)</text>
</g>
<!-- 19&#45;&gt;20 -->
<g id="edge19" class="edge">
<title>19&#45;&gt;20</title>
<path fill="none" stroke="#000000" d="M683.9739,-1847.6793C676.219,-1830.5868 664.5475,-1804.8619 655.6909,-1785.3413"/>
<polygon fill="#000000" stroke="#000000" points="658.7945,-1783.7106 651.4755,-1776.0502 652.4199,-1786.6028 658.7945,-1783.7106"/>
<text text-anchor="middle" x="700.786" y="-1808.3" font-family="Times,serif" font-size="14.00" fill="#000000">ReLU()</text>
</g>
<!-- 21 -->
<g id="node21" class="node">
<title>21</title>
<ellipse fill="none" stroke="#000000" cx="618.286" cy="-1671" rx="163.2712" ry="18"/>
<text text-anchor="middle" x="618.286" y="-1667.3" font-family="Times,serif" font-size="14.00" fill="#000000">id:21 rank:1 shape: (128, 16, 16)</text>
</g>
<!-- 20&#45;&gt;21 -->
<g id="edge20" class="edge">
<title>20&#45;&gt;21</title>
<path fill="none" stroke="#000000" d="M638.106,-1739.9735C634.6869,-1728.0751 630.1397,-1712.2508 626.2632,-1698.7606"/>
<polygon fill="#000000" stroke="#000000" points="629.5852,-1697.6478 623.4594,-1689.0034 622.8574,-1699.5811 629.5852,-1697.6478"/>
<text text-anchor="middle" x="914.286" y="-1710.8" font-family="Times,serif" font-size="14.00" fill="#000000">Conv2d(64, 128, kernel_size=(3, 3), stride=(1, 1), padding=(1, 1), bias=False)</text>
</g>
<!-- 22 -->
<g id="node22" class="node">
<title>22</title>
<ellipse fill="none" stroke="#000000" cx="606.286" cy="-1584" rx="163.2712" ry="18"/>
<text text-anchor="middle" x="606.286" y="-1580.3" font-family="Times,serif" font-size="14.00" fill="#000000">id:22 rank:1 shape: (128, 16, 16)</text>
</g>
<!-- 21&#45;&gt;22 -->
<g id="edge21" class="edge">
<title>21&#45;&gt;22</title>
<path fill="none" stroke="#000000" d="M615.7996,-1652.9735C614.1746,-1641.1918 612.0185,-1625.5607 610.1699,-1612.1581"/>
<polygon fill="#000000" stroke="#000000" points="613.6029,-1611.4313 608.7693,-1602.0034 606.6686,-1612.3878 613.6029,-1611.4313"/>
<text text-anchor="middle" x="669.786" y="-1623.8" font-family="Times,serif" font-size="14.00" fill="#000000">Dropout(p=0.2)</text>
</g>
<!-- 23 -->
<g id="node23" class="node">
<title>23</title>
<ellipse fill="none" stroke="#000000" cx="600.286" cy="-1497" rx="163.2712" ry="18"/>
<text text-anchor="middle" x="600.286" y="-1493.3" font-family="Times,serif" font-size="14.00" fill="#000000">id:23 rank:1 shape: (128, 16, 16)</text>
</g>
<!-- 22&#45;&gt;23 -->
<g id="edge22" class="edge">
<title>22&#45;&gt;23</title>
<path fill="none" stroke="#000000" d="M605.0428,-1565.9735C604.2303,-1554.1918 603.1523,-1538.5607 602.228,-1525.1581"/>
<polygon fill="#000000" stroke="#000000" points="605.7075,-1524.7388 601.5277,-1515.0034 598.7241,-1525.2205 605.7075,-1524.7388"/>
<text text-anchor="middle" x="926.286" y="-1536.8" font-family="Times,serif" font-size="14.00" fill="#000000">BatchNorm2d(128, eps=1e&#45;05, momentum=0.1, affine=True, track_running_stats=True)</text>
</g>
<!-- 24 -->
<g id="node24" class="node">
<title>24</title>
<ellipse fill="none" stroke="#000000" cx="596.286" cy="-1410" rx="163.2712" ry="18"/>
<text text-anchor="middle" x="596.286" y="-1406.3" font-family="Times,serif" font-size="14.00" fill="#000000">id:24 rank:1 shape: (128, 16, 16)</text>
</g>
<!-- 23&#45;&gt;24 -->
<g id="edge23" class="edge">
<title>23&#45;&gt;24</title>
<path fill="none" stroke="#000000" d="M599.4572,-1478.9735C598.9156,-1467.1918 598.1969,-1451.5607 597.5807,-1438.1581"/>
<polygon fill="#000000" stroke="#000000" points="601.0695,-1437.832 597.1138,-1428.0034 594.0769,-1438.1536 601.0695,-1437.832"/>
<text text-anchor="middle" x="624.786" y="-1449.8" font-family="Times,serif" font-size="14.00" fill="#000000">ReLU()</text>
</g>
<!-- 25 -->
<g id="node25" class="node">
<title>25</title>
<ellipse fill="none" stroke="#000000" cx="593.286" cy="-1323" rx="163.2712" ry="18"/>
<text text-anchor="middle" x="593.286" y="-1319.3" font-family="Times,serif" font-size="14.00" fill="#000000">id:25 rank:1 shape: (512, 16, 16)</text>
</g>
<!-- 24&#45;&gt;25 -->
<g id="edge24" class="edge">
<title>24&#45;&gt;25</title>
<path fill="none" stroke="#000000" d="M595.6644,-1391.9735C595.2582,-1380.1918 594.7192,-1364.5607 594.257,-1351.1581"/>
<polygon fill="#000000" stroke="#000000" points="597.7495,-1350.8768 593.9068,-1341.0034 590.7536,-1351.1181 597.7495,-1350.8768"/>
<text text-anchor="middle" x="881.786" y="-1362.8" font-family="Times,serif" font-size="14.00" fill="#000000">Conv2d(128, 512, kernel_size=(3, 3), stride=(1, 1), padding=(1, 1), bias=False)</text>
</g>
<!-- 26 -->
<g id="node26" class="node">
<title>26</title>
<ellipse fill="none" stroke="#000000" cx="591.286" cy="-1236" rx="163.2712" ry="18"/>
<text text-anchor="middle" x="591.286" y="-1232.3" font-family="Times,serif" font-size="14.00" fill="#000000">id:26 rank:1 shape: (512, 16, 16)</text>
</g>
<!-- 25&#45;&gt;26 -->
<g id="edge25" class="edge">
<title>25&#45;&gt;26</title>
<path fill="none" stroke="#000000" d="M592.8716,-1304.9735C592.6008,-1293.1918 592.2415,-1277.5607 591.9334,-1264.1581"/>
<polygon fill="#000000" stroke="#000000" points="595.4289,-1263.9202 591.6999,-1254.0034 588.4308,-1264.0812 595.4289,-1263.9202"/>
<text text-anchor="middle" x="649.786" y="-1275.8" font-family="Times,serif" font-size="14.00" fill="#000000">Dropout(p=0.2)</text>
</g>
<!-- 27 -->
<g id="node27" class="node">
<title>27</title>
<ellipse fill="none" stroke="#000000" cx="590.286" cy="-1149" rx="163.2712" ry="18"/>
<text text-anchor="middle" x="590.286" y="-1145.3" font-family="Times,serif" font-size="14.00" fill="#000000">id:27 rank:1 shape: (512, 16, 16)</text>
</g>
<!-- 26&#45;&gt;27 -->
<g id="edge26" class="edge">
<title>26&#45;&gt;27</title>
<path fill="none" stroke="#000000" d="M591.0788,-1217.9735C590.9434,-1206.1918 590.7638,-1190.5607 590.6097,-1177.1581"/>
<polygon fill="#000000" stroke="#000000" points="594.1078,-1176.9624 590.493,-1167.0034 587.1082,-1177.043 594.1078,-1176.9624"/>
<text text-anchor="middle" x="913.286" y="-1188.8" font-family="Times,serif" font-size="14.00" fill="#000000">BatchNorm2d(512, eps=1e&#45;05, momentum=0.1, affine=True, track_running_stats=True)</text>
</g>
<!-- 28 -->
<g id="node28" class="node">
<title>28</title>
<ellipse fill="none" stroke="#000000" cx="590.286" cy="-1062" rx="163.2712" ry="18"/>
<text text-anchor="middle" x="590.286" y="-1058.3" font-family="Times,serif" font-size="14.00" fill="#000000">id:28 rank:1 shape: (512, 16, 16)</text>
</g>
<!-- 27&#45;&gt;28 -->
<g id="edge27" class="edge">
<title>27&#45;&gt;28</title>
<path fill="none" stroke="#000000" d="M590.286,-1130.9735C590.286,-1119.1918 590.286,-1103.5607 590.286,-1090.1581"/>
<polygon fill="#000000" stroke="#000000" points="593.7861,-1090.0033 590.286,-1080.0034 586.7861,-1090.0034 593.7861,-1090.0033"/>
<text text-anchor="middle" x="615.786" y="-1101.8" font-family="Times,serif" font-size="14.00" fill="#000000">ReLU()</text>
</g>
<!-- 28&#45;&gt;13 -->
<g id="edge28" class="edge">
<title>28&#45;&gt;13</title>
<path fill="none" stroke="#000000" d="M554.8722,-1044.3943C527.4755,-1030.7742 489.3676,-1011.8291 459.8901,-997.1746"/>
<polygon fill="#000000" stroke="#000000" points="461.1598,-993.8972 450.6472,-992.5796 458.0436,-1000.1653 461.1598,-993.8972"/>
<text text-anchor="middle" x="520.286" y="-1014.8" font-family="Times,serif" font-size="14.00" fill="#000000">id</text>
</g>
<!-- 31 -->
<g id="node31" class="node">
<title>31</title>
<ellipse fill="none" stroke="#000000" cx="415.286" cy="-801" rx="151.3732" ry="18"/>
<text text-anchor="middle" x="415.286" y="-797.3" font-family="Times,serif" font-size="14.00" fill="#000000">id:31 rank:2 shape: (576, 8, 8)</text>
</g>
<!-- 29&#45;&gt;31 -->
<g id="edge31" class="edge">
<title>29&#45;&gt;31</title>
<path fill="none" stroke="#000000" d="M415.286,-869.9735C415.286,-858.1918 415.286,-842.5607 415.286,-829.1581"/>
<polygon fill="#000000" stroke="#000000" points="418.7861,-829.0033 415.286,-819.0034 411.7861,-829.0034 418.7861,-829.0033"/>
<text text-anchor="middle" x="701.786" y="-840.8" font-family="Times,serif" font-size="14.00" fill="#000000">Conv2d(576, 576, kernel_size=(3, 3), stride=(1, 1), padding=(1, 1), bias=False)</text>
</g>
<!-- 30 -->
<g id="node30" class="node">
<title>30</title>
<ellipse fill="none" stroke="#000000" cx="415.286" cy="-540" rx="151.3732" ry="18"/>
<text text-anchor="middle" x="415.286" y="-536.3" font-family="Times,serif" font-size="14.00" fill="#000000">id:30 rank:3 shape: (576, 8, 8)</text>
</g>
<!-- 30&#45;&gt;8 -->
<g id="edge6" class="edge">
<title>30&#45;&gt;8</title>
<path fill="none" stroke="#000000" d="M415.286,-521.9735C415.286,-510.1918 415.286,-494.5607 415.286,-481.1581"/>
<polygon fill="#000000" stroke="#000000" points="418.7861,-481.0033 415.286,-471.0034 411.7861,-481.0034 418.7861,-481.0033"/>
<text text-anchor="middle" x="556.286" y="-492.8" font-family="Times,serif" font-size="14.00" fill="#000000">AdaptiveAvgPool2d(output_size=(1, 1))</text>
</g>
<!-- 32 -->
<g id="node32" class="node">
<title>32</title>
<ellipse fill="none" stroke="#000000" cx="415.286" cy="-714" rx="151.3732" ry="18"/>
<text text-anchor="middle" x="415.286" y="-710.3" font-family="Times,serif" font-size="14.00" fill="#000000">id:32 rank:2 shape: (576, 8, 8)</text>
</g>
<!-- 31&#45;&gt;32 -->
<g id="edge32" class="edge">
<title>31&#45;&gt;32</title>
<path fill="none" stroke="#000000" d="M415.286,-782.9735C415.286,-771.1918 415.286,-755.5607 415.286,-742.1581"/>
<polygon fill="#000000" stroke="#000000" points="418.7861,-742.0033 415.286,-732.0034 411.7861,-742.0034 418.7861,-742.0033"/>
<text text-anchor="middle" x="737.286" y="-753.8" font-family="Times,serif" font-size="14.00" fill="#000000">BatchNorm2d(576, eps=1e&#45;05, momentum=0.1, affine=True, track_running_stats=True)</text>
</g>
<!-- 33 -->
<g id="node33" class="node">
<title>33</title>
<ellipse fill="none" stroke="#000000" cx="415.286" cy="-627" rx="151.3732" ry="18"/>
<text text-anchor="middle" x="415.286" y="-623.3" font-family="Times,serif" font-size="14.00" fill="#000000">id:33 rank:2 shape: (576, 8, 8)</text>
</g>
<!-- 32&#45;&gt;33 -->
<g id="edge33" class="edge">
<title>32&#45;&gt;33</title>
<path fill="none" stroke="#000000" d="M415.286,-695.9735C415.286,-684.1918 415.286,-668.5607 415.286,-655.1581"/>
<polygon fill="#000000" stroke="#000000" points="418.7861,-655.0033 415.286,-645.0034 411.7861,-655.0034 418.7861,-655.0033"/>
<text text-anchor="middle" x="440.786" y="-666.8" font-family="Times,serif" font-size="14.00" fill="#000000">ReLU()</text>
</g>
<!-- 33&#45;&gt;30 -->
<g id="edge30" class="edge">
<title>33&#45;&gt;30</title>
<path fill="none" stroke="#000000" d="M415.286,-608.9735C415.286,-597.1918 415.286,-581.5607 415.286,-568.1581"/>
<polygon fill="#000000" stroke="#000000" points="418.7861,-568.0033 415.286,-558.0034 411.7861,-568.0034 418.7861,-568.0033"/>
<text text-anchor="middle" x="422.286" y="-579.8" font-family="Times,serif" font-size="14.00" fill="#000000">id</text>
</g>
</g>
</svg>
